/* XPM */
static char *result[] = {
/* columns rows colors chars-per-pixel */
"64 64 9 1 ",
"  c black",
". c #4D3533",
"X c #63413D",
"o c #704844",
"O c #898989",
"+ c #A4A4A4",
"@ c gray81",
"# c white",
"$ c None",
/* pixels */
"$$$$$$$$$$$$$$$$                                $$$$$$$$$$$$$$$$",
"$$$$$$$$$$$$$$$$                                $$$$$$$$$$$$$$$$",
"$$$$$$$$$$$$$$$$                                $$$$$$$$$$$$$$$$",
"$$$$$$$$$$$$$$$$                                $$$$$$$$$$$$$$$$",
"$$$$$$$$        oooooooooooo################@@@@        $$$$$$$$",
"$$$$$$$$        oooooooooooo################@@@@        $$$$$$$$",
"$$$$$$$$        oooooooooooo################@@@@        $$$$$$$$",
"$$$$$$$$        oooooooooooo################@@@@        $$$$$$$$",
"$$$$    ++++XXXXoooooooo####################ooooXXXXOOOO    $$$$",
"$$$$    ++++XXXXoooooooo####################ooooXXXXOOOO    $$$$",
"$$$$    ++++XXXXoooooooo####################ooooXXXXOOOO    $$$$",
"$$$$    ++++XXXXoooooooo####################ooooXXXXOOOO    $$$$",
"    ++++++++XXXXoooo####################ooooooooXXXXOOOOOOOO    ",
"    ++++++++XXXXoooo####################ooooooooXXXXOOOOOOOO    ",
"    ++++++++XXXXoooo####################ooooooooXXXXOOOOOOOO    ",
"    ++++++++XXXXoooo####################ooooooooXXXXOOOOOOOO    ",
"    ++++++++XXXX####################ooooooooooooXXXXOOOOOOOO    ",
"    ++++++++XXXX####################ooooooooooooXXXXOOOOOOOO    ",
"    ++++++++XXXX####################ooooooooooooXXXXOOOOOOOO    ",
"    ++++++++XXXX####################ooooooooooooXXXXOOOOOOOO    ",
"    OOOOOOOO####################ooooooooooooooooXXXX++++++++    ",
"    OOOOOOOO####################ooooooooooooooooXXXX++++++++    ",
"    OOOOOOOO####################ooooooooooooooooXXXX++++++++    ",
"    OOOOOOOO####################ooooooooooooooooXXXX++++++++    ",
"    OOOO####################ooooooooooooooooooooXXXX++++++++    ",
"    OOOO####################ooooooooooooooooooooXXXX++++++++    ",
"    OOOO####################ooooooooooooooooooooXXXX++++++++    ",
"    OOOO####################ooooooooooooooooooooXXXX++++++++    ",
"    ####################ooooooooooooooooooooXXXXXXXX++++++++    ",
"    ####################ooooooooooooooooooooXXXXXXXX++++++++    ",
"    ####################ooooooooooooooooooooXXXXXXXX++++++++    ",
"    ####################ooooooooooooooooooooXXXXXXXX++++++++    ",
"    ################XXXXXXXX++++++++XXXXXXXXXXXXXXXX++++++++    ",
"    ################XXXXXXXX++++++++XXXXXXXXXXXXXXXX++++++++    ",
"    ################XXXXXXXX++++++++XXXXXXXXXXXXXXXX++++++++    ",
"    ################XXXXXXXX++++++++XXXXXXXXXXXXXXXX++++++++    ",
"    ############OOOOOOOO++++++++++++++++OOOOOOOOOOOOOOOOOOOO    ",
"    ############OOOOOOOO++++++++++++++++OOOOOOOOOOOOOOOOOOOO    ",
"    ############OOOOOOOO++++++++++++++++OOOOOOOOOOOOOOOOOOOO    ",
"    ############OOOOOOOO++++++++++++++++OOOOOOOOOOOOOOOOOOOO    ",
"    ########........oooo++++        ++++oooo........OOOOOOOO    ",
"    ########........oooo++++        ++++oooo........OOOOOOOO    ",
"    ########........oooo++++        ++++oooo........OOOOOOOO    ",
"    ########........oooo++++        ++++oooo........OOOOOOOO    ",
"    ####OOOO....oooooooooooo++++++++oooooooooooo....OOOOOOOO    ",
"    ####OOOO....oooooooooooo++++++++oooooooooooo....OOOOOOOO    ",
"    ####OOOO....oooooooooooo++++++++oooooooooooo....OOOOOOOO    ",
"    ####OOOO....oooooooooooo++++++++oooooooooooo....OOOOOOOO    ",
"    OOOOOOOO....oooooooooooooooooooooooooooooooo....OOOOOOOO    ",
"    OOOOOOOO....oooooooooooooooooooooooooooooooo....OOOOOOOO    ",
"    OOOOOOOO....oooooooooooooooooooooooooooooooo....OOOOOOOO    ",
"    OOOOOOOO....oooooooooooooooooooooooooooooooo....OOOOOOOO    ",
"    OOOOOOOO....oooooooooooooooooooooooooooooooo....OOOOOOOO    ",
"    OOOOOOOO....oooooooooooooooooooooooooooooooo....OOOOOOOO    ",
"    OOOOOOOO....oooooooooooooooooooooooooooooooo....OOOOOOOO    ",
"    OOOOOOOO....oooooooooooooooooooooooooooooooo....OOOOOOOO    ",
"    OOOOOOOO........oooooooooooooooooooooooo........OOOOOOOO    ",
"    OOOOOOOO........oooooooooooooooooooooooo........OOOOOOOO    ",
"    OOOOOOOO........oooooooooooooooooooooooo........OOOOOOOO    ",
"    OOOOOOOO........oooooooooooooooooooooooo........OOOOOOOO    ",
"$$$$                                                        $$$$",
"$$$$                                                        $$$$",
"$$$$                                                        $$$$",
"$$$$                                                        $$$$"
};
