/* XPM */
static char *result[] = {
/* columns rows colors chars-per-pixel */
"64 64 9 1 ",
"  c black",
". c #4D3533",
"X c #63413D",
"o c #704844",
"O c #898989",
"+ c #A4A4A4",
"@ c #DFDFDF",
"# c white",
"$ c None",
/* pixels */
"$$$$$$$$$$$$$$$$$$$$$$$$$$$$$$$$$$$$$$$$$$$$$$$$$$$$$$$$$$$$$$$$",
"$$$$$$$$$$$$$$$$$$$$$$$$$$$$$$$$$$$$$$$$$$$$$$$$$$$$$$$$$$$$$$$$",
"$$$$$$$$$$$$$$$$$$$$$$$$$$$$$$$$$$$$$$$$$$$$$$$$$$$$$$$$$$$$$$$$",
"$$$$$$$$$$$$$$$$$$$$$$$$$$$$$$$$$$$$$$$$$$$$$$$$$$$$$$$$$$$$$$$$",
"$$$$$$$$$$$$$$$$$$$$$$$$$$$$$$$$$$$$$$$$$$$$$$$$$$$$$$$$$$$$$$$$",
"$$$$$$$$$$$$$$$$$$$$$$$$$$$$$$$$$$$$$$$$$$$$$$$$$$$$$$$$$$$$$$$$",
"$$$$$$$$$$$$$$$$$$$$$$$$$$$$$$$$$$$$$$$$$$$$$$$$$$$$$$$$$$$$$$$$",
"$$$$$$$$$$$$$$$$$$$$$$$$$$$$$$$$$$$$$$$$$$$$$$$$$$$$$$$$$$$$$$$$",
"$$$$$$$$$$$$$$$$$$$$$$$$$$$$$$$$$$$$$$$$$$$$$$$$$$$$$$$$$$$$$$$$",
"$$$$$$$$$$$$$$$$$$$$$$$$$$$$$$$$$$$$$$$$$$$$$$$$$$$$$$$$$$$$$$$$",
"$$$$$$$$$$$$$$$$$$$$$$$$$$$$$$$$$$$$$$$$$$$$$$$$$$$$$$$$$$$$$$$$",
"$$$$$$$$$$$$$$$$$$$$$$$$$$$$$$$$$$$$$$$$$$$$$$$$$$$$$$$$$$$$$$$$",
"$$$$$$$$$$$$$$$$$$$$$$$$$$$$$$$$$$$$$$$$$$$$$$$$$$$$$$$$$$$$$$$$",
"$$$$$$$$$$$$$$$$$$$$$$$$$$$$$$$$$$$$$$$$$$$$$$$$$$$$$$$$$$$$$$$$",
"$$$$$$$$$$$$$$$$$$$$$$$$$$$$$$$$$$$$$$$$$$$$$$$$$$$$$$$$$$$$$$$$",
"$$$$$$$$$$$$$$$$$$$$$$$$$$$$$$$$$$$$$$$$$$$$$$$$$$$$$$$$$$$$$$$$",
"$$$$$$$$$$$$$$$$$$$$$$$$$$$$$$$$$$$$$$$$$$$$$$$$$$$$$$$$$$$$$$$$",
"$$$$$$$$$$$$$$$$$$$$$$$$$$$$$$$$$$$$$$$$$$$$$$$$$$$$$$$$$$$$$$$$",
"$$$$$$$$$$$$$$$$$$$$$$$$$$$$$$$$$$$$$$$$$$$$$$$$$$$$$$$$$$$$$$$$",
"$$$$$$$$$$$$$$$$$$$$$$$$$$$$$$$$$$$$$$$$$$$$$$$$$$$$$$$$$$$$$$$$",
"$$$$$$$$$$$$$$$$$$$$$$$$$$$$$$$$$$$$$$$$$$$$$$$$$$$$$$$$$$$$$$$$",
"$$$$$$$$$$$$$$$$$$$$$$$$$$$$$$$$$$$$$$$$$$$$$$$$$$$$$$$$$$$$$$$$",
"$$$$$$$$$$$$$$$$$$$$$$$$$$$$$$$$$$$$$$$$$$$$$$$$$$$$$$$$$$$$$$$$",
"$$$$$$$$$$$$$$$$$$$$$$$$$$$$$$$$$$$$$$$$$$$$$$$$$$$$$$$$$$$$$$$$",
"$$$$$$$$$$$$$$$$$$$$$$$$$$$$$$$$$$$$$$$$$$$$$$$$$$$$$$$$$$$$$$$$",
"$$$$$$$$$$$$$$$$$$$$$$$$$$$$$$$$$$$$$$$$$$$$$$$$$$$$$$$$$$$$$$$$",
"$$$$$$$$$$$$$$$$$$$$$$$$$$$$$$$$$$$$$$$$$$$$$$$$$$$$$$$$$$$$$$$$",
"$$$$$$$$$$$$$$$$$$$$$$$$$$$$$$$$$$$$$$$$$$$$$$$$$$$$$$$$$$$$$$$$",
"$$$$$$$$$$$$$$$$$$$$$$$$$$$$$$$$$$$$$$$$$$$$$$$$$$$$$$$$$$$$$$$$",
"$$$$$$$$$$$$$$$$$$$$$$$$$$$$$$$$$$$$$$$$$$$$$$$$$$$$$$$$$$$$$$$$",
"$$$$$$$$$$$$$$$$$$$$$$$$$$$$$$$$$$$$$$$$$$$$$$$$$$$$$$$$$$$$$$$$",
"$$$$$$$$$$$$$$$$$$$$$$$$$$$$$$$$$$$$$$$$$$$$$$$$$$$$$$$$$$$$$$$$",
"$$$$$$$$$$$$$$$$$$$$$$$$                $$$$$$$$$$$$$$$$$$$$$$$$",
"$$$$$$$$$$$$$$$$$$$$$$$$                $$$$$$$$$$$$$$$$$$$$$$$$",
"$$$$$$$$$$$$$$$$$$$$    oooooooooooooooo    $$$$$$$$$$$$$$$$$$$$",
"$$$$$$$$$$$$$$$$$$$$    oooooooooooooooo    $$$$$$$$$$$$$$$$$$$$",
"$$$$$$$$$$$$$$$$$$  ++XXooooooooooooooooXXOO  $$$$$$$$$$$$$$$$$$",
"$$$$$$$$$$$$$$$$$$  ++XXooooooooooooooooXXOO  $$$$$$$$$$$$$$$$$$",
"$$$$$$$$$$$$$$$$  ++++XXooooooooooooooooXXOOOO  $$$$$$$$$$$$$$$$",
"$$$$$$$$$$$$$$$$  ++++XXooooooooooooooooXXOOOO  $$$$$$$$$$$$$$$$",
"$$$$$$$$$$$$$$$$  ++++XXooooooooooooooooXXOOOO  $$$$$$$$$$$$$$$$",
"$$$$$$$$$$$$$$$$  ++++XXooooooooooooooooXXOOOO  $$$$$$$$$$$$$$$$",
"$$$$$$$$$$$$$$$$  OOOOXXooooooooooooooooXX++++  $$$$$$$$$$$$$$$$",
"$$$$$$$$$$$$$$$$  OOOOXXooooooooooooooooXX++++  $$$$$$$$$$$$$$$$",
"$$$$$$$$$$$$$$$$  OOOOXXooooooooooooooooXX++++  $$$$$$$$$$$$$$$$",
"$$$$$$$$$$$$$$$$  OOOOXXooooooooooooooooXX++++  $$$$$$$$$$$$$$$$",
"$$$$$$$$$$$$$$$$  OOOOXXXXooooooooooooXXXX++++  $$$$$$$$$$$$$$$$",
"$$$$$$$$$$$$$$$$  OOOOXXXXooooooooooooXXXX++++  $$$$$$$$$$$$$$$$",
"$$$$$$$$$$$$$$$$  OOOOXXXXooooooooooooXXXX++++  $$$$$$$$$$$$$$$$",
"$$$$$$$$$$$$$$$$  ++++XXXXXXXX++++XXXXXXXX++++  $$$$$$$$$$$$$$$$",
"$$$$$$$$$$$$$$$$  ++++XXXXXXXX++++XXXXXXXX++++  $$$$$$$$$$$$$$$$",
"$$$$$$$$$$$$$$$$  OOOOOOOOOO++++++++OOOOOOOOOO  $$$$$$$$$$$$$$$$",
"$$$$$$$$$$$$$$$$  OOOOOOOOOO++++++++OOOOOOOOOO  $$$$$$$$$$$$$$$$",
"$$$$$$$$$$$$$$$$  OOOO....oo++    ++oo....OOOO  $$$$$$$$$$$$$$$$",
"$$$$$$$$$$$$$$$$  OOOO....oo++    ++oo....OOOO  $$$$$$$$$$$$$$$$",
"$$$$$$$$$$$$$$$$  OOOO..oooooo++++oooooo..OOOO  $$$$$$$$$$$$$$$$",
"$$$$$$$$$$$$$$$$  OOOO..oooooo++++oooooo..OOOO  $$$$$$$$$$$$$$$$",
"$$$$$$$$$$$$$$$$  OOOO..oooooooooooooooo..OO##  $$$$$$$$$$$$$$$$",
"$$$$$$$$$$$$$$$$  OOOO..oooooooooooooooo..OO##  $$$$$$$$$$$$$$$$",
"$$$$$$$$$$$$$$$$  OOOO..oooooooooooooooo..####  $$$$$$$$$$$$$$$$",
"$$$$$$$$$$$$$$$$  OOOO..oooooooooooooooo..####  $$$$$$$$$$$$$$$$",
"$$$$$$$$$$$$$$$$  OOOO....oooooooooooo..####@@  $$$$$$$$$$$$$$$$",
"$$$$$$$$$$$$$$$$  OOOO....oooooooooooo..####@@  $$$$$$$$$$$$$$$$",
"$$$$$$$$$$$$$$$$$$                            $$$$$$$$$$$$$$$$$$"
};
