/* XPM */
static char *result[] = {
/* columns rows colors chars-per-pixel */
"64 64 3 1 ",
"  c gray19",
". c #D79B4D",
"X c None",
/* pixels */
"XXXXXXXXXXXXXXXXXXXXXXXX                XXXXXXXXXXXXXXXXXXXXXXXX",
"XXXXXXXXXXXXXXXXXXXXXXXX                XXXXXXXXXXXXXXXXXXXXXXXX",
"XXXXXXXXXXXXXXXXXXXXXXXX                XXXXXXXXXXXXXXXXXXXXXXXX",
"XXXXXXXXXXXXXXXXXXXXXXXX                XXXXXXXXXXXXXXXXXXXXXXXX",
"XXXXXXXXXXXXXXXXXXXXXXXX                XXXXXXXXXXXXXXXXXXXXXXXX",
"XXXXXXXXXXXXXXXXXXXXXXXX                XXXXXXXXXXXXXXXXXXXXXXXX",
"XXXXXXXXXXXXXXXXXXXXXXXX                XXXXXXXXXXXXXXXXXXXXXXXX",
"XXXXXXXXXXXXXXXXXXXXXXXX                XXXXXXXXXXXXXXXXXXXXXXXX",
"XXXXXXXXXXXXXXXX        ................        XXXXXXXXXXXXXXXX",
"XXXXXXXXXXXXXXXX        ................        XXXXXXXXXXXXXXXX",
"XXXXXXXXXXXXXXXX        ................        XXXXXXXXXXXXXXXX",
"XXXXXXXXXXXXXXXX        ................        XXXXXXXXXXXXXXXX",
"XXXXXXXXXXXXXXXX        ................        XXXXXXXXXXXXXXXX",
"XXXXXXXXXXXXXXXX        ................        XXXXXXXXXXXXXXXX",
"XXXXXXXXXXXXXXXX        ................        XXXXXXXXXXXXXXXX",
"XXXXXXXXXXXXXXXX        ................        XXXXXXXXXXXXXXXX",
"XXXXXXXXXXXXXXXX        ................        XXXXXXXXXXXXXXXX",
"XXXXXXXXXXXXXXXX        ................        XXXXXXXXXXXXXXXX",
"XXXXXXXXXXXXXXXX        ................        XXXXXXXXXXXXXXXX",
"XXXXXXXXXXXXXXXX        ................        XXXXXXXXXXXXXXXX",
"XXXXXXXXXXXXXXXX        ................        XXXXXXXXXXXXXXXX",
"XXXXXXXXXXXXXXXX        ................        XXXXXXXXXXXXXXXX",
"XXXXXXXXXXXXXXXX        ................        XXXXXXXXXXXXXXXX",
"XXXXXXXXXXXXXXXX        ................        XXXXXXXXXXXXXXXX",
"XXXXXXXXXXXXXXXX        ................        XXXXXXXXXXXXXXXX",
"XXXXXXXXXXXXXXXX        ................        XXXXXXXXXXXXXXXX",
"XXXXXXXXXXXXXXXX        ................        XXXXXXXXXXXXXXXX",
"XXXXXXXXXXXXXXXX        ................        XXXXXXXXXXXXXXXX",
"XXXXXXXXXXXXXXXX        ................        XXXXXXXXXXXXXXXX",
"XXXXXXXXXXXXXXXX        ................        XXXXXXXXXXXXXXXX",
"XXXXXXXXXXXXXXXX        ................        XXXXXXXXXXXXXXXX",
"XXXXXXXXXXXXXXXX        ................        XXXXXXXXXXXXXXXX",
"XXXXXXXXXXXXXXXX        ................        XXXXXXXXXXXXXXXX",
"XXXXXXXXXXXXXXXX        ................        XXXXXXXXXXXXXXXX",
"XXXXXXXXXXXXXXXX        ................        XXXXXXXXXXXXXXXX",
"XXXXXXXXXXXXXXXX        ................        XXXXXXXXXXXXXXXX",
"XXXXXXXXXXXXXXXX        ................        XXXXXXXXXXXXXXXX",
"XXXXXXXXXXXXXXXX        ................        XXXXXXXXXXXXXXXX",
"XXXXXXXXXXXXXXXX        ................        XXXXXXXXXXXXXXXX",
"XXXXXXXXXXXXXXXX        ................        XXXXXXXXXXXXXXXX",
"XXXXXXXXXXXXXXXX        ................        XXXXXXXXXXXXXXXX",
"XXXXXXXXXXXXXXXX        ................        XXXXXXXXXXXXXXXX",
"XXXXXXXXXXXXXXXX        ................        XXXXXXXXXXXXXXXX",
"XXXXXXXXXXXXXXXX        ................        XXXXXXXXXXXXXXXX",
"XXXXXXXXXXXXXXXX        ................        XXXXXXXXXXXXXXXX",
"XXXXXXXXXXXXXXXX        ................        XXXXXXXXXXXXXXXX",
"XXXXXXXXXXXXXXXX        ................        XXXXXXXXXXXXXXXX",
"XXXXXXXXXXXXXXXX        ................        XXXXXXXXXXXXXXXX",
"XXXXXXXXXXXXXXXX        ................        XXXXXXXXXXXXXXXX",
"XXXXXXXXXXXXXXXX        ................        XXXXXXXXXXXXXXXX",
"XXXXXXXXXXXXXXXX        ................        XXXXXXXXXXXXXXXX",
"XXXXXXXXXXXXXXXX        ................        XXXXXXXXXXXXXXXX",
"XXXXXXXXXXXXXXXX        ................        XXXXXXXXXXXXXXXX",
"XXXXXXXXXXXXXXXX        ................        XXXXXXXXXXXXXXXX",
"XXXXXXXXXXXXXXXX        ................        XXXXXXXXXXXXXXXX",
"XXXXXXXXXXXXXXXX        ................        XXXXXXXXXXXXXXXX",
"XXXXXXXXXXXXXXXXXXXXXXXX                XXXXXXXXXXXXXXXXXXXXXXXX",
"XXXXXXXXXXXXXXXXXXXXXXXX                XXXXXXXXXXXXXXXXXXXXXXXX",
"XXXXXXXXXXXXXXXXXXXXXXXX                XXXXXXXXXXXXXXXXXXXXXXXX",
"XXXXXXXXXXXXXXXXXXXXXXXX                XXXXXXXXXXXXXXXXXXXXXXXX",
"XXXXXXXXXXXXXXXXXXXXXXXX                XXXXXXXXXXXXXXXXXXXXXXXX",
"XXXXXXXXXXXXXXXXXXXXXXXX                XXXXXXXXXXXXXXXXXXXXXXXX",
"XXXXXXXXXXXXXXXXXXXXXXXX                XXXXXXXXXXXXXXXXXXXXXXXX",
"XXXXXXXXXXXXXXXXXXXXXXXX                XXXXXXXXXXXXXXXXXXXXXXXX"
};
