/* XPM */
static char *result[] = {
/* columns rows colors chars-per-pixel */
"64 64 9 1 ",
"  c gray19",
". c #F3D13E",
"X c #D79B4D",
"o c #EDC442",
"O c #EFCC4C",
"+ c #FCE37A",
"@ c #FFE98D",
"# c #F2F2F0",
"$ c None",
/* pixels */
"$$$$$$$$$$$$$$$$                                $$$$$$$$$$$$$$$$",
"$$$$$$$$$$$$$$$$                                $$$$$$$$$$$$$$$$",
"$$$$$$$$$$$$$$$$                                $$$$$$$$$$$$$$$$",
"$$$$$$$$$$$$$$$$                                $$$$$$$$$$$$$$$$",
"$$$$$$$$$$$$$$$$                                $$$$$$$$$$$$$$$$",
"$$$$$$$$$$$$$$$$                                $$$$$$$$$$$$$$$$",
"$$$$$$$$$$$$$$$$                                $$$$$$$$$$$$$$$$",
"$$$$$$$$$$$$$$$$                                $$$$$$$$$$$$$$$$",
"$$$$$$$$        ########........................        $$$$$$$$",
"$$$$$$$$        ########........................        $$$$$$$$",
"$$$$$$$$        ########........................        $$$$$$$$",
"$$$$$$$$        ########........................        $$$$$$$$",
"$$$$$$$$        ########........................        $$$$$$$$",
"$$$$$$$$        ########........................        $$$$$$$$",
"$$$$$$$$        ########........................        $$$$$$$$",
"$$$$$$$$        ########........................        $$$$$$$$",
"        ########ooooooooXXXXXXXXXXXXXXXX................        ",
"        ########ooooooooXXXXXXXXXXXXXXXX................        ",
"        ########ooooooooXXXXXXXXXXXXXXXX................        ",
"        ########ooooooooXXXXXXXXXXXXXXXX................        ",
"        ########ooooooooXXXXXXXXXXXXXXXX................        ",
"        ########ooooooooXXXXXXXXXXXXXXXX................        ",
"        ########ooooooooXXXXXXXXXXXXXXXX................        ",
"        ########ooooooooXXXXXXXXXXXXXXXX................        ",
"        ########XXXXXXXXOOOOOOOO........@@@@@@@@........        ",
"        ########XXXXXXXXOOOOOOOO........@@@@@@@@........        ",
"        ########XXXXXXXXOOOOOOOO........@@@@@@@@........        ",
"        ########XXXXXXXXOOOOOOOO........@@@@@@@@........        ",
"        ########XXXXXXXXOOOOOOOO........@@@@@@@@........        ",
"        ########XXXXXXXXOOOOOOOO........@@@@@@@@........        ",
"        ########XXXXXXXXOOOOOOOO........@@@@@@@@........        ",
"        ########XXXXXXXXOOOOOOOO........@@@@@@@@........        ",
"        ........XXXXXXXX................++++++++........        ",
"        ........XXXXXXXX................++++++++........        ",
"        ........XXXXXXXX................++++++++........        ",
"        ........XXXXXXXX................++++++++........        ",
"        ........XXXXXXXX................++++++++........        ",
"        ........XXXXXXXX................++++++++........        ",
"        ........XXXXXXXX................++++++++........        ",
"        ........XXXXXXXX................++++++++........        ",
"        ................@@@@@@@@++++++++................        ",
"        ................@@@@@@@@++++++++................        ",
"        ................@@@@@@@@++++++++................        ",
"        ................@@@@@@@@++++++++................        ",
"        ................@@@@@@@@++++++++................        ",
"        ................@@@@@@@@++++++++................        ",
"        ................@@@@@@@@++++++++................        ",
"        ................@@@@@@@@++++++++................        ",
"$$$$$$$$        ................................        $$$$$$$$",
"$$$$$$$$        ................................        $$$$$$$$",
"$$$$$$$$        ................................        $$$$$$$$",
"$$$$$$$$        ................................        $$$$$$$$",
"$$$$$$$$        ................................        $$$$$$$$",
"$$$$$$$$        ................................        $$$$$$$$",
"$$$$$$$$        ................................        $$$$$$$$",
"$$$$$$$$        ................................        $$$$$$$$",
"$$$$$$$$$$$$$$$$                                $$$$$$$$$$$$$$$$",
"$$$$$$$$$$$$$$$$                                $$$$$$$$$$$$$$$$",
"$$$$$$$$$$$$$$$$                                $$$$$$$$$$$$$$$$",
"$$$$$$$$$$$$$$$$                                $$$$$$$$$$$$$$$$",
"$$$$$$$$$$$$$$$$                                $$$$$$$$$$$$$$$$",
"$$$$$$$$$$$$$$$$                                $$$$$$$$$$$$$$$$",
"$$$$$$$$$$$$$$$$                                $$$$$$$$$$$$$$$$",
"$$$$$$$$$$$$$$$$                                $$$$$$$$$$$$$$$$"
};
