/* XPM */
static char *result[] = {
/* columns rows colors chars-per-pixel */
"64 64 11 1 ",
"  c gray20",
". c #34527F",
"X c #345485",
"o c #345C98",
"O c #415F8C",
"+ c #5374A6",
"@ c #5A7DB2",
"# c #678FCB",
"$ c #B9B5C3",
"% c white",
"& c None",
/* pixels */
"&&&&&&&&&&&&&&&&&&&&&&&&&&&&&&&&&&&&&&&&&&&&&&&&&&&&&&&&&&&&&&&&",
"&&&&&&&&&&&&&&&&&&&&&&&&&&&&&&&&&&&&&&&&&&&&&&&&&&&&&&&&&&&&&&&&",
"&&&&&&&&&&&&&&&&&&&&&&&&&&&&&&&&&&&&&&&&&&&&&&&&&&&&&&&&&&&&&&&&",
"&&&&&&&&&&&&&&&&&&&&&&&&&&&&&&&&&&&&&&&&&&&&&&&&&&&&&&&&&&&&&&&&",
"&&&&&&&&&&&&&&&&&&&&&&&&&&&&&&&&&&&&&&&&&&&&&&&&&&&&&&&&&&&&&&&&",
"&&&&&&&&&&&&&&&&&&&&&&&&&&&&&&&&&&&&&&&&&&&&&&&&&&&&&&&&&&&&&&&&",
"&&&&&&&&&&&&&&&&&&&&&&&&&&&&&&&&&&&&&&&&&&&&&&&&&&&&&&&&&&&&&&&&",
"&&&&&&&&&&&&&&&&&&&&&&&&&&&&&&&&&&&&&&&&&&&&&&&&&&&&&&&&&&&&&&&&",
"&&&&&&&&&&&&&&&&&&&&&&&&                    &&&&&&&&&&&&&&&&&&&&",
"&&&&&&&&&&&&&&&&&&&&&&&&                    &&&&&&&&&&&&&&&&&&&&",
"&&&&&&&&&&&&&&&&&&&&&&&&                    &&&&&&&&&&&&&&&&&&&&",
"&&&&&&&&&&&&&&&&&&&&&&&&                    &&&&&&&&&&&&&&&&&&&&",
"&&&&&&&&&&&&&&&&        ####################    &&&&&&&&&&&&&&&&",
"&&&&&&&&&&&&&&&&        ####################    &&&&&&&&&&&&&&&&",
"&&&&&&&&&&&&&&&&        ####################    &&&&&&&&&&&&&&&&",
"&&&&&&&&&&&&&&&&        ####################    &&&&&&&&&&&&&&&&",
"&&&&&&&&&&&&    oooo########                    &&&&&&&&&&&&&&&&",
"&&&&&&&&&&&&    oooo########                    &&&&&&&&&&&&&&&&",
"&&&&&&&&&&&&    oooo########                    &&&&&&&&&&&&&&&&",
"&&&&&&&&&&&&    oooo########                    %&&&&&&&&&&&&&&&",
"&&&&&&&&&&&&    ########                        %&&&&&&&&&&&&&&&",
"&&&&&&&&&&&&    ########                        %&&&&&&&&&&&&&&&",
"&&&&&&&&&&&&    ########                        %&&&&&&&&&&&&&&&",
"&&&&&&&&&&&&    ########                        %&&&&&&&&&&&&&&&",
"&&&&&&&&    oooo########                        %&&&&&&&&&&&&&&&",
"&&&&&&&&    oooo########                        %&&&&&&&&&&&&&&&",
"&&&&&&&&    oooo########                        %&&&&&&&&&&&&&&&",
"&&&&&&&&    oooo########                        %&&&&&&&&&&&&&&&",
"&&&&&&&&    OOOO########        $$$$$$$$        %&&&&&&&&&&&&&&&",
"&&&&&&&&    OOOO########        $$$$$$$$        %&&&&&&&&&&&&&&&",
"&&&&&&&&    OOOO########        $$$$$$$$        %&&&&&&&&&&&&&&&",
"&&&&&&&&    OOOO########        $$$$$$$$        %&&&&&&&&&&&&&&&",
"&&&&    ....        ####oooo                    %&&&&&&&&&&&&&&&",
"&&&&    ....        ####oooo                    %&&&&&&&&&&&&&&&",
"&&&&    ....        ####oooo                    %&&&&&&&&&&&&&&&",
"&&&&    ....        ####oooo                    %&&&&&&&&&&&&&&&",
"&&&&    XXXX    oooo@@@@####################    %&&&&&&&&&&&&&&&",
"&&&&    XXXX    oooo@@@@####################    %&&&&&&&&&&&&&&&",
"&&&&    XXXX    oooo@@@@####################    &&&&&&&&&&&&&&&&",
"&&&&    XXXX    oooo@@@@####################    &&&&&&&&&&&&&&&&",
"&&&&&&&&    OOOO++++oooo############oooo        &&&&&&&&&&&&&&&&",
"&&&&&&&&    OOOO++++oooo############oooo        &&&&&&&&&&&&&&&&",
"&&&&&&&&    OOOO++++oooo############oooo        &&&&&&&&&&&&&&&&",
"&&&&&&&&    OOOO++++oooo############oooo        &&&&&&&&&&&&&&&&",
"&&&&&&&&    @@@@oooo    ########oooo            &&&&&&&&&&&&&&&&",
"&&&&&&&&    @@@@oooo    ########oooo            &&&&&&&&&&&&&&&&",
"&&&&&&&&    @@@@oooo    ########oooo            &&&&&&&&&&&&&&&&",
"&&&&&&&&    @@@@oooo    ########oooo            &&&&&&&&&&&&&&&&",
"&&&&&&&&    oooo    ########                    &&&&&&&&&&&&&&&&",
"&&&&&&&&    oooo    ########                    &&&&&&&&&&&&&&&&",
"&&&&&&&&    oooo    ########                    &&&&&&&&&&&&&&&&",
"&&&&&&&&    oooo    ########                    &&&&&&&&&&&&&&&&",
"&&&&&&&&&&&&                &&&&&&&&&&&&        &&&&&&&&&&&&&&&&",
"&&&&&&&&&&&&                &&&&&&&&&&&&        &&&&&&&&&&&&&&&&",
"&&&&&&&&&&&&                &&&&&&&&&&&&        &&&&&&&&&&&&&&&&",
"&&&&&&&&&&&&                &&&&&&&&&&&&        &&&&&&&&&&&&&&&&",
"&&&&&&&&&&&&        &&&&&&&&&&&&&&&&&&&&        &&&&&&&&&&&&&&&&",
"&&&&&&&&&&&&        &&&&&&&&&&&&&&&&&&&&        &&&&&&&&&&&&&&&&",
"&&&&&&&&&&&&        &&&&&&&&&&&&&&&&&&&&        &&&&&&&&&&&&&&&&",
"&&&&&&&&&&&&        &&&&&&&&&&&&&&&&&&&&        &&&&&&&&&&&&&&&&",
"&&&&&&&&&&&&    &&&&&&&&&&&&&&&&&&&&&&&&    &&&&&&&&&&&&&&&&&&&&",
"&&&&&&&&&&&&    &&&&&&&&&&&&&&&&&&&&&&&&    &&&&&&&&&&&&&&&&&&&&",
"&&&&&&&&&&&&    &&&&&&&&&&&&&&&&&&&&&&&&    &&&&&&&&&&&&&&&&&&&&",
"&&&&&&&&&&&&    &&&&&&&&&&&&&&&&&&&&&&&&    &&&&&&&&&&&&&&&&&&&&"
};
