/* XPM */
static char *result[] = {
/* columns rows colors chars-per-pixel */
"64 64 5 1 ",
"  c gray20",
". c #345C98",
"X c #678FCB",
"o c #B9B5C3",
"O c None",
/* pixels */
"OOOOOOOOOOOOOOOOOOOOOOOOOOOOOOOOOOOOOOOOOOOOOOOOOOOOOOOOOOOOOOOO",
"OOOOOOOOOOOOOOOOOOOOOOOOOOOOOOOOOOOOOOOOOOOOOOOOOOOOOOOOOOOOOOOO",
"OOOOOOOOOOOOOOOOOOOOOOOOOOOOOOOOOOOOOOOOOOOOOOOOOOOOOOOOOOOOOOOO",
"OOOOOOOOOOOOOOOOOOOOOOOOOOOOOOOOOOOOOOOOOOOOOOOOOOOOOOOOOOOOOOOO",
"OOOOOOOOOOOOOOOOOOOOOOOOOOOOOOOOOOOOOOOOOOOOOOOOOOOOOOOOOOOOOOOO",
"OOOOOOOOOOOOOOOOOOOOOOOOOOOOOOOOOOOOOOOOOOOOOOOOOOOOOOOOOOOOOOOO",
"OOOOOOOOOOOOOOOOOOOOOOOOOOOOOOOOOOOOOOOOOOOOOOOOOOOOOOOOOOOOOOOO",
"OOOOOOOOOOOOOOOOOOOOOOOOOOOOOOOOOOOOOOOOOOOOOOOOOOOOOOOOOOOOOOOO",
"OOOOOOOOOOOOOOOOOOOOOOOOOOOOOOOOOOOOOOOOOOOOOOOOOOOOOOOOOOOOOOOO",
"OOOOOOOOOOOOOOOOOOOOOOOOOOOOOOOOOOOOOOOOOOOOOOOOOOOOOOOOOOOOOOOO",
"OOOOOOOOOOOOOOOOOOOOOOOOOOOOOOOOOOOOOOOOOOOOOOOOOOOOOOOOOOOOOOOO",
"OOOOOOOOOOOOOOOOOOOOOOOOOOOOOOOOOOOOOOOOOOOOOOOOOOOOOOOOOOOOOOOO",
"OOOOOOOOOOOOOOOOOOOOOOOOOOOO                    OOOOOOOOOOOOOOOO",
"OOOOOOOOOOOOOOOOOOOOOOOOOOOO                    OOOOOOOOOOOOOOOO",
"OOOOOOOOOOOOOOOOOOOOOOOOOOOO                    OOOOOOOOOOOOOOOO",
"OOOOOOOOOOOOOOOOOOOOOOOOOOOO                    OOOOOOOOOOOOOOOO",
"OOOOOOOOOOOOOOOOOOOOOOOOOOOO    ....XXXXXXXXXXXX    OOOOOOOOOOOO",
"OOOOOOOOOOOOOOOOOOOOOOOOOOOO    ....XXXXXXXXXXXX    OOOOOOOOOOOO",
"OOOOOOOOOOOOOOOOOOOOOOOOOOOO    ....XXXXXXXXXXXX    OOOOOOOOOOOO",
"OOOOOOOOOOOOOOOOOOOOOOOOOOOO    ....XXXXXXXXXXXX    OOOOOOOOOOOO",
"OOOOOOOOOOOOOOOOOOOOOOOO    ....XXXX                    OOOOOOOO",
"OOOOOOOOOOOOOOOOOOOOOOOO    ....XXXX                    OOOOOOOO",
"OOOOOOOOOOOOOOOOOOOOOOOO    ....XXXX                    OOOOOOOO",
"OOOOOOOOOOOOOOOOOOOOOOOO    ....XXXX                    OOOOOOOO",
"OOOOOOOOOOOOOOOOOOOO    ....XXXX                        OOOOOOOO",
"OOOOOOOOOOOOOOOOOOOO    ....XXXX                        OOOOOOOO",
"OOOOOOOOOOOOOOOOOOOO    ....XXXX                        OOOOOOOO",
"OOOOOOOOOOOOOOOOOOOO    ....XXXX                        OOOOOOOO",
"OOOOOOOOOOOOOOOO    ....XXXXXXXX                        OOOOOOOO",
"OOOOOOOOOOOOOOOO    ....XXXXXXXX                        OOOOOOOO",
"OOOOOOOOOOOOOOOO    ....XXXXXXXX                        OOOOOOOO",
"OOOOOOOOOOOOOOOO    ....XXXXXXXX                        OOOOOOOO",
"OOOOOOOOOOOOOOOO    ....    XXXX        oooooooo    ooooOOOOOOOO",
"OOOOOOOOOOOOOOOO    ....    XXXX        oooooooo    ooooOOOOOOOO",
"OOOOOOOOOOOOOOOO    ....    XXXX        oooooooo    ooooOOOOOOOO",
"OOOOOOOOOOOOOOOO    ....    XXXX        oooooooo    ooooOOOOOOOO",
"OOOOOOOOOOOOOOOO            XXXX....                            ",
"OOOOOOOOOOOOOOOO            XXXX....                            ",
"OOOOOOOOOOOOOOOO            XXXX....                            ",
"OOOOOOOOOOOOOOOO            XXXX....                            ",
"OOOOOOOOOOOOOOOO    XXXXXXXXXXXXXXXXXXXX                        ",
"OOOOOOOOOOOOOOOO    XXXXXXXXXXXXXXXXXXXX                        ",
"OOOOOOOOOOOOOOOO    XXXXXXXXXXXXXXXXXXXX                        ",
"OOOOOOOOOOOOOOOO    XXXXXXXXXXXXXXXXXXXX                        ",
"OOOOOOOOOOOO    ........XXXXXXXXXXXX....            OOOOOOOOOOOO",
"OOOOOOOOOOOO    ........XXXXXXXXXXXX....            OOOOOOOOOOOO",
"OOOOOOOOOOOO    ........XXXXXXXXXXXX....            OOOOOOOOOOOO",
"OOOOOOOOOOOO    ........XXXXXXXXXXXX....            OOOOOOOOOOOO",
"OOOOOOOOOOOO    ....    XXXXXXXX....                OOOOOOOOOOOO",
"OOOOOOOOOOOO    ....    XXXXXXXX....                OOOOOOOOOOOO",
"OOOOOOOOOOOO    ....    XXXXXXXX....                OOOOOOOOOOOO",
"OOOOOOOOOOOO    ....    XXXXXXXX....                OOOOOOOOOOOO",
"OOOOOOOOOOOO        XXXXXXXXXXXX                    OOOOOOOOOOOO",
"OOOOOOOOOOOO        XXXXXXXXXXXX                    OOOOOOOOOOOO",
"OOOOOOOOOOOO        XXXXXXXXXXXX                    OOOOOOOOOOOO",
"OOOOOOOOOOOO        XXXXXXXXXXXX                    OOOOOOOOOOOO",
"OOOOOOOOOOOO                    OOOOOOOOOOOO        OOOOOOOOOOOO",
"OOOOOOOOOOOO                    OOOOOOOOOOOO        OOOOOOOOOOOO",
"OOOOOOOOOOOO                    OOOOOOOOOOOO        OOOOOOOOOOOO",
"OOOOOOOOOOOO                    OOOOOOOOOOOO        OOOOOOOOOOOO",
"OOOOOOOOOOOO    OOOOOOOOOOOOOOOOOOOOOOOOOOOO    OOOOOOOOOOOOOOOO",
"OOOOOOOOOOOO    OOOOOOOOOOOOOOOOOOOOOOOOOOOO    OOOOOOOOOOOOOOOO",
"OOOOOOOOOOOO    OOOOOOOOOOOOOOOOOOOOOOOOOOOO    OOOOOOOOOOOOOOOO",
"OOOOOOOOOOOO    OOOOOOOOOOOOOOOOOOOOOOOOOOOO    OOOOOOOOOOOOOOOO"
};
