/* XPM */
static char *result[] = {
/* columns rows colors chars-per-pixel */
"64 64 7 1 ",
"  c gray20",
". c #345C98",
"X c #5A7BAB",
"o c #6787B8",
"O c #678FCB",
"+ c #B9B5C3",
"@ c None",
/* pixels */
"@@@@@@@@@@@@@@@@@@@@@@@@@@@@@@@@@@@@@@@@@@@@@@@@@@@@@@@@@@@@@@@@",
"@@@@@@@@@@@@@@@@@@@@@@@@@@@@@@@@@@@@@@@@@@@@@@@@@@@@@@@@@@@@@@@@",
"@@@@@@@@@@@@@@@@@@@@@@@@@@@@@@@@@@@@@@@@@@@@@@@@@@@@@@@@@@@@@@@@",
"@@@@@@@@@@@@@@@@@@@@@@@@@@@@@@@@@@@@@@@@@@@@@@@@@@@@@@@@@@@@@@@@",
"@@@@@@@@@@@@@@@@@@@@@@@@@@@@@@@@@@@@@@@@@@@@@@@@@@@@@@@@@@@@@@@@",
"@@@@@@@@@@@@@@@@@@@@@@@@@@@@@@@@@@@@@@@@@@@@@@@@@@@@@@@@@@@@@@@@",
"@@@@@@@@@@@@@@@@@@@@@@@@@@@@@@@@@@@@@@@@@@@@@@@@@@@@@@@@@@@@@@@@",
"@@@@@@@@@@@@@@@@@@@@@@@@@@@@@@@@@@@@@@@@@@@@@@@@@@@@@@@@@@@@@@@@",
"@@@@@@@@@@@@@@@@@@@@@@@@@@@@                    @@@@@@@@@@@@@@@@",
"@@@@@@@@@@@@@@@@@@@@@@@@@@@@                    @@@@@@@@@@@@@@@@",
"@@@@@@@@@@@@@@@@@@@@@@@@@@@@                    @@@@@@@@@@@@@@@@",
"@@@@@@@@@@@@@@@@@@@@@@@@@@@@                    @@@@@@@@@@@@@@@@",
"@@@@@@@@@@@@@@@@@@@@        ....OOOOOOOOOOOO....    @@@@@@@@@@@@",
"@@@@@@@@@@@@@@@@@@@@        ....OOOOOOOOOOOO....    @@@@@@@@@@@@",
"@@@@@@@@@@@@@@@@@@@@        ....OOOOOOOOOOOO....    @@@@@@@@@@@@",
"@@@@@@@@@@@@@@@@@@@@        ....OOOOOOOOOOOO....    @@@@@@@@@@@@",
"@@@@@@@@@@@@@@@@    ....OOOOOOOO                    @@@@@@@@@@@@",
"@@@@@@@@@@@@@@@@    ....OOOOOOOO                    @@@@@@@@@@@@",
"@@@@@@@@@@@@@@@@    ....OOOOOOOO                    @@@@@@@@@@@@",
"@@@@@@@@@@@@@@@@    ....OOOOOOOO                    @@@@@@@@@@@@",
"@@@@@@@@@@@@@@@@    OOOOOOOO                        @@@@@@@@@@@@",
"@@@@@@@@@@@@@@@@    OOOOOOOO                        @@@@@@@@@@@@",
"@@@@@@@@@@@@@@@@    OOOOOOOO                        @@@@@@@@@@@@",
"@@@@@@@@@@@@@@@@    OOOOOOOO                        @@@@@@@@@@@@",
"@@@@@@@@@@@@    ....OOOOOOOO                        @@@@@@@@@@@@",
"@@@@@@@@@@@@    ....OOOOOOOO                        @@@@@@@@@@@@",
"@@@@@@@@@@@@    ....OOOOOOOO                        @@@@@@@@@@@@",
"@@@@@@@@@@@@    ....OOOOOOOO                        @@@@@@@@@@@@",
"@@@@@@@@@@@@    ....OOOOOOOO        ++++++++            @@@@@@@@",
"@@@@@@@@@@@@    ....OOOOOOOO        ++++++++            @@@@@@@@",
"@@@@@@@@@@@@    ....OOOOOOOO        ++++++++            @@@@@@@@",
"@@@@@@@@@@@@    ....OOOOOOOO        ++++++++            @@@@@@@@",
"@@@@@@@@                OOOO....                        @@@@@@@@",
"@@@@@@@@                OOOO....                        @@@@@@@@",
"@@@@@@@@                OOOO....                        @@@@@@@@",
"@@@@@@@@                OOOO....                        @@@@@@@@",
"@@@@@@@@        ....OOOOOOOOOOOOOOOOOOOOOOOO        @@@@@@@@@@@@",
"@@@@@@@@        ....OOOOOOOOOOOOOOOOOOOOOOOO        @@@@@@@@@@@@",
"@@@@@@@@        ....OOOOOOOOOOOOOOOOOOOOOOOO        @@@@@@@@@@@@",
"@@@@@@@@        ....OOOOOOOOOOOOOOOOOOOOOOOO        @@@@@@@@@@@@",
"@@@@    ........OOOOOOOO....OOOOOOOOOOOO....    @@@@@@@@@@@@@@@@",
"@@@@    ........OOOOOOOO....OOOOOOOOOOOO....    @@@@@@@@@@@@@@@@",
"@@@@    ........OOOOOOOO....OOOOOOOOOOOO....    @@@@@@@@@@@@@@@@",
"@@@@    ........OOOOOOOO....OOOOOOOOOOOO....    @@@@@@@@@@@@@@@@",
"@@@@    ....OOOOOOOO....    ooooOOOO....        @@@@@@@@@@@@@@@@",
"@@@@    ....OOOOOOOO....    ooooOOOO....        @@@@@@@@@@@@@@@@",
"@@@@    ....OOOOOOOO....    ooooOOOO....        @@@@@@@@@@@@@@@@",
"@@@@    ....OOOOOOOO....    ooooOOOO....        @@@@@@@@@@@@@@@@",
"@@@@@@@@    OOOO....    XXXX                    @@@@@@@@@@@@@@@@",
"@@@@@@@@    OOOO....    XXXX                    @@@@@@@@@@@@@@@@",
"@@@@@@@@    OOOO....    XXXX                    @@@@@@@@@@@@@@@@",
"@@@@@@@@    OOOO....    XXXX                    @@@@@@@@@@@@@@@@",
"@@@@@@@@@@@@                @@@@@@@@@@@@        @@@@@@@@@@@@@@@@",
"@@@@@@@@@@@@                @@@@@@@@@@@@        @@@@@@@@@@@@@@@@",
"@@@@@@@@@@@@                @@@@@@@@@@@@        @@@@@@@@@@@@@@@@",
"@@@@@@@@@@@@                @@@@@@@@@@@@        @@@@@@@@@@@@@@@@",
"@@@@@@@@@@@@        @@@@@@@@@@@@@@@@@@@@        @@@@@@@@@@@@@@@@",
"@@@@@@@@@@@@        @@@@@@@@@@@@@@@@@@@@        @@@@@@@@@@@@@@@@",
"@@@@@@@@@@@@        @@@@@@@@@@@@@@@@@@@@        @@@@@@@@@@@@@@@@",
"@@@@@@@@@@@@        @@@@@@@@@@@@@@@@@@@@        @@@@@@@@@@@@@@@@",
"@@@@@@@@@@@@    @@@@@@@@@@@@@@@@@@@@@@@@    @@@@@@@@@@@@@@@@@@@@",
"@@@@@@@@@@@@    @@@@@@@@@@@@@@@@@@@@@@@@    @@@@@@@@@@@@@@@@@@@@",
"@@@@@@@@@@@@    @@@@@@@@@@@@@@@@@@@@@@@@    @@@@@@@@@@@@@@@@@@@@",
"@@@@@@@@@@@@    @@@@@@@@@@@@@@@@@@@@@@@@    @@@@@@@@@@@@@@@@@@@@"
};
