/* XPM */
static char *result[] = {
/* columns rows colors chars-per-pixel */
"64 64 8 1 ",
"  c gray20",
". c #345C98",
"X c #5A7DB2",
"o c #5D83BB",
"O c #678FCB",
"+ c #B9B5C3",
"@ c white",
"# c None",
/* pixels */
"################################################################",
"################################################################",
"################################################################",
"################################################################",
"############################                ####################",
"############################                ####################",
"############################                @###################",
"###########################@                @@##################",
"####################        ....OOOOOOOO....    ################",
"####################        ....OOOOOOOO....    ################",
"####################        ....OOOOOOOO....    ################",
"####################        ....OOOOOOOO....    ################",
"################    ....OOOOOOOOOOOOOOOOOOOO....    ############",
"################    ....OOOOOOOOOOOOOOOOOOOO....    ############",
"################    ....OOOOOOOOOOOOOOOOOOOO....    ############",
"################    ....OOOOOOOOOOOOOOOOOOOO....    ############",
"############    ....OOOOOOOO                OOOO    ############",
"############    ....OOOOOOOO                OOOO    ############",
"############    ....OOOOOOOO                OOOO    ############",
"############    ....OOOOOOOO                OOOO    ############",
"########    ....OOOOOOOO                        ##@#############",
"########    ....OOOOOOOO                        ################",
"########    ....OOOOOOOO                        ################",
"########    ....OOOOOOOO                        ################",
"########    OOOOOOOOOOOO    ++++++++        ++++################",
"########    OOOOOOOOOOOO    ++++++++        ++++################",
"########    OOOOOOOOOOOO    ++++++++        +++#################",
"########    OOOOOOOOOOOO    ++++++++        +++#################",
"########    ....    OOOO                        ################",
"########    ....    OOOO                        ################",
"########    ....    OOOO                        ################",
"########    ....    OOOO                        ################",
"############        OOOO....                    ################",
"############        OOOO....                    ################",
"############        OOOO....                    ################",
"############        OOOO....                    ################",
"###############@    OOOOOOOOOOOOOOOOOOOOOOOO    ################",
"###############@    OOOOOOOOOOOOOOOOOOOOOOOO    ################",
"###############@    OOOOOOOOOOOOOOOOOOOOOOOO    ################",
"###############@    OOOOOOOOOOOOOOOOOOOOOOOO    ################",
"############    ....OOOOOOOO....OOOOOOOOOOOO    ################",
"############    ....OOOOOOOO....OOOOOOOOOOOO    ################",
"############    ....OOOOOOOO....OOOOOOOOOOOO    ################",
"############    ....OOOOOOOO....OOOOOOOOOOOO    ################",
"############    OOOOXXXX....    OOOOOOOO....    ################",
"############    OOOOXXXX....    OOOOOOOO....    ################",
"############    OOOOXXXX....    OOOOOOOO....    ################",
"############    OOOOXXXX....    OOOOOOOO....    ################",
"############        ....oooo                ####################",
"############        ....oooo                ####################",
"############        ....oooo                ####################",
"############        ....oooo                ####################",
"################            ########        ####################",
"################            ########        ####################",
"################            ########        ####################",
"################            ########        ####################",
"################        ############        ####################",
"################        ############        ####################",
"################        ############        ####################",
"################        ############        ####################",
"################    ################    ########################",
"#################   ################    ########################",
"#################   #################   ########################",
"#################   #################   ########################"
};
