/* XPM */
static char *result[] = {
/* columns rows colors chars-per-pixel */
"64 64 5 1 ",
"  c gray20",
". c #345C98",
"X c #678FCB",
"o c #B9B5C3",
"O c None",
/* pixels */
"OOOOOOOOOOOOOOOOOOOOOOOOOOOOOOOOOOOOOOOOOOOOOOOOOOOOOOOOOOOOOOOO",
"OOOOOOOOOOOOOOOOOOOOOOOOOOOOOOOOOOOOOOOOOOOOOOOOOOOOOOOOOOOOOOOO",
"OOOOOOOOOOOOOOOOOOOOOOOOOOOOOOOOOOOOOOOOOOOOOOOOOOOOOOOOOOOOOOOO",
"OOOOOOOOOOOOOOOOOOOOOOOOOOOOOOOOOOOOOOOOOOOOOOOOOOOOOOOOOOOOOOOO",
"OOOOOOOOOOOOOOOOOOOOOOOOOOOOOOOOOOOOOOOOOOOOOOOOOOOOOOOOOOOOOOOO",
"OOOOOOOOOOOOOOOOOOOOOOOOOOOOOOOOOOOOOOOOOOOOOOOOOOOOOOOOOOOOOOOO",
"OOOOOOOOOOOOOOOOOOOOOOOOOOOOOOOOOOOOOOOOOOOOOOOOOOOOOOOOOOOOOOOO",
"OOOOOOOOOOOOOOOOOOOOOOOOOOOOOOOOOOOOOOOOOOOOOOOOOOOOOOOOOOOOOOOO",
"OOOOOOOOOOOOOOOOOOOOOOOOOOOO                    OOOOOOOOOOOOOOOO",
"OOOOOOOOOOOOOOOOOOOOOOOOOOOO                    OOOOOOOOOOOOOOOO",
"OOOOOOOOOOOOOOOOOOOOOOOOOOOO                    OOOOOOOOOOOOOOOO",
"OOOOOOOOOOOOOOOOOOOOOOOOOOOO                    OOOOOOOOOOOOOOOO",
"OOOOOOOOOOOO                ....XXXXXXXXXXXXXXXX    OOOOOOOOOOOO",
"OOOOOOOOOOOO                ....XXXXXXXXXXXXXXXX    OOOOOOOOOOOO",
"OOOOOOOOOOOO                ....XXXXXXXXXXXXXXXX    OOOOOOOOOOOO",
"OOOOOOOOOOOO                ....XXXXXXXXXXXXXXXX    OOOOOOOOOOOO",
"OOOOOOOO    XXXXXXXXXXXXXXXXXXXX                    OOOOOOOOOOOO",
"OOOOOOOO    XXXXXXXXXXXXXXXXXXXX                    OOOOOOOOOOOO",
"OOOOOOOO    XXXXXXXXXXXXXXXXXXXX                    OOOOOOOOOOOO",
"OOOOOOOO    XXXXXXXXXXXXXXXXXXXX                    OOOOOOOOOOOO",
"OOOOOOOOOOOO    XXXXXXXXXXXX        oooooooo        OOOOOOOOOOOO",
"OOOOOOOOOOOO    XXXXXXXXXXXX        oooooooo        OOOOOOOOOOOO",
"OOOOOOOOOOOO    XXXXXXXXXXXX        oooooooo        OOOOOOOOOOOO",
"OOOOOOOOOOOO    XXXXXXXXXXXX        oooooooo        OOOOOOOOOOOO",
"OOOOOOOOOOOO    ....XXXXXXXX                        OOOOOOOOOOOO",
"OOOOOOOOOOOO    ....XXXXXXXX                        OOOOOOOOOOOO",
"OOOOOOOOOOOO    ....XXXXXXXX                        OOOOOOOOOOOO",
"OOOOOOOOOOOO    ....XXXXXXXX                        OOOOOOOOOOOO",
"OOOOOOOOOOOOOOOO        XXXX                        OOOOOOOOOOOO",
"OOOOOOOOOOOOOOOO        XXXX                        OOOOOOOOOOOO",
"OOOOOOOOOOOOOOOO        XXXX                        OOOOOOOOOOOO",
"OOOOOOOOOOOOOOOO        XXXX                        OOOOOOOOOOOO",
"OOOOOOOOOOOO            XXXX....                OOOOOOOOOOOOOOOO",
"OOOOOOOOOOOO            XXXX....                OOOOOOOOOOOOOOOO",
"OOOOOOOOOOOO            XXXX....                OOOOOOOOOOOOOOOO",
"OOOOOOOOOOOO            XXXX....                OOOOOOOOOOOOOOOO",
"OOOOOOOO    ....XXXXXXXXXXXXXXXXXXXXXXXX    OOOOOOOOOOOOOOOOOOOO",
"OOOOOOOO    ....XXXXXXXXXXXXXXXXXXXXXXXX    OOOOOOOOOOOOOOOOOOOO",
"OOOOOOOO    ....XXXXXXXXXXXXXXXXXXXXXXXX    OOOOOOOOOOOOOOOOOOOO",
"OOOOOOOO    ....XXXXXXXXXXXXXXXXXXXXXXXX    OOOOOOOOOOOOOOOOOOOO",
"OOOO    ....XXXXXXXXXXXX....    XXXX....    OOOOOOOOOOOOOOOOOOOO",
"OOOO    ....XXXXXXXXXXXX....    XXXX....    OOOOOOOOOOOOOOOOOOOO",
"OOOO    ....XXXXXXXXXXXX....    XXXX....    OOOOOOOOOOOOOOOOOOOO",
"OOOO    ....XXXXXXXXXXXX....    XXXX....    OOOOOOOOOOOOOOOOOOOO",
"OOOOOOOO    XXXXXXXX....    XXXX....    OOOOOOOOOOOOOOOOOOOOOOOO",
"OOOOOOOO    XXXXXXXX....    XXXX....    OOOOOOOOOOOOOOOOOOOOOOOO",
"OOOOOOOO    XXXXXXXX....    XXXX....    OOOOOOOOOOOOOOOOOOOOOOOO",
"OOOOOOOO    XXXXXXXX....    XXXX....    OOOOOOOOOOOOOOOOOOOOOOOO",
"OOOOOOOOOOOO                            OOOOOOOOOOOOOOOOOOOOOOOO",
"OOOOOOOOOOOO                            OOOOOOOOOOOOOOOOOOOOOOOO",
"OOOOOOOOOOOO                            OOOOOOOOOOOOOOOOOOOOOOOO",
"OOOOOOOOOOOO                            OOOOOOOOOOOOOOOOOOOOOOOO",
"OOOOOOOOOOOOOOOO        OOOOOOOOOOOOOOOOOOOOOOOOOOOOOOOOOOOOOOOO",
"OOOOOOOOOOOOOOOO        OOOOOOOOOOOOOOOOOOOOOOOOOOOOOOOOOOOOOOOO",
"OOOOOOOOOOOOOOOO        OOOOOOOOOOOOOOOOOOOOOOOOOOOOOOOOOOOOOOOO",
"OOOOOOOOOOOOOOOO        OOOOOOOOOOOOOOOOOOOOOOOOOOOOOOOOOOOOOOOO",
"OOOOOOOOOOOOOOOO        OOOOOOOOOOOOOOOOOOOOOOOOOOOOOOOOOOOOOOOO",
"OOOOOOOOOOOOOOOO        OOOOOOOOOOOOOOOOOOOOOOOOOOOOOOOOOOOOOOOO",
"OOOOOOOOOOOOOOOO        OOOOOOOOOOOOOOOOOOOOOOOOOOOOOOOOOOOOOOOO",
"OOOOOOOOOOOOOOOO        OOOOOOOOOOOOOOOOOOOOOOOOOOOOOOOOOOOOOOOO",
"OOOOOOOOOOOOOOOO    OOOOOOOOOOOOOOOOOOOOOOOOOOOOOOOOOOOOOOOOOOOO",
"OOOOOOOOOOOOOOOO    OOOOOOOOOOOOOOOOOOOOOOOOOOOOOOOOOOOOOOOOOOOO",
"OOOOOOOOOOOOOOOO    OOOOOOOOOOOOOOOOOOOOOOOOOOOOOOOOOOOOOOOOOOOO",
"OOOOOOOOOOOOOOOO    OOOOOOOOOOOOOOOOOOOOOOOOOOOOOOOOOOOOOOOOOOOO"
};
