/* XPM */
static char *result[] = {
/* columns rows colors chars-per-pixel */
"64 64 5 1 ",
"  c gray20",
". c #345C98",
"X c #678FCB",
"o c #B9B5C3",
"O c None",
/* pixels */
"OOOOOOOOOOOOOOOOOOOOOOOOOOOOOOOOOOOOOOOOOOOOOOOOOOOOOOOOOOOOOOOO",
"OOOOOOOOOOOOOOOOOOOOOOOOOOOOOOOOOOOOOOOOOOOOOOOOOOOOOOOOOOOOOOOO",
"OOOOOOOOOOOOOOOOOOOOOOOOOOOOOOOOOOOOOOOOOOOOOOOOOOOOOOOOOOOOOOOO",
"OOOOOOOOOOOOOOOOOOOOOOOOOOOOOOOOOOOOOOOOOOOOOOOOOOOOOOOOOOOOOOOO",
"OOOOOOOOOOOOOOOOOOOOOOOOOOOOOOOOOOOOOOOOOOOOOOOOOOOOOOOOOOOOOOOO",
"OOOOOOOOOOOOOOOOOOOOOOOOOOOOOOOOOOOOOOOOOOOOOOOOOOOOOOOOOOOOOOOO",
"OOOOOOOOOOOOOOOOOOOOOOOOOOOOOOOOOOOOOOOOOOOOOOOOOOOOOOOOOOOOOOOO",
"OOOOOOOOOOOOOOOOOOOOOOOOOOOOOOOOOOOOOOOOOOOOOOOOOOOOOOOOOOOOOOOO",
"OOOOOOOOOOOOOOOOOOOOOOOOOOOO                    OOOOOOOOOOOOOOOO",
"OOOOOOOOOOOOOOOOOOOOOOOOOOOO                    OOOOOOOOOOOOOOOO",
"OOOOOOOOOOOOOOOOOOOOOOOOOOOO                    OOOOOOOOOOOOOOOO",
"OOOOOOOOOOOOOOOOOOOOOOOOOOOO                    OOOOOOOOOOOOOOOO",
"OOOOOOOOOOOOOOOOOOOO        ....XXXXXXXXXXXXXXXX    OOOOOOOOOOOO",
"OOOOOOOOOOOOOOOOOOOO        ....XXXXXXXXXXXXXXXX    OOOOOOOOOOOO",
"OOOOOOOOOOOOOOOOOOOO        ....XXXXXXXXXXXXXXXX    OOOOOOOOOOOO",
"OOOOOOOOOOOOOOOOOOOO        ....XXXXXXXXXXXXXXXX    OOOOOOOOOOOO",
"OOOOOOOO            ....XXXXXXXX                    OOOOOOOOOOOO",
"OOOOOOOO            ....XXXXXXXX                    OOOOOOOOOOOO",
"OOOOOOOO            ....XXXXXXXX                    OOOOOOOOOOOO",
"OOOOOOOO            ....XXXXXXXX                    OOOOOOOOOOOO",
"OOOOOOOO    ....XXXXXXXXXXXX                        OOOOOOOOOOOO",
"OOOOOOOO    ....XXXXXXXXXXXX                        OOOOOOOOOOOO",
"OOOOOOOO    ....XXXXXXXXXXXX                        OOOOOOOOOOOO",
"OOOOOOOO    ....XXXXXXXXXXXX                        OOOOOOOOOOOO",
"OOOOOOOO    XXXXXXXXXXXXXXXX        oooooooo        OOOOOOOOOOOO",
"OOOOOOOO    XXXXXXXXXXXXXXXX        oooooooo        OOOOOOOOOOOO",
"OOOOOOOO    XXXXXXXXXXXXXXXX        oooooooo        OOOOOOOOOOOO",
"OOOOOOOO    XXXXXXXXXXXXXXXX        oooooooo        OOOOOOOOOOOO",
"OOOOOOOOOOOO    ....XXXXXXXX                        OOOOOOOOOOOO",
"OOOOOOOOOOOO    ....XXXXXXXX                        OOOOOOOOOOOO",
"OOOOOOOOOOOO    ....XXXXXXXX                        OOOOOOOOOOOO",
"OOOOOOOOOOOO    ....XXXXXXXX                        OOOOOOOOOOOO",
"OOOOOOOO                XXXX....                OOOOOOOOOOOOOOOO",
"OOOOOOOO                XXXX....                OOOOOOOOOOOOOOOO",
"OOOOOOOO                XXXX....                OOOOOOOOOOOOOOOO",
"OOOOOOOO                XXXX....                OOOOOOOOOOOOOOOO",
"OOOO    ....XXXXXXXXXXXXXXXXXXXXXXXXXXXX    OOOOOOOOOOOOOOOOOOOO",
"OOOO    ....XXXXXXXXXXXXXXXXXXXXXXXXXXXX    OOOOOOOOOOOOOOOOOOOO",
"OOOO    ....XXXXXXXXXXXXXXXXXXXXXXXXXXXX    OOOOOOOOOOOOOOOOOOOO",
"OOOO    ....XXXXXXXXXXXXXXXXXXXXXXXXXXXX    OOOOOOOOOOOOOOOOOOOO",
"OOOO    XXXXXXXXXXXX....    XXXXXXXX....    OOOOOOOOOOOOOOOOOOOO",
"OOOO    XXXXXXXXXXXX....    XXXXXXXX....    OOOOOOOOOOOOOOOOOOOO",
"OOOO    XXXXXXXXXXXX....    XXXXXXXX....    OOOOOOOOOOOOOOOOOOOO",
"OOOO    XXXXXXXXXXXX....    XXXXXXXX....    OOOOOOOOOOOOOOOOOOOO",
"OOOOOOOO    XXXX....    XXXXXXXX....    OOOOOOOOOOOOOOOOOOOOOOOO",
"OOOOOOOO    XXXX....    XXXXXXXX....    OOOOOOOOOOOOOOOOOOOOOOOO",
"OOOOOOOO    XXXX....    XXXXXXXX....    OOOOOOOOOOOOOOOOOOOOOOOO",
"OOOOOOOO    XXXX....    XXXXXXXX....    OOOOOOOOOOOOOOOOOOOOOOOO",
"OOOOOOOOOOOO                            OOOOOOOOOOOOOOOOOOOOOOOO",
"OOOOOOOOOOOO                            OOOOOOOOOOOOOOOOOOOOOOOO",
"OOOOOOOOOOOO                            OOOOOOOOOOOOOOOOOOOOOOOO",
"OOOOOOOOOOOO                            OOOOOOOOOOOOOOOOOOOOOOOO",
"OOOOOOOOOOOO        OOOOOOOOOOOOOOOOOOOOOOOOOOOOOOOOOOOOOOOOOOOO",
"OOOOOOOOOOOO        OOOOOOOOOOOOOOOOOOOOOOOOOOOOOOOOOOOOOOOOOOOO",
"OOOOOOOOOOOO        OOOOOOOOOOOOOOOOOOOOOOOOOOOOOOOOOOOOOOOOOOOO",
"OOOOOOOOOOOO        OOOOOOOOOOOOOOOOOOOOOOOOOOOOOOOOOOOOOOOOOOOO",
"OOOOOOOOOOOO        OOOOOOOOOOOOOOOOOOOOOOOOOOOOOOOOOOOOOOOOOOOO",
"OOOOOOOOOOOO        OOOOOOOOOOOOOOOOOOOOOOOOOOOOOOOOOOOOOOOOOOOO",
"OOOOOOOOOOOO        OOOOOOOOOOOOOOOOOOOOOOOOOOOOOOOOOOOOOOOOOOOO",
"OOOOOOOOOOOO        OOOOOOOOOOOOOOOOOOOOOOOOOOOOOOOOOOOOOOOOOOOO",
"OOOOOOOOOOOO    OOOOOOOOOOOOOOOOOOOOOOOOOOOOOOOOOOOOOOOOOOOOOOOO",
"OOOOOOOOOOOO    OOOOOOOOOOOOOOOOOOOOOOOOOOOOOOOOOOOOOOOOOOOOOOOO",
"OOOOOOOOOOOO    OOOOOOOOOOOOOOOOOOOOOOOOOOOOOOOOOOOOOOOOOOOOOOOO",
"OOOOOOOOOOOO    OOOOOOOOOOOOOOOOOOOOOOOOOOOOOOOOOOOOOOOOOOOOOOOO"
};
