/* XPM */
static char *result[] = {
/* columns rows colors chars-per-pixel */
"64 64 9 1 ",
"  c gray20",
". c #345C98",
"X c #5A78A5",
"o c #5A7DB2",
"O c #6785B2",
"+ c #678FCB",
"@ c #B9B5C3",
"# c white",
"$ c None",
/* pixels */
"$$$$$$$$$$$$$$$$$$$$$$$$$$$$$$$$$$$$$$$$$$$$$$$$$$$$$$$$$$$$$$$$",
"$$$$$$$$$$$$$$$$$$$$$$$$$$$$$$$$$$$$$$$$$$$$$$$$$$$$$$$$$$$$$$$$",
"$$$$$$$$$$$$$$$$$$$$$$$$$$$$$$$$$$$$$$$$$$$$$$$$$$$$$$$$$$$$$$$$",
"$$$$$$$$$$$$$$$$$$$$$$$$$$$$$$$$$$$$$$$$$$$$$$$$$$$$$$$$$$$$$$$$",
"$$$$$$$$$$$$$$$$$$$$$$$$$$$$$$$$                $$$$$$$$$$$$$$$$",
"$$$$$$$$$$$$$$$$$$$$$$$$$$$$$$$$                $$$$$$$$$$$$$$$$",
"$$$$$$$$$$$$$$$$$$$$$$$$$$$$$$$$                $$$$$$$$$$$$$$$$",
"$$$$$$$$$$$$$$$$$$$$$$$$$$$$$$$$                $$$$$$$$$$$$$$$$",
"$$$$$$$$$$$$$$$$$$$$            XXXX++++++++++++    $$$$$$$$$$$$",
"$$$$$$$$$$$$$$$$$$$$            XXXX++++++++++++    $$$$$$$$$$$$",
"$$$$$$$$$$$$$$$$$$$$            XXXX++++++++++++    $$$$$$$$$$$$",
"$$$$$$$$$$$$$$$$$$$$            XXXX++++++++++++    $$$$$$$$$$$$",
"$$$$$$$$$$$$$       ....++++OOOO                    $$$$$$$$$$$$",
"$$$$$$$$$$$$        ....++++OOOO                    $$$$$$$$$$$$",
"$$$$$$$$$$$$        ....++++OOOO                    $$$$$$$$$$$$",
"$$$$$$$$$$$$        ....++++OOOO                    $$$$$$$$$$$$",
"$$$$$$$$$   ....++++++++++++                        $$$$$$$$$$$$",
"$$$$$$$$    ....++++++++++++                        $$$$$$$$$$$$",
"$$$$$$$$    ....++++++++++++                        $$$$$$$$$$$$",
"$$$$$$$$    ....++++++++++++                        $$$$$$$$$$$$",
"$$$$$$$$    ++++++++++++++++        @@@@@@@@        $$$$$$$$$$$$",
"$$$$$$$$    ++++++++++++++++        @@@@@@@@        $$$$$$$$$$$$",
"$$$$$$$$    ++++++++++++++++        @@@@@@@@        $$$$$$$$$$$$",
"$$$$$$$$    ++++++++++++++++        @@@@@@@@        $$$$$$$$$$$$",
"$$$$$$$$$$$$    ....++++++++                        $$$$$$$$$$$$",
"$$$$$$$$$$$$    ....++++++++                        $$$$$$$$$$$$",
"$$$$$$$$$$$$    ....++++++++                        $$$$$$$$$$$$",
"$$$$$$$$$$$$    ....++++++++                        $$$$$$$$$$$$",
"$$$$$$$$                ++++....                $$$$$$$$$$$$$$$$",
"$$$$$$$$                ++++....                $$$$$$$$$$$$$$$$",
"$$$$$$$$                ++++....                $$$$$$$$$$$$$$$$",
"$$$$$$$$                ++++....                $$$$$$$$$$$$$$$$",
"$$$$    ....++++++++++++++++++++++++++++    ##$$$$$$$$$$$$$$$$$$",
"$$$$    ....++++++++++++++++++++++++++++    #$$$$$$$$$$$$$$$$$$$",
"$$$$    ....++++++++++++++++++++++++++++    #$$$$$$$$$$$$$$$$$$$",
"$$$$    ....++++++++++++++++++++++++++++    #$$$$$$$$$$$$$$$$$$$",
"    ....oooo++++....    ++++++++++++....    $$$$$$$$$$$$$$$$$$$$",
"    ....oooo++++....    ++++++++++++....    $$$$$$$$$$$$$$$$$$$$",
"    ....oooo++++....    ++++++++++++....    $$$$$$$$$$$$$$$$$$$$",
"    ....oooo++++....    ++++++++++++....    $$$$$$$$$$$$$$$$$$$$",
"    oooo....        ++++++++++++....        $$$$$$$$$$$$$$$$$$$$",
"    oooo....        ++++++++++++....        $$$$$$$$$$$$$$$$$$$$",
"    oooo....        ++++++++++++....        $$$$$$$$$$$$$$$$$$$$",
"    oooo....        ++++++++++++....        $$$$$$$$$$$$$$$$$$$$",
"$$$$                                        $$$$$$$$$$$$$$$$$$$$",
"$$$$                                        $$$$$$$$$$$$$$$$$$$$",
"$$$$                                        $$$$$$$$$$$$$$$$$$$$",
"$$$$                                        $$$$$$$$$$$$$$$$$$$$",
"$$$$$$$$            ######$$$$$$$$$$        $$$$$$$$$$$$$$$$$$$$",
"$$$$$$$$            $$$$$$$$$$$$$$$$        $$$$$$$$$$$$$$$$$$$$",
"$$$$$$$$            $$$$$$$$$$$$$$$$        $$$$$$$$$$$$$$$$$$$$",
"$$$$$$$$            $$$$$$$$$$$$$$$$        $$$$$$$$$$$$$$$$$$$$",
"$$$$            $$$$$$$$$$$$$$$$$$$$    $$$$$$$$$$$$$$$$$$$$$$$$",
"$$$$            $$$$$$$$$$$$$$$$$$$$    $$$$$$$$$$$$$$$$$$$$$$$$",
"$$$$            $$$$$$$$$$$$$$$$$$$$    $$$$$$$$$$$$$$$$$$$$$$$$",
"$$$$            $$$$$$$$$$$$$$$$$$$$    $$$$$$$$$$$$$$$$$$$$$$$$",
"$$$$$$$$$#######$$$$$$$$$$$$$$$$$$$$$$$$$$$$$$$$$$$$$$$$$$$$$$$$",
"$$$$$$$$$$$$$$$$$$$$$$$$$$$$$$$$$$$$$$$$$$$$$$$$$$$$$$$$$$$$$$$$",
"$$$$$$$$$$$$$$$$$$$$$$$$$$$$$$$$$$$$$$$$$$$$$$$$$$$$$$$$$$$$$$$$",
"$$$$$$$$$$$$$$$$$$$$$$$$$$$$$$$$$$$$$$$$$$$$$$$$$$$$$$$$$$$$$$$$",
"$$$$$$$$$$$$$$$$$$$$$$$$$$$$$$$$$$$$$$$$$$$$$$$$$$$$$$$$$$$$$$$$",
"$$$$$$$$$$$$$$$$$$$$$$$$$$$$$$$$$$$$$$$$$$$$$$$$$$$$$$$$$$$$$$$$",
"$$$$$$$$$$$$$$$$$$$$$$$$$$$$$$$$$$$$$$$$$$$$$$$$$$$$$$$$$$$$$$$$",
"$$$$$$$$$$$$$$$$$$$$$$$$$$$$$$$$$$$$$$$$$$$$$$$$$$$$$$$$$$$$$$$$"
};
