/* XPM */
static char *result[] = {
/* columns rows colors chars-per-pixel */
"64 64 5 1 ",
"  c gray20",
". c #345C98",
"X c #678FCB",
"o c #B9B5C3",
"O c None",
/* pixels */
"OOOOOOOOOOOOOOOOOOOOOOOOOOOOOOOOOOOOOOOOOOOOOOOOOOOOOOOOOOOOOOOO",
"OOOOOOOOOOOOOOOOOOOOOOOOOOOOOOOOOOOOOOOOOOOOOOOOOOOOOOOOOOOOOOOO",
"OOOOOOOOOOOOOOOOOOOOOOOOOOOOOOOOOOOOOOOOOOOOOOOOOOOOOOOOOOOOOOOO",
"OOOOOOOOOOOOOOOOOOOOOOOOOOOOOOOOOOOOOOOOOOOOOOOOOOOOOOOOOOOOOOOO",
"OOOOOOOOOOOOOOOOOOOOOOOOOOOOOOOO                OOOOOOOOOOOOOOOO",
"OOOOOOOOOOOOOOOOOOOOOOOOOOOOOOOO                OOOOOOOOOOOOOOOO",
"OOOOOOOOOOOOOOOOOOOOOOOOOOOOOOOO                OOOOOOOOOOOOOOOO",
"OOOOOOOOOOOOOOOOOOOOOOOOOOOOOOOO                OOOOOOOOOOOOOOOO",
"OOOOOOOOOOOOOOOOOOOOOOOOOOOO    XXXXXXXXXXXXXXXX    OOOOOOOOOOOO",
"OOOOOOOOOOOOOOOOOOOOOOOOOOOO    XXXXXXXXXXXXXXXX    OOOOOOOOOOOO",
"OOOOOOOOOOOOOOOOOOOOOOOOOOOO    XXXXXXXXXXXXXXXX    OOOOOOOOOOOO",
"OOOOOOOOOOOOOOOOOOOOOOOOOOOO    XXXXXXXXXXXXXXXX    OOOOOOOOOOOO",
"OOOOOOOO                    XXXXXXXXXXXXXXXXXXXX    OOOOOOOOOOOO",
"OOOOOOOO                    XXXXXXXXXXXXXXXXXXXX    OOOOOOOOOOOO",
"OOOOOOOO                    XXXXXXXXXXXXXXXXXXXX    OOOOOOOOOOOO",
"OOOOOOOO                    XXXXXXXXXXXXXXXXXXXX    OOOOOOOOOOOO",
"OOOOOOOO    ....XXXXXXXXXXXXXXXX                    OOOOOOOOOOOO",
"OOOOOOOO    ....XXXXXXXXXXXXXXXX                    OOOOOOOOOOOO",
"OOOOOOOO    ....XXXXXXXXXXXXXXXX                    OOOOOOOOOOOO",
"OOOOOOOO    ....XXXXXXXXXXXXXXXX                    OOOOOOOOOOOO",
"OOOOOOOO    XXXXXXXXXXXXXXXX        oooooooo        OOOOOOOOOOOO",
"OOOOOOOO    XXXXXXXXXXXXXXXX        oooooooo        OOOOOOOOOOOO",
"OOOOOOOO    XXXXXXXXXXXXXXXX        oooooooo        OOOOOOOOOOOO",
"OOOOOOOO    XXXXXXXXXXXXXXXX        oooooooo        OOOOOOOOOOOO",
"OOOOOOOOOOOO    ....XXXXXXXX                        OOOOOOOOOOOO",
"OOOOOOOOOOOO    ....XXXXXXXX                        OOOOOOOOOOOO",
"OOOOOOOOOOOO    ....XXXXXXXX                        OOOOOOOOOOOO",
"OOOOOOOOOOOO    ....XXXXXXXX                        OOOOOOOOOOOO",
"OOOOOOOOOOOOOOOO        XXXX                        OOOOOOOOOOOO",
"OOOOOOOOOOOOOOOO        XXXX                        OOOOOOOOOOOO",
"OOOOOOOOOOOOOOOO        XXXX                        OOOOOOOOOOOO",
"OOOOOOOOOOOOOOOO        XXXX                        OOOOOOOOOOOO",
"OOOO                    XXXX....                OOOOOOOOOOOOOOOO",
"OOOO                    XXXX....                OOOOOOOOOOOOOOOO",
"OOOO                    XXXX....                OOOOOOOOOOOOOOOO",
"OOOO                    XXXX....                OOOOOOOOOOOOOOOO",
"    ....XXXXXXXXXXXX....    XXXXXXXXXXXX    OOOOOOOOOOOOOOOOOOOO",
"    ....XXXXXXXXXXXX....    XXXXXXXXXXXX    OOOOOOOOOOOOOOOOOOOO",
"    ....XXXXXXXXXXXX....    XXXXXXXXXXXX    OOOOOOOOOOOOOOOOOOOO",
"    ....XXXXXXXXXXXX....    XXXXXXXXXXXX    OOOOOOOOOOOOOOOOOOOO",
"    XXXXXXXX....        XXXXXXXXXXXX....    OOOOOOOOOOOOOOOOOOOO",
"    XXXXXXXX....        XXXXXXXXXXXX....    OOOOOOOOOOOOOOOOOOOO",
"    XXXXXXXX....        XXXXXXXXXXXX....    OOOOOOOOOOOOOOOOOOOO",
"    XXXXXXXX....        XXXXXXXXXXXX....    OOOOOOOOOOOOOOOOOOOO",
"OOOO            XXXXXXXXXXXXXXXX....        OOOOOOOOOOOOOOOOOOOO",
"OOOO            XXXXXXXXXXXXXXXX....        OOOOOOOOOOOOOOOOOOOO",
"OOOO            XXXXXXXXXXXXXXXX....        OOOOOOOOOOOOOOOOOOOO",
"OOOO            XXXXXXXXXXXXXXXX....        OOOOOOOOOOOOOOOOOOOO",
"OOOOOOOOOOOO                                OOOOOOOOOOOOOOOOOOOO",
"OOOOOOOOOOOO                                OOOOOOOOOOOOOOOOOOOO",
"OOOOOOOOOOOO                                OOOOOOOOOOOOOOOOOOOO",
"OOOOOOOOOOOO                                OOOOOOOOOOOOOOOOOOOO",
"OOOOOOOOOOOO        OOOOOOOOOOOO        OOOOOOOOOOOOOOOOOOOOOOOO",
"OOOOOOOOOOOO        OOOOOOOOOOOO        OOOOOOOOOOOOOOOOOOOOOOOO",
"OOOOOOOOOOOO        OOOOOOOOOOOO        OOOOOOOOOOOOOOOOOOOOOOOO",
"OOOOOOOOOOOO        OOOOOOOOOOOO        OOOOOOOOOOOOOOOOOOOOOOOO",
"OOOOOOOOOOOOOOOOOOOOOOOOOOOOOOOO        OOOOOOOOOOOOOOOOOOOOOOOO",
"OOOOOOOOOOOOOOOOOOOOOOOOOOOOOOOO        OOOOOOOOOOOOOOOOOOOOOOOO",
"OOOOOOOOOOOOOOOOOOOOOOOOOOOOOOOO        OOOOOOOOOOOOOOOOOOOOOOOO",
"OOOOOOOOOOOOOOOOOOOOOOOOOOOOOOOO        OOOOOOOOOOOOOOOOOOOOOOOO",
"OOOOOOOOOOOOOOOOOOOOOOOOOOOOOOOO    OOOOOOOOOOOOOOOOOOOOOOOOOOOO",
"OOOOOOOOOOOOOOOOOOOOOOOOOOOOOOOO    OOOOOOOOOOOOOOOOOOOOOOOOOOOO",
"OOOOOOOOOOOOOOOOOOOOOOOOOOOOOOOO    OOOOOOOOOOOOOOOOOOOOOOOOOOOO",
"OOOOOOOOOOOOOOOOOOOOOOOOOOOOOOOO    OOOOOOOOOOOOOOOOOOOOOOOOOOOO"
};
