/* XPM */
static char *result[] = {
/* columns rows colors chars-per-pixel */
"64 64 6 1 ",
"  c gray20",
". c #345C98",
"X c #678FCB",
"o c #B9B5C3",
"O c white",
"+ c None",
/* pixels */
"++++++++++++++++++++++++++++++++++++++++++++++++++++++++++++++++",
"++++++++++++++++++++++++++++++++++++++++++++++++++++++++++++++++",
"++++++++++++++++++++++++++++++++++++++++++++++++++++++++++++++++",
"++++++++++++++++++++++++++++++++++++++++++++++++++++++++++++++++",
"++++++++++++++++++++++++++++++++            ++++++++++++++++++++",
"++++++++++++++++++++++++++++++++            ++++++++++++++++++++",
"++++++++++++++++++++++++++++++++            ++++++++++++++++++++",
"++++++++++++++++++++++++++++++++            O+++++++++++++++++++",
"++++++++++++++++++++++++++++    XXXXXXXXXXXX    ++++++++++++++++",
"++++++++++++++++++++++++++++    XXXXXXXXXXXX    ++++++++++++++++",
"++++++++++++++++++++++++++++    XXXXXXXXXXXX    ++++++++++++++++",
"++++++++++++++++++++++++++++    XXXXXXXXXXXX    ++++++++++++++++",
"++++++++++++++++            ....XXXXXXXXXXXXXXXX    ++++++++++++",
"++++++++++++++++            ....XXXXXXXXXXXXXXXX    ++++++++++++",
"++++++++++++++++            ....XXXXXXXXXXXXXXXX    ++++++++++++",
"++++++++++++++++            ....XXXXXXXXXXXXXXXX    ++++++++++++",
"+++++++++       ....XXXXXXXXXXXX                    ++++++++++++",
"++++++++        ....XXXXXXXXXXXX                    ++++++++++++",
"++++++++        ....XXXXXXXXXXXX                    ++++++++++++",
"++++++++        ....XXXXXXXXXXXX                    ++++++++++++",
"++++++++    XXXXXXXXXXXXXXXX                        ++++++++++++",
"++++++++    XXXXXXXXXXXXXXXX                        ++++++++++++",
"++++++++    XXXXXXXXXXXXXXXX                        ++++++++++++",
"++++++++    XXXXXXXXXXXXXXXX                        ++++++++++++",
"++++++++++++    ....XXXXXXXX        oooooooo        ++++++++++++",
"++++++++++++    ....XXXXXXXX        oooooooo        ++++++++++++",
"++++++++++++    ....XXXXXXXX        oooooooo        ++++++++++++",
"++++++++++++    ....XXXXXXXX        oooooooo        ++++++++++++",
"++++++++++++++++        XXXX                        ++++++++++++",
"++++++++++++++++        XXXX                        ++++++++++++",
"++++++++++++++++        XXXX                        ++++++++++++",
"++++++++++++++++        XXXX                        ++++++++++++",
"++++++++++++        XXXXXXXX....                ++++++++++++++++",
"++++++++++++        XXXXXXXX....                ++++++++++++++++",
"++++++++++++        XXXXXXXX....                ++++++++++++++++",
"++++++++++++        XXXXXXXX....                ++++++++++++++++",
"++++        XXXXXXXXXXXXXXXXXXXXXXXX....    ++++++++++++++++++++",
"++++        XXXXXXXXXXXXXXXXXXXXXXXX....    ++++++++++++++++++++",
"++++        XXXXXXXXXXXXXXXXXXXXXXXX....    ++++++++++++++++++++",
"++++        XXXXXXXXXXXXXXXXXXXXXXXX....    ++++++++++++++++++++",
"++++    ....        XXXXXXXXXXXX....        ++++++++++++++++++++",
"++++    ....        XXXXXXXXXXXX....        ++++++++++++++++++++",
"++++    ....        XXXXXXXXXXXX....        ++++++++++++++++++++",
"++++    ....        XXXXXXXXXXXX....        ++++++++++++++++++++",
"++++++++    XXXXXXXXXXXXXXXX....    XXXX    ++++++++++++++++++++",
"++++++++    XXXXXXXXXXXXXXXX....    XXXX    ++++++++++++++++++++",
"++++++++    XXXXXXXXXXXXXXXX....    XXXX    ++++++++++++++++++++",
"++++++++    XXXXXXXXXXXXXXXX....    XXXX    ++++++++++++++++++++",
"++++++++++++                                ++++++++++++++++++++",
"++++++++++++                                ++++++++++++++++++++",
"++++++++++++                                ++++++++++++++++++++",
"++++++++++++                                ++++++++++++++++++++",
"++++++++++++++++++++                ++++++++++++++++++++++++++++",
"++++++++++++++++++++                ++++++++++++++++++++++++++++",
"++++++++++++++++++++                ++++++++++++++++++++++++++++",
"++++++++++++++++++++                ++++++++++++++++++++++++++++",
"++++++++++++++++++++++++++++        ++++++++++++++++++++++++++++",
"++++++++++++++++++++++++++++        ++++++++++++++++++++++++++++",
"++++++++++++++++++++++++++++        ++++++++++++++++++++++++++++",
"++++++++++++++++++++++++++++        ++++++++++++++++++++++++++++",
"++++++++++++++++++++++++++++    ++++++++++++++++++++++++++++++++",
"++++++++++++++++++++++++++++    ++++++++++++++++++++++++++++++++",
"++++++++++++++++++++++++++++    ++++++++++++++++++++++++++++++++",
"++++++++++++++++++++++++++++    ++++++++++++++++++++++++++++++++"
};
