/* XPM */
static char *result[] = {
/* columns rows colors chars-per-pixel */
"64 64 6 1 ",
"  c gray20",
". c #345C98",
"X c #678FCB",
"o c #B9B5C3",
"O c white",
"+ c None",
/* pixels */
"++++++++++++++++++++++++++++++++++++++++++++++++++++++++++++++++",
"++++++++++++++++++++++++++++++++++++++++++++++++++++++++++++++++",
"++++++++++++++++++++++++++++++++++++++++++++++++++++++++++++++++",
"++++++++++++++++++++++++++++++++++++++++++++++++++++++++++++++++",
"++++++++++++++++++++++++++++            ++++++++++++++++++++++++",
"++++++++++++++++++++++++++++            ++++++++++++++++++++++++",
"++++++++++++++++++++++++++++            ++++++++++++++++++++++++",
"++++++++++++++++++++++++++++            ++++++++++++++++++++++++",
"++++++++++++++++++++        ....XXXXXXXX        ++++++++++++++++",
"++++++++++++++++++++        ....XXXXXXXX        ++++++++++++++++",
"++++++++++++++++++++        ....XXXXXXXX        ++++++++++++++++",
"++++++++++++++++++++        ....XXXXXXXX        ++++++++++++++++",
"++++++++++++        ....XXXXXXXX                    ++++++++++++",
"++++++++++++        ....XXXXXXXX                    ++++++++++++",
"++++++++++++        ....XXXXXXXX                    ++++++++++++",
"++++++++++++        ....XXXXXXXX                    ++++++++++++",
"+++++++++   ....XXXXXXXXXXXX                        ++++++++++++",
"+++++++++   ....XXXXXXXXXXXX                        ++++++++++++",
"++++++++    ....XXXXXXXXXXXX                        ++++++++++++",
"++++++++    ....XXXXXXXXXXXX                        ++++++++++++",
"++++++++        XXXXXXXXXXXX        oooooooo        ++++++++++++",
"++++++++        XXXXXXXXXXXX        oooooooo        ++++++++++++",
"++++++++        XXXXXXXXXXXX        oooooooo        ++++++++++++",
"+++++++++       XXXXXXXXXXXX        oooooooo        ++++++++++++",
"++++++++++++++++        XXXX                        ++++++++++++",
"++++++++++++++++        XXXX                        ++++++++++++",
"++++++++++++++++        XXXX                        ++++++++++++",
"++++++++++++++++        XXXX                        ++++++++++++",
"++++++++++++        XXXXXXXX....                ++++++++++++++++",
"++++++++++++        XXXXXXXX....                ++++++++++++++++",
"++++++++++++        XXXXXXXX....                ++++++++++++++++",
"++++++++++++        XXXXXXXX....                ++++++++++++++++",
"++++++++    ....XXXXXXXXXXXXXXXXXXXXXXXX    O+++++++++++++++++++",
"++++++++    ....XXXXXXXXXXXXXXXXXXXXXXXX    ++++++++++++++++++++",
"++++++++    ....XXXXXXXXXXXXXXXXXXXXXXXX    ++++++++++++++++++++",
"++++++++    ....XXXXXXXXXXXXXXXXXXXXXXXX    ++++++++++++++++++++",
"++++    ....XXXXXXXXXXXXXXXX....    XXXX    ++++++++++++++++++++",
"++++    ....XXXXXXXXXXXXXXXX....    XXXX    ++++++++++++++++++++",
"++++    ....XXXXXXXXXXXXXXXX....    XXXX    ++++++++++++++++++++",
"++++    ....XXXXXXXXXXXXXXXX....    XXXX    ++++++++++++++++++++",
"++++    XXXXXXXXXXXXXXXX....    XXXXXXXX    ++++++++++++++++++++",
"++++    XXXXXXXXXXXXXXXX....    XXXXXXXX    ++++++++++++++++++++",
"++++    XXXXXXXXXXXXXXXX....    XXXXXXXX    ++++++++++++++++++++",
"++++    XXXXXXXXXXXXXXXX....    XXXXXXXX    ++++++++++++++++++++",
"++++++++        XXXXXXXX                ++++++++++++++++++++++++",
"++++++++        XXXXXXXX                ++++++++++++++++++++++++",
"++++++++        XXXXXXXX                ++++++++++++++++++++++++",
"++++++++        XXXXXXXX                ++++++++++++++++++++++++",
"++++++++++++                    ++++++++++++++++++++++++++++++++",
"++++++++++++                    ++++++++++++++++++++++++++++++++",
"++++++++++++                    ++++++++++++++++++++++++++++++++",
"++++++++++++                    ++++++++++++++++++++++++++++++++",
"++++++++++++++++++++++++        ++++++++++++++++++++++++++++++++",
"++++++++++++++++++++++++        ++++++++++++++++++++++++++++++++",
"++++++++++++++++++++++++        ++++++++++++++++++++++++++++++++",
"++++++++++++++++++++++++        ++++++++++++++++++++++++++++++++",
"++++++++++++++++++++++++++++++++++++++++++++++++++++++++++++++++",
"++++++++++++++++++++++++++++++++++++++++++++++++++++++++++++++++",
"++++++++++++++++++++++++++++++++++++++++++++++++++++++++++++++++",
"++++++++++++++++++++++++++++++++++++++++++++++++++++++++++++++++",
"++++++++++++++++++++++++++++++++++++++++++++++++++++++++++++++++",
"++++++++++++++++++++++++++++++++++++++++++++++++++++++++++++++++",
"++++++++++++++++++++++++++++++++++++++++++++++++++++++++++++++++",
"++++++++++++++++++++++++++++++++++++++++++++++++++++++++++++++++"
};
