/* XPM */
static char *result[] = {
/* columns rows colors chars-per-pixel */
"64 64 82 1 ",
"  c #B4840E",
". c #CC9C53",
"X c #CC9C54",
"o c #CC9D54",
"O c #CD9D54",
"+ c #CF9E55",
"@ c #CF9F55",
"# c #D09F55",
"$ c #D19F55",
"% c #D1A056",
"& c #D2A258",
"* c #D5A45A",
"= c #D6A65B",
"- c #D7A85C",
"; c #DAA85D",
": c #DAAB5D",
"> c #DCA85D",
", c #DCA95D",
"< c #DCA85E",
"1 c #DCA95E",
"2 c #DCAA5E",
"3 c #DDAA5E",
"4 c #DDAA5F",
"5 c #DEAB5F",
"6 c #DAAC5E",
"7 c #DCAD5F",
"8 c #DEAC60",
"9 c #DFAC60",
"0 c #DFB161",
"q c #E0AC60",
"w c #E1AE61",
"e c #E1AF61",
"r c #E0B161",
"t c #E2B062",
"y c #E1B363",
"u c #E3B263",
"i c #E0B462",
"p c #E0B463",
"a c #E1B463",
"s c #E5B464",
"d c #E6B565",
"f c #E4B664",
"g c #E7B665",
"h c #E8B666",
"j c #E9B865",
"k c #E9B866",
"l c #E9B867",
"z c #EAB967",
"x c #EABA67",
"c c #EABB67",
"v c #EAB968",
"b c #EABB68",
"n c #EBBB69",
"m c #EABE68",
"M c #EABF69",
"N c #EDBC69",
"B c #EDBE69",
"V c #EDBD6A",
"C c #EEBE6A",
"Z c #EFBF6C",
"A c #ECC06A",
"S c #ECC16A",
"D c #EDC16A",
"F c #ECC16C",
"G c #F2C36D",
"H c #F2C46E",
"J c #F5C670",
"K c #F5C770",
"L c #F7C971",
"P c #F7CA71",
"I c #F7CA72",
"U c #F8C972",
"Y c #FACC74",
"T c #FACD74",
"R c #FBCE74",
"E c #FCCE75",
"W c #FDCF75",
"Q c #FDCF76",
"! c #FDD076",
"~ c #FFD277",
"^ c #FFD378",
"/ c None",
/* pixels */
"////////////////////////////////////////////////////////////////",
"////////////////////////////////////////////////////////////////",
"////////////////////////////////////////////////////////////////",
"////////////////////////////////////////////////////////////////",
"////////////////////////////////////////////////////////////////",
"////////////////////////////////////////////////////////////////",
"////////////////////////////////////////////////////////////////",
"////////////////////////////////////////////////////////////////",
"////////////////////////////////////////////////////////////////",
"////////////////////////////////////////////////////////////////",
"////////////////////////////////////////////////////////////////",
"////////////////////////////////////////////////////////////////",
"////////////////////////////////////////////////////////////////",
"////////////////////////////////////////////////////////////////",
"////////////////////////////////////////////////////////////////",
"////////////////////////////////////////////////////////////////",
"//////////////////                     /////////////////////////",
"////////////////  115335555555555555422  ///////////////////////",
"////////////////  115335555555555555422  ///////////////////////",
"////////////////  1145555221<<11>>22555    /////////////////////",
"////////////////  <<54422$$#######%%2554422 ////////////////////",
"////////////////  1155511##oooOOXX++;,,5544   //////////////////",
"////////////////  1155511##oooOOXX++;,,5544   //////////////////",
"////////////////  1134411           +%%2255311  ////////////////",
"////////////////  1154411  ///////  .@@1144511  ////////////////",
"////////////////  1155511  /////////   2255511  ////////////////",
"////////////////  1155511  /////////   2255511  ////////////////",
"////////////////  449qq44  /////////   9999822  ////////////////",
"////////////////  wwtttee  ///////  ettttee*&&  ////////////////",
"////////////////  sshgggg           gggdduu-==  ////////////////",
"////////////////  sshgggg           gggdduu-==  ////////////////",
"////////////////  jjvzzvvzzvvvzzvvvvzll77::   //////////////////",
"////////////////  bbNVVNNnnxxxccbbxxckk7766 ////////////////////",
"////////////////  BBZZZCCyy0rr000000r00    /////////////////////",
"////////////////  BBZZZCCyy0rr000000r00    /////////////////////",
"////////////////  GGJJJHHffiaappaaaaapp  ///////////////////////",
"////////////////  KKULLKK              /////////////////////////",
"////////////////  IIYYYPP  /////////////////////////////////////",
"////////////////  IIYYYPP  /////////////////////////////////////",
"////////////////  TTQEETT  /////////////////////////////////////",
"////////////////  WW~~~!!  /////////////////////////////////////",
"////////////////  WW^~~WW  /////////////////////////////////////",
"////////////////  WW^~~WW  /////////////////////////////////////",
"////////////////  RRQ!!RR  /////////////////////////////////////",
"////////////////  AASDDFF  /////////////////////////////////////",
"////////////////  mmMmmmm  /////////////////////////////////////",
"////////////////  mmMmmmm  /////////////////////////////////////",
"//////////////////       ///////////////////////////////////////",
"////////////////////////////////////////////////////////////////",
"////////////////////////////////////////////////////////////////",
"////////////////////////////////////////////////////////////////",
"////////////////////////////////////////////////////////////////",
"////////////////////////////////////////////////////////////////",
"////////////////////////////////////////////////////////////////",
"////////////////////////////////////////////////////////////////",
"////////////////////////////////////////////////////////////////",
"////////////////////////////////////////////////////////////////",
"////////////////////////////////////////////////////////////////",
"////////////////////////////////////////////////////////////////",
"////////////////////////////////////////////////////////////////",
"////////////////////////////////////////////////////////////////",
"////////////////////////////////////////////////////////////////",
"////////////////////////////////////////////////////////////////",
"////////////////////////////////////////////////////////////////"
};
