/* XPM */
static char *result[] = {
/* columns rows colors chars-per-pixel */
"64 64 9 1 ",
"  c #060608",
". c #683E2C",
"X c #374827",
"o c #3B4E29",
"O c #3A5124",
"+ c #7E4C35",
"@ c #4B692F",
"# c #A5A5A5",
"$ c None",
/* pixels */
"$$$$$$$$$$$$$$$$$$$$$$$$$$$$$$$$$$$$$$$$$$$$$$$$$$$$$$$$$$$$$$$$",
"$$$$$$$$$$$$$$$$$$$$$$$$$$$$$$$$$$$$$$$$$$$$$$$$$$$$$$$$$$$$$$$$",
"$$$$$$$$$$$$$$$$$$$$$$$$$$$$$$$$$$$$$$$$$$$$$$$$$$$$$$$$$$$$$$$$",
"$$$$$$$$$$$$$$$$$$$$$$$$$$$$$$$$$$$$$$$$$$$$$$$$$$$$$$$$$$$$$$$$",
"$$$$$$$$$$$$$$$$$$$$$$$$                    $$$$$$$$$$$$$$$$$$$$",
"$$$$$$$$$$$$$$$$$$$$$$$$                    $$$$$$$$$$$$$$$$$$$$",
"$$$$$$$$$$$$$$$$$$$$$$$$                    $$$$$$$$$$$$$$$$$$$$",
"$$$$$$$$$$$$$$$$$$$$$$$$                    $$$$$$$$$$$$$$$$$$$$",
"$$$$$$$$$$$$$$$$$$$$    ....++++++++++++....    $$$$$$$$$$$$$$$$",
"$$$$$$$$$$$$$$$$$$$$    ....++++++++++++....    $$$$$$$$$$$$$$$$",
"$$$$$$$$$$$$$$$$$$$$    ....++++++++++++....    $$$$$$$$$$$$$$$$",
"$$$$$$$$$$$$$$$$$$$$    ....++++++++++++....    $$$$$$$$$$$$$$$$",
"$$$$$$$$$$$$$$$$    ....++++++++++++++++++++....    $$$$$$$$$$$$",
"$$$$$$$$$$$$$$$$    ....++++++++++++++++++++....    $$$$$$$$$$$$",
"$$$$$$$$$$$$$$$$    ....++++++++++++++++++++....    $$$$$$$$$$$$",
"$$$$$$$$$$$$$$$$    ....++++++++++++++++++++....    $$$$$$$$$$$$",
"$$$$$$$$$$$$    @@@@@@@@++++++++++++++++++++++++@@@@    $$$$$$$$",
"$$$$$$$$$$$$    @@@@@@@@++++++++++++++++++++++++@@@@    $$$$$$$$",
"$$$$$$$$$$$$    @@@@@@@@++++++++++++++++++++++++@@@@    $$$$$$$$",
"$$$$$$$$$$$$    @@@@@@@@++++++++++++++++++++++++@@@@    $$$$$$$$",
"$$$$$$$$    OOOOOOOO@@@@++++OOOOOOOOOOOOOOOOOOOOOOOOOOOO    $$$$",
"$$$$$$$$    OOOOOOOO@@@@++++OOOOOOOOOOOOOOOOOOOOOOOOOOOO    $$$$",
"$$$$$$$$    OOOOOOOO@@@@++++OOOOOOOOOOOOOOOOOOOOOOOOOOOO    $$$$",
"$$$$$$$$    OOOOOOOO@@@@++++OOOOOOOOOOOOOOOOOOOOOOOOOOOO    $$$$",
"$$$$$$$$        ....@@@@....OOOOOOOOOOOOOOOOOOOO            $$$$",
"$$$$$$$$        ....@@@@....OOOOOOOOOOOOOOOOOOOO            $$$$",
"$$$$$$$$        ....@@@@....OOOOOOOOOOOOOOOOOOOO            $$$$",
"$$$$$$$$        ....@@@@....OOOOOOOOOOOOOOOOOOOO            $$$$",
"$$$$$$$$$$$$    ....OOOOOOOOOOOOOOOOOOOOOOOOOOOO    $$$$$$$$$$$$",
"$$$$$$$$$$$$    ....OOOOOOOOOOOOOOOOOOOOOOOOOOOO    $$$$$$$$$$$$",
"$$$$$$$$$$$$    ....OOOOOOOOOOOOOOOOOOOOOOOOOOOO    $$$$$$$$$$$$",
"$$$$$$$$$$$$    ....OOOOOOOOOOOOOOOOOOOOOOOOOOOO    $$$$$$$$$$$$",
"$$$$$$$$$$$$    ........OOOO@@@@    @@@@@@@@        $$$$$$$$$$$$",
"$$$$$$$$$$$$    ........OOOO@@@@    @@@@@@@@        $$$$$$$$$$$$",
"$$$$$$$$$$$$    ........OOOO@@@@    @@@@@@@@        $$$$$$$$$$$$",
"$$$$$$$$$$$$    ........OOOO@@@@    @@@@@@@@        $$$$$$$$$$$$",
"$$$$$$$$$$$$$$$$    ....OOOO@@@@@@@@@@@@@@@@@@@@    $$$$$$$$$$$$",
"$$$$$$$$$$$$$$$$    ....OOOO@@@@@@@@@@@@@@@@@@@@    $$$$$$$$$$$$",
"$$$$$$$$$$$$$$$$    ....OOOO@@@@@@@@@@@@@@@@@@@@    $$$$$$$$$$$$",
"$$$$$$$$$$$$$$$$    ....OOOO@@@@@@@@@@@@@@@@@@@@    $$$$$$$$$$$$",
"$$$$$$$$$$$$$$$$$$$$    OOOO@@@@@@@@@@@@@@@@@@@@    $$$$$$$$$$$$",
"$$$$$$$$$$$$$$$$$$$$    OOOO@@@@@@@@@@@@@@@@@@@@    $$$$$$$$$$$$",
"$$$$$$$$$$$$$$$$$$$$    OOOO@@@@@@@@@@@@@@@@@@@@    $$$$$$$$$$$$",
"$$$$$$$$$$$$$$$$$$$$    OOOO@@@@@@@@@@@@@@@@@@@@    $$$$$$$$$$$$",
"$$$$$$$$$$$$$$$$$$$$    OOOOOOOO            XXXX    $$$$$$$$$$$$",
"$$$$$$$$$$$$$$$$$$$$    OOOOOOOO            XXXX    $$$$$$$$$$$$",
"$$$$$$$$$$$$$$$$$$$$    OOOOOOOO            XXXX    $$$$$$$$$$$$",
"$$$$$$$$$$$$$$$$$$$$    OOOOOOOO            XXXX    $$$$$$$$$$$$",
"$$$$$$$$$$$$########    OOOO    ####    oooo    ########$$$$$$$$",
"$$$$$$$$$$$$########    OOOO    ####    oooo    ########$$$$$$$$",
"$$$$$$$$$$$$########    OOOO    ####    oooo    ########$$$$$$$$",
"$$$$$$$$$$$$########    OOOO    ####    oooo    ########$$$$$$$$",
"$$$$$$$$############        ########        ################$$$$",
"$$$$$$$$############        ########        ################$$$$",
"$$$$$$$$############        ########        ################$$$$",
"$$$$$$$$############        ########        ################$$$$",
"$$$$$$$$####################################################$$$$",
"$$$$$$$$####################################################$$$$",
"$$$$$$$$####################################################$$$$",
"$$$$$$$$####################################################$$$$",
"$$$$$$$$$$$$############################################$$$$$$$$",
"$$$$$$$$$$$$############################################$$$$$$$$",
"$$$$$$$$$$$$############################################$$$$$$$$",
"$$$$$$$$$$$$############################################$$$$$$$$"
};
