/* XPM */
static char *result[] = {
/* columns rows colors chars-per-pixel */
"64 64 9 1 ",
"  c #040406",
". c #060608",
"X c #263518",
"o c #683E2C",
"O c #3A5124",
"+ c #7E4C35",
"@ c #4B692F",
"# c #A5A5A5",
"$ c None",
/* pixels */
"$$$$$$$$$$$$$$$$$$$$$$$$$$$$$$$$$$$$$$$$$$$$$$$$$$$$$$$$$$$$$$$$",
"$$$$$$$$$$$$$$$$$$$$$$$$$$$$$$$$$$$$$$$$$$$$$$$$$$$$$$$$$$$$$$$$",
"$$$$$$$$$$$$$$$$$$$$$$$$$$$$$$$$$$$$$$$$$$$$$$$$$$$$$$$$$$$$$$$$",
"$$$$$$$$$$$$$$$$$$$$$$$$$$$$$$$$$$$$$$$$$$$$$$$$$$$$$$$$$$$$$$$$",
"$$$$$$$$$$$$$$$$$$$$....................$$$$$$$$$$$$$$$$$$$$$$$$",
"$$$$$$$$$$$$$$$$$$$$....................$$$$$$$$$$$$$$$$$$$$$$$$",
"$$$$$$$$$$$$$$$$$$$$....................$$$$$$$$$$$$$$$$$$$$$$$$",
"$$$$$$$$$$$$$$$$$$$$....................$$$$$$$$$$$$$$$$$$$$$$$$",
"$$$$$$$$$$$$$$$$....oooo++++++++++++oooo....$$$$$$$$$$$$$$$$$$$$",
"$$$$$$$$$$$$$$$$....oooo++++++++++++oooo....$$$$$$$$$$$$$$$$$$$$",
"$$$$$$$$$$$$$$$$....oooo++++++++++++oooo....$$$$$$$$$$$$$$$$$$$$",
"$$$$$$$$$$$$$$$$....oooo++++++++++++oooo....$$$$$$$$$$$$$$$$$$$$",
"$$$$$$$$$$$$....oooo++++++++++++++++++++oooo....$$$$$$$$$$$$$$$$",
"$$$$$$$$$$$$....oooo++++++++++++++++++++oooo....$$$$$$$$$$$$$$$$",
"$$$$$$$$$$$$....oooo++++++++++++++++++++oooo....$$$$$$$$$$$$$$$$",
"$$$$$$$$$$$$....oooo++++++++++++++++++++oooo....$$$$$$$$$$$$$$$$",
"$$$$$$$$....@@@@++++++++++++++++++++++++@@@@@@@@....$$$$$$$$$$$$",
"$$$$$$$$....@@@@++++++++++++++++++++++++@@@@@@@@....$$$$$$$$$$$$",
"$$$$$$$$....@@@@++++++++++++++++++++++++@@@@@@@@....$$$$$$$$$$$$",
"$$$$$$$$....@@@@++++++++++++++++++++++++@@@@@@@@....$$$$$$$$$$$$",
"$$$$....OOOOOOOOOOOOOOOOOOOOOOOOOOOO++++@@@@OOOOOOOO....$$$$$$$$",
"$$$$....OOOOOOOOOOOOOOOOOOOOOOOOOOOO++++@@@@OOOOOOOO....$$$$$$$$",
"$$$$....OOOOOOOOOOOOOOOOOOOOOOOOOOOO++++@@@@OOOOOOOO....$$$$$$$$",
"$$$$....OOOOOOOOOOOOOOOOOOOOOOOOOOOO++++@@@@OOOOOOOO....$$$$$$$$",
"$$$$............OOOOOOOOOOOOOOOOOOOOoooo@@@@oooo........$$$$$$$$",
"$$$$............OOOOOOOOOOOOOOOOOOOOoooo@@@@oooo........$$$$$$$$",
"$$$$............OOOOOOOOOOOOOOOOOOOOoooo@@@@oooo........$$$$$$$$",
"$$$$............OOOOOOOOOOOOOOOOOOOOoooo@@@@oooo........$$$$$$$$",
"$$$$$$$$$$$$....OOOOOOOOOOOOOOOOOOOOOOOOOOOOoooo....$$$$$$$$$$$$",
"$$$$$$$$$$$$....OOOOOOOOOOOOOOOOOOOOOOOOOOOOoooo....$$$$$$$$$$$$",
"$$$$$$$$$$$$....OOOOOOOOOOOOOOOOOOOOOOOOOOOOoooo....$$$$$$$$$$$$",
"$$$$$$$$$$$$....OOOOOOOOOOOOOOOOOOOOOOOOOOOOoooo....$$$$$$$$$$$$",
"$$$$$$$$$$$$........@@@@@@@@....@@@@OOOOoooooooo....$$$$$$$$$$$$",
"$$$$$$$$$$$$........@@@@@@@@....@@@@OOOOoooooooo....$$$$$$$$$$$$",
"$$$$$$$$$$$$........@@@@@@@@....@@@@OOOOoooooooo....$$$$$$$$$$$$",
"$$$$$$$$$$$$........@@@@@@@@....@@@@OOOOoooooooo....$$$$$$$$$$$$",
"$$$$$$$$$$$$....@@@@@@@@@@@@@@@@@@@@OOOOoooooooo....$$$$$$$$$$$$",
"$$$$$$$$$$$$....@@@@@@@@@@@@@@@@@@@@OOOOoooooooo....$$$$$$$$$$$$",
"$$$$$$$$$$$$....@@@@@@@@@@@@@@@@@@@@OOOOoooooooo....$$$$$$$$$$$$",
"$$$$$$$$$$$$....@@@@@@@@@@@@@@@@@@@@OOOOoooooooo....$$$$$$$$$$$$",
"$$$$$$$$$$$$....@@@@@@@@@@@@@@@@OOOOOOOOoooo....$$$$$$$$$$$$$$$$",
"$$$$$$$$$$$$....@@@@@@@@@@@@@@@@OOOOOOOOoooo....$$$$$$$$$$$$$$$$",
"$$$$$$$$$$$$....@@@@@@@@@@@@@@@@OOOOOOOOoooo....$$$$$$$$$$$$$$$$",
"$$$$$$$$$$$$....@@@@@@@@@@@@@@@@OOOOOOOOoooo....$$$$$$$$$$$$$$$$",
"$$$$$$$$$$$$....OOOO........................$$$$$$$$$$$$$$$$$$$$",
"$$$$$$$$$$$$....OOOO........................$$$$$$$$$$$$$$$$$$$$",
"$$$$$$$$$$$$....OOOO........................$$$$$$$$$$$$$$$$$$$$",
"$$$$$$$$$$$$....OOOO........................$$$$$$$$$$$$$$$$$$$$",
"$$$$$$$$########    XXXX    ########################$$$$$$$$$$$$",
"$$$$$$$$########    XXXX    ########################$$$$$$$$$$$$",
"$$$$$$$$########    XXXX    ########################$$$$$$$$$$$$",
"$$$$$$$$########    XXXX    ########################$$$$$$$$$$$$",
"$$$$################        ############################$$$$$$$$",
"$$$$################        ############################$$$$$$$$",
"$$$$################        ############################$$$$$$$$",
"$$$$################        ############################$$$$$$$$",
"$$$$####################################################$$$$$$$$",
"$$$$####################################################$$$$$$$$",
"$$$$####################################################$$$$$$$$",
"$$$$####################################################$$$$$$$$",
"$$$$$$$$############################################$$$$$$$$$$$$",
"$$$$$$$$############################################$$$$$$$$$$$$",
"$$$$$$$$############################################$$$$$$$$$$$$",
"$$$$$$$$############################################$$$$$$$$$$$$"
};
