/* XPM */
static char *result[] = {
/* columns rows colors chars-per-pixel */
"64 64 10 1 ",
"  c #040406",
". c #060608",
"X c #263518",
"o c #683E2C",
"O c #3A5124",
"+ c #7E4C35",
"@ c #4B692F",
"# c #A5A5A5",
"$ c white",
"% c None",
/* pixels */
"%%%%%%%%%%%%%%%%%%%%%%%%%%%%%%%%%%%%%%%%%%%%%%%%%%%%%%%%%%%%%%%%",
"%%%%%%%%%%%%%%%%%%%%%%%%%%%%%%%%%%%%%%%%%%%%%%%%%%%%%%%%%%%%%%%%",
"%%%%%%%%%%%%%%%%%%%%%%%%%%%%%%%%%%%%%%%%%%%%%%%%%%%%%%%%%%%%%%%%",
"%%%%%%%%%%%%%%%%%%%%%%%%%%%%%%%%%%%%%%%%%%%%%%%%%%%%%%%%%%%%%%%%",
"%%%%%%%%%%%%%%%%%%%%%%%%....................%%%%%%%%%%%%%%%%%%%%",
"%%%%%%%%%%%%%%%%%%%%%%%%....................%%%%%%%%%%%%%%%%%%%%",
"%%%%%%%%%%%%%%%%%%%%%%%%....................%%%%%%%%%%%%%%%%%%%%",
"%%%%%%%%%%%%%%%%%%%%%%%%....................%%%%%%%%%%%%%%%%%%%%",
"%%%%%%%%%%%%%%%%%%%%....oooo++++++++++++oooo....%%%%%%%%%%%%%%%%",
"%%%%%%%%%%%%%%%%%%%%....oooo++++++++++++oooo....%%%%%%%%%%%%%%%%",
"%%%%%%%%%%%%%%%%%%%%....oooo++++++++++++oooo....%%%%%%%%%%%%%%%%",
"%%%%%%%%%%%%%%%%%%%%....oooo++++++++++++oooo....%%%%%%%%%%%%%%%%",
"%%%%%%%%............oooo++++++++++++++++++++oooo............%%%%",
"%%%%%%%%............oooo++++++++++++++++++++oooo............%%%%",
"%%%%%%%%............oooo++++++++++++++++++++oooo............%%%%",
"%%%%%%%%............oooo++++++++++++++++++++oooo............%%%%",
"%%%%%%%%....OOOO@@@@@@@@++++++++++++++++++++++++@@@@OOOO....%%%%",
"%%%%%%%%....OOOO@@@@@@@@++++++++++++++++++++++++@@@@OOOO....%%%%",
"%%%%%%%%....OOOO@@@@@@@@++++++++++++++++++++++++@@@@OOOO....%%%%",
"%%%%%%%%....OOOO@@@@@@@@++++++++++++++++++++++++@@@@OOOO....%%%%",
"%%%%%%%%%%%%....OOOO@@@@++++OOOOOOOOOOOOOOOOOOOOOOOO....%%%%%%%%",
"%%%%%%%%%%%%....OOOO@@@@++++OOOOOOOOOOOOOOOOOOOOOOOO....%%%%%%%%",
"%%%%%%%%%%%%....OOOO@@@@++++OOOOOOOOOOOOOOOOOOOOOOOO....%%%%%%%%",
"%%%%%%%%%%%%....OOOO@@@@++++OOOOOOOOOOOOOOOOOOOOOOOO....%%%%%%%%",
"%%%%%%%%%%%%....oooo@@@@ooooOOOOOOOOOOOOOOOOOOOO....%%%%%%%%%%%%",
"%%%%%%%%%%%%....oooo@@@@ooooOOOOOOOOOOOOOOOOOOOO....%%%%%%%%%%%%",
"%%%%%%%%%%%%....oooo@@@@ooooOOOOOOOOOOOOOOOOOOOO....%%%%%%%%%%%%",
"%%%%%%%%%%%%....oooo@@@@ooooOOOOOOOOOOOOOOOOOOOO....%%%%%%%%%%%%",
"%%%%%%%%%%%%....ooooOOOOOOOO@@@@....@@@@@@@@........%%%%%%%%%%%%",
"%%%%%%%%%%%%....ooooOOOOOOOO@@@@....@@@@@@@@........%%%%%%%%%%%%",
"%%%%%%%%%%%%....ooooOOOOOOOO@@@@....@@@@@@@@........%%%%%%%%%%%%",
"%%%%%%%%%%%%....ooooOOOOOOOO@@@@....@@@@@@@@........%%%%%%%%%%%%",
"%%%%%%%%%%%%....ooooooooOOOO@@@@@@@@@@@@@@@@@@@@....%%%%%%%%%%%%",
"%%%%%%%%%%%%....ooooooooOOOO@@@@@@@@@@@@@@@@@@@@....%%%%%%%%%%%%",
"%%%%%%%%%%%%....ooooooooOOOO@@@@@@@@@@@@@@@@@@@@....%%%%%%%%%%%%",
"%%%%%%%%%%%%....ooooooooOOOO@@@@@@@@@@@@@@@@@@@@....%%%%%%%%%%%%",
"%%%%%%%%%%%%%%%%....ooooOOOO@@@@@@@@@@@@@@@@@@@@....%%%%%%%%%%%%",
"%%%%%%%%%%%%%%%%....ooooOOOO@@@@@@@@@@@@@@@@@@@@....%%%%%%%%%%%%",
"%%%%%%%%%%%%%%%%....ooooOOOO@@@@@@@@@@@@@@@@@@@@....%%%%%%%%%%%%",
"%%%%%%%%%%%%%%%%....ooooOOOO@@@@@@@@@@@@@@@@@@@@....%%%%%%%%%%%%",
"%%%%%%%%%%%%%$$%%%%%....OOOO@@@@@@@@@@@@@@@@@@@@....%%%%%%%%%%%%",
"%%%%%%%%%%%%%%%%%%%%....OOOO@@@@@@@@@@@@@@@@@@@@....%%%%%%%%%%%%",
"%%%%%%%%%%%%%%%%%%%%....OOOO@@@@@@@@@@@@@@@@@@@@....%%%%%%%%%%%%",
"%%%%%%%%%%%%%%%%%%%%....OOOO@@@@@@@@@@@@@@@@@@@@....%%%%%%%%%%%%",
"%%%%%%%%%%%%%%%%%%%%%%%%....OOOO@@@@............%%%%%%%%%%%%%%%%",
"%%%%%%%%%%%%%%%%%%%%%%%%....OOOO@@@@............%%%%%%%%%%%%%%%%",
"%%%%%%%%%%%%%%%%%%%%%%%%....OOOO@@@@............%%%%%%%%%%%%%%%%",
"%%%%%%%%%%%%%%%%%%%%%%%%....OOOO@@@@............%%%%%%%%%%%%%%%%",
"%%%%%%%%%%%%################....XXXX    ################%%%%%%%%",
"%%%%%%%%%%%%################....XXXX    ################%%%%%%%%",
"%%%%%%%%%%%%################....XXXX    ################%%%%%%%%",
"%%%%%%%%%%%%################....XXXX    ################%%%%%%%%",
"%%%%%%%%########################        ####################%%%%",
"%%%%%%%%########################        ####################%%%%",
"%%%%%%%%########################        ####################%%%%",
"%%%%%%%%########################        ####################%%%%",
"%%%%%%%%####################################################%%%%",
"%%%%%%%%####################################################%%%%",
"%%%%%%%%####################################################%%%%",
"%%%%%%%%####################################################%%%%",
"%%%%%%%%%%%%############################################%%%%%%%%",
"%%%%%%%%%%%%############################################%%%%%%%%",
"%%%%%%%%%%%%############################################%%%%%%%%",
"%%%%%%%%%%%%############################################%%%%%%%%"
};
