/* XPM */
static char *result[] = {
/* columns rows colors chars-per-pixel */
"64 64 15 1 ",
"  c #060608",
". c #412320",
"X c #59302C",
"o c #5C322D",
"O c #6D3B36",
"+ c gray36",
"@ c #434F65",
"# c #9A544C",
"$ c #6F7F9F",
"% c gray55",
"& c #8895AF",
"* c gray68",
"= c #A6B0C4",
"- c white",
"; c None",
/* pixels */
";;;;;;;;;;;;;;;;;;;;;;;;;;;;;;;;;;;;;;;;;;;;;;;;;;;;;;;;;;;;;;;;",
";;;;;;;;;;;;;;;;;;;;;;;;;;;;;;;;;;;;;;;;;;;;;;;;;;;;;;;;;;;;;;;;",
";;;;;;;;;;;;;;;;;;;;;;;;;;;;;;;;;;;;;;;;;;;;;;;;;;;;;;;;;;;;;;;;",
";;;;;;;;;;;;;;;;;;;;;;;;;;;;;;;;;;;;;;;;;;;;;;;;;;;;;;;;;;;;;;;;",
";;;;;;;;;;;;;;;;;;;;;;;;;;;;;;;;;;;;;;;;;;;;;;;;;;;;;;;;;;;;;;;;",
";;;;;;;;;;;;;;;;;;;;;;;;;;;;;;;;;;;;;;;;;;;;;;;;;;;;;;;;;;;;;;;;",
";;;;;;;;;;;;;;;;;;;;;;;;;;;;;;;;;;;;;;;;;;;;;;;;;;;;;;;;;;;;;;;;",
";;;;;;;;;;;;;;;;;;;;;;;;;;;;;;;;;;;;;;;;;;;;;;;;;;;;;;;;;;;;;;;;",
";;;;;;;;;;;;;;;;;;;;;;;;;;&&&&&&&&&&&&;;;;;;;;;;;;;;;;;;;;;;;;;;",
";;;;;;;;;;;;;;;;;;;;;;;;;;&&&&&&&&&&&&;;;;;;;;;;;;;;;;;;;;;;;;;;",
";;;;;;;;;;;;;;;;;;;;;;;;;;&&&&&&&&&&&&;;;;;;;;;;;;;;;;;;;;;;;;;;",
";;;;;;;;;;;;;;;;;;;;;;;;;;&&&&&&&&&&&&;;;;;;;;;;;;;;;;;;;;;;;;;;",
";;;;;;;;;;;;;;&&&&&&&&&&@@&&&&&&&&&&&&@@&&&&&&&&&&;;;;;;;;;;;;;;",
";;;;;;;;;;;;;;&&&&&&&&&&@@&&&&&&&&&&&&@@&&&&&&&&&&;;;;;;;;;;;;;;",
";;;;;;;;;;;;;;&&&&&&&&&&@@============@@&&&&&&&&&&;;;;;;;;;;;;;;",
";;;;;;;;;;;;;;&&&&&&&&&&@@============@@&&&&&&&&&&;;;;;;;;;;;;;;",
"@@&&&&&&&&&&@@&&&&&&&&&&@@$$$$$$$$$$$$@@&&&&&&&&&&@@&&&&&&&&&&@@",
"@@&&&&&&&&&&@@&&&&&&&&&&@@$$$$$$$$$$$$@@&&&&&&&&&&@@&&&&&&&&&&@@",
"@@&&&&&&&&&&@@==========@@$$$$$$$$$$$$@@==========@@&&&&&&&&&&@@",
"@@&&&&&&&&&&@@==========@@$$$$$$$$$$$$@@==========@@&&&&&&&&&&@@",
"@@&&&&&&&&&&@@$$$$$$$$$$@@$$$$$$$$$$$$@@$$$$$$$$$$@@&&&&&&&&&&@@",
"@@&&&&&&&&&&@@$$$$$$$$$$@@$$$$$$$$$$$$@@$$$$$$$$$$@@&&&&&&&&&&@@",
"@@==========@@$$$$$$$$$$@@$$$$$$$$$$$$@@$$$$$$$$$$@@==========@@",
"@@==========@@$$$$$$$$$$@@$$$$$$$$$$$$@@$$$$$$$$$$@@==========@@",
"@@$$$$$$$$$$@@$$$$$$$$$$XX..XXXXXXXX..XX$$$$$$$$$$@@$$$$$$$$$$@@",
"@@$$$$$$$$$$@@$$$$$$$$$$XX..XXXXXXXX..XX$$$$$$$$$$@@$$$$$$$$$$@@",
"@@$$$$$$$$$$XXXXXX..XXXXXX..XXXXXXXX..XXXXXX..XXXXXX$$$$$$$$$$@@",
"@@$$$$$$$$$$XXXXXX..XXXXXX..XXXXXXXX..XXXXXX..XXXXXX$$$$$$$$$$@@",
"@@$$$$$$$$$$XXXXXX..OOOOOOooOOOOOOOOooOOOOOO..XXXXXX$$$$$$$$$$@@",
"@@$$$$$$$$$$XXXXXX..OOOOOOooOOOOOOOOooOOOOOO..XXXXXX$$$$$$$$$$@@",
"@@@@@@@@@@@@OOOOOOooOOOOOOooOOOOOOOOooOOOOOOooOOOOOO@@@@@@@@@@@@",
"@@@@@@@@@@@@OOOOOOooOOOOOOooOOOOOOOOooOOOOOOooOOOOOO@@@@@@@@@@@@",
"@@==========%%%%**ooOOOOOOooOOOOOOOOooOOOOOOooOOOOOO==========@@",
"@@==========%%%%**ooOOOOOOooOOOOOOOOooOOOOOOooOOOOOO==========@@",
"@@$$$$$$$$$$%%****ooOOOOOOooOOOOOOOOooOOOOOOooOOOOOO$$$$$$$$$$@@",
"@@$$$$$$$$$$%%****ooOOOOOOooOOOOOOOOooOOOOOOooOOOOOO$$$$$$$$$$@@",
"@@$$$$$$$$$$OOOOOOooOOOOOOoo    OOOOooOOOOOOooOOOOOO$$$$$$$$$$@@",
"@@$$$$$$$$$$OOOOOOooOOOOOOoo    OOOOooOOOOOOooOOOOOO$$$$$$$$$$@@",
"@@$$$$$$$$$$OOOOOOooOOOOOO    ----  ooOOOOOOooOOOOOO$$$$$$$$$$@@",
"@@$$$$$$$$$$OOOOOOooOOOOOO    ----  ooOOOOOOooOOOOOO$$$$$$$$$$@@",
"@@$$$$$$$$$$OOOOOOooOOOOOO**  ******ooOOOOOOooOO**OO$$$$$$$$$$@@",
"@@$$$$$$$$$$OOOOOOooOOOOOO**  ******ooOOOOOOooOO**OO$$$$$$$$$$@@",
"@@@@@@@@@@@@OOOOOOooOOOOOO++****  ****OOOOOOooOO**OO@@@@@@@@@@@@",
"@@@@@@@@@@@@OOOOOOooOOOOOO++****  ****OOOOOOooOO**OO@@@@@@@@@@@@",
"@@==========OOOOOOooOOOOOO  ********  OOOOOOooOO**OO==========@@",
"@@==========OOOOOOooOOOOOO  ********  OOOOOOooOO**OO==========@@",
"@@$$$$$$$$$$OOOOOOooOOOOOOoo++******ooOOOOOOooOO**OO$$$$$$$$$$@@",
"@@$$$$$$$$$$OOOOOOooOOOOOOoo++******ooOOOOOOooOO**OO$$$$$$$$$$@@",
"@@$$$$$$$$$$OOOOOOooOOOOOOooOO++  OOooOOOOOOooOO**OO$$$$$$$$$$@@",
"@@$$$$$$$$$$OOOOOOooOOOOOOooOO++  OOooOOOOOOooOO**OO$$$$$$$$$$@@",
"@@$$$$$$$$$$OOOOOOooOOOOOOooOOOOOOOOooOOOOOOooOOOOOO$$$$$$$$$$@@",
"@@$$$$$$$$$$OOOOOOooOOOOOOooOOOOOOOOooOOOOOOooOOOOOO$$$$$$$$$$@@",
"@@$$$$$$$$$$OOOOOOooOOOOOOooOOOOOOOOooOOOOOOooOOOOOO$$$$$$$$$$@@",
"@@$$$$$$$$$$OOOOOOooOOOOOOooOOOOOOOOooOOOOOOooOOOOOO$$$$$$$$$$@@",
"@@@@@@@@@@@@OOOOOOooOOOOOOooOOOOOOOOooOOOOOOooOOOOOO@@@@@@@@@@@@",
"@@@@@@@@@@@@OOOOOOooOOOOOOooOOOOOOOOooOOOOOOooOOOOOO@@@@@@@@@@@@",
"@@==========%%%%**ooOOOOOOooOOOOOOOOooOOOOOOooOOOOOO==========@@",
"@@==========%%%%**ooOOOOOOooOOOOOOOOooOOOOOOooOOOOOO==========@@",
"@@$$$$$$$$$$%%****ooOOOOOOooOOOOOOOOooOOOOOOooOOOOOO$$$$$$$$$$@@",
"@@$$$$$$$$$$%%****ooOOOOOOooOOOOOOOOooOOOOOOooOOOOOO$$$$$$$$$$@@",
"@@$$$$$$$$$$OOOOOOooOOOOOOooOOOOOOOOooOOOOOOooOOOOOO$$$$$$$$$$@@",
"@@$$$$$$$$$$OOOOOOooOOOOOOooOOOOOOOOooOOOOOOooOOOOOO$$$$$$$$$$@@",
"@@$$$$$$$$$$######oo######oo########oo######oo######$$$$$$$$$$@@",
"@@$$$$$$$$$$######oo######oo########oo######oo######$$$$$$$$$$@@"
};
