/* XPM */
static char *result[] = {
/* columns rows colors chars-per-pixel */
"64 64 12 1 ",
"  c #412320",
". c #59302C",
"X c #5C322D",
"o c #6D3B36",
"O c #434F65",
"+ c #9A544C",
"@ c #6F7F9F",
"# c gray55",
"$ c #8895AF",
"% c gray68",
"& c #A6B0C4",
"* c None",
/* pixels */
"****************************************************************",
"****************************************************************",
"****************************************************************",
"****************************************************************",
"****************************************************************",
"****************************************************************",
"****************************************************************",
"****************************************************************",
"**************************$$$$$$$$$$$$**************************",
"**************************$$$$$$$$$$$$**************************",
"**************************$$$$$$$$$$$$**************************",
"**************************$$$$$$$$$$$$**************************",
"**************$$$$$$$$$$OO$$$$$$$$$$$$OO$$$$$$$$$$**************",
"**************$$$$$$$$$$OO$$$$$$$$$$$$OO$$$$$$$$$$**************",
"**************$$$$$$$$$$OO&&&&&&&&&&&&OO$$$$$$$$$$**************",
"**************$$$$$$$$$$OO&&&&&&&&&&&&OO$$$$$$$$$$**************",
"OO$$$$$$$$$$OO$$$$$$$$$$OO@@@@@@@@@@@@OO$$$$$$$$$$OO$$$$$$$$$$OO",
"OO$$$$$$$$$$OO$$$$$$$$$$OO@@@@@@@@@@@@OO$$$$$$$$$$OO$$$$$$$$$$OO",
"OO$$$$$$$$$$OO&&&&&&&&&&OO@@@@@@@@@@@@OO&&&&&&&&&&OO$$$$$$$$$$OO",
"OO$$$$$$$$$$OO&&&&&&&&&&OO@@@@@@@@@@@@OO&&&&&&&&&&OO$$$$$$$$$$OO",
"OO$$$$$$$$$$OO@@@@@@@@@@OO@@@@@@@@@@@@OO@@@@@@@@@@OO$$$$$$$$$$OO",
"OO$$$$$$$$$$OO@@@@@@@@@@OO@@@@@@@@@@@@OO@@@@@@@@@@OO$$$$$$$$$$OO",
"OO&&&&&&&&&&OO@@@@@@@@@@OO@@@@@@@@@@@@OO@@@@@@@@@@OO&&&&&&&&&&OO",
"OO&&&&&&&&&&OO@@@@@@@@@@OO@@@@@@@@@@@@OO@@@@@@@@@@OO&&&&&&&&&&OO",
"OO@@@@@@@@@@OO@@@@@@@@@@..  ........  ..@@@@@@@@@@OO@@@@@@@@@@OO",
"OO@@@@@@@@@@OO@@@@@@@@@@..  ........  ..@@@@@@@@@@OO@@@@@@@@@@OO",
"OO@@@@@@@@@@......  ......  ........  ......  ......@@@@@@@@@@OO",
"OO@@@@@@@@@@......  ......  ........  ......  ......@@@@@@@@@@OO",
"OO@@@@@@@@@@......  ooooooXXooooooooXXoooooo  ......@@@@@@@@@@OO",
"OO@@@@@@@@@@......  ooooooXXooooooooXXoooooo  ......@@@@@@@@@@OO",
"OOOOOOOOOOOOooooooXXooooooXXooooooooXXooooooXXooooooOOOOOOOOOOOO",
"OOOOOOOOOOOOooooooXXooooooXXooooooooXXooooooXXooooooOOOOOOOOOOOO",
"OO&&&&&&&&&&####%%XXooooooXXooooooooXXooooooXXoooooo&&&&&&&&&&OO",
"OO&&&&&&&&&&####%%XXooooooXXooooooooXXooooooXXoooooo&&&&&&&&&&OO",
"OO@@@@@@@@@@##%%%%XXooooooXXooooooooXXooooooXXoooooo@@@@@@@@@@OO",
"OO@@@@@@@@@@##%%%%XXooooooXXooooooooXXooooooXXoooooo@@@@@@@@@@OO",
"OO@@@@@@@@@@ooooooXXoo%%ooXXooooooooXXoo%%ooXXoooooo@@@@@@@@@@OO",
"OO@@@@@@@@@@ooooooXXoo%%ooXXooooooooXXoo%%ooXXoooooo@@@@@@@@@@OO",
"OO@@@@@@@@@@ooooooXXooooooXXooooooooXXooooooXXoooooo@@@@@@@@@@OO",
"OO@@@@@@@@@@ooooooXXooooooXXooooooooXXooooooXXoooooo@@@@@@@@@@OO",
"OO@@@@@@@@@@ooooooXXooooooXXooooooooXXooooooXXoo%%oo@@@@@@@@@@OO",
"OO@@@@@@@@@@ooooooXXooooooXXooooooooXXooooooXXoo%%oo@@@@@@@@@@OO",
"OOOOOOOOOOOOooooooXXooooooXXooooooooXXooooooXXoo%%ooOOOOOOOOOOOO",
"OOOOOOOOOOOOooooooXXooooooXXooooooooXXooooooXXoo%%ooOOOOOOOOOOOO",
"OO&&&&&&&&&&ooooooXXooooooXXooooooooXXooooooXXoo%%oo&&&&&&&&&&OO",
"OO&&&&&&&&&&ooooooXXooooooXXooooooooXXooooooXXoo%%oo&&&&&&&&&&OO",
"OO@@@@@@@@@@ooooooXXooooooXXooooooooXXooooooXXoo%%oo@@@@@@@@@@OO",
"OO@@@@@@@@@@ooooooXXooooooXXooooooooXXooooooXXoo%%oo@@@@@@@@@@OO",
"OO@@@@@@@@@@ooooooXXooooooXXooooooooXXooooooXXoo%%oo@@@@@@@@@@OO",
"OO@@@@@@@@@@ooooooXXooooooXXooooooooXXooooooXXoo%%oo@@@@@@@@@@OO",
"OO@@@@@@@@@@ooooooXXooooooXXooooooooXXooooooXXoooooo@@@@@@@@@@OO",
"OO@@@@@@@@@@ooooooXXooooooXXooooooooXXooooooXXoooooo@@@@@@@@@@OO",
"OO@@@@@@@@@@ooooooXXoooo%%XXooooooooXXoo%%ooXXoooooo@@@@@@@@@@OO",
"OO@@@@@@@@@@ooooooXXoooo%%XXooooooooXXoo%%ooXXoooooo@@@@@@@@@@OO",
"OOOOOOOOOOOOooooooXXooooooXXooooooooXXooooooXXooooooOOOOOOOOOOOO",
"OOOOOOOOOOOOooooooXXooooooXXooooooooXXooooooXXooooooOOOOOOOOOOOO",
"OO&&&&&&&&&&####%%XXooooooXXooooooooXXooooooXXoooooo&&&&&&&&&&OO",
"OO&&&&&&&&&&####%%XXooooooXXooooooooXXooooooXXoooooo&&&&&&&&&&OO",
"OO@@@@@@@@@@##%%%%XXooooooXXooooooooXXooooooXXoooooo@@@@@@@@@@OO",
"OO@@@@@@@@@@##%%%%XXooooooXXooooooooXXooooooXXoooooo@@@@@@@@@@OO",
"OO@@@@@@@@@@ooooooXXooooooXXooooooooXXooooooXXoooooo@@@@@@@@@@OO",
"OO@@@@@@@@@@ooooooXXooooooXXooooooooXXooooooXXoooooo@@@@@@@@@@OO",
"OO@@@@@@@@@@++++++XX++++++XX++++++++XX++++++XX++++++@@@@@@@@@@OO",
"OO@@@@@@@@@@++++++XX++++++XX++++++++XX++++++XX++++++@@@@@@@@@@OO"
};
