/* XPM */
static char *result[] = {
/* columns rows colors chars-per-pixel */
"64 64 9 1 ",
"  c #040406",
". c #060608",
"X c #AC3232",
"o c #DF7126",
"O c #8D737A",
"+ c #847E87",
"@ c #9BADB7",
"# c white",
"$ c None",
/* pixels */
"$$$$$$$$$$$$$$$$$$$$$$$$$$$$$$$$$$$$$$$$$$$$$$$$$$$$$$$$$$$$$$$$",
"$$$$$$$$$$$$$$$$$$$$$$$$$$$$$$$$$$$$$$$$$$$$$$$$$$$$$$$$$$$$$$$$",
"$$$$$$$$$$$$$$$$$$$$$$$$$$$$$$$$$$$$$$$$$$$$$$$$$$$$$$$$$$$$$$$$",
"$$$$$$$$$$$$$$$$$$$$$$$$$$$$$$$$$$$$$$$$$$$$$$$$$$$$$$$$$$$$$$$$",
"$$$$$$$$$$$$$$$$$$$$$$$$$$$$$$$$....$$$$$$$$$$$$$$$$$$$$$$$$$$$$",
"$$$$$$$$$$$$$$$$$$$$$$$$$$$$$$$$....$$$$$$$$$$$$$$$$$$$$$$$$$$$$",
"$$$$$$$$$$$$$$$$$$$$$$$$$$$$$$$$....$$$$$$$$$$$$$$$$$$$$$$$$$$$$",
"$$$$$$$$$$$$$$$$$$$$$$$$$$$$$$$$....$$$$$$$$$$$$$$$$$$$$$$$$$$$$",
"$$$$$$$$$$$$$$$$$$$$$$$$$$$$....XXXX........$$$$$$$$$$$$$$$$$$$$",
"$$$$$$$$$$$$$$$$$$$$$$$$$$$$....XXXX........$$$$$$$$$$$$$$$$$$$$",
"$$$$$$$$$$$$$$$$$$$$$$$$$$$$....XXXX........$$$$$$$$$$$$$$$$$$$$",
"$$$$$$$$$$$$$$$$$$$$$$$$$$$$....XXXX........$$$$$$$$$$$$$$$$$$$$",
"$$$$$$$$$$$$$$$$................++++XXXX....$$$$$$$$$$$$$$$$$$$$",
"$$$$$$$$$$$$$$$$................++++XXXX....$$$$$$$$$$$$$$$$$$$$",
"$$$$$$$$$$$$$$$$................++++XXXX....$$$$$$$$$$$$$$$$$$$$",
"$$$$$$$$$$$$$$$$................++++XXXX....$$$$$$$$$$$$$$$$$$$$",
"$$$$$$$$$$$$....@@@@@@@@@@@@@@@@++++++++....$$$$$$$$$$$$$$$$$$$$",
"$$$$$$$$$$$$....@@@@@@@@@@@@@@@@++++++++....$$$$$$$$$$$$$$$$$$$$",
"$$$$$$$$$$$$....@@@@@@@@@@@@@@@@++++++++....$$$$$$$$$$$$$$$$$$$$",
"$$$$$$$$$$$$....@@@@@@@@@@@@@@@@++++++++....$$$$$$$$$$$$$$$$$$$$",
"$$$$$$$$$$$$....####################@@@@++++....$$$$$$$$$$$$$$$$",
"$$$$$$$$$$$$....####################@@@@++++....$$$$$$$$$$$$$$$$",
"$$$$$$$$$$$$....####################@@@@++++....$$$$$$$$$$$$$$$$",
"$$$$$$$$$$$$....####################@@@@++++....$$$$$$$$$$$$$$$$",
"$$$$$$$$$$$$....................####@@@@@@@@....$$$$$$$$$$$$$$$$",
"$$$$$$$$$$$$....................####@@@@@@@@....$$$$$$$$$$$$$$$$",
"$$$$$$$$$$$$....................####@@@@@@@@....$$$$$$$$$$$$$$$$",
"$$$$$$$$$$$$....................####@@@@@@@@....$$$$$$$$$$$$$$$$",
"$$$$$$$$$$$$....####....############@@@@@@@@....$$$$$$$$$$$$$$$$",
"$$$$$$$$$$$$....####....############@@@@@@@@....$$$$$$$$$$$$$$$$",
"$$$$$$$$$$$$....####....############@@@@@@@@....$$$$$$$$$$$$$$$$",
"$$$$$$$$$$$$....####....############@@@@@@@@....$$$$$$$$$$$$$$$$",
"$$$$$$$$$$$$....############@@@@@@@@@@@@++++....$$$$$$$$$$$$$$$$",
"$$$$$$$$$$$$....############@@@@@@@@@@@@++++....$$$$$$$$$$$$$$$$",
"$$$$$$$$$$$$....############@@@@@@@@@@@@++++....$$$$$$$$$$$$$$$$",
"$$$$$$$$$$$$....############@@@@@@@@@@@@++++....$$$$$$$$$$$$$$$$",
"$$$$$$$$$$$$....XXXXooooXXXXXXXXOOOO++++....$$$$$$$$$$$$$$$$$$$$",
"$$$$$$$$$$$$....XXXXooooXXXXXXXXOOOO++++....$$$$$$$$$$$$$$$$$$$$",
"$$$$$$$$$$$$....XXXXooooXXXXXXXXOOOO++++....$$$$$$$$$$$$$$$$$$$$",
"$$$$$$$$$$$$....XXXXooooXXXXXXXXOOOO++++....$$$$$$$$$$$$$$$$$$$$",
"$$$$$$$$$$$$....++++++++++++OOOOXXXXXXXX....$$$$$$$$$$$$$$$$$$$$",
"$$$$$$$$$$$$....++++++++++++OOOOXXXXXXXX....XXXX$$$$$$$$$$$$$$$$",
"$$$$$$$$$$$$....++++++++++++OOOOXXXXXXXX....XXXX$$$$$$$$$$$$$$$$",
"$$$$$$$$$$$$....++++++++++++OOOOXXXXXXXX....XXXX$$$$$$$$$$$$$$$$",
"$$$$$$$$$$$$....@@@@@@@@@@@@@@@@@@@@++++++++....XXXXXXXX$$$$$$$$",
"$$$$$$$$$$$$....@@@@@@@@@@@@@@@@@@@@++++++++....XXXXXXXX$$$$$$$$",
"$$$$$$$$$$$$....@@@@@@@@@@@@@@@@@@@@++++++++....XXXXXXXX$$$$$$$$",
"$$$$$$$$$$$$....@@@@@@@@@@@@@@@@@@@@++++++++....XXXXXXXX$$$$$$$$",
"$$$$$$$$$$$$    ++++............................XXXX$$$$$$$$$$$$",
"$$$$$$$$$$$$    ++++............................XXXX$$$$$$$$$$$$",
"$$$$$$$$$$$$    ++++............................XXXX$$$$$$$$$$$$",
"$$$$$$$$$$$$    ++++............................XXXX$$$$$$$$$$$$",
"$$$$$$$$$$$$        $$$$$$$$$$$$$$$$$$$$$$$$$$$$$$$$$$$$$$$$$$$$",
"$$$$$$$$$$$$        $$$$$$$$$$$$$$$$$$$$$$$$$$$$$$$$$$$$$$$$$$$$",
"$$$$$$$$$$$$        $$$$$$$$$$$$$$$$$$$$$$$$$$$$$$$$$$$$$$$$$$$$",
"$$$$$$$$$$$$        $$$$$$$$$$$$$$$$$$$$$$$$$$$$$$$$$$$$$$$$$$$$",
"$$$$$$$$$$$$$$$$$$$$$$$$$$$$$$$$$$$$$$$$$$$$$$$$$$$$$$$$$$$$$$$$",
"$$$$$$$$$$$$$$$$$$$$$$$$$$$$$$$$$$$$$$$$$$$$$$$$$$$$$$$$$$$$$$$$",
"$$$$$$$$$$$$$$$$$$$$$$$$$$$$$$$$$$$$$$$$$$$$$$$$$$$$$$$$$$$$$$$$",
"$$$$$$$$$$$$$$$$$$$$$$$$$$$$$$$$$$$$$$$$$$$$$$$$$$$$$$$$$$$$$$$$",
"$$$$$$$$$$$$$$$$$$$$$$$$$$$$$$$$$$$$$$$$$$$$$$$$$$$$$$$$$$$$$$$$",
"$$$$$$$$$$$$$$$$$$$$$$$$$$$$$$$$$$$$$$$$$$$$$$$$$$$$$$$$$$$$$$$$",
"$$$$$$$$$$$$$$$$$$$$$$$$$$$$$$$$$$$$$$$$$$$$$$$$$$$$$$$$$$$$$$$$",
"$$$$$$$$$$$$$$$$$$$$$$$$$$$$$$$$$$$$$$$$$$$$$$$$$$$$$$$$$$$$$$$$"
};
