/* XPM */
static char *result[] = {
/* columns rows colors chars-per-pixel */
"64 64 11 1 ",
"  c #040406",
". c #060608",
"X c #AC3232",
"o c #AC3333",
"O c #DF7126",
"+ c #8C7077",
"@ c #93787F",
"# c #847E87",
"$ c #9BADB7",
"% c white",
"& c None",
/* pixels */
"&&&&&&&&&&&&&&&&&&&&&&&&&&&&&&&&&&&&&&&&&&&&&&&&&&&&&&&&&&&&&&&&",
"&&&&&&&&&&&&&&&&&&&&&&&&&&&&&&&&&&&&&&&&&&&&&&&&&&&&&&&&&&&&&&&&",
"&&&&&&&&&&&&&&&&&&&&&&&&&&&&&&&&&&&&&&&&&&&&&&&&&&&&&&&&&&&&&&&&",
"&&&&&&&&&&&&&&&&&&&&&&&&&&&&&&&&&&&&&&&&&&&&&&&&&&&&&&&&&&&&&&&&",
"&&&&&&&&&&&&&&&&&&&&&&&&&&&&&&&&............&&&&&&&&&&&&&&&&&&&&",
"&&&&&&&&&&&&&&&&&&&&&&&&&&&&&&&&............&&&&&&&&&&&&&&&&&&&&",
"&&&&&&&&&&&&&&&&&&&&&&&&&&&&&&&&............&&&&&&&&&&&&&&&&&&&&",
"&&&&&&&&&&&&&&&&&&&&&&&&&&&&&&&&............&&&&&&&&&&&&&&&&&&&&",
"&&&&&&&&&&&&&&&&&&&&&&&&&&&&....XXXXXXXX....&&&&&&&&&&&&&&&&&&&&",
"&&&&&&&&&&&&&&&&&&&&&&&&&&&&....XXXXXXXX....&&&&&&&&&&&&&&&&&&&&",
"&&&&&&&&&&&&&&&&&&&&&&&&&&&&....XXXXXXXX....&&&&&&&&&&&&&&&&&&&&",
"&&&&&&&&&&&&&&&&&&&&&&&&&&&&....XXXXXXXo....&&&&&&&&&&&&&&&&&&&&",
"&&&&&&&&&&&&&&&&................####....&&&&&&&&&&&&&&&&&&&&&&&&",
"&&&&&&&&&&&&&&&&................####....&&&&&&&&&&&&&&&&&&&&&&&&",
"&&&&&&&&&&&&&&&&................####....&&&&&&&&&&&&&&&&&&&&&&&&",
"&&&&&&&&&&&&&&&&................####....&&&&&&&&&&&&&&&&&&&&&&&&",
"&&&&&&&&&&&&....$$$$$$$$$$$$$$$$########....&&&&&&&&&&&&&&&&&&&&",
"&&&&&&&&&&&&....$$$$$$$$$$$$$$$$########....&&&&&&&&&&&&&&&&&&&&",
"&&&&&&&&&&&&....$$$$$$$$$$$$$$$$########....&&&&&&&&&&&&&&&&&&&&",
"&&&&&&&&&&&&....$$$$$$$$$$$$$$$$########....&&&&&&&&&&&&&&&&&&&&",
"&&&&&&&&&&&&....$$$$$$$$$$$$$$$$$$$$$$$$####....&&&&&&&&&&&&&&&&",
"&&&&&&&&&&&&....$$$$$$$$$$$$$$$$$$$$$$$$####....&&&&&&&&&&&&&&&&",
"&&&&&&&&&&&&....$$$$$$$$$$$$$$$$$$$$$$$$####....&&&&&&&&&&&&&&&&",
"&&&&&&&&&&&&....$$$$$$$$$$$$$$$$$$$$$$$$####....&&&&&&&&&&&&&&&&",
"&&&&&&&&&&&&....%%%%%%%%%%%%%%%%%%%%$$$$$$$$....&&&&&&&&&&&&&&&&",
"&&&&&&&&&&&&....%%%%%%%%%%%%%%%%%%%%$$$$$$$$....&&&&&&&&&&&&&&&&",
"&&&&&&&&&&&&....%%%%%%%%%%%%%%%%%%%%$$$$$$$$....&&&&&&&&&&&&&&&&",
"&&&&&&&&&&&&....%%%%%%%%%%%%%%%%%%%%$$$$$$$$....&&&&&&&&&&&&&&&&",
"&&&&&&&&&&&&....................%%%%$$$$$$$$....&&&&&&&&&&&&&&&&",
"&&&&&&&&&&&&....................%%%%$$$$$$$$....&&&&&&&&&&&&&&&&",
"&&&&&&&&&&&&....................%%%%$$$$$$$$....&&&&&&&&&&&&&&&&",
"&&&&&&&&&&&&....................%%%%$$$$$$$$....&&&&&&&&&&&&&&&&",
"&&&&&&&&&&&&....%%%%....%%%%%%%%%%%%$$$$####....&&&&&&&&&&&&&&&&",
"&&&&&&&&&&&&....%%%%....%%%%%%%%%%%%$$$$####....&&&&&&&&&&&&&&&&",
"&&&&&&&&&&&&....%%%%....%%%%%%%%%%%%$$$$####....&&&&&&&&&&&&&&&&",
"&&&&&&&&&&&&....%%%%....%%%%%%%%%%%%$$$$####....&&&&&&&&&&&&&&&&",
"&&&&&&&&&&&&....XXXXOOOOXXXXXXXX++++####....&&&&&&&&&&&&&&&&&&&&",
"&&&&&&&&&&&&....XXXXOOOOXXXXXXXX++++####....&&&&&&&&&&&&&&&&&&&&",
"&&&&&&&&&&&&....XXXXOOOOXXXXXXXX++++####....&&&&&&&&&&&&&&&&&&&&",
"&&&&&&&&&&&&....XXXXOOOOXXXXXXXX++++####....&&&&&&&&&&&&&&&&&&&&",
"&&&&&&&&&&&&....############@@@@XXXXXXXX....XXXX&&&&&&&&&&&&&&&&",
"&&&&&&&&&&&&....############@@@@XXXXXXXX....XXXX&&&&&&&&&&&&&&&&",
"&&&&&&&&&&&&....############@@@@XXXXXXXX....XXXX&&&&&&&&&&&&&&&&",
"&&&&&&&&&&&&....############@@@@XXXXXXXX....XXXX&&&&&&&&&&&&&&&&",
"&&&&&&&&&&&&....$$$$$$$$$$$$$$$$########....XXXXXXXXXXXX&&&&&&&&",
"&&&&&&&&&&&&....$$$$$$$$$$$$$$$$########....XXXXXXXXXXXX&&&&&&&&",
"&&&&&&&&&&&&....$$$$$$$$$$$$$$$$########....XXXXXXXXXXXX&&&&&&&&",
"&&&&&&&&&&&&....$$$$$$$$$$$$$$$$########....XXXXXXXX&&&&&&&&&&&&",
"&&&&&&&&&&&&&&&&................########....XXXXXXXX&&&&&&&&&&&&",
"&&&&&&&&&&&&&&&&................########....XXXXXXXX&&&&&&&&&&&&",
"&&&&&&&&&&&&&&&&................########....XXXXXXXX&&&&&&&&&&&&",
"&&&&&&&&&&&&&&&&................########....XXXXXXXX&&&&&&&&&&&&",
"&&&&&&&&&&&&&&&&&&&&&&&&&&&&&&&&    ####....&&&&&&&&&&&&&&&&&&&&",
"&&&&&&&&&&&&&&&&&&&&&&&&&&&&&&&&    ####....&&&&&&&&&&&&&&&&&&&&",
"&&&&&&&&&&&&&&&&&&&&&&&&&&&&&&&&    ####....&&&&&&&&&&&&&&&&&&&&",
"&&&&&&&&&&&&&&&&&&&&&&&&&&&&&&&&    ####....&&&&&&&&&&&&&&&&&&&&",
"&&&&&&&&&&&&&&&&&&&&&&&&&&&&&&&&&&&&        &&&&&&&&&&&&&&&&&&&&",
"&&&&&&&&&&&&&&&&&&&&&&&&&&&&&&&&&&&&        &&&&&&&&&&&&&&&&&&&&",
"&&&&&&&&&&&&&&&&&&&&&&&&&&&&&&&&&&&&        &&&&&&&&&&&&&&&&&&&&",
"&&&&&&&&&&&&&&&&&&&&&&&&&&&&&&&&&&&&        &&&&&&&&&&&&&&&&&&&&",
"&&&&&&&&&&&&&&&&&&&&&&&&&&&&&&&&&&&&&&&&&&&&&&&&&&&&&&&&&&&&&&&&",
"&&&&&&&&&&&&&&&&&&&&&&&&&&&&&&&&&&&&&&&&&&&&&&&&&&&&&&&&&&&&&&&&",
"&&&&&&&&&&&&&&&&&&&&&&&&&&&&&&&&&&&&&&&&&&&&&&&&&&&&&&&&&&&&&&&&",
"&&&&&&&&&&&&&&&&&&&&&&&&&&&&&&&&&&&&&&&&&&&&&&&&&&&&&&&&&&&&&&&&"
};
