/* XPM */
static char *result[] = {
/* columns rows colors chars-per-pixel */
"64 64 9 1 ",
"  c #060608",
". c #683E2C",
"X c #374827",
"o c #3B4E29",
"O c #3A5124",
"+ c #7E4C35",
"@ c #4B692F",
"# c #A5A5A5",
"$ c None",
/* pixels */
"$$$$$$$$$$$$$$$$$$$$$$$$$$$$$$$$$$$$$$$$$$$$$$$$$$$$$$$$$$$$$$$$",
"$$$$$$$$$$$$$$$$$$$$$$$$$$$$$$$$$$$$$$$$$$$$$$$$$$$$$$$$$$$$$$$$",
"$$$$$$$$$$$$$$$$$$$$$$$$$$$$$$$$$$$$$$$$$$$$$$$$$$$$$$$$$$$$$$$$",
"$$$$$$$$$$$$$$$$$$$$$$$$$$$$$$$$$$$$$$$$$$$$$$$$$$$$$$$$$$$$$$$$",
"$$$$$$$$$$$$$$$$$$$$                    $$$$$$$$$$$$$$$$$$$$$$$$",
"$$$$$$$$$$$$$$$$$$$$                    $$$$$$$$$$$$$$$$$$$$$$$$",
"$$$$$$$$$$$$$$$$$$$$                    $$$$$$$$$$$$$$$$$$$$$$$$",
"$$$$$$$$$$$$$$$$$$$$                    $$$$$$$$$$$$$$$$$$$$$$$$",
"$$$$$$$$$$$$$$$$    ....++++++++++++....    $$$$$$$$$$$$$$$$$$$$",
"$$$$$$$$$$$$$$$$    ....++++++++++++....    $$$$$$$$$$$$$$$$$$$$",
"$$$$$$$$$$$$$$$$    ....++++++++++++....    $$$$$$$$$$$$$$$$$$$$",
"$$$$$$$$$$$$$$$$    ....++++++++++++....    $$$$$$$$$$$$$$$$$$$$",
"$$$$            ....++++++++++++++++++++....            $$$$$$$$",
"$$$$            ....++++++++++++++++++++....            $$$$$$$$",
"$$$$            ....++++++++++++++++++++....            $$$$$$$$",
"$$$$            ....++++++++++++++++++++....            $$$$$$$$",
"$$$$    OOOO@@@@++++++++++++++++++++++++@@@@@@@@OOOO    $$$$$$$$",
"$$$$    OOOO@@@@++++++++++++++++++++++++@@@@@@@@OOOO    $$$$$$$$",
"$$$$    OOOO@@@@++++++++++++++++++++++++@@@@@@@@OOOO    $$$$$$$$",
"$$$$    OOOO@@@@++++++++++++++++++++++++@@@@@@@@OOOO    $$$$$$$$",
"$$$$$$$$    OOOOOOOOOOOOOOOOOOOOOOOO++++@@@@OOOO    $$$$$$$$$$$$",
"$$$$$$$$    OOOOOOOOOOOOOOOOOOOOOOOO++++@@@@OOOO    $$$$$$$$$$$$",
"$$$$$$$$    OOOOOOOOOOOOOOOOOOOOOOOO++++@@@@OOOO    $$$$$$$$$$$$",
"$$$$$$$$    OOOOOOOOOOOOOOOOOOOOOOOO++++@@@@OOOO    $$$$$$$$$$$$",
"$$$$$$$$$$$$    OOOOOOOOOOOOOOOOOOOO....@@@@....    $$$$$$$$$$$$",
"$$$$$$$$$$$$    OOOOOOOOOOOOOOOOOOOO....@@@@....    $$$$$$$$$$$$",
"$$$$$$$$$$$$    OOOOOOOOOOOOOOOOOOOO....@@@@....    $$$$$$$$$$$$",
"$$$$$$$$$$$$    OOOOOOOOOOOOOOOOOOOO....@@@@....    $$$$$$$$$$$$",
"$$$$$$$$$$$$        @@@@@@@@    @@@@OOOOOOOO....    $$$$$$$$$$$$",
"$$$$$$$$$$$$        @@@@@@@@    @@@@OOOOOOOO....    $$$$$$$$$$$$",
"$$$$$$$$$$$$        @@@@@@@@    @@@@OOOOOOOO....    $$$$$$$$$$$$",
"$$$$$$$$$$$$        @@@@@@@@    @@@@OOOOOOOO....    $$$$$$$$$$$$",
"$$$$$$$$$$$$    @@@@@@@@@@@@@@@@@@@@OOOO........    $$$$$$$$$$$$",
"$$$$$$$$$$$$    @@@@@@@@@@@@@@@@@@@@OOOO........    $$$$$$$$$$$$",
"$$$$$$$$$$$$    @@@@@@@@@@@@@@@@@@@@OOOO........    $$$$$$$$$$$$",
"$$$$$$$$$$$$    @@@@@@@@@@@@@@@@@@@@OOOO........    $$$$$$$$$$$$",
"$$$$$$$$$$$$    @@@@@@@@@@@@@@@@@@@@OOOO....    $$$$$$$$$$$$$$$$",
"$$$$$$$$$$$$    @@@@@@@@@@@@@@@@@@@@OOOO....    $$$$$$$$$$$$$$$$",
"$$$$$$$$$$$$    @@@@@@@@@@@@@@@@@@@@OOOO....    $$$$$$$$$$$$$$$$",
"$$$$$$$$$$$$    @@@@@@@@@@@@@@@@@@@@OOOO....    $$$$$$$$$$$$$$$$",
"$$$$$$$$$$$$    @@@@@@@@@@@@@@@@@@@@OOOO    $$$$$$$$$$$$$$$$$$$$",
"$$$$$$$$$$$$    @@@@@@@@@@@@@@@@@@@@OOOO    $$$$$$$$$$$$$$$$$$$$",
"$$$$$$$$$$$$    @@@@@@@@@@@@@@@@@@@@OOOO    $$$$$$$$$$$$$$$$$$$$",
"$$$$$$$$$$$$    @@@@@@@@@@@@@@@@@@@@OOOO    $$$$$$$$$$$$$$$$$$$$",
"$$$$$$$$$$$$    XXXX            OOOOOOOO    $$$$$$$$$$$$$$$$$$$$",
"$$$$$$$$$$$$    XXXX            OOOOOOOO    $$$$$$$$$$$$$$$$$$$$",
"$$$$$$$$$$$$    XXXX            OOOOOOOO    $$$$$$$$$$$$$$$$$$$$",
"$$$$$$$$$$$$    XXXX            OOOOOOOO    $$$$$$$$$$$$$$$$$$$$",
"$$$$$$$$########    oooo    ####    OOOO    ########$$$$$$$$$$$$",
"$$$$$$$$########    oooo    ####    OOOO    ########$$$$$$$$$$$$",
"$$$$$$$$########    oooo    ####    OOOO    ########$$$$$$$$$$$$",
"$$$$$$$$########    oooo    ####    OOOO    ########$$$$$$$$$$$$",
"$$$$################        ########        ############$$$$$$$$",
"$$$$################        ########        ############$$$$$$$$",
"$$$$################        ########        ############$$$$$$$$",
"$$$$################        ########        ############$$$$$$$$",
"$$$$####################################################$$$$$$$$",
"$$$$####################################################$$$$$$$$",
"$$$$####################################################$$$$$$$$",
"$$$$####################################################$$$$$$$$",
"$$$$$$$$############################################$$$$$$$$$$$$",
"$$$$$$$$############################################$$$$$$$$$$$$",
"$$$$$$$$############################################$$$$$$$$$$$$",
"$$$$$$$$############################################$$$$$$$$$$$$"
};
