/* XPM */
static char *result[] = {
/* columns rows colors chars-per-pixel */
"64 64 8 1 ",
"  c #040406",
". c #060608",
"X c #683E2C",
"o c #3A5124",
"O c #7E4C35",
"+ c #4B692F",
"@ c #A5A5A5",
"# c None",
/* pixels */
"################################################################",
"################################################################",
"################################################################",
"################################################################",
"########################....................####################",
"########################....................####################",
"########################....................####################",
"########################....................####################",
"####################....XXXXOOOOOOOOOOOOXXXX....################",
"####################....XXXXOOOOOOOOOOOOXXXX....################",
"####################....XXXXOOOOOOOOOOOOXXXX....################",
"####################....XXXXOOOOOOOOOOOOXXXX....################",
"########............XXXXOOOOOOOOOOOOOOOOOOOOXXXX............####",
"########............XXXXOOOOOOOOOOOOOOOOOOOOXXXX............####",
"########............XXXXOOOOOOOOOOOOOOOOOOOOXXXX............####",
"########............XXXXOOOOOOOOOOOOOOOOOOOOXXXX............####",
"########....oooo++++++++OOOOOOOOOOOOOOOOOOOOOOOO++++oooo....####",
"########....oooo++++++++OOOOOOOOOOOOOOOOOOOOOOOO++++oooo....####",
"########....oooo++++++++OOOOOOOOOOOOOOOOOOOOOOOO++++oooo....####",
"########....oooo++++++++OOOOOOOOOOOOOOOOOOOOOOOO++++oooo....####",
"############....oooo++++OOOOoooooooooooooooooooooooo....########",
"############....oooo++++OOOOoooooooooooooooooooooooo....########",
"############....oooo++++OOOOoooooooooooooooooooooooo....########",
"############....oooo++++OOOOoooooooooooooooooooooooo....########",
"############....XXXX++++XXXXoooooooooooooooooooo....############",
"############....XXXX++++XXXXoooooooooooooooooooo....############",
"############....XXXX++++XXXXoooooooooooooooooooo....############",
"############....XXXX++++XXXXoooooooooooooooooooo....############",
"############....XXXXoooooooo++++....++++++++........############",
"############....XXXXoooooooo++++....++++++++........############",
"############....XXXXoooooooo++++....++++++++........############",
"############....XXXXoooooooo++++....++++++++........############",
"############....XXXXXXXXoooo++++++++++++++++++++....############",
"############....XXXXXXXXoooo++++++++++++++++++++....############",
"############....XXXXXXXXoooo++++++++++++++++++++....############",
"############....XXXXXXXXoooo++++++++++++++++++++....############",
"################....XXXXoooo++++++++++++++++++++....############",
"################....XXXXoooo++++++++++++++++++++....############",
"################....XXXXoooo++++++++++++++++++++....############",
"################....XXXXoooo++++++++++++++++++++....############",
"################....oooooooooooo++++++++++++++++....############",
"################....oooooooooooo++++++++++++++++....############",
"################....oooooooooooo++++++++++++++++....############",
"################....oooooooooooo++++++++++++++++....############",
"################............................oooo....############",
"################............................oooo....############",
"################............................oooo....############",
"################............................oooo....############",
"############@@@@@@@@@@@@@@@@@@@@@@@@@@@@@@@@        @@@@########",
"############@@@@@@@@@@@@@@@@@@@@@@@@@@@@@@@@        @@@@########",
"############@@@@@@@@@@@@@@@@@@@@@@@@@@@@@@@@        @@@@########",
"############@@@@@@@@@@@@@@@@@@@@@@@@@@@@@@@@        @@@@########",
"########@@@@@@@@@@@@@@@@@@@@@@@@@@@@@@@@@@@@@@@@@@@@@@@@@@@@####",
"########@@@@@@@@@@@@@@@@@@@@@@@@@@@@@@@@@@@@@@@@@@@@@@@@@@@@####",
"########@@@@@@@@@@@@@@@@@@@@@@@@@@@@@@@@@@@@@@@@@@@@@@@@@@@@####",
"########@@@@@@@@@@@@@@@@@@@@@@@@@@@@@@@@@@@@@@@@@@@@@@@@@@@@####",
"########@@@@@@@@@@@@@@@@@@@@@@@@@@@@@@@@@@@@@@@@@@@@@@@@@@@@####",
"########@@@@@@@@@@@@@@@@@@@@@@@@@@@@@@@@@@@@@@@@@@@@@@@@@@@@####",
"########@@@@@@@@@@@@@@@@@@@@@@@@@@@@@@@@@@@@@@@@@@@@@@@@@@@@####",
"########@@@@@@@@@@@@@@@@@@@@@@@@@@@@@@@@@@@@@@@@@@@@@@@@@@@@####",
"############@@@@@@@@@@@@@@@@@@@@@@@@@@@@@@@@@@@@@@@@@@@@########",
"############@@@@@@@@@@@@@@@@@@@@@@@@@@@@@@@@@@@@@@@@@@@@########",
"############@@@@@@@@@@@@@@@@@@@@@@@@@@@@@@@@@@@@@@@@@@@@########",
"############@@@@@@@@@@@@@@@@@@@@@@@@@@@@@@@@@@@@@@@@@@@@########"
};
