/* XPM */
static char *result[] = {
/* columns rows colors chars-per-pixel */
"8 16 2 1 ",
"  c #F3D040",
". c None",
/* pixels */
"........",
"...  ...",
"..    ..",
".      .",
".      .",
"..    ..",
"...  ...",
"........",
"........",
"........",
"........",
"........",
"........",
"........",
"........",
"........"
};
