/* XPM */
static char *result[] = {
/* columns rows colors chars-per-pixel */
"64 64 10 1 ",
"  c gray19",
". c #F3D13E",
"X c #D79B4D",
"o c #EFC741",
"O c #EFCC4C",
"+ c #FAE07B",
"@ c #FCE37A",
"# c #FFE98D",
"$ c #F2F2F0",
"% c None",
/* pixels */
"%%%%%%%%%%%%%%%%                                %%%%%%%%%%%%%%%%",
"%%%%%%%%%%%%%%%%                                %%%%%%%%%%%%%%%%",
"%%%%%%%%%%%%%%%%                                %%%%%%%%%%%%%%%%",
"%%%%%%%%%%%%%%%%                                %%%%%%%%%%%%%%%%",
"%%%%%%%%%%%%%%%%                                %%%%%%%%%%%%%%%%",
"%%%%%%%%%%%%%%%%                                %%%%%%%%%%%%%%%%",
"%%%%%%%%%%%%%%%%                                %%%%%%%%%%%%%%%%",
"%%%%%%%%%%%%%%%%                                %%%%%%%%%%%%%%%%",
"%%%%%%%%        XXXXXXXX$$$$$$$$................        %%%%%%%%",
"%%%%%%%%        XXXXXXXX$$$$$$$$................        %%%%%%%%",
"%%%%%%%%        XXXXXXXX$$$$$$$$................        %%%%%%%%",
"%%%%%%%%        XXXXXXXX$$$$$$$$................        %%%%%%%%",
"%%%%%%%%        XXXXXXXX$$$$$$$$................        %%%%%%%%",
"%%%%%%%%        XXXXXXXX$$$$$$$$................        %%%%%%%%",
"%%%%%%%%        XXXXXXXX$$$$$$$$................        %%%%%%%%",
"%%%%%%%%        XXXXXXXX$$$$$$$$................        %%%%%%%%",
"        XXXXXXXX$$$$$$$$ooooooooXXXXXXXX................        ",
"        XXXXXXXX$$$$$$$$ooooooooXXXXXXXX................        ",
"        XXXXXXXX$$$$$$$$ooooooooXXXXXXXX................        ",
"        XXXXXXXX$$$$$$$$ooooooooXXXXXXXX................        ",
"        XXXXXXXX$$$$$$$$ooooooooXXXXXXXX................        ",
"        XXXXXXXX$$$$$$$$ooooooooXXXXXXXX................        ",
"        XXXXXXXX$$$$$$$$ooooooooXXXXXXXX................        ",
"        XXXXXXXX$$$$$$$$ooooooooXXXXXXXX................        ",
"        XXXXXXXX$$$$$$$$XXXXXXXXOOOOOOOO########........        ",
"        XXXXXXXX$$$$$$$$XXXXXXXXOOOOOOOO########........        ",
"        XXXXXXXX$$$$$$$$XXXXXXXXOOOOOOOO########........        ",
"        XXXXXXXX$$$$$$$$XXXXXXXXOOOOOOOO########........        ",
"        XXXXXXXX$$$$$$$$XXXXXXXXOOOOOOOO########........        ",
"        XXXXXXXX$$$$$$$$XXXXXXXXOOOOOOOO########........        ",
"        XXXXXXXX$$$$$$$$XXXXXXXXOOOOOOOO########........        ",
"        XXXXXXXX$$$$$$$$XXXXXXXXOOOOOOOO########........        ",
"        XXXXXXXX........XXXXXXXX........++++++++........        ",
"        XXXXXXXX........XXXXXXXX........++++++++........        ",
"        XXXXXXXX........XXXXXXXX........++++++++........        ",
"        XXXXXXXX........XXXXXXXX........++++++++........        ",
"        XXXXXXXX........XXXXXXXX........++++++++........        ",
"        XXXXXXXX........XXXXXXXX........++++++++........        ",
"        XXXXXXXX........XXXXXXXX........++++++++........        ",
"        XXXXXXXX........XXXXXXXX........++++++++........        ",
"        XXXXXXXX................@@@@@@@@................        ",
"        XXXXXXXX................@@@@@@@@................        ",
"        XXXXXXXX................@@@@@@@@................        ",
"        XXXXXXXX................@@@@@@@@................        ",
"        XXXXXXXX................@@@@@@@@................        ",
"        XXXXXXXX................@@@@@@@@................        ",
"        XXXXXXXX................@@@@@@@@................        ",
"        XXXXXXXX................@@@@@@@@................        ",
"%%%%%%%%        XXXXXXXX........................        %%%%%%%%",
"%%%%%%%%        XXXXXXXX........................        %%%%%%%%",
"%%%%%%%%        XXXXXXXX........................        %%%%%%%%",
"%%%%%%%%        XXXXXXXX........................        %%%%%%%%",
"%%%%%%%%        XXXXXXXX........................        %%%%%%%%",
"%%%%%%%%        XXXXXXXX........................        %%%%%%%%",
"%%%%%%%%        XXXXXXXX........................        %%%%%%%%",
"%%%%%%%%        XXXXXXXX........................        %%%%%%%%",
"%%%%%%%%%%%%%%%%                                %%%%%%%%%%%%%%%%",
"%%%%%%%%%%%%%%%%                                %%%%%%%%%%%%%%%%",
"%%%%%%%%%%%%%%%%                                %%%%%%%%%%%%%%%%",
"%%%%%%%%%%%%%%%%                                %%%%%%%%%%%%%%%%",
"%%%%%%%%%%%%%%%%                                %%%%%%%%%%%%%%%%",
"%%%%%%%%%%%%%%%%                                %%%%%%%%%%%%%%%%",
"%%%%%%%%%%%%%%%%                                %%%%%%%%%%%%%%%%",
"%%%%%%%%%%%%%%%%                                %%%%%%%%%%%%%%%%"
};
