/* XPM */
static char *result[] = {
/* columns rows colors chars-per-pixel */
"64 64 21 1 ",
"  c black",
". c #898203",
"X c #958E1C",
"o c #A19B36",
"O c #A9A123",
"+ c #B5AE3C",
"@ c #83827D",
"# c #C9C143",
"$ c #999890",
"% c #9D9C95",
"& c #9F9FA0",
"* c #A6A7A7",
"= c #AFADA6",
"- c #BCBCB6",
"; c gray75",
": c #C6C6C7",
"> c #E2E2DB",
", c #E5E5DE",
"< c #FBFBF3",
"1 c white",
"2 c None",
/* pixels */
"2222222222222222222222222222222222222222222222222222222222222222",
"2222222222222222222222222222222222222222222222222222222222222222",
"2222222222222222222222222222222222222222222222222222222222222222",
"2222222222222222222222222222222222222222222222222222222222222222",
"2222222222222222222222222222222222222222222222222222222222222222",
"2222222222222222222222222222222222222222222222222222222222222222",
"2222222222222222222222222222222222222222222222222222222222222222",
"2222222222222222222222222222222222222222222222222222222222222222",
"2222222222222222222222222222222222222222222222222222222222222222",
"2222222222222222222222222222222222222222222222222222222222222222",
"2222222222222222222222222222222222222222222222222222222222222222",
"2222222222222222222222222222222222222222222222222222222222222222",
"2222222222222222222222222222222222222222222222222222222222222222",
"2222222222222222222222222222222222222222222222222222222222222222",
"2222222222222222222222222222222222222222222222222222222222222222",
"2222222222222222222111112222222222222222222222222222222222222222",
"2222222222222221..XXXX..2222222222222222222222222222222222222222",
"2222222222222222..XXXX..2222222222222222222222222222222222222222",
"2222222222222222OO++++OO2222222222222222222222222222222222222222",
"2222222222222222OO++++OO2222222222222222222222222222222222222222",
"222222222222222O        OO..222222222222222222222222222222222222",
"2222222222222.OO        OO..222222222222222222222222222222222222",
"2222222222222O##        ##OO222222222222222222222222222222222222",
"222222222222OO##        ##OO222222222222222222222222222222222222",
"22222222222O    <<>>>><<    OOXXXXXXXXXXXXXX22222222222222222222",
"222222222.OO    <<>>>><<    OOXXXXXXXXXXXXXXXXXXXXXXXXXXXX..2222",
"222222222O##    -->>>>--    ##++++++++++++++++++++++++++++OO2222",
"222222222O##    -->>>>--    ##++++++++++++++++++++++++++++OO2222",
"22222222    <<--        --<<                                OOXX",
"22222.OO    <<--        --<<                                OOXX",
"22222X++    ,,,,        ,,,,                                ++oo",
"22222X++    ,,,,        ,,,,                                ++oo",
"22222X++    ;;;;        ;;&&1222222222222222222222222222    ++oo",
"22222X++    ;;;;        ;;&&1222222222222222222222222222    ++oo",
"22222X++    ::::        ::**1222222222222222222222222222    ++oo",
"22222X++    ::::        ::**1112222222222222222222222222    ++oo",
"22222X++    $$$$        $$$$                2222    2222    ++oo",
"22222X++    $$$$        $$$$                2222    2222    ++oo",
"22222.OO    ==@@        @@==                2222    2222    ++oo",
"22222222    ==@@        @@==                2222    2222    ++oo",
"222222222O##    @@%%%%@@    ##++++++++##                    ++oo",
"222222222O##    @@%%%%@@    ##++++++++##                    ++oo",
"222222222.OO    ==%%%%==    OOXXXXXXXXOO                    OOXX",
"2222222222OO    ==%%%%==    OOX2222XXXOO                    2OXX",
"222222222222OO##        ##OO222222222222OO++++++++++++++++O22222",
"222222222222OO##        ##OO222222222222OO++++++++++++++++O22222",
"222222222222..OO        OO..222222222222..XXXXXXXXXXXXXXXX..2222",
"222222222222..OO        OO..222222222222..XXXXXXXXXXXXXXXX..2222",
"2222222222222221OO++++OO1222222222222222222222222222222222222222",
"2222222222222221OO++++OO2222222222222222222222222222222222222222",
"2222222222222221..XXXX..2222222222222222222222222222222222222222",
"2222222222222221..XXXX..2222222222222222222222222222222222222222",
"2222222222222222211111112222222222222222222222222222222222222222",
"2222222222222222222222222222222222222222222222222222222222222222",
"2222222222222222222222222222222222222222222222222222222222222222",
"2222222222222222222222222222222222222222222222222222222222222222",
"2222222222222222222222222222222222222222222222222222222222222222",
"2222222222222222222222222222222222222222222222222222222222222222",
"2222222222222222222222222222222222222222222222222222222222222222",
"2222222222222222222222222222222222222222222222222222222222222222",
"2222222222222222222222222222222222222222222222222222222222222222",
"2222222222222222222222222222222222222222222222222222222222222222",
"2222222222222222222222222222222222222222222222222222222222222222",
"2222222222222222222222222222222222222222222222222222222222222222"
};
