/* XPM */
static char *result[] = {
/* columns rows colors chars-per-pixel */
"64 64 175 2 ",
"   c #040404",
".  c gray2",
"X  c #070707",
"o  c #130F08",
"O  c #19140C",
"+  c #19140E",
"@  c #19150F",
"#  c gray8",
"$  c gray9",
"%  c #1B1710",
"&  c #191919",
"*  c #1B1B1B",
"=  c gray11",
"-  c #1D1D1D",
";  c #1E1E1E",
":  c #261C0D",
">  c #261D0E",
",  c #271E10",
"<  c #271F12",
"1  c #2D2315",
"2  c #2D2518",
"3  c #2B251C",
"4  c #2A251D",
"5  c #2B261E",
"6  c #2A261F",
"7  c #222221",
"8  c #222222",
"9  c #232422",
"0  c #252524",
"q  c #262725",
"w  c #2C2720",
"e  c #2C2821",
"r  c #2D2821",
"t  c #2D2923",
"y  c #2F2A23",
"u  c #2F2B25",
"i  c #2E2B26",
"p  c gray17",
"a  c #2D2D2D",
"s  c gray18",
"d  c #302B23",
"f  c #322C24",
"g  c #322D25",
"h  c #312D26",
"j  c #322D26",
"k  c #322D27",
"l  c #322E27",
"z  c #322E28",
"x  c #312F2D",
"c  c #343029",
"v  c #30302F",
"b  c #31302F",
"n  c gray19",
"m  c #323130",
"M  c #323131",
"N  c #323231",
"B  c #333231",
"V  c #323232",
"C  c #323233",
"Z  c #323333",
"A  c gray20",
"S  c #333334",
"D  c #333435",
"F  c #343434",
"G  c #343435",
"H  c #353535",
"J  c #353637",
"K  c #373737",
"L  c #383D44",
"P  c #393D45",
"I  c #393E45",
"U  c #393E46",
"Y  c #3A4049",
"T  c #494949",
"R  c #4B4B4B",
"E  c #4C4C4C",
"W  c gray30",
"Q  c #504C46",
"!  c #28508C",
"~  c #33568B",
"^  c #33578B",
"/  c #34578C",
"(  c #2C5490",
")  c #2D5591",
"_  c #2F5691",
"`  c #2E5692",
"'  c #2E5794",
"]  c #2D5A9D",
"[  c #2E5B9E",
"{  c #325A96",
"}  c #325A97",
"|  c #325B97",
" . c #335B97",
".. c #335B98",
"X. c #335C99",
"o. c #345C98",
"O. c #345C99",
"+. c #345D99",
"@. c #355D99",
"#. c #345C9A",
"$. c #3A629E",
"%. c #3A629F",
"&. c #315EA0",
"*. c #315EA1",
"=. c #3360A3",
"-. c #3460A2",
";. c #3460A3",
":. c #3461A3",
">. c #3360A4",
",. c #3461A4",
"<. c #3461A5",
"1. c #3462A7",
"2. c #3466B1",
"3. c #5B79A7",
"4. c #5F82B5",
"5. c #6183B6",
"6. c #6084B8",
"7. c #6184B8",
"8. c #6185BB",
"9. c #6285BB",
"0. c #6588BD",
"q. c #6088C4",
"w. c #6088C5",
"e. c #6089C5",
"r. c #658CC6",
"t. c #648CC8",
"y. c #668EC9",
"u. c #668ECA",
"i. c #678ECA",
"p. c #678FCB",
"a. c #678FCC",
"s. c #6790CC",
"d. c #6890CC",
"f. c #6891CE",
"g. c #6B93CE",
"h. c #6490D2",
"j. c #6B93D0",
"k. c #6993D2",
"l. c #6C94D0",
"z. c #6C95D1",
"x. c #6D95D1",
"c. c #6D95D2",
"v. c #6E96D4",
"b. c #6B97D8",
"n. c #6A97D9",
"m. c #6B97D9",
"M. c #6C98DA",
"N. c #6C99DC",
"B. c #6D99DC",
"V. c #6D9ADE",
"C. c #6E9BDF",
"Z. c #739BD7",
"A. c #729EE0",
"S. c #73A0E3",
"D. c #72A3ED",
"F. c #73A4EF",
"G. c #74A6F1",
"H. c #A8A5B1",
"J. c #A9A6B2",
"K. c #AAA7B3",
"L. c #B6B3C0",
"P. c #B9B5C3",
"I. c #BAB6C4",
"U. c #BCB8C6",
"Y. c #BDB9C8",
"T. c #C8C4D3",
"R. c #C9C5D5",
"E. c #CBC6D6",
"W. c #CDC8D8",
"Q. c #DAD5E7",
"!. c #E1E1E1",
"~. c #E6E6E6",
"^. c #F9F9F9",
"/. c white",
"(. c None",
/* pixels */
"(.(.(.(.(.(.(.(.(.(.(.(.(.(.(.(.(.(.(.(.(.(.(.(.(.(.(.(.(.(.(.(.(.(.(.(.(.(.(.(.(.(.(.(.(.(.(.(.(.(.(.(.(.(.(.(.(.(.(.(.(.(.(.(.",
"(.(.(.(.(.(.(.(.(.(.(.(.(.(.(.(.(.(.(.(.(.(.(.(.(.(.(.(.(.(.(.(.(.(.(.(.(.(.(.(.(.(.(.(.(.(.(.(.(.(.(.(.(.(.(.(.(.(.(.(.(.(.(.(.",
"(.(.(.(.(.(.(.(.(.(.(.(.(.(.(.(.(.(.(.(.(.(.(.(.(.(.(.(.(.(.(.(.(.(.(.(.(.(.(.(.(.(.(.(.(.(.(.(.(.(.(.(.(.(.(.(.(.(.(.(.(.(.(.(.",
"(.(.(.(.(.(.(.(.(.(.(.(.(.(.(.(.(.(.(.(.(.(.(.(.(.(.(.(.(.(.(.(.(.(.(.(.(.(.(.(.(.(.(.(.(.(.(.(.(.(.(.(.(.(.(.(.(.(.(.(.(.(.(.(.",
"(.(.(.(.(.(.(.(.(.(.(.(.(.(.(.(.(.(.(.(.(.(.(.(.(.(.(.(.(.(.(.(.(.(.(.(.(.(.(.(.(.(.(.(.(.(.(.(.(.(.(.(.(.(.(.(.(.(.(.(.(.(.(.(.",
"(.(.(.(.(.(.(.(.(.(.(.(.(.(.(.(.(.(.(.(.(.(.(.(.(.(.(.(.(.(.(.(.(.(.(.(.(.(.(.(.(.(.(.(.(.(.(.(.(.(.(.(.(.(.(.(.(.(.(.(.(.(.(.(.",
"(.(.(.(.(.(.(.(.(.(.(.(.(.(.(.(.(.(.(.(.(.(.(.(.(.(.(.(.(.(.(.(.(.(.(.(.(.(.(.(.(.(.(.(.(.(.(.(.(.(.(.(.(.(.(.(.(.(.(.(.(.(.(.(.",
"(.(.(.(.(.(.(.(.(.(.(.(.(.(.(.(.(.(.(.(.(.(.(.(.(.(.(.(.(.(.(.(.(.(.(.(.(.(.(.(.(.(.(.(.(.(.(.(.(.(.(.(.(.(.(.(.(.(.(.(.(.(.(.(.",
"(.(.(.(.(.(.(.(.(.(.(.(.(.(.(.(.(.(.(.(.(.(.(.(.(.(.(.(.(.(.(.(.(.(.(.(.(.(.(.(.(.(.(.(.(.(.(.(.(.(.(.(.(.(.(.(.(.(.(.(.(.(.(.(.",
"(.(.(.(.(.(.(.(.(.(.(.(.(.(.(.(.(.(.(.(.(.(.(.(.(.(.(.(.(.(.(.(.(.(.(.(.(.(.(.(.(.(.(.(.(.(.(.(.(.(.(.(.(.(.(.(.(.(.(.(.(.(.(.(.",
"(.(.(.(.(.(.(.(.(.(.(.(.(.(.(.(.(.(.(.(.(.(.(.(.(.(.(.(.(.(.(.(.(.(.(.(.(.(.(.(.(.(.(.(.(.(.(.(.(.(.(.(.(.(.(.(.(.(.(.(.(.(.(.(.",
"(.(.(.(.(.(.(.(.(.(.(.(.(.(.(.(.(.(.(.(.(.(.(.(.(.(.(.(.(.(.(.(.(.(.(.(.(.(.(.(.(.(.(.(.(.(.(.(.(.(.(.(.(.(.(.(.(.(.(.(.(.(.(.(.",
"(.(.(.(.(.(.(.(.(.(.(.(.(.(.(.(.(.(.(.(.(.(.(.(.(.(.(.(.(.(.(.(.* V V V V V V V V V V V V V V V V V n A (.(.(.(.(.(.(.(.(.(.(.(.",
"(.(.(.(.(.(.(.(.(.(.(.(.(.(.(.(.(.(.(.(.(.(.(.(.(.(.(.(.(.(.(.(.$ n n n n n n n n n n n n n n n n n s n (.(.(.(.(.(.(.(.(.(.(.(.",
"(.(.(.(.(.(.(.(.(.(.(.(.(.(.(.(.(.(.(.(.(.(.(.(.(.(.(.(.(.(.(.(.& A A A A A A A A A A A A A A A A A n V (.(.(.(.(.(.(.(.(.(.(.(.",
"(.(.(.(.(.(.(.(.(.(.(.(.(.(.(.(.(.(.(.(.(.(.(.(.(.(.(.(.(.(.(.(.O j j g w w w w w w w w w w w w A A n H (.(.(.(.(.(.(.(.(.(.(.(.",
"(.(.(.(.(.(.(.(.(.(.(.(.(.(.(.(.(.(.(.(.(.(.(.(.K # & & & & & O 2.,.>.<.S.V.V.V.V.V.V.V.V.V.V.G.w A A n & & & . (.(.(.(.(.(.(.(.",
"(.(.(.(.(.(.(.(.(.(.(.(.(.(.(.(.(.(.(.(.(.(.(.(.R s A A A A A j ,.o. . .l.p.p.p.p.p.p.p.p.p.p.V.w A A A A A A ; (.(.(.(.(.(.(.(.",
"(.(.(.(.(.(.(.(.(.(.(.(.(.(.(.(.(.(.(.(.(.(.(.(.R s A A M M M f >. .{  .c.s.s.s.s.s.s.s.s.s.s.C.w A A A A A A ; (.(.(.(.(.(.(.(.",
"(.(.(.(.(.(.(.(.(.(.(.(.(.(.(.(.(.(.(.(.(.(.(.(.W s A M S V V l =. . .+.g.p.p.p.p.p.p.p.p.p.p.B.r A A A A A A ; (.(.(.(.(.(.(.(.",
"(.(.(.(.(.(.(.(.(.(.(.(.(.(.(.(.(.(.(.(.  * * * s A A r M.V.N.N.l.l.c.g., r r r r r r r r r r r A A A A A A A ; (.(.(.(.(.(.(.(.",
"(.(.(.(.(.(.(.(.(.(.(.(.(.(.(.(.(.(.(.(.= A A A A A A r p.s.p.p.p.p.s.p.r A A A A A A A A A A A A A A A A A A ; (.(.(.(.(.(.(.(.",
"(.(.(.(.(.(.(.(.(.(.(.(.(.(.(.(.(.(.(.(.= A A A A A A r p.s.p.p.p.p.s.p.r A A A A A A A A A A A A A A A A A A ; (.(.(.(.(.(.(.(.",
"(.(.(.(.(.(.(.(.(.(.(.(.(.(.(.(.(.(.(.(.= A A A i t t < y.s.p.p.M.M.N.m.r A A A A A A A A A A A A A A A A A A ; (.(.(.(.(.(.(.(.",
"(.(.(.(.(.(.(.(.(.(.(.(.(.(.(.(.(.(.(.(.= A A i 3.8.6.4.a.p.p.M.D P I U b A A A A A A A A A A A A A A A A A A ; (.(.(.(.(.(.(.(.",
"(.(.(.(.(.(.(.(.(.(.(.(.(.(.(.(.(.(.(.(.= A A t 9.k.f.f.p.p.p.V.3 b b b A A A A A A A A A A A A A A A A A A A ; (.(.(.(.(.(.(.(.",
"(.(.(.(.(.(.(.(.(.(.(.(.(.(.(.(.(.(.(.(.= A A t 7.f.p.p.p.p.p.V.w A A A A A A A A A A A A A A A A A A A A A A ; (.(.(.(.(.(.(.(.",
"(.(.(.(.(.(.(.(.(.(.(.(.(.(.(.(.(.(.(.(.% l l 2 5.f.p.p.p.p.p.V.w A A A A A A A A A A A A A A A A A A A A A A ; (.(.(.(.(.(.(.(.",
"(.(.(.(.(.(.(.(.(.(.(.(.(.(.(.(.* V N G &.o.o.` e.d.p.p.p.p.p.V.w A A A A A A A A A A A A A A A A A A A A A A ; (.(.(.(.(.(.(.(.",
"(.(.(.(.(.(.(.(.(.(.(.(.(.(.(.(.$ n v n ,.O.O.' w.d.p.p.p.p.p.V.w A A A A A A A A A A A A A A A A A A A A A A ; (.(.(.(.(.(.(.(.",
"(.(.(.(.(.(.(.(.(.(.(.(.(.(.(.(.& A B V ;.o.o.` q.d.p.p.p.p.p.V.w A A A A A A A A A A A A A A A A A A A A A A ; (.(.(.(.(.(.(.(.",
"(.(.(.(.(.(.(.(.(.(.(.(.(.(.(.(.O j g j ] ) ) ! h.C.V.V.s.p.p.V.w A A A A A A A 0 7 7 7 7 7 7 7 A A A A A A A ; (.(.(.(.(.(.(.(.",
"(.(.(.(.(.(.(.(.(.(.(.(.* $ & O 2.,.>.:.Z.x.x.A.J 3 w > y.s.p.V.w A A A A A A 0 L.W.R.R.R.R.R.Q.7 A A A A A A A ; & & & & & & & ",
"(.(.(.(.(.(.(.(.(.(.(.(.V n A j ,.o. . .l.p.p.M.I b A r p.s.p.V.w A A A A A A 0 J.U.P.P.P.P.P.R.7 A A A A A A A A A A A A A A A ",
"(.(.(.(.(.(.(.(.(.(.(.(.n s n d <.O...X.c.s.s.N.I b A r p.s.p.V.5 M M M A A A 0 K.Y.I.I.I.I.I.E.7 A A A A A A A A A A A A A A A ",
"(.(.(.(.(.(.(.(.(.(.(.(.A n V c *.o. .o.l.p.p.m.U b A r p.s.p.N.e V V S M A A q H.U.P.P.P.P.P.T.9 A A A A A A A A A A A A A A A ",
"(.(.(.(.(.(.(.(.(.(.(.(.(.(.(.(.+ l l k r r r r b A A r p.s.p.p.N.N.V.M.r A A A q 9 9 9 9 9 9 9 A A A A A A A A A A A A A A A A ",
"(.(.(.(.(.(.(.(.(.(.(.(.(.(.(.(.& A A A A A A A A A A r p.s.p.p.p.p.s.p.r A A A A A A A A A A A A A A A A A A A A A A A A A A A ",
"(.(.(.(.(.(.(.(.(.(.(.(.(.(.(.(.& A A A A A A A A A A r p.s.p.p.p.p.s.p.r A A A A A A A A A A A A A A A A A A A A A A A A A A A ",
"(.(.(.(.(.(.(.(.(.(.(.(.(.(.(.(.@ z z z t t t t t t t < y.s.p.p.p.p.s.y.< t t t t t t t N A A A A A A A A A A A 8 ; ; ; ; ; ; ; ",
"(.(.(.(.(.(.(.(.(.(.(.(.E T R Q _ ^ ~ / 0.6.6.6.6.6.6.4.a.p.p.p.p.p.p.a.4.6.6.6.6.6.6.r.A N A A A A A A A A A 8 (.(.(.(.(.(.(.(.",
"(.(.(.(.(.(.(.(.(.(.(.(.s p s r 1.#.X.#.v.f.f.f.f.f.f.f.p.p.p.p.p.p.p.p.f.f.f.f.f.f.f.C.C M A A A A A A A A A ; (.(.(.(.(.(.(.(.",
"(.(.(.(.(.(.(.(.(.(.(.(.V n A j ,.o. . .l.p.p.p.p.p.p.p.p.p.p.p.p.p.p.p.p.p.p.p.p.p.p.N.V M A A A A A A A A A ; (.(.(.(.(.(.(.(.",
"(.(.(.(.(.(.(.(.(.(.(.(.u 6 r 1 [ ` ) ` l.p.p.p.p.p.p.p.l.l.l.l.N.N.N.M.p.p.p.p.b.N.N.D.S M A A A A A n * * * X (.(.(.(.(.(.(.(.",
"(.(.(.(.(.(.(.(.E a V u t.s.p.i.a.p.p.u.p.p.p.p.p.p.p.l.o. . .=.l V m A M.p.p.b.U b V S N V A A A A n F (.(.(.(.(.(.(.(.(.(.(.(.",
"(.(.(.(.(.(.(.(.T p n 6 s.f.s.s.p.p.p.p.p.p.p.p.p.p.p.l. .{  .>.f M b M N.p.p.M.L x M M V A A A A A n V (.(.(.(.(.(.(.(.(.(.(.(.",
"(.(.(.(.(.(.(.(.R s A r p.s.p.p.p.p.p.p.p.p.p.p.p.p.p.l. . .o.,.j A M V N.p.p.M.I b A A A A A A A A n V (.(.(.(.(.(.(.(.(.(.(.(.",
"(.(.(.(.(.(.(.(.K # & o n.C.V.V.p.p.p.p.p.p.p.p.l.x.x.Z.:.>.,.2.j A M S F.V.V.D.Y b A A A A A A A A n V (.(.(.(.(.(.(.(.(.(.(.(.",
"(.(.(.(.(.(.(.(.(.(.(.(.y 4 w : V.p.p.p.p.p.p.l.@.( ) ] j g j j A A A M w w w w b A A A A A A A A A n V (.(.(.(.(.(.(.(.(.(.(.(.",
"(.(.(.(.(.(.(.(.(.(.(.(.V n A w V.p.p.p.p.p.p.l.$.{ o.;.V B A A A A A A A A A A A A A A A A A A A A n V (.(.(.(.(.(.(.(.(.(.(.(.",
"(.(.(.(.(.(.(.(.(.(.(.(.V n A w C.s.s.s.s.s.s.z.%.| O.,.V B A A n n n n n n n n n n n n V A A A A A n V (.(.(.(.(.(.(.(.(.(.(.(.",
"(.(.(.(.(.(.(.(.(.(.(.(.V n A r B.p.p.p.p.p.p.j.$.} o.-.Z B A n F V V V V V V V V V V F n V A A A A n V (.(.(.(.(.(.(.(.(.(.(.(.",
"(.(.(.(.(.(.(.(.(.(.(.(.V n A A r r r r r r r r h l l l B A A & /././././././.(.(.(.(.(.F n A A A A n V (.(.(.(.(.(.(.(.(.(.(.(.",
"(.(.(.(.(.(.(.(.(.(.(.(.V n A A A A A A A A A A A A A A A A A & /./././././././.(.(.(.(.V n A A A A n V (.(.(.(.(.(.(.(.(.(.(.(.",
"(.(.(.(.(.(.(.(.(.(.(.(.V n A A A A A A A A A A A A A A A A A & /./././././././.(.(.(.(.V n A A A A n V (.(.(.(.(.(.(.(.(.(.(.(.",
"(.(.(.(.(.(.(.(.(.(.(.(.V n A A A A A n ; ; ; ; ; ; ; ; ; ; ;   /./././././././.(.(.(.(.V n A A A A n V (.(.(.(.(.(.(.(.(.(.(.(.",
"(.(.(.(.(.(.(.(.(.(.(.(.V n A A A A n F ^.~.~.~.~.~.~.~.~.~.~.!./././././././././.(.(.(.V n A A A A n V (.(.(.(.(.(.(.(.(.(.(.(.",
"(.(.(.(.(.(.(.(.(.(.(.(.V n A A A A n V /./././././././././././././././././././././././.V n A A A A n V (.(.(.(.(.(.(.(.(.(.(.(.",
"(.(.(.(.(.(.(.(.(.(.(.(.V n A A A A n V /./.(./././././././././././././././././././././.V n A A A A n V (.(.(.(.(.(.(.(.(.(.(.(.",
"(.(.(.(.(.(.(.(.(.(.(.(.V n A A * * & - (.(.(.(./././././././././././././././././.(.(.(.V n A A * * & - (.(.(.(.(.(.(.(.(.(.(.(.",
"(.(.(.(.(.(.(.(.(.(.(.(.V n A * (.(.(.(.(.(.(.(././././././././././././././././.(.(.(.(.V n A * (.(.(.(.(.(.(.(.(.(.(.(.(.(.(.(.",
"(.(.(.(.(.(.(.(.(.(.(.(.V n A & (.(.(.(.(.(.(.(.(././././././././././././././.(.(.(.(.(.V n A & (.(.(.(.(.(.(.(.(.(.(.(.(.(.(.(.",
"(.(.(.(.(.(.(.(.(.(.(.(.V n A & (.(.(.(.(.(.(.(.(./././././././././././././.(.(.(.(.(.(.V n A & (.(.(.(.(.(.(.(.(.(.(.(.(.(.(.(.",
"(.(.(.(.(.(.(.(.(.(.(.(.V n A & (.(.(.(.(.(.(.(.(.(./././././././././././.(.(.(.(.(.(.(.V n A & (.(.(.(.(.(.(.(.(.(.(.(.(.(.(.(."
};
