/* XPM */
static char *result[] = {
/* columns rows colors chars-per-pixel */
"64 64 10 1 ",
"  c gray20",
". c #345485",
"X c #375888",
"o c #345C98",
"O c #5374A6",
"+ c #5A7DB2",
"@ c #678FCB",
"# c #B9B5C3",
"$ c white",
"% c None",
/* pixels */
"%%%%%%%%%%%%%%%%%%%%%%%%%%%%            $%%%%%%%%%%%%%%%%%%%%%%%",
"%%%%%%%%%%%%%%%%%%%%%%%%%%%%            %%%%%%%%%%%%%%%%%%%%%%%%",
"%%%%%%%%%%%%%%%%%%%%%%%%%%%%            %%%%%%%%%%%%%%%%%%%%%%%%",
"%%%%%%%%%%%%%%%%%%%%%%%%%%%%            %%%%%%%%%%%%%%%%%%%%%%%%",
"%%%%%%%%%%%%%%%%%%%%        oooo@@@@@@@@        %%%%%%%%%%%%%%%%",
"%%%%%%%%%%%%%%%%%%%%        oooo@@@@@@@@        %%%%%%%%%%%%%%%%",
"%%%%%%%%%%%%%%%%%%%%        oooo@@@@@@@@        %%%%%%%%%%%%%%%%",
"%%%%%%%%%%%%%%%%%%%%        oooo@@@@@@@@        %%%%%%%%%%%%%%%%",
"%%%%%%%%%%%%%%%%    oooo@@@@@@@@@@@@@@@@@@@@oooo    %%%%%%%%%%%%",
"%%%%%%%%%%%%%%%%    oooo@@@@@@@@@@@@@@@@@@@@oooo    %%%%%%%%%%%%",
"%%%%%%%%%%%%%%%%    oooo@@@@@@@@@@@@@@@@@@@@oooo    %%%%%%%%%%%%",
"%%%%%%%%%%%%%%%%    oooo@@@@@@@@@@@@@@@@@@@@oooo    %%%%%%%%%%%%",
"%%%%%%%%%%%%%%%%    @@@@@@@@                @@@@    %%%%%%%%%%%%",
"%%%%%%%%%%%%%%%%    @@@@@@@@                @@@@    %%%%%%%%%%%%",
"%%%%%%%%%%%%%%%%    @@@@@@@@                @@@@    %%%%%%%%%%%%",
"%%%%%%%%%%%%%%%%    @@@@@@@@                @@@@    %%%%%%%%%%%%",
"%%%%%%%%%%%%    @@@@@@@@                            %%%%%%%%%%%%",
"%%%%%%%%%%%%    @@@@@@@@                            %%%%%%%%%%%%",
"%%%%%%%%%%%%    @@@@@@@@                            %%%%%%%%%%%%",
"%%%%%%%%%%%%    @@@@@@@@                            %%%%%%%%%%%%",
"%%%%%%%%    oooo@@@@@@@@                        %%%%%%%%%%%%%%%%",
"%%%%%%%%    oooo@@@@@@@@                        %%%%%%%%%%%%%%%%",
"%%%%%%%%    oooo@@@@@@@@                        %%%%%%%%%%%%%%%%",
"%%%%%%%%    oooo@@@@@@@@                        %%%%%%%%%%%%%%%%",
"%%%%%%%%    oooo    @@@@    ########        ###%%%%%%%%%%%%%%%%%",
"%%%%%%%%    oooo    @@@@    ########        ###%%%%%%%%%%%%%%%%%",
"%%%%%%%%    oooo    @@@@    ########        ###%%%%%%%%%%%%%%%%%",
"%%%%%%%%    oooo    @@@@    ########        ###%%%%%%%%%%%%%%%%%",
"%%%%%%%%            @@@@oooo                    %%%%%%%%%%%%%%%%",
"%%%%%%%%            @@@@oooo                    %%%%%%%%%%%%%%%%",
"%%%%%%%%            @@@@oooo                    %%%%%%%%%%%%%%%%",
"%%%%%%%%            @@@@oooo                    %%%%%%%%%%%%%%%%",
"%%%%%%%%%%%%%%$$    @@@@@@@@@@@@@@@@@@@@@@@@    %%%%%%%%%%%%%%%%",
"%%%%%%%%%%%%%%%$    @@@@@@@@@@@@@@@@@@@@@@@@    %%%%%%%%%%%%%%%%",
"%%%%%%%%%%%%%%%$    @@@@@@@@@@@@@@@@@@@@@@@@    %%%%%%%%%%%%%%%%",
"%%%%%%%%%%%%%%%$    @@@@@@@@@@@@@@@@@@@@@@@@    %%%%%%%%%%%%%%%%",
"%%%%%%%%%%%%    oooo++++@@@@@@@@@@@@@@@@@@@@    %%%%%%%%%%%%%%%%",
"%%%%%%%%%%%%    oooo++++@@@@@@@@@@@@@@@@@@@@    %%%%%%%%%%%%%%%%",
"%%%%%%%%%%%%    oooo++++@@@@@@@@@@@@@@@@@@@@    %%%%%%%%%%%%%%%%",
"%%%%%%%%%%%%    oooo++++@@@@@@@@@@@@@@@@@@@@    %%%%%%%%%%%%%%%%",
"%%%%%%%%    ooooOOOOoooo@@@@@@@@@@@@oooo@@@@    %%%%%%%%%%%%%%%%",
"%%%%%%%%    ooooOOOOoooo@@@@@@@@@@@@oooo@@@@    %%%%%%%%%%%%%%%%",
"%%%%%%%%    ooooOOOOoooo@@@@@@@@@@@@oooo@@@@    %%%%%%%%%%%%%%%%",
"%%%%%%%%    ooooOOOOoooo@@@@@@@@@@@@oooo@@@@    %%%%%%%%%%%%%%%%",
"%%%%%%%%    ++++XXXX    @@@@@@@@oooo        %%%%%%%%%%%%%%%%%%%%",
"%%%%%%%%    ++++XXXX    @@@@@@@@oooo        %%%%%%%%%%%%%%%%%%%%",
"%%%%%%%%    ++++XXXX    @@@@@@@@oooo        %%%%%%%%%%%%%%%%%%%%",
"%%%%%%%%    ++++XXXX    @@@@@@@@oooo        %%%%%%%%%%%%%%%%%%%%",
"%%%%%%%%%%%%        ....                    %%%%%%%%%%%%%%%%%%%%",
"%%%%%%%%%%%%        ....                    %%%%%%%%%%%%%%%%%%%%",
"%%%%%%%%%%%%        ....                    %%%%%%%%%%%%%%%%%%%%",
"%%%%%%%%%%%%        ....                    %%%%%%%%%%%%%%%%%%%%",
"%%%%%%%%%%%%%%%%            %%%%%%%%        %%%%%%%%%%%%%%%%%%%%",
"%%%%%%%%%%%%%%%%            %%%%%%%%        %%%%%%%%%%%%%%%%%%%%",
"%%%%%%%%%%%%%%%%            %%%%%%%%        %%%%%%%%%%%%%%%%%%%%",
"%%%%%%%%%%%%%%%%            %%%%%%%%        %%%%%%%%%%%%%%%%%%%%",
"%%%%%%%%%%%%%%%%        %%%%%%%%%%%%        %%%%%%%%%%%%%%%%%%%%",
"%%%%%%%%%%%%%%%%        %%%%%%%%%%%%        %%%%%%%%%%%%%%%%%%%%",
"%%%%%%%%%%%%%%%%        %%%%%%%%%%%%        %%%%%%%%%%%%%%%%%%%%",
"%%%%%%%%%%%%%%%%        %%%%%%%%%%%%        %%%%%%%%%%%%%%%%%%%%",
"%%%%%%%%%%%%%%%%    %%%%%%%%%%%%%%%%    %%%%%%%%%%%%%%%%%%%%%%%%",
"%%%%%%%%%%%%%%%%    %%%%%%%%%%%%%%%%    %%%%%%%%%%%%%%%%%%%%%%%%",
"%%%%%%%%%%%%%%%%    %%%%%%%%%%%%%%%%    %%%%%%%%%%%%%%%%%%%%%%%%",
"%%%%%%%%%%%%%%%%    %%%%%%%%%%%%%%%%    %%%%%%%%%%%%%%%%%%%%%%%%"
};
