/* XPM */
static char *result[] = {
/* columns rows colors chars-per-pixel */
"64 64 6 1 ",
"  c gray20",
". c #345C98",
"X c #678FCB",
"o c #B9B5C3",
"O c white",
"+ c None",
/* pixels */
"++++++++++++++++++++++++++++                ++++++++++++++++++++",
"++++++++++++++++++++++++++++                ++++++++++++++++++++",
"++++++++++++++++++++++++++++                ++++++++++++++++++++",
"++++++++++++++++++++++++++++                ++++++++++++++++++++",
"++++++++++++++++++++        XXXXXXXXXXXX....    ++++++++++++++++",
"++++++++++++++++++++        XXXXXXXXXXXX....    ++++++++++++++++",
"++++++++++++++++++++        XXXXXXXXXXXX....    ++++++++++++++++",
"++++++++++++++++++++        XXXXXXXXXXXX....    ++++++++++++++++",
"++++++++++++++++    ....XXXXXXXXXXXXXXXXXXXX....    ++++++++++++",
"++++++++++++++++    ....XXXXXXXXXXXXXXXXXXXX....    ++++++++++++",
"++++++++++++++++    ....XXXXXXXXXXXXXXXXXXXX....    ++++++++++++",
"++++++++++++++++    ....XXXXXXXXXXXXXXXXXXXX....    ++++++++++++",
"++++++++++++    ....XXXXXXXX                XXXX    ++++++++++++",
"++++++++++++    ....XXXXXXXX                XXXX    ++++++++++++",
"++++++++++++    ....XXXXXXXX                XXXX    ++++++++++++",
"++++++++++++    ....XXXXXXXX                XXXX    O+++++++++++",
"++++++++++++    XXXXXXXX                            O+++++++++++",
"++++++++++++    XXXXXXXX                            O+++++++++++",
"++++++++++++    XXXXXXXX                            O+++++++++++",
"++++++++OO++    XXXXXXXX                            O+++++++++++",
"+++++++O    XXXXXXXXXXXX                        ++OO++++++++++++",
"++++++++    XXXXXXXXXXXX                        ++++++++++++++++",
"++++++++    XXXXXXXXXXXX                        ++++++++++++++++",
"++++++++    XXXXXXXXXXXX                        ++++++++++++++++",
"++++++++            XXXX    oooooooo        oooo++++++++++++++++",
"++++++++            XXXX    oooooooo        oooo++++++++++++++++",
"++++++++            XXXX    oooooooo        oooo++++++++++++++++",
"++++++++            XXXX    oooooooo        oooo++++++++++++++++",
"+++++++++++++++O    XXXX....                    ++++++++++++++++",
"+++++++++++++++O    XXXX....                    ++++++++++++++++",
"+++++++++++++++O    XXXX....                    ++++++++++++++++",
"+++++++++++++++O    XXXX....                    ++++++++++++++++",
"+++++++++++++++O    XXXXXXXXXXXXXXXXXXXXXXXX    ++++++++++++++++",
"+++++++++++++++O    XXXXXXXXXXXXXXXXXXXXXXXX    ++++++++++++++++",
"+++++++++++++++O    XXXXXXXXXXXXXXXXXXXXXXXX    ++++++++++++++++",
"++++++++++++OOOO    XXXXXXXXXXXXXXXXXXXXXXXX    ++++++++++++++++",
"++++++++++++    ....XXXXXXXXXXXXXXXXXXXXXXXX    ++++++++++++++++",
"++++++++++++    ....XXXXXXXXXXXXXXXXXXXXXXXX    ++++++++++++++++",
"++++++++++++    ....XXXXXXXXXXXXXXXXXXXXXXXX    ++++++++++++++++",
"++++++++++++    ....XXXXXXXXXXXXXXXXXXXXXXXX    ++++++++++++++++",
"++++++++    XXXX....XXXXXXXXXXXX....XXXX    ++++++++++++++++++++",
"++++++++    XXXX....XXXXXXXXXXXX....XXXX    ++++++++++++++++++++",
"++++++++    XXXX....XXXXXXXXXXXX....XXXX    ++++++++++++++++++++",
"++++++++    XXXX....XXXXXXXXXXXX....XXXX    ++++++++++++++++++++",
"++++++++++++        ....XXXX....    XXXX    ++++++++++++++++++++",
"++++++++++++        ....XXXX....    XXXX    ++++++++++++++++++++",
"++++++++++++        ....XXXX....    XXXX    ++++++++++++++++++++",
"++++++++++++        ....XXXX....    XXXX    ++++++++++++++++++++",
"++++++++++++            XXXX                ++++++++++++++++++++",
"++++++++++++            XXXX                ++++++++++++++++++++",
"++++++++++++            XXXX                ++++++++++++++++++++",
"++++++++++++            XXXX                ++++++++++++++++++++",
"++++++++++++++++            ++++++++        ++++++++++++++++++++",
"++++++++++++++++            ++++++++        ++++++++++++++++++++",
"++++++++++++++++            ++++++++        ++++++++++++++++++++",
"++++++++++++++++            ++++++++        ++++++++++++++++++++",
"++++++++++++++++        ++++++++++++        ++++++++++++++++++++",
"++++++++++++++++        ++++++++++++        ++++++++++++++++++++",
"++++++++++++++++        ++++++++++++        ++++++++++++++++++++",
"++++++++++++++++        ++++++++++++        ++++++++++++++++++++",
"++++++++++++++++    ++++++++++++++++    ++++++++++++++++++++++++",
"++++++++++++++++    ++++++++++++++++    ++++++++++++++++++++++++",
"++++++++++++++++    ++++++++++++++++    ++++++++++++++++++++++++",
"++++++++++++++++    ++++++++++++++++    ++++++++++++++++++++++++"
};
