/* XPM */
static char *result[] = {
/* columns rows colors chars-per-pixel */
"64 64 227 2 ",
"   c black",
".  c #010101",
"X  c #020202",
"o  c #080907",
"O  c gray3",
"+  c #090908",
"@  c #090909",
"#  c gray4",
"$  c #0B0B0B",
"%  c #130E07",
"&  c #15110B",
"*  c #19140C",
"=  c #1A150E",
"-  c #111111",
";  c gray7",
":  c gray9",
">  c #1C1710",
",  c #1C1811",
"<  c #1D1811",
"1  c #181818",
"2  c #191919",
"3  c gray10",
"4  c #1B1B1B",
"5  c #1F1C19",
"6  c gray11",
"7  c #261C0D",
"8  c #261C0E",
"9  c #271F13",
"0  c #221E15",
"q  c #221E17",
"w  c #221F19",
"e  c #282013",
"r  c #2C2214",
"t  c #25201A",
"y  c #292219",
"u  c #2A241A",
"i  c #2A241B",
"p  c #2C2418",
"a  c #2E2518",
"s  c #2C251A",
"d  c #2E261A",
"f  c #2B261E",
"g  c #2B261F",
"h  c #2B271F",
"j  c #2E271D",
"k  c #2C271F",
"l  c #2E281E",
"z  c #32281A",
"x  c #32291A",
"c  c #202020",
"v  c gray13",
"b  c #222220",
"n  c #222221",
"m  c #222321",
"M  c #222222",
"N  c #232322",
"B  c #232323",
"V  c #2C2720",
"C  c #2B2823",
"Z  c #2C2820",
"A  c #2C2821",
"S  c #2E2920",
"D  c #2C2822",
"F  c #2E2923",
"G  c #2E2A24",
"H  c #2E2A25",
"J  c #2E2B25",
"K  c #2E2B26",
"L  c #2F2B26",
"P  c #2F2B27",
"I  c #282828",
"U  c gray16",
"Y  c #2E2B28",
"T  c #2F2C29",
"R  c #2F2F2F",
"E  c #302A20",
"W  c #312C25",
"Q  c #322D25",
"!  c #322E25",
"~  c #322D26",
"^  c #322E26",
"/  c #322E27",
"(  c #312D28",
")  c #322E29",
"_  c #322F29",
"`  c #322F2A",
"'  c #302F2C",
"]  c #32312D",
"[  c #32322E",
"{  c gray19",
"}  c #313130",
"|  c #313131",
" . c #323131",
".. c #323231",
"X. c #323232",
"o. c #333232",
"O. c gray20",
"+. c #274F8B",
"@. c #29518D",
"#. c #2A528E",
"$. c #2B538F",
"%. c #2C5490",
"&. c #2D5591",
"*. c #2D5592",
"=. c #2E5692",
"-. c #2F5793",
";. c #2D5795",
":. c #2E5795",
">. c #2E5796",
",. c #2D599A",
"<. c #2E599A",
"1. c #2D5A9E",
"2. c #2E5B9E",
"3. c #2F5C9F",
"4. c #305894",
"5. c #315995",
"6. c #315996",
"7. c #335B97",
"8. c #335B98",
"9. c #315B9A",
"0. c #345C98",
"q. c #345C99",
"w. c #335D9C",
"e. c #305C9F",
"r. c #345D9C",
"t. c #305DA0",
"y. c #305DA1",
"u. c #315EA1",
"i. c #325FA2",
"p. c #345FA0",
"a. c #3360A3",
"s. c #3460A1",
"d. c #3460A3",
"f. c #3360A4",
"g. c #3260A6",
"h. c #3460A4",
"j. c #3461A4",
"k. c #3461A5",
"l. c #3463A8",
"z. c #3464AD",
"x. c #3465B0",
"c. c #3466B0",
"v. c #3466B1",
"b. c #5A7BAB",
"n. c #5A7BAC",
"m. c #5C7DB0",
"M. c #5C7EB0",
"N. c #5D81B5",
"B. c #5D81B6",
"V. c #5E83B9",
"C. c #5F83B9",
"Z. c #5E84B9",
"A. c #5E84BA",
"S. c #5F84BB",
"D. c #6785B4",
"F. c #6785B5",
"G. c #6786B5",
"H. c #6786B6",
"J. c #6786B7",
"K. c #6787B8",
"L. c #6185BD",
"P. c #6188C2",
"I. c #6A8CC1",
"U. c #6B8DC3",
"Y. c #638CC8",
"T. c #678FCB",
"R. c #678FCC",
"E. c #678FCD",
"W. c #6D90C6",
"Q. c #6790CC",
"!. c #6790CD",
"~. c #6D91C8",
"^. c #6D91C9",
"/. c #6890CC",
"(. c #6991CD",
"). c #6A92CE",
"_. c #6B93CF",
"`. c #6992D0",
"'. c #6993D1",
"]. c #6A93D1",
"[. c #6993D2",
"{. c #6C94D0",
"}. c #6D95D1",
"|. c #6D95D2",
" X c #6D96D2",
".X c #6A95D6",
"XX c #6A96D7",
"oX c #6B96D7",
"OX c #6F97D4",
"+X c #6E98D7",
"@X c #6F99D7",
"#X c #6B97D8",
"$X c #6B97D9",
"%X c #6B98DB",
"&X c #6E9ADB",
"*X c #6D99DC",
"=X c #6D9ADD",
"-X c #6D9ADE",
";X c #7197D3",
":X c #7199D5",
">X c #739BD7",
",X c #719CDE",
"<X c #6D9BE0",
"1X c #6D9CE2",
"2X c #6F9DE3",
"3X c #719EE1",
"4X c #73A0E3",
"5X c #73A0E4",
"6X c #70A1E9",
"7X c #71A1E9",
"8X c #73A5EF",
"9X c #B0ABBB",
"0X c #B0ACBC",
"qX c #B9B5C3",
"wX c #BAB6C4",
"eX c #BBB6C7",
"rX c #C1BCCD",
"tX c #C4C0CE",
"yX c #C4C0CF",
"uX c #C5C0CF",
"iX c #C9C5D5",
"pX c #CAC5D5",
"aX c #CFCADA",
"sX c #D5CFDF",
"dX c #D5D0E0",
"fX c white",
"gX c None",
/* pixels */
"gXgXgXgXgXgXgXgXgXgXgXgXgXgXgXgXgXgXgXgXgXgXgXgXgXgXgXgXgXgXgXgXgXgXgXgXgXgXgXgXgXgXgXgXgXgXgXgXgXgXgXgXgXgXgXgXgXgXgXgXgXgXgXgX",
"gXgXgXgXgXgXgXgXgXgXgXgXgXgXgXgXgXgXgXgXgXgXgXgXgXgXgXgXgXgXgXgXgXgXgXgXgXgXgXgXgXgXgXgXgXgXgXgXgXgXgXgXgXgXgXgXgXgXgXgXgXgXgXgX",
"gXgXgXgXgXgXgXgXgXgXgXgXgXgXgXgXgXgXgXgXgXgXgXgXgXgXgXgXgXgXgXgXgXgXgXgXgXgXgXgXgXgXgXgXgXgXgXgXgXgXgXgXgXgXgXgXgXgXgXgXgXgXgXgX",
"gXgXgXgXgXgXgXgXgXgXgXgXgXgXgXgXgXgXgXgXgXgXgXgXgXgXgXgXgXgXgXgXgXgXgXgXgXgXgXgXgXgXgXgXgXgXgXgXgXgXgXgXgXgXgXgXgXgXgXgXgXgXgXgX",
"gXgXgXgXgXgXgXgXgXgXgXgXgXgXgXgXgXgXgXgXgXgXgXgXgXgXgXgX# 2 3 3 3 3 3 3 3 3 3 3 3 3 3 . gXgXgXgXgXgXgXgXgXgXgXgXgXgXgXgXgXgXgXgX",
"gXgXgXgXgXgXgXgXgXgXgXgXgXgXgXgXgXgXgXgXgXgXgXgXgXgXgXgXM X.O.O.O.O.O.O.O.O.O.O.O.O.O.3 gXgXgXgXgXgXgXgXgXgXgXgXgXgXgXgXgXgXgXgX",
"gXgXgXgXgXgXgXgXgXgXgXgXgXgXgXgXgXgXgXgXgXgXgXgXgXgXgXgXM X.O.O.O.O.O.O.O.O.O.O.O.O.O.3 gXgXgXgXgXgXgXgXgXgXgXgXgXgXgXgXgXgXgXgX",
"gXgXgXgXgXgXgXgXgXgXgXgXgXgXgXgXgXgXgXgXgXgXgXgXgXgXgXgXq ~ / / A A A A A A A A ~ / / = gXgXgXgXgXgXgXgXgXgXgXgXgXgXgXgXgXgXgXgX",
"gXgXgXgXgXgXgXgXgXgXgXgXgXgXgXgXgXgXgXgXgXgXgXgXM I U g i.w.r.>.@X'.'.'.'.'.'.+X9.w.r.g.C U U - gXgXgXgXgXgXgXgXgXgXgXgXgXgXgXgX",
"gXgXgXgXgXgXgXgXgXgXgXgXgXgXgXgXgXgXgXgXgXgXgXgXI R | W s.q.0.*. XR.R.R.R.R.R.|.6.8.0.k.( } | : gXgXgXgXgXgXgXgXgXgXgXgXgXgXgXgX",
"gXgXgXgXgXgXgXgXgXgXgXgXgXgXgXgXgXgXgXgXgXgXgXgXU | O.^ p.0.0.&.}.T.T.T.T.T.T.}.5.7.0.j.` o.O.2 gXgXgXgXgXgXgXgXgXgXgXgXgXgXgXgX",
"gXgXgXgXgXgXgXgXgXgXgXgXgXgXgXgXgXgXgXgXgXgXgXgXt f V r ,.*.&.+.}.T.T.T.T.T.T.}.$.&.&.1.p V V % gXgXgXgXgXgXgXgXgXgXgXgXgXgXgXgX",
"gXgXgXgXgXgXgXgXgXgXgXgXgXgXgXgXO v v v v v v , %X$XoXoX_._._._.T.T.T.T.T.T.T.T.)._._._.oXoXoX6X> v c ; gXgXgXgXgXgXgXgXgXgXgXgX",
"gXgXgXgXgXgXgXgXgXgXgXgXgXgXgXgX1 X.X.X.X.X.X.V [.Q.T.T.T.T.T.T.T.T.T.T.T.T.T.T.T.T.T.T.T.T.T.-Xg X.| v gXgXgXgXgXgXgXgXgXgXgXgX",
"gXgXgXgXgXgXgXgXgXgXgXgXgXgXgXgX2 O.O.O.O.O.O.A '.R.T.T.T.T.T.T.T.T.T.T.T.T.T.T.T.T.T.T.T.T.T.-XV O.X.M gXgXgXgXgXgXgXgXgXgXgXgX",
"gXgXgXgXgXgXgXgXgXgXgXgXgXgXgXgX* ~ ~ ~ V V V 8 `.R.T.T.=X-X-X-X-X-X-X-X-X-X-X-X-X-X-X-XT.T.T.-XV O.X.M gXgXgXgXgXgXgXgXgXgXgXgX",
"gXgXgXgXgXgXgXgXgXgXgXgX@ 1 2 * v.j.f.y.5X-X-X-XR.T.T.=Xe k V V V V V V V V V V V V V 7 XXT.T.-XV O.X.M fXgXgXgXgXgXgXgXgXgXgXgX",
"gXgXgXgXgXgXgXgXgXgXgXgXM X.O.~ j.0.7.4.}.T.T.T.T.T.T.=XL X.O.O.O.O.O.O.O.O.O.O.O.O.O.V oXT.T.-XV O.X.M fXgXgXgXgXgXgXgXgXgXgXgX",
"gXgXgXgXgXgXgXgXgXgXgXgXM X.O.~ f.7.7.-.}.T.T.T.T.T.T.=XL X.O.O.O.O.O.O.O.O.O.O.O.O.O.V #XR.T.-Xg X.| v gXgXgXgXgXgXgXgXgXgXgXgX",
"gXgXgXgXgXgXgXgXgXgXgXgXM X.O.~ t.-.-.%.{.T.T.T..XoXoX7XP X.O.O.O.O.O.O.O.O.O.O.O.O.O.A 2X#XoX6X> v c ; gXgXgXgXgXgXgXgXgXgXgXgX",
"gXgXgXgXgXgXgXgXgXgXgXgXM X.O.V 5X}.}.{.T.T.T.*Xi k V V X.O.O.O.O.O.O.O.O.O.O.O.O.O.O.O.A V V % fXgXgXgXgXgXgXgXgXgXgXgXgXgXgXgX",
"gXgXgXgXgXgXgXgXgXgXgXgXM X.O.V -XT.T.T.T.T.T.*X' ..O.O.O.O.O.O.O.O.O.O.O.O.O.O.O.O.O.O.O.O.O.2 fXgXgXgXgXgXgXgXgXgXgXgXgXgXgXgX",
"gXgXgXgXgXgXgXgXgXgXgXgXM X.O.V -XT.T.T.T.T.T.*X' ..O.O.O.O.O.O.O.O.O.O.O.O.O.O.O.O.O.O.O.O.O.2 gXgXgXgXgXgXgXgXgXgXgXgXgXgXgXgX",
"gXgXgXgXgXgXgXgXgXgXgXgXq ~ / r -XT.T.T.T.T.T.*X' ..O.O.O.O.O.O.O.O.O.O.O.O.O.O.O.O.O.O.O.O.O.2 gXgXgXgXgXgXgXgXgXgXgXgXgXgXgXgX",
"gXgXgXgXgXgXgXgXM I U g i.w.r.;.|.T.T.T.T.T.T.*X' ..O.O.O.O.O.O.O.O.O.O.O.O.O.O.O.O.O.O.O.O.O.2 gXgXgXgXgXgXgXgXgXgXgXgXgXgXgXgX",
"gXgXgXgXgXgXgXgXI R | W s.q.0.*.}.T.T.T.T.T.T.*X' ..O.O.O.O.O.O.O.O.O.O.O.O.O.O.O.O.O.O.O.O.O.2 gXgXgXgXgXgXgXgXgXgXgXgXgXgXgXgX",
"gXgXgXgXgXgXgXgXU | O.^ p.0.0.&.}.T.T.T.T.T.T.*X' ..O.O.O.O.O.O.O.O.O.O.O.O.O.O.O.O.O.O.O.O.O.2 gXgXgXgXgXgXgXgXgXgXgXgXgXgXgXgX",
"gXgXgXgXgXgXgXgXU | O.^ p.0.0.&.4X=X=X*XT.T.T.*X' ..O.O.N m m m m m m N O.O.O.O.O.O.O.O.N m m + gXgXgXgXgXgXgXgXgXgXgXgXgXgXgXgX",
"gXgXgXgXgXgXgXgXU | O.^ p.0.0.f.d K H u *XT.T.*X' ..O.N aXyXyXyXyXyXyXaXN O.O.O.O.O.O.N aXyXyXeXgXgXgXgXgXgXgXgXgXgXgXgXgXgXgXgX",
"gXgXgXgXgXgXgXgXU | O.^ p.0.0.j.Q X...H =XT.T.*X' ..O.m uXwXqXqXqXqXwXuXm O.O.O.O.O.O.m uXwXqX0XgXgXgXgXgXgXgXgXgXgXgXgXgXgXgXgX",
"gXgXgXgXgXgXgXgXU | O.^ p.0.0.j.~ O.X.L =XT.T.*X' ..O.m tXqXqXqXqXqXqXtXm O.O.O.O.O.O.m tXqXqX9XgXgXgXgXgXgXgXgXgXgXgXgXgXgXgXgX",
"gXgXgXgXgXgXgXgXU | O.^ z.k.j.v.~ O.X.L =XT.T.*XE Q ~ 0 sXpXiXiXiXiXpXdXm O.O.O.O.O.O.m dXpXiXrXgXgXgXgXgXgXgXgXgXgXgXgXgXgXgXgX",
"gXgXgXgXgXgXgXgXU | O.O.^ ~ ~ ~ O.O.X.L =XT.T.}.u.f.j.c.w b n n n n n m O.O.O.O.O.O.O.O.m n n o gXgXgXgXgXgXgXgXgXgXgXgXgXgXgXgX",
"gXgXgXgXgXgXgXgXU | O.O.O.O.O.O.O.O.X.L =XT.T.}.5.7.0.j.` o.O.O.O.O.O.O.O.O.O.O.O.O.O.O.O.O.O.2 gXgXgXgXgXgXgXgXgXgXgXgXgXgXgXgX",
"gXgXgXgXgXgXgXgXI { X.X.X.O.O.O.X.X...J =XT.T.}.5.7.7.f.) X.X.X.X.X.X.X.X.X.X.X.X.X.X.X.X.O.O.2 gXgXgXgXgXgXgXgXgXgXgXgXgXgXgXgX",
"gXgXgXgXgXgXgXgX3 c v M | X.O.X.` ` _ l *XT.T.{.&.-.-.3.j J K K K K K K K K K K K K K K X.X.O.2 gXgXgXgXgXgXgXgXgXgXgXgXgXgXgXgX",
"gXgXgXgXgXgXgXgXgXgXgXgXB X.O.~ c.h.a.e.}.T.T.T.{.}.}.}.=X=X=X=X=X=X=X=X=X=X=X=X=X=X=X8XL X.O.2 gXgXgXgXgXgXgXgXgXgXgXgXgXgXgXgX",
"gXgXgXgXgXgXgXgXgXgXgXgXM X.O.~ j.0.7.4.}.T.T.T.T.T.T.T.T.T.T.T.T.T.T.T.T.T.T.T.T.T.T.=XL X.O.2 gXgXgXgXgXgXgXgXgXgXgXgXgXgXgXgX",
"gXgXgXgXgXgXgXgXgXgXgXgXM X.O.~ j.0.7.4.}.T.T.T.T.T.T.T.T.T.T.T.T.T.T.T.T.T.T.T.T.T.T.=XL X.O.2 gXgXgXgXgXgXgXgXgXgXgXgXgXgXgXgX",
"gXgXgXgXgXgXgXgXgXgXgXgXq ~ / x 2.=.&.#.}.T.T.T.{.{.{.{.T.T.T.T.T.T.T.T.T.T.T.T.{.{.{.4XL X.O.2 gXgXgXgXgXgXgXgXgXgXgXgXgXgXgXgX",
"gXgXgXgXgXgXgXgXM I U g i.w.r.:.OX(.(./.T.T.T.{.-.5.5.$.).T.T.T.T.T.T.T.T.T.T.{.-.5.5.i.) X.O.2 gXgXgXgXgXgXgXgXgXgXgXgXgXgXgXgX",
"gXgXgXgXgXgXgXgXI R | W s.q.0.*.}.T.T.T.T.T.T.}.4.7.7.&.).T.T.T.T.T.T.T.T.T.T.}.4.7.7.a.` o.O.2 gXgXgXgXgXgXgXgXgXgXgXgXgXgXgXgX",
"gXgXgXgXgXgXgXgXU | O.^ p.0.0.&.}.T.T.T.T.T.T.}.5.7.0.&.).T.T.T.T.T.T.T.T.T.T.}.5.7.0.j.` o.O.2 gXgXgXgXgXgXgXgXgXgXgXgXgXgXgXgX",
"gXgXgXgXgXgXgXgXU | O.^ <.*.&.+.}.T.T.T.}.}.}.>Xu.a.h.1.].!.E.E.T.T.T.T.}.}.}.>Xu.a.h.x.` o.O.2 gXgXgXgXgXgXgXgXgXgXgXgXgXgXgXgX",
"gXgXgXgXgXgXgXgXU | O.Z &X_._._.T.T.T.).@.-.-.3.! _ ` s I.H.H.D.E.T.T.).@.-.-.3.! _ ` ` X.o.O.2 gXgXgXgXgXgXgXgXgXgXgXgXgXgXgXgX",
"gXgXgXgXgXgXgXgXU | O.V oXT.T.T.T.T.T.).&.7.7.a.] ..X.D U.K.J.F.!.T.T.).&.7.7.a.] ..X.X.o.O.O.2 gXgXgXgXgXgXgXgXgXgXgXgXgXgXgXgX",
"gXgXgXgXgXgXgXgXU | O.V oXT.T.T.T.T.T.).&.0.0.d.] o.O.D U.K.K.G.!.T.T.).&.0.0.d.] o.O.O.O.O.O.2 gXgXgXgXgXgXgXgXgXgXgXgXgXgXgXgX",
"gXgXgXgXgXgXgXgXU | O.V oXT.T.T.}.}.}.:X2.j.j.x.S F G 9 ;X^.~.W.<X-X-X3X2.j.j.x.[ o.O.O.3 2 2   gXgXgXgXgXgXgXgXgXgXgXgXgXgXgXgX",
"gXgXgXgXgXgXgXgXU | O.V oXT.T.}.+.&.*.<.z ~ ~ a L.S.A.Y.y A D D V V V V ~ ~ ~ ~ o.O.O.3 gXgXgXgXgXgXgXgXgXgXgXgXgXgXgXgXgXgXgXgX",
"gXgXgXgXgXgXgXgXU | O.V oXT.T.}.&.0.0.p.^ O.O.H m.n.b.V.T X.O.O.O.O.O.O.O.O.O.O.O.O.O.3 gXgXgXgXgXgXgXgXgXgXgXgXgXgXgXgXgXgXgXgX",
"gXgXgXgXgXgXgXgXI { X.h #XR.T.}.*.0.0.s.^ O.O.H M.n.b.Z.Y  .X.X.X.X.X.X.O.O.O.O.O.O.O.3 gXgXgXgXgXgXgXgXgXgXgXgXgXgXgXgXgXgXgXgX",
"gXgXgXgXgXgXgXgX3 c v > 1X#XoX,X,.p.p.l./ O.O.H C.B.N.P.5 v v v v v v B X.O.O.O.O.O.O.3 gXgXgXgXgXgXgXgXgXgXgXgXgXgXgXgXgXgXgXgX",
"gXgXgXgXgXgXgXgXgXgXgXgX< g V V ^ ^ ^ / O.O.O.O.H G G & gXgXgXgXgXgXgXgX3 O.O.O.O.O.O.3 gXgXgXgXgXgXgXgXgXgXgXgXgXgXgXgXgXgXgXgX",
"gXgXgXgXgXgXgXgXgXgXgXgXM X.O.O.O.O.O.O.O.O.O.O.O.O.O.3 gXgXgXgXgXgXgXgX3 O.O.O.O.O.O.3 gXgXgXgXgXgXgXgXgXgXgXgXgXgXgXgXgXgXgXgX",
"gXgXgXgXgXgXgXgXgXgXgXgXM X.O.O.O.O.O.O.O.O.O.O.O.O.O.3 gXgXgXgXgXgXgXgX3 O.O.O.O.O.O.3 gXgXgXgXgXgXgXgXgXgXgXgXgXgXgXgXgXgXgXgX",
"gXgXgXgXgXgXgXgXgXgXgXgX$ 3 4 4 O.O.O.O.O.O.O.O.6 4 4 X gXgXgXgXgXgXgXgX3 O.O.O.O.O.O.3 gXgXgXgXgXgXgXgXgXgXgXgXgXgXgXgXgXgXgXgX",
"gXgXgXgXgXgXgXgXgXgXgXgXgXgXgXgX4 O.O.O.O.O.O.6 gXgXgXgXgXgXgXgXgXgXgXgX3 O.O.O.O.O.O.3 gXgXgXgXgXgXgXgXgXgXgXgXgXgXgXgXgXgXgXgX",
"gXgXgXgXgXgXgXgXgXgXgXgXgXgXgXgX2 O.O.O.O.O.O.4 gXgXgXgXgXgXgXgXgXgXgXgX3 O.O.O.O.O.O.3 gXgXgXgXgXgXgXgXgXgXgXgXgXgXgXgXgXgXgXgX",
"gXgXgXgXgXgXgXgXgXgXgXgXgXgXgXgX2 O.O.O.O.O.O.4 gXgXgXgXgXgXgXgXgXgXgXgX3 O.O.O.O.O.O.3 gXgXgXgXgXgXgXgXgXgXgXgXgXgXgXgXgXgXgXgX",
"gXgXgXgXgXgXgXgXgXgXgXgXgXgXgXgX2 O.O.X.3 3 3 X gXgXgXgXgXgXgXgXgXgXgXgX3 O.O.O.4 3 3 . gXgXgXgXgXgXgXgXgXgXgXgXgXgXgXgXgXgXgXgX",
"gXgXgXgXgXgXgXgXgXgXgXgXgXgXgXgX2 O.X.B gXgXgXgXgXgXgXgXgXgXgXgXgXgXgXgX3 O.O.4 gXgXgXgXgXgXgXgXgXgXgXgXgXgXgXgXgXgXgXgXgXgXgXgX",
"gXgXgXgXgXgXgXgXgXgXgXgXgXgXgXgX2 O.X.M gXgXgXgXgXgXgXgXgXgXgXgXgXgXgXgX3 O.O.4 gXgXgXgXgXgXgXgXgXgXgXgXgXgXgXgXgXgXgXgXgXgXgXgX",
"gXgXgXgXgXgXgXgXgXgXgXgXgXgXgXgX2 O.X.M gXgXgXgXgXgXgXgXgXgXgXgXgXgXgXgX3 O.O.4 gXgXgXgXgXgXgXgXgXgXgXgXgXgXgXgXgXgXgXgXgXgXgXgX",
"gXgXgXgXgXgXgXgXgXgXgXgXgXgXgXgX2 O.X.M gXgXgXgXgXgXgXgXgXgXgXgXgXgXgXgX3 O.O.4 gXgXgXgXgXgXgXgXgXgXgXgXgXgXgXgXgXgXgXgXgXgXgXgX"
};
