/* XPM */
static char *result[] = {
/* columns rows colors chars-per-pixel */
"64 64 9 1 ",
"  c #060608",
". c #6E6A71",
"X c #767179",
"o c #AC3232",
"O c #DF7126",
"+ c #847E87",
"@ c #9BADB7",
"# c white",
"$ c None",
/* pixels */
"$$$$$$$$$$$$$$$$$$$$$$$$$$$$$$$$$$$$$$$$$$$$$$$$$$$$$$$$$$$$$$$$",
"$$$$$$$$$$$$$$$$$$$$$$$$$$$$$$$$$$$$$$$$$$$$$$$$$$$$$$$$$$$$$$$$",
"$$$$$$$$$$$$$$$$$$$$$$$$$$$$$$$$$$$$$$$$$$$$$$$$$$$$$$$$$$$$$$$$",
"$$$$$$$$$$$$$$$$$$$$$$$$$$$$$$$$$$$$$$$$$$$$$$$$$$$$$$$$$$$$$$$$",
"$$$$$$$$$$$$$$$$$$$$            $$$$$$$$$$$$$$$$$$$$$$$$$$$$$$$$",
"$$$$$$$$$$$$$$$$$$$$            $$$$$$$$$$$$$$$$$$$$$$$$$$$$$$$$",
"$$$$$$$$$$$$$$$$$$$$            $$$$$$$$$$$$$$$$$$$$$$$$$$$$$$$$",
"$$$$$$$$$$$$$$$$$$$$            $$$$$$$$$$$$$$$$$$$$$$$$$$$$$$$$",
"$$$$$$$$$$$$$$$$$$$$    oooooooo    $$$$$$$$$$$$$$$$$$$$$$$$$$$$",
"$$$$$$$$$$$$$$$$$$$$    oooooooo    $$$$$$$$$$$$$$$$$$$$$$$$$$$$",
"$$$$$$$$$$$$$$$$$$$$    oooooooo    $$$$$$$$$$$$$$$$$$$$$$$$$$$$",
"$$$$$$$$$$$$$$$$$$$$    oooooooo    $$$$$$$$$$$$$$$$$$$$$$$$$$$$",
"$$$$$$$$$$$$$$$$$$$$$$$$    ++++                $$$$$$$$$$$$$$$$",
"$$$$$$$$$$$$$$$$$$$$$$$$    ++++                $$$$$$$$$$$$$$$$",
"$$$$$$$$$$$$$$$$$$$$$$$$    ++++                $$$$$$$$$$$$$$$$",
"$$$$$$$$$$$$$$$$$$$$$$$$    ++++                $$$$$$$$$$$$$$$$",
"$$$$$$$$$$$$$$$$$$$$    ++++++++@@@@@@@@@@@@@@@@    $$$$$$$$$$$$",
"$$$$$$$$$$$$$$$$$$$$    ++++++++@@@@@@@@@@@@@@@@    $$$$$$$$$$$$",
"$$$$$$$$$$$$$$$$$$$$    ++++++++@@@@@@@@@@@@@@@@    $$$$$$$$$$$$",
"$$$$$$$$$$$$$$$$$$$$    ++++++++@@@@@@@@@@@@@@@@    $$$$$$$$$$$$",
"$$$$$$$$$$$$$$$$    ++++@@@@@@@@@@@@@@@@@@@@@@@@    $$$$$$$$$$$$",
"$$$$$$$$$$$$$$$$    ++++@@@@@@@@@@@@@@@@@@@@@@@@    $$$$$$$$$$$$",
"$$$$$$$$$$$$$$$$    ++++@@@@@@@@@@@@@@@@@@@@@@@@    $$$$$$$$$$$$",
"$$$$$$$$$$$$$$$$    ++++@@@@@@@@@@@@@@@@@@@@@@@@    $$$$$$$$$$$$",
"$$$$$$$$$$$$$$$$    @@@@@@@@####################    $$$$$$$$$$$$",
"$$$$$$$$$$$$$$$$    @@@@@@@@####################    $$$$$$$$$$$$",
"$$$$$$$$$$$$$$$$    @@@@@@@@####################    $$$$$$$$$$$$",
"$$$$$$$$$$$$$$$$    @@@@@@@@####################    $$$$$$$$$$$$",
"$$$$$$$$$$$$$$$$    @@@@@@@@####                    $$$$$$$$$$$$",
"$$$$$$$$$$$$$$$$    @@@@@@@@####                    $$$$$$$$$$$$",
"$$$$$$$$$$$$$$$$    @@@@@@@@####                    $$$$$$$$$$$$",
"$$$$$$$$$$$$$$$$    @@@@@@@@####                    $$$$$$$$$$$$",
"$$$$$$$$$$$$$$$$    ++++@@@@############    ####    $$$$$$$$$$$$",
"$$$$$$$$$$$$$$$$    ++++@@@@############    ####    $$$$$$$$$$$$",
"$$$$$$$$$$$$$$$$    ++++@@@@############    ####    $$$$$$$$$$$$",
"$$$$$$$$$$$$$$$$    ++++@@@@############    ####    $$$$$$$$$$$$",
"$$$$$$$$$$$$$$$$        ooooooooooooooooOOOOoooo    $$$$$$$$$$$$",
"$$$$$$$$$$$$$$$$        ooooooooooooooooOOOOoooo    $$$$$$$$$$$$",
"$$$$$$$$$$$$$$$$        ooooooooooooooooOOOOoooo    $$$$$$$$$$$$",
"$$$$$$$$$$$$$$$$        ooooooooooooooooOOOOoooo    $$$$$$$$$$$$",
"$$$$$$$$$$$$$$$$$$$$    ++++++++++++++++++++++++    $$$$$$$$$$$$",
"$$$$$$$$$$$$$$$$$$$$    ++++++++++++++++++++++++    $$$$$$$$$$$$",
"$$$$$$$$$$$$$$$$$$$$    ++++++++++++++++++++++++    $$$$$$$$$$$$",
"$$$$$$$$$$$$$$$$$$$$    ++++++++++++++++++++++++    $$$$$$$$$$$$",
"$$$$$$$$$$$$$$$$oooo    ++++++++            ....    $$$$$$$$$$$$",
"$$$$$$$$$$$$$$$$oooo    ++++++++            ....    $$$$$$$$$$$$",
"$$$$$$$$$$$$$$$$oooo    ++++++++            ....    $$$$$$$$$$$$",
"$$$$$$$$$$$$$$$$oooo    ++++++++            ....    $$$$$$$$$$$$",
"$$$$$$$$$$$$oooooooo    ++++    oooo    XXXX    $$$$$$$$$$$$$$$$",
"$$$$$$$$$$$$oooooooo    ++++    oooo    XXXX    $$$$$$$$$$$$$$$$",
"$$$$$$$$$$$$oooooooo    ++++    oooo    XXXX    $$$$$$$$$$$$$$$$",
"$$$$$$$$$$$$oooooooo    ++++    oooo    XXXX    $$$$$$$$$$$$$$$$",
"$$$$$$$$$$$$$$$$$$$$        $$$$$$$$        $$$$$$$$$$$$$$$$$$$$",
"$$$$$$$$$$$$$$$$$$$$        $$$$$$$$        $$$$$$$$$$$$$$$$$$$$",
"$$$$$$$$$$$$$$$$$$$$        $$$$$$$$        $$$$$$$$$$$$$$$$$$$$",
"$$$$$$$$$$$$$$$$$$$$        $$$$$$$$        $$$$$$$$$$$$$$$$$$$$",
"$$$$$$$$$$$$$$$$$$$$$$$$$$$$$$$$$$$$$$$$$$$$$$$$$$$$$$$$$$$$$$$$",
"$$$$$$$$$$$$$$$$$$$$$$$$$$$$$$$$$$$$$$$$$$$$$$$$$$$$$$$$$$$$$$$$",
"$$$$$$$$$$$$$$$$$$$$$$$$$$$$$$$$$$$$$$$$$$$$$$$$$$$$$$$$$$$$$$$$",
"$$$$$$$$$$$$$$$$$$$$$$$$$$$$$$$$$$$$$$$$$$$$$$$$$$$$$$$$$$$$$$$$",
"$$$$$$$$$$$$$$$$$$$$$$$$$$$$$$$$$$$$$$$$$$$$$$$$$$$$$$$$$$$$$$$$",
"$$$$$$$$$$$$$$$$$$$$$$$$$$$$$$$$$$$$$$$$$$$$$$$$$$$$$$$$$$$$$$$$",
"$$$$$$$$$$$$$$$$$$$$$$$$$$$$$$$$$$$$$$$$$$$$$$$$$$$$$$$$$$$$$$$$",
"$$$$$$$$$$$$$$$$$$$$$$$$$$$$$$$$$$$$$$$$$$$$$$$$$$$$$$$$$$$$$$$$"
};
