/* XPM */
static char *result[] = {
/* columns rows colors chars-per-pixel */
"64 64 10 1 ",
"  c #060608",
". c #AC3232",
"X c #DF7126",
"o c #8C7077",
"O c #8D737A",
"+ c #847E87",
"@ c #9BADB7",
"# c #A5A5A5",
"$ c white",
"% c None",
/* pixels */
"%%%%%%%%%%%%%%%%%%%%%%%%%%%%    %%%%%%%%%%%%%%%%%%%%%%%%%%%%%%%%",
"%%%%%%%%%%%%%%%%%%%%%%%%%%%%    %%%%%%%%%%%%%%%%%%%%%%%%%%%%%%%%",
"%%%%%%%%%%%%%%%%%%%%%%%%%%%%    %%%%%%%%%%%%%%%%%%%%%%%%%%%%%%%%",
"%%%%%%%%%%%%%%%%%%%%%%%%%%%%    %%%%%%%%%%%%%%%%%%%%%%%%%%%%%%%%",
"%%%%%%%%%%%%%%%%%%%%        ....    %%%%%%%%%%%%%%%%%%%%%%%%%%%%",
"%%%%%%%%%%%%%%%%%%%%        ....    %%%%%%%%%%%%%%%%%%%%%%%%%%%%",
"%%%%%%%%%%%%%%%%%%%%        ....    %%%%%%%%%%%%%%%%%%%%%%%%%%%%",
"%%%%%%%%%%%%%%%%%%%%        ....    %%%%%%%%%%%%%%%%%%%%%%%%%%%%",
"%%%%%%%%%%%%%%%%%%%%    ....++++                %%%%%%%%%%%%%%%%",
"%%%%%%%%%%%%%%%%%%%%    ....++++                %%%%%%%%%%%%%%%%",
"%%%%%%%%%%%%%%%%%%%%    ....++++                %%%%%%%%%%%%%%%%",
"%%%%%%%%%%%%%%%%%%%%    ....++++                %%%%%%%%%%%%%%%%",
"%%%%%%%%%%%%%%%%%%%%    ++++++++@@@@@@@@@@@@@@@@    %%%%%%%%%%%%",
"%%%%%%%%%%%%%%%%%%%%    ++++++++@@@@@@@@@@@@@@@@    %%%%%%%%%%%%",
"%%%%%%%%%%%%%%%%%%%%    ++++++++@@@@@@@@@@@@@@@@    %%%%%%%%%%%%",
"%%%%%%%%%%%%%%%%%%%%    ++++++++@@@@@@@@@@@@@@@@    %%%%%%%%%%%%",
"%%%%%%%%%%%%%%%%    ++++@@@@$$$$$$$$$$$$$$$$$$$$    %%%%%%%%%%%%",
"%%%%%%%%%%%%%%%%    ++++@@@@$$$$$$$$$$$$$$$$$$$$    %%%%%%%%%%%%",
"%%%%%%%%%%%%%%%%    ++++@@@@$$$$$$$$$$$$$$$$$$$$    %%%%%%%%%%%%",
"%%%%%%%%%%%%%%%%    ++++@@@@$$$$$$$$$$$$$$$$$$$$    %%%%%%%%%%%%",
"%%%%%%%%%%%%%%%%    @@@@@@@@$$$$                    %%%%%%%%%%%%",
"%%%%%%%%%%%%%%%%    @@@@@@@@$$$$                    %%%%%%%%%%%%",
"%%%%%%%%%%%%%%%%    @@@@@@@@$$$$                    %%%%%%%%%%%%",
"%%%%%%%%%%%%%%%%    @@@@@@@@$$$$                    %%%%%%%%%%%%",
"%%%%%%%%%%%%%%%%    @@@@@@@@$$$$$$$$$$$$    $$$$    %%%%%%%%%%%%",
"%%%%%%%%%%%%%%%%    @@@@@@@@$$$$$$$$$$$$    $$$$    %%%%%%%%%%%%",
"%%%%%%%%%%%%%%%%    @@@@@@@@$$$$$$$$$$$$    $$$$    %%%%%%%%%%%%",
"%%%%%%%%%%%%%%%%    @@@@@@@@$$$$$$$$$$$$    $$$$    %%%%%%%%%%%%",
"%%%%%%%%%%%%%%%%    ++++@@@@@@@@@@@@$$$$$$$$$$$$    %%%%%%%%%%%%",
"%%%%%%%%%%%%%%%%    ++++@@@@@@@@@@@@$$$$$$$$$$$$    %%%%%%%%%%%%",
"%%%%%%%%%%%%%%%%    ++++@@@@@@@@@@@@$$$$$$$$$$$$    %%%%%%%%%%%%",
"%%%%%%%%%%%%%%%%    ++++@@@@@@@@@@@@$$$$$$$$$$$$    %%%%%%%%%%%%",
"%%%%%%%%%%%%%%%%%%%%    ++++oooo........XXXX....    %%%%%%%%%%%%",
"%%%%%%%%%%%%%%%%%%%%    ++++oooo........XXXX....    %%%%%%%%%%%%",
"%%%%%%%%%%%%%%%%%%%%    ++++oooo........XXXX....    %%%%%%%%%%%%",
"%%%%%%%%%%%%%%%%%%%%    ++++oooo........XXXX....    %%%%%%%%%%%%",
"%%%%%%%%%%%%%%%%%%%%    ........OOOO++++++++++++    %%%%%%%%%%%%",
"%%%%%%%%%%%%%%%%%%%%    ........OOOO++++++++++++    %%%%%%%%%%%%",
"%%%%%%%%%%%%%%%%%%%%    ........OOOO++++++++++++    %%%%%%%%%%%%",
"%%%%%%%%%%%%%%%%%%%%    ........OOOO++++++++++++    %%%%%%%%%%%%",
"%%%%%%%%%%%%%%%%....    ++++++++++++++++++++++++    %%%%%%%%%%%%",
"%%%%%%%%%%%%%%%%....    ++++++++++++++++++++++++    %%%%%%%%%%%%",
"%%%%%%%%%%%%%%%%....    ++++++++++++++++++++++++    %%%%%%%%%%%%",
"%%%%%%%%%%%%%%%%....    ++++++++++++++++++++++++    %%%%%%%%%%%%",
"%%%%%%%%%%%%........    ++++++++@@@@@@@@@@@@@@@@    %%%%%%%%%%%%",
"%%%%%%%%%%%%........    ++++++++@@@@@@@@@@@@@@@@    %%%%%%%%%%%%",
"%%%%%%%%%%%%........    ++++++++@@@@@@@@@@@@@@@@    %%%%%%%%%%%%",
"%%%%%%%%%%%%........    ++++++++@@@@@@@@@@@@@@@@    %%%%%%%%%%%%",
"%%%%%%%%................                        ########%%%%%%%%",
"%%%%%%%%................                        ########%%%%%%%%",
"%%%%%%%%................                        ########%%%%%%%%",
"%%%%%%%%................                        ########%%%%%%%%",
"%%%%%%%%####################################################%%%%",
"%%%%%%%%####################################################%%%%",
"%%%%%%%%####################################################%%%%",
"%%%%%%%%####################################################%%%%",
"%%%%%%%%####################################################%%%%",
"%%%%%%%%####################################################%%%%",
"%%%%%%%%####################################################%%%%",
"%%%%%%%%####################################################%%%%",
"%%%%%%%%%%%%############################################%%%%%%%%",
"%%%%%%%%%%%%############################################%%%%%%%%",
"%%%%%%%%%%%%############################################%%%%%%%%",
"%%%%%%%%%%%%############################################%%%%%%%%"
};
