/* XPM */
static char *result[] = {
/* columns rows colors chars-per-pixel */
"64 64 11 1 ",
"  c #040406",
". c #060608",
"X c #565258",
"o c #AC3232",
"O c #DF7126",
"+ c #8C7077",
"@ c #93787F",
"# c #847E87",
"$ c #9BADB7",
"% c white",
"& c None",
/* pixels */
"&&&&&&&&&&&&&&&&&&&&&&&&&&&&&&&&&&&&&&&&&&&&&&&&&&&&&&&&&&&&&&&&",
"&&&&&&&&&&&&&&&&&&&&&&&&&&&&&&&&&&&&&&&&&&&&&&&&&&&&&&&&&&&&&&&&",
"&&&&&&&&&&&&&&&&&&&&&&&&&&&&&&&&&&&&&&&&&&&&&&&&&&&&&&&&&&&&&&&&",
"&&&&&&&&&&&&&&&&&&&&&&&&&&&&&&&&&&&&&&&&&&&&&&&&&&&&&&&&&&&&&&&&",
"&&&&&&&&&&&&&&&&&&&&&&&&&&&&&&&&............&&&&&&&&&&&&&&&&&&&&",
"&&&&&&&&&&&&&&&&&&&&&&&&&&&&&&&&............&&&&&&&&&&&&&&&&&&&&",
"&&&&&&&&&&&&&&&&&&&&&&&&&&&&&&&&............&&&&&&&&&&&&&&&&&&&&",
"&&&&&&&&&&&&&&&&&&&&&&&&&&&&&&&&............&&&&&&&&&&&&&&&&&&&&",
"&&&&&&&&&&&&&&&&&&&&&&&&&&&&....oooooooo....&&&&&&&&&&&&&&&&&&&&",
"&&&&&&&&&&&&&&&&&&&&&&&&&&&&....oooooooo....&&&&&&&&&&&&&&&&&&&&",
"&&&&&&&&&&&&&&&&&&&&&&&&&&&&....oooooooo....&&&&&&&&&&&&&&&&&&&&",
"&&&&&&&&&&&&&&&&&&&&&&&&&&&&....oooooooo....&&&&&&&&&&&&&&&&&&&&",
"&&&&&&&&&&&&&&&&................####....&&&&&&&&&&&&&&&&&&&&&&&&",
"&&&&&&&&&&&&&&&&................####....&&&&&&&&&&&&&&&&&&&&&&&&",
"&&&&&&&&&&&&&&&&................####....&&&&&&&&&&&&&&&&&&&&&&&&",
"&&&&&&&&&&&&&&&&................####....&&&&&&&&&&&&&&&&&&&&&&&&",
"&&&&&&&&&&&&....$$$$$$$$$$$$$$$$########....&&&&&&&&&&&&&&&&&&&&",
"&&&&&&&&&&&&....$$$$$$$$$$$$$$$$########....&&&&&&&&&&&&&&&&&&&&",
"&&&&&&&&&&&&....$$$$$$$$$$$$$$$$########....&&&&&&&&&&&&&&&&&&&&",
"&&&&&&&&&&&&....$$$$$$$$$$$$$$$$########....&&&&&&&&&&&&&&&&&&&&",
"&&&&&&&&&&&&....$$$$$$$$$$$$$$$$$$$$$$$$####....&&&&&&&&&&&&&&&&",
"&&&&&&&&&&&&....$$$$$$$$$$$$$$$$$$$$$$$$####....&&&&&&&&&&&&&&&&",
"&&&&&&&&&&&&....$$$$$$$$$$$$$$$$$$$$$$$$####....&&&&&&&&&&&&&&&&",
"&&&&&&&&&&&&....$$$$$$$$$$$$$$$$$$$$$$$$####....&&&&&&&&&&&&&&&&",
"&&&&&&&&&&&&....%%%%%%%%%%%%%%%%%%%%$$$$$$$$....&&&&&&&&&&&&&&&&",
"&&&&&&&&&&&&....%%%%%%%%%%%%%%%%%%%%$$$$$$$$....&&&&&&&&&&&&&&&&",
"&&&&&&&&&&&&....%%%%%%%%%%%%%%%%%%%%$$$$$$$$....&&&&&&&&&&&&&&&&",
"&&&&&&&&&&&&....%%%%%%%%%%%%%%%%%%%%$$$$$$$$....&&&&&&&&&&&&&&&&",
"&&&&&&&&&&&&....................%%%%$$$$$$$$....&&&&&&&&&&&&&&&&",
"&&&&&&&&&&&&....................%%%%$$$$$$$$....&&&&&&&&&&&&&&&&",
"&&&&&&&&&&&&....................%%%%$$$$$$$$....&&&&&&&&&&&&&&&&",
"&&&&&&&&&&&&....................%%%%$$$$$$$$....&&&&&&&&&&&&&&&&",
"&&&&&&&&&&&&....%%%%....%%%%%%%%%%%%$$$$####....&&&&&&&&&&&&&&&&",
"&&&&&&&&&&&&....%%%%....%%%%%%%%%%%%$$$$####....&&&&&&&&&&&&&&&&",
"&&&&&&&&&&&&....%%%%....%%%%%%%%%%%%$$$$####....&&&&&&&&&&&&&&&&",
"&&&&&&&&&&&&....%%%%....%%%%%%%%%%%%$$$$####....&&&&&&&&&&&&&&&&",
"&&&&&&&&&&&&....ooooOOOOoooooooo++++####....&&&&&&&&&&&&&&&&&&&&",
"&&&&&&&&&&&&....ooooOOOOoooooooo++++####....&&&&&&&&&&&&&&&&&&&&",
"&&&&&&&&&&&&....ooooOOOOoooooooo++++####....&&&&&&&&&&&&&&&&&&&&",
"&&&&&&&&&&&&....ooooOOOOoooooooo++++####....&&&&&&&&&&&&&&&&&&&&",
"&&&&&&&&&&&&....############@@@@oooooooo....oooo&&&&&&&&&&&&&&&&",
"&&&&&&&&&&&&....############@@@@oooooooo....oooo&&&&&&&&&&&&&&&&",
"&&&&&&&&&&&&....############@@@@oooooooo....oooo&&&&&&&&&&&&&&&&",
"&&&&&&&&&&&&....############@@@@oooooooo....oooo&&&&&&&&&&&&&&&&",
"&&&&&&&&&&&&....$$$$$$$$$$$$$$$$########....oooooooooooo&&&&&&&&",
"&&&&&&&&&&&&....$$$$$$$$$$$$$$$$########....oooooooooooo&&&&&&&&",
"&&&&&&&&&&&&....$$$$$$$$$$$$$$$$########....oooooooooooo&&&&&&&&",
"&&&&&&&&&&&&....$$$$$$$$$$$$$$$$########....oooooooooooo&&&&&&&&",
"&&&&&&&&&&&&    ####....................oooooooooooo&&&&&&&&&&&&",
"&&&&&&&&&&&&    ####....................oooooooooooo&&&&&&&&&&&&",
"&&&&&&&&&&&&    ####....................oooooooooooo&&&&&&&&&&&&",
"&&&&&&&&&&&&    ####....................oooooooooooo&&&&&&&&&&&&",
"&&&&&&&&&&&&&&&&    XXXX    &&&&&&&&&&&&&&&&&&&&&&&&&&&&&&&&&&&&",
"&&&&&&&&&&&&&&&&    XXXX    &&&&&&&&&&&&&&&&&&&&&&&&&&&&&&&&&&&&",
"&&&&&&&&&&&&&&&&    XXXX    &&&&&&&&&&&&&&&&&&&&&&&&&&&&&&&&&&&&",
"&&&&&&&&&&&&&&&&    XXXX    &&&&&&&&&&&&&&&&&&&&&&&&&&&&&&&&&&&&",
"&&&&&&&&&&&&&&&&&&&&        &&&&&&&&&&&&&&&&&&&&&&&&&&&&&&&&&&&&",
"&&&&&&&&&&&&&&&&&&&&        &&&&&&&&&&&&&&&&&&&&&&&&&&&&&&&&&&&&",
"&&&&&&&&&&&&&&&&&&&&        &&&&&&&&&&&&&&&&&&&&&&&&&&&&&&&&&&&&",
"&&&&&&&&&&&&&&&&&&&&        &&&&&&&&&&&&&&&&&&&&&&&&&&&&&&&&&&&&",
"&&&&&&&&&&&&&&&&&&&&&&&&&&&&&&&&&&&&&&&&&&&&&&&&&&&&&&&&&&&&&&&&",
"&&&&&&&&&&&&&&&&&&&&&&&&&&&&&&&&&&&&&&&&&&&&&&&&&&&&&&&&&&&&&&&&",
"&&&&&&&&&&&&&&&&&&&&&&&&&&&&&&&&&&&&&&&&&&&&&&&&&&&&&&&&&&&&&&&&",
"&&&&&&&&&&&&&&&&&&&&&&&&&&&&&&&&&&&&&&&&&&&&&&&&&&&&&&&&&&&&&&&&"
};
