/* XPM */
static char *result[] = {
/* columns rows colors chars-per-pixel */
"64 64 9 1 ",
"  c #060608",
". c #AC3232",
"X c #DF7126",
"o c #8C7077",
"O c #8D737A",
"+ c #847E87",
"@ c #9BADB7",
"# c white",
"$ c None",
/* pixels */
"$$$$$$$$$$$$$$$$$$$$$$$$$$$$$$$$    $$$$$$$$$$$$$$$$$$$$$$$$$$$$",
"$$$$$$$$$$$$$$$$$$$$$$$$$$$$$$$$    $$$$$$$$$$$$$$$$$$$$$$$$$$$$",
"$$$$$$$$$$$$$$$$$$$$$$$$$$$$$$$$    $$$$$$$$$$$$$$$$$$$$$$$$$$$$",
"$$$$$$$$$$$$$$$$$$$$$$$$$$$$$$$$    $$$$$$$$$$$$$$$$$$$$$$$$$$$$",
"$$$$$$$$$$$$$$$$$$$$$$$$$$$$    ....        $$$$$$$$$$$$$$$$$$$$",
"$$$$$$$$$$$$$$$$$$$$$$$$$$$$    ....        $$$$$$$$$$$$$$$$$$$$",
"$$$$$$$$$$$$$$$$$$$$$$$$$$$$    ....        $$$$$$$$$$$$$$$$$$$$",
"$$$$$$$$$$$$$$$$$$$$$$$$$$$$    ....        $$$$$$$$$$$$$$$$$$$$",
"$$$$$$$$$$$$$$$$                ++++....    $$$$$$$$$$$$$$$$$$$$",
"$$$$$$$$$$$$$$$$                ++++....    $$$$$$$$$$$$$$$$$$$$",
"$$$$$$$$$$$$$$$$                ++++....    $$$$$$$$$$$$$$$$$$$$",
"$$$$$$$$$$$$$$$$                ++++....    $$$$$$$$$$$$$$$$$$$$",
"$$$$$$$$$$$$    @@@@@@@@@@@@@@@@++++++++    $$$$$$$$$$$$$$$$$$$$",
"$$$$$$$$$$$$    @@@@@@@@@@@@@@@@++++++++    $$$$$$$$$$$$$$$$$$$$",
"$$$$$$$$$$$$    @@@@@@@@@@@@@@@@++++++++    $$$$$$$$$$$$$$$$$$$$",
"$$$$$$$$$$$$    @@@@@@@@@@@@@@@@++++++++    $$$$$$$$$$$$$$$$$$$$",
"$$$$$$$$$$$$    ####################@@@@++++    $$$$$$$$$$$$$$$$",
"$$$$$$$$$$$$    ####################@@@@++++    $$$$$$$$$$$$$$$$",
"$$$$$$$$$$$$    ####################@@@@++++    $$$$$$$$$$$$$$$$",
"$$$$$$$$$$$$    ####################@@@@++++    $$$$$$$$$$$$$$$$",
"$$$$$$$$$$$$                    ####@@@@@@@@    $$$$$$$$$$$$$$$$",
"$$$$$$$$$$$$                    ####@@@@@@@@    $$$$$$$$$$$$$$$$",
"$$$$$$$$$$$$                    ####@@@@@@@@    $$$$$$$$$$$$$$$$",
"$$$$$$$$$$$$                    ####@@@@@@@@    $$$$$$$$$$$$$$$$",
"$$$$$$$$$$$$    ####    ############@@@@@@@@    $$$$$$$$$$$$$$$$",
"$$$$$$$$$$$$    ####    ############@@@@@@@@    $$$$$$$$$$$$$$$$",
"$$$$$$$$$$$$    ####    ############@@@@@@@@    $$$$$$$$$$$$$$$$",
"$$$$$$$$$$$$    ####    ############@@@@@@@@    $$$$$$$$$$$$$$$$",
"$$$$$$$$$$$$    ############@@@@@@@@@@@@++++    $$$$$$$$$$$$$$$$",
"$$$$$$$$$$$$    ############@@@@@@@@@@@@++++    $$$$$$$$$$$$$$$$",
"$$$$$$$$$$$$    ############@@@@@@@@@@@@++++    $$$$$$$$$$$$$$$$",
"$$$$$$$$$$$$    ############@@@@@@@@@@@@++++    $$$$$$$$$$$$$$$$",
"$$$$$$$$$$$$    ....XXXX........oooo++++    $$$$$$$$$$$$$$$$$$$$",
"$$$$$$$$$$$$    ....XXXX........oooo++++    $$$$$$$$$$$$$$$$$$$$",
"$$$$$$$$$$$$    ....XXXX........oooo++++    $$$$$$$$$$$$$$$$$$$$",
"$$$$$$$$$$$$    ....XXXX........oooo++++    $$$$$$$$$$$$$$$$$$$$",
"$$$$$$$$$$$$    ++++++++++++OOOO........    $$$$$$$$$$$$$$$$$$$$",
"$$$$$$$$$$$$    ++++++++++++OOOO........    $$$$$$$$$$$$$$$$$$$$",
"$$$$$$$$$$$$    ++++++++++++OOOO........    $$$$$$$$$$$$$$$$$$$$",
"$$$$$$$$$$$$    ++++++++++++OOOO........    $$$$$$$$$$$$$$$$$$$$",
"$$$$$$$$$$$$    ++++++++++++++++++++++++    ....$$$$$$$$$$$$$$$$",
"$$$$$$$$$$$$    ++++++++++++++++++++++++    ....$$$$$$$$$$$$$$$$",
"$$$$$$$$$$$$    ++++++++++++++++++++++++    ....$$$$$$$$$$$$$$$$",
"$$$$$$$$$$$$    ++++++++++++++++++++++++    ....$$$$$$$$$$$$$$$$",
"$$$$$$$$$$$$    @@@@@@@@@@@@@@@@++++++++    ........$$$$$$$$$$$$",
"$$$$$$$$$$$$    @@@@@@@@@@@@@@@@++++++++    ........$$$$$$$$$$$$",
"$$$$$$$$$$$$    @@@@@@@@@@@@@@@@++++++++    ........$$$$$$$$$$$$",
"$$$$$$$$$$$$    @@@@@@@@@@@@@@@@++++++++    ........$$$$$$$$$$$$",
"$$$$$$$$$$$$$$$$                        ................$$$$$$$$",
"$$$$$$$$$$$$$$$$                        ................$$$$$$$$",
"$$$$$$$$$$$$$$$$                        ................$$$$$$$$",
"$$$$$$$$$$$$$$$$                        ................$$$$$$$$",
"$$$$$$$$$$$$$$$$$$$$$$$$$$$$$$$$$$$$$$$$$$$$$$$$$$$$$$$$$$$$$$$$",
"$$$$$$$$$$$$$$$$$$$$$$$$$$$$$$$$$$$$$$$$$$$$$$$$$$$$$$$$$$$$$$$$",
"$$$$$$$$$$$$$$$$$$$$$$$$$$$$$$$$$$$$$$$$$$$$$$$$$$$$$$$$$$$$$$$$",
"$$$$$$$$$$$$$$$$$$$$$$$$$$$$$$$$$$$$$$$$$$$$$$$$$$$$$$$$$$$$$$$$",
"$$$$$$$$$$$$$$$$$$$$$$$$$$$$$$$$$$$$$$$$$$$$$$$$$$$$$$$$$$$$$$$$",
"$$$$$$$$$$$$$$$$$$$$$$$$$$$$$$$$$$$$$$$$$$$$$$$$$$$$$$$$$$$$$$$$",
"$$$$$$$$$$$$$$$$$$$$$$$$$$$$$$$$$$$$$$$$$$$$$$$$$$$$$$$$$$$$$$$$",
"$$$$$$$$$$$$$$$$$$$$$$$$$$$$$$$$$$$$$$$$$$$$$$$$$$$$$$$$$$$$$$$$",
"$$$$$$$$$$$$$$$$$$$$$$$$$$$$$$$$$$$$$$$$$$$$$$$$$$$$$$$$$$$$$$$$",
"$$$$$$$$$$$$$$$$$$$$$$$$$$$$$$$$$$$$$$$$$$$$$$$$$$$$$$$$$$$$$$$$",
"$$$$$$$$$$$$$$$$$$$$$$$$$$$$$$$$$$$$$$$$$$$$$$$$$$$$$$$$$$$$$$$$",
"$$$$$$$$$$$$$$$$$$$$$$$$$$$$$$$$$$$$$$$$$$$$$$$$$$$$$$$$$$$$$$$$"
};
