/* XPM */
static char *result[] = {
/* columns rows colors chars-per-pixel */
"64 64 12 1 ",
"  c #060608",
". c #6E6A71",
"X c #767179",
"o c #AC3232",
"O c #DF7126",
"+ c #847E87",
"@ c #9BADB7",
"# c #A4A4A4",
"$ c #A5A5A5",
"% c gray65",
"& c white",
"* c None",
/* pixels */
"********************************    ****************************",
"********************************    ****************************",
"********************************    ****************************",
"********************************    ****************************",
"****************************    oooo        ********************",
"****************************    oooo        ********************",
"****************************    oooo        ********************",
"****************************    oooo        ********************",
"****************                ++++oooo    ********************",
"****************                ++++oooo    ********************",
"****************                ++++oooo    ********************",
"****************                ++++oooo    ********************",
"************    @@@@@@@@@@@@@@@@++++++++    ********************",
"************    @@@@@@@@@@@@@@@@++++++++    ********************",
"************    @@@@@@@@@@@@@@@@++++++++    ********************",
"************    @@@@@@@@@@@@@@@@++++++++    ********************",
"************    @@@@@@@@@@@@@@@@@@@@@@@@++++    ****************",
"************    @@@@@@@@@@@@@@@@@@@@@@@@++++    ****************",
"************    @@@@@@@@@@@@@@@@@@@@@@@@++++    ****************",
"************    @@@@@@@@@@@@@@@@@@@@@@@@++++    ****************",
"************    @@@@@@@@@@@@@@@@@@@@@@@@@@@@    ****************",
"************    @@@@@@@@@@@@@@@@@@@@@@@@@@@@    ****************",
"************    @@@@@@@@@@@@@@@@@@@@@@@@@@@@    ****************",
"************    @@@@@@@@@@@@@@@@@@@@@@@@@@@@    ****************",
"************    &&&&&&&&&&&&&&&&&&&&@@@@@@@@    ****************",
"************    &&&&&&&&&&&&&&&&&&&&@@@@@@@@    ****************",
"************    &&&&&&&&&&&&&&&&&&&&@@@@@@@@    ****************",
"************    &&&&&&&&&&&&&&&&&&&&@@@@@@@@    ****************",
"************                    &&&&@@@@++++    ****************",
"************                    &&&&@@@@++++    ****************",
"************                    &&&&@@@@++++    ****************",
"************                    &&&&@@@@++++    ****************",
"************    &&&&    &&&&&&&&&&&&++++        ****************",
"************    &&&&    &&&&&&&&&&&&++++        ****************",
"************    &&&&    &&&&&&&&&&&&++++        ****************",
"************    &&&&    &&&&&&&&&&&&++++        ****************",
"************    ooooOOOOoooooooooooooooo    ********************",
"************    ooooOOOOoooooooooooooooo    ********************",
"************    ooooOOOOoooooooooooooooo    ********************",
"************    ooooOOOOoooooooooooooooo    ********************",
"************    ++++++++++++++++++++++++    oooo****************",
"************    ++++++++++++++++++++++++    oooo****************",
"************    ++++++++++++++++++++++++    oooo****************",
"************    ++++++++++++++++++++++++    oooo****************",
"************    ....            ++++++++    oooo****************",
"************    ....            ++++++++    oooo****************",
"************    ....            ++++++++    oooo****************",
"************    ....            ++++++++    oooo****************",
"*********$$$$$$$    XXXX    oooo    ++++    oooooooo************",
"********%$$$$$$$    XXXX    oooo    ++++    oooooooo************",
"********$$$$$$$$    XXXX    oooo    ++++    oooooooo************",
"********$$$$$$$$    XXXX    oooo    ++++    oooooooo************",
"****$$$$$$$$$$$$$$$$        $$$$$$$$        $$$$$$$$$$$$********",
"****$$$$$$$$$$$$$$$$        $$$$$$$$        $$$$$$$$$$$$********",
"****$$$$$$$$$$$$$$$$        $$$$$$$$        $$$$$$$$$$$$********",
"****$$$$$$$$$$$$$$$$        $$$$$$$$        $$$$$$$$$$$$********",
"****$$$$$$$$$$$$$$$$$$$$$$$$$$$$$$$$$$$$$$$$$$$$$$$$$$$$********",
"****$$$$$$$$$$$$$$$$$$$$$$$$$$$$$$$$$$$$$$$$$$$$$$$$$$$$********",
"****$$$$$$$$$$$$$$$$$$$$$$$$$$$$$$$$$$$$$$$$$$$$$$$$$$$$********",
"****$$$$$$$$$$$$$$$$$$$$$$$$$$$$$$$$$$$$$$$$$$$$$$$$$$$$********",
"********$$$$$$$$$$$$$$$$$$$$$$$$$$$$$$$$$$$$$$$$$$$$************",
"********#$$$$$$$$$$$$$$$$$$$$$$$$$$$$$$$$$$$$$$$$$$$************",
"********$$$$$$$$$$$$$$$$$$$$$$$$$$$$$$$$$$$$$$$$$$$$************",
"********$$$$$$$$$$$$$$$$$$$$$$$$$$$$$$$$$$$$$$$$$$$$************"
};
