/* XPM */
static char *result[] = {
/* columns rows colors chars-per-pixel */
"64 64 14 1 ",
"  c #060608",
". c #6E6A71",
"X c #78747C",
"o c #AC3131",
"O c #AC3232",
"+ c #DF7126",
"@ c #8C7077",
"# c #93787F",
"$ c #847E87",
"% c #9BADB7",
"& c #A4A4A4",
"* c #A5A5A5",
"= c white",
"- c None",
/* pixels */
"--------------------------------            --------------------",
"--------------------------------            --------------------",
"--------------------------------            --------------------",
"--------------------------------            --------------------",
"----------------------------    OOOOOOOO    --------------------",
"----------------------------    OOOOOOOO    --------------------",
"----------------------------    OOOOOOOO    --------------------",
"----------------------------    OOOOOOOO    --------------------",
"----------------                $$$$    ------------------------",
"----------------                $$$$    ------------------------",
"----------------                $$$$    ------------------------",
"----------------                $$$$    ------------------------",
"------------    %%%%%%%%%%%%%%%%$$$$$$$$    --------------------",
"------------    %%%%%%%%%%%%%%%%$$$$$$$$    --------------------",
"------------    %%%%%%%%%%%%%%%%$$$$$$$$    --------------------",
"------------    %%%%%%%%%%%%%%%%$$$$$$$$    --------------------",
"------------    %%%%%%%%%%%%%%%%%%%%%%%%$$$$    ----------------",
"------------    %%%%%%%%%%%%%%%%%%%%%%%%$$$$    ----------------",
"------------    %%%%%%%%%%%%%%%%%%%%%%%%$$$$    ----------------",
"------------    %%%%%%%%%%%%%%%%%%%%%%%%$$$$    ----------------",
"------------    ====================%%%%%%%%    ----------------",
"------------    ====================%%%%%%%%    ----------------",
"------------    ====================%%%%%%%%    ----------------",
"------------    ====================%%%%%%%%    ----------------",
"------------                    ====%%%%%%%%    ----------------",
"------------                    ====%%%%%%%%    ----------------",
"------------                    ====%%%%%%%%    ----------------",
"------------                    ====%%%%%%%%    ----------------",
"------------    ====    ============%%%%$$$$    ----------------",
"------------    ====    ============%%%%$$$$    ----------------",
"------------    ====    ============%%%%$$$$    ----------------",
"------------    ====    ============%%%%$$$$    ----------------",
"------------    OOOO++++OOOOOOOO@@@@$$$$        ----------------",
"------------    OOOO++++OOOOOOOO@@@@$$$$        ----------------",
"------------    OOOO++++OOOOOOOO@@@@$$$$        ----------------",
"------------    OOOO++++OOOOOOOO@@@@$$$$        ----------------",
"------------    $$$$$$$$$$$$####OOOOOOOO    --------------------",
"------------    $$$$$$$$$$$$####OOOOOOOO    --------------------",
"------------    $$$$$$$$$$$$####OOOOOOOO    --------------------",
"------------    $$$$$$$$$$$$####OOOOOOOO    --------------------",
"------------    %%%%%%%%%%%%%%%%$$$$$$$$    OOOO----------------",
"------------    %%%%%%%%%%%%%%%%$$$$$$$$    OOOO----------------",
"------------    %%%%%%%%%%%%%%%%$$$$$$$$    OOOO----------------",
"------------    %%%%%%%%%%%%%%%%$$$$$$$$    OOOO----------------",
"------------    ....            $$$$$$$$    OOOOOOOo------------",
"------------    ....            $$$$$$$$    OOOOOOOO------------",
"------------    ....            $$$$$$$$    OOOOOOOO------------",
"------------    ....            $$$$$$$$    OOOOOOOO------------",
"---------&******    XXXX    OOOO    $$$$    OOOOOOOO------------",
"--------********    XXXX    OOOO    $$$$    OOOOOOOO------------",
"--------********    XXXX    OOOO    $$$$    OOOOOOOO------------",
"--------********    XXXX    OOOO    $$$$    OOOOOOOO------------",
"-----***************        ********        ************--------",
"----&***************        ********        ************--------",
"----****************        ********        ************--------",
"----****************        ********        ************--------",
"----****************************************************--------",
"----****************************************************--------",
"----****************************************************--------",
"----****************************************************--------",
"--------********************************************------------",
"--------********************************************------------",
"--------********************************************------------",
"--------********************************************------------"
};
