/* XPM */
static char *result[] = {
/* columns rows colors chars-per-pixel */
"64 64 10 1 ",
"  c #040406",
". c #060608",
"X c #AC3232",
"o c #DF7126",
"O c #8D737A",
"+ c #847E87",
"@ c #9BADB7",
"# c #A5A5A5",
"$ c white",
"% c None",
/* pixels */
"%%%%%%%%%%%%%%%%%%%%%%%%%%%%%%%%%%%%%%%%%%%%%%%%%%%%%%%%%%%%%%%%",
"%%%%%%%%%%%%%%%%%%%%%%%%%%%%%%%%%%%%%%%%%%%%%%%%%%%%%%%%%%%%%%%%",
"%%%%%%%%%%%%%%%%%%%%%%%%%%%%%%%%%%%%%%%%%%%%%%%%%%%%%%%%%%%%%%%%",
"%%%%%%%%%%%%%%%%%%%%%%%%%%%%%%%%%%%%%%%%%%%%%%%%%%%%%%%%%%%%%%%%",
"%%%%%%%%%%%%%%%%%%%%%%%%%%%%....%%%%%%%%%%%%%%%%%%%%%%%%%%%%%%%%",
"%%%%%%%%%%%%%%%%%%%%%%%%%%%%....%%%%%%%%%%%%%%%%%%%%%%%%%%%%%%%%",
"%%%%%%%%%%%%%%%%%%%%%%%%%%%%....%%%%%%%%%%%%%%%%%%%%%%%%%%%%%%%%",
"%%%%%%%%%%%%%%%%%%%%%%%%%%%%....%%%%%%%%%%%%%%%%%%%%%%%%%%%%%%%%",
"%%%%%%%%%%%%%%%%%%%%........XXXX....%%%%%%%%%%%%%%%%%%%%%%%%%%%%",
"%%%%%%%%%%%%%%%%%%%%........XXXX....%%%%%%%%%%%%%%%%%%%%%%%%%%%%",
"%%%%%%%%%%%%%%%%%%%%........XXXX....%%%%%%%%%%%%%%%%%%%%%%%%%%%%",
"%%%%%%%%%%%%%%%%%%%%........XXXX....%%%%%%%%%%%%%%%%%%%%%%%%%%%%",
"%%%%%%%%%%%%%%%%%%%%....XXXX++++................%%%%%%%%%%%%%%%%",
"%%%%%%%%%%%%%%%%%%%%....XXXX++++................%%%%%%%%%%%%%%%%",
"%%%%%%%%%%%%%%%%%%%%....XXXX++++................%%%%%%%%%%%%%%%%",
"%%%%%%%%%%%%%%%%%%%%....XXXX++++................%%%%%%%%%%%%%%%%",
"%%%%%%%%%%%%%%%%%%%%....++++++++@@@@@@@@@@@@@@@@....%%%%%%%%%%%%",
"%%%%%%%%%%%%%%%%%%%%....++++++++@@@@@@@@@@@@@@@@....%%%%%%%%%%%%",
"%%%%%%%%%%%%%%%%%%%%....++++++++@@@@@@@@@@@@@@@@....%%%%%%%%%%%%",
"%%%%%%%%%%%%%%%%%%%%....++++++++@@@@@@@@@@@@@@@@....%%%%%%%%%%%%",
"%%%%%%%%%%%%%%%%....++++@@@@$$$$$$$$$$$$$$$$$$$$....%%%%%%%%%%%%",
"%%%%%%%%%%%%%%%%....++++@@@@$$$$$$$$$$$$$$$$$$$$....%%%%%%%%%%%%",
"%%%%%%%%%%%%%%%%....++++@@@@$$$$$$$$$$$$$$$$$$$$....%%%%%%%%%%%%",
"%%%%%%%%%%%%%%%%....++++@@@@$$$$$$$$$$$$$$$$$$$$....%%%%%%%%%%%%",
"%%%%%%%%%%%%%%%%....@@@@@@@@$$$$....................%%%%%%%%%%%%",
"%%%%%%%%%%%%%%%%....@@@@@@@@$$$$....................%%%%%%%%%%%%",
"%%%%%%%%%%%%%%%%....@@@@@@@@$$$$....................%%%%%%%%%%%%",
"%%%%%%%%%%%%%%%%....@@@@@@@@$$$$....................%%%%%%%%%%%%",
"%%%%%%%%%%%%%%%%....@@@@@@@@$$$$$$$$$$$$....$$$$....%%%%%%%%%%%%",
"%%%%%%%%%%%%%%%%....@@@@@@@@$$$$$$$$$$$$....$$$$....%%%%%%%%%%%%",
"%%%%%%%%%%%%%%%%....@@@@@@@@$$$$$$$$$$$$....$$$$....%%%%%%%%%%%%",
"%%%%%%%%%%%%%%%%....@@@@@@@@$$$$$$$$$$$$....$$$$....%%%%%%%%%%%%",
"%%%%%%%%%%%%%%%%....++++@@@@@@@@@@@@$$$$$$$$$$$$....%%%%%%%%%%%%",
"%%%%%%%%%%%%%%%%....++++@@@@@@@@@@@@$$$$$$$$$$$$....%%%%%%%%%%%%",
"%%%%%%%%%%%%%%%%....++++@@@@@@@@@@@@$$$$$$$$$$$$....%%%%%%%%%%%%",
"%%%%%%%%%%%%%%%%....++++@@@@@@@@@@@@$$$$$$$$$$$$....%%%%%%%%%%%%",
"%%%%%%%%%%%%%%%%%%%%....++++OOOOXXXXXXXXooooXXXX....%%%%%%%%%%%%",
"%%%%%%%%%%%%%%%%%%%%....++++OOOOXXXXXXXXooooXXXX....%%%%%%%%%%%%",
"%%%%%%%%%%%%%%%%%%%%....++++OOOOXXXXXXXXooooXXXX....%%%%%%%%%%%%",
"%%%%%%%%%%%%%%%%%%%%....++++OOOOXXXXXXXXooooXXXX....%%%%%%%%%%%%",
"%%%%%%%%%%%%%%%%XXXX....XXXXXXXXOOOO++++++++++++....%%%%%%%%%%%%",
"%%%%%%%%%%%%%%%%XXXX....XXXXXXXXOOOO++++++++++++....%%%%%%%%%%%%",
"%%%%%%%%%%%%%%%%XXXX....XXXXXXXXOOOO++++++++++++....%%%%%%%%%%%%",
"%%%%%%%%%%%%%%%%XXXX....XXXXXXXXOOOO++++++++++++....%%%%%%%%%%%%",
"%%%%%%%%XXXXXXXX....++++++++@@@@@@@@@@@@@@@@@@@@....%%%%%%%%%%%%",
"%%%%%%%%XXXXXXXX....++++++++@@@@@@@@@@@@@@@@@@@@....%%%%%%%%%%%%",
"%%%%%%%%XXXXXXXX....++++++++@@@@@@@@@@@@@@@@@@@@....%%%%%%%%%%%%",
"%%%%%%%%XXXXXXXX....++++++++@@@@@@@@@@@@@@@@@@@@....%%%%%%%%%%%%",
"%%%%%%%%%%%%XXXX............................++++    ####%%%%%%%%",
"%%%%%%%%%%%%XXXX............................++++    ####%%%%%%%%",
"%%%%%%%%%%%%XXXX............................++++    ####%%%%%%%%",
"%%%%%%%%%%%%XXXX............................++++    ####%%%%%%%%",
"%%%%%%%%####################################        ########%%%%",
"%%%%%%%%####################################        ########%%%%",
"%%%%%%%%####################################        ########%%%%",
"%%%%%%%%####################################        ########%%%%",
"%%%%%%%%####################################################%%%%",
"%%%%%%%%####################################################%%%%",
"%%%%%%%%####################################################%%%%",
"%%%%%%%%####################################################%%%%",
"%%%%%%%%%%%%############################################%%%%%%%%",
"%%%%%%%%%%%%############################################%%%%%%%%",
"%%%%%%%%%%%%############################################%%%%%%%%",
"%%%%%%%%%%%%############################################%%%%%%%%"
};
