/* XPM */
static char *result[] = {
/* columns rows colors chars-per-pixel */
"64 64 4 1 ",
"  c #454B54",
". c #DAE5FF",
"X c white",
"o c None",
/* pixels */
"oooooooooooooooooooooooooooooooooooooooooooooooooooooooooooooooo",
"oooooooooooooooooooooooooooooooooooooooooooooooooooooooooooooooo",
"oooooooooooooooooooooooooooooooooooooooooooooooooooooooooooooooo",
"oooooooooooooooooooooooooooooooooooooooooooooooooooooooooooooooo",
"oooooooooooooooooooooooooooooooooooooooooooooooooooooooooooooooo",
"oooooooooooooooooooooooooooooooooooooooooooooooooooooooooooooooo",
"oooooooooooooooooooooooooooooooooooooooooooooooooooooooooooooooo",
"oooooooooooooooooooooooooooooooooooooooooooooooooooooooooooooooo",
"oooooooooooooooooooooooooooooooooooooooooooooooooooooooooooooooo",
"oooooooooooooooooooooooooooooooooooooooooooooooooooooooooooooooo",
"oooooooooooooooooooooooooooooooooooooooooooooooooooooooooooooooo",
"oooooooooooooooooooooooooooooooooooooooooooooooooooooooooooooooo",
"oooooooooooooooooooooooooooooooooooooooooooooooooooooooooooooooo",
"oooooooooooooooooooooooooooooooooooooooooooooooooooooooooooooooo",
"oooooooooooooooooooooooooooooooooooooooooooooooooooooooooooooooo",
"oooooooooooooooooooooooooooooooooooooooooooooooooooooooooooooooo",
"oooooooooooooooooooooooooooooooooooooooooooooooooooooooooooooooo",
"oooooooooooooooooooooooooooooooooooooooooooooooooooooooooooooooo",
"oooooooooooooooooooooooooooooooooooooooooooooooooooooooooooooooo",
"ooooooooooooooooooooooooo              ooooooooooooooooooooooooo",
"ooooooooooooooooooooooo    XXXXXXXXXX    ooooooooooooooooooooooo",
"ooooooooooooooooooooooo    XXXXXXXXXX    ooooooooooooooooooooooo",
"ooooooooooooooooooooooo  ..XXXXX....XXX  ooooooooooooooooooooooo",
"ooooooooooooooooooooooo  ..XXX    ...XX  ooooooooooooooooooooooo",
"ooooooooooooooooooooooo  ..XXX    ...XX  ooooooooooooooooooooooo",
"ooooooooooooooooooooooo  ..X        .XX  ooooooooooooooooooooooo",
"ooooooooooooooooooooooo  ..X  ..XX  .XX  ooooooooooooooooooooooo",
"ooooooooooooooooooooooo  ..X  ..XX  .XX  ooooooooooooooooooooooo",
"ooooooooooooooooooooooo  ..X  ....  .XX  ooooooooooooooooooooooo",
"ooooooooooooooooooooooo  ..X  ....  .XX  ooooooooooooooooooooooo",
"ooooooooooooooooooooooo  ..X  ....  .XX  ooooooooooooooooooooooo",
"ooooooooooooooooooooooo  ..X        XXX  ooooooooooooooooooooooo",
"ooooooooooooooooooooooo  ..X        XXX  ooooooooooooooooooooooo",
"ooooooooooooooooooooooo  ...XX    XXXXX  ooooooooooooooooooooooo",
"ooooooooooooooooooooooo  ..............  ooooooooooooooooooooooo",
"ooooooooooooooooooooooo  ..............  ooooooooooooooooooooooo",
"ooooooooooooooooooooooo    ..........    ooooooooooooooooooooooo",
"ooooooooooooooooooooooooo              ooooooooooooooooooooooooo",
"ooooooooooooooooooooooooo              ooooooooooooooooooooooooo",
"oooooooooooooooooooooooooooooooooooooooooooooooooooooooooooooooo",
"oooooooooooooooooooooooooooooooooooooooooooooooooooooooooooooooo",
"oooooooooooooooooooooooooooooooooooooooooooooooooooooooooooooooo",
"oooooooooooooooooooooooooooooooooooooooooooooooooooooooooooooooo",
"oooooooooooooooooooooooooooooooooooooooooooooooooooooooooooooooo",
"oooooooooooooooooooooooooooooooooooooooooooooooooooooooooooooooo",
"oooooooooooooooooooooooooooooooooooooooooooooooooooooooooooooooo",
"oooooooooooooooooooooooooooooooooooooooooooooooooooooooooooooooo",
"oooooooooooooooooooooooooooooooooooooooooooooooooooooooooooooooo",
"oooooooooooooooooooooooooooooooooooooooooooooooooooooooooooooooo",
"oooooooooooooooooooooooooooooooooooooooooooooooooooooooooooooooo",
"oooooooooooooooooooooooooooooooooooooooooooooooooooooooooooooooo",
"oooooooooooooooooooooooooooooooooooooooooooooooooooooooooooooooo",
"oooooooooooooooooooooooooooooooooooooooooooooooooooooooooooooooo",
"oooooooooooooooooooooooooooooooooooooooooooooooooooooooooooooooo",
"oooooooooooooooooooooooooooooooooooooooooooooooooooooooooooooooo",
"oooooooooooooooooooooooooooooooooooooooooooooooooooooooooooooooo",
"oooooooooooooooooooooooooooooooooooooooooooooooooooooooooooooooo",
"oooooooooooooooooooooooooooooooooooooooooooooooooooooooooooooooo",
"oooooooooooooooooooooooooooooooooooooooooooooooooooooooooooooooo",
"oooooooooooooooooooooooooooooooooooooooooooooooooooooooooooooooo",
"oooooooooooooooooooooooooooooooooooooooooooooooooooooooooooooooo",
"oooooooooooooooooooooooooooooooooooooooooooooooooooooooooooooooo",
"oooooooooooooooooooooooooooooooooooooooooooooooooooooooooooooooo",
"oooooooooooooooooooooooooooooooooooooooooooooooooooooooooooooooo"
};
