/* XPM */
static char *result[] = {
/* columns rows colors chars-per-pixel */
"64 64 90 1 ",
"  c #B4840E",
". c #CC9C53",
"X c #CC9C54",
"o c #CD9D54",
"O c #CE9E55",
"+ c #CF9E55",
"@ c #CF9F55",
"# c #D09F55",
"$ c #D19F55",
"% c #D1A056",
"& c #DAA85D",
"* c #DCA85D",
"= c #DCA95D",
"- c #DCA85E",
"; c #DCA95E",
": c #DCAA5E",
"> c #DDAA5E",
", c #DDAA5F",
"< c #DEAB5F",
"1 c #DFAC60",
"2 c #DEB060",
"3 c #DFB161",
"4 c #E0AC60",
"5 c #E0AD61",
"6 c #E1AE61",
"7 c #E1AF61",
"8 c #E2B062",
"9 c #E0B463",
"0 c #E1B463",
"q c #E5B464",
"w c #E6B465",
"e c #E6B565",
"r c #E7B665",
"t c #E7B666",
"y c #E8B765",
"u c #E8B666",
"i c #E9B865",
"p c #E9B866",
"a c #EAB967",
"s c #EABA67",
"d c #EABB67",
"f c #EAB968",
"g c #EABB68",
"h c #E9BE68",
"j c #EABE68",
"k c #EABE69",
"l c #EABF69",
"z c #EDBC69",
"x c #EDBD69",
"c c #EDBE69",
"v c #EDBD6A",
"b c #EEBE6A",
"n c #EFBF6C",
"m c #F0BF6B",
"M c #EBC06A",
"N c #ECC06A",
"B c #ECC16A",
"V c #EDC16A",
"C c #ECC06C",
"Z c #EDC26C",
"A c #EFC36D",
"S c #F2C36D",
"D c #F2C46E",
"F c #F5C570",
"G c #F5C670",
"H c #F5C770",
"J c #F6C771",
"K c #F6C871",
"L c #F7C971",
"P c #F7CA71",
"I c #F7C972",
"U c #F7CA72",
"Y c #F8C972",
"T c #FACC73",
"R c #FACC74",
"E c #FACD74",
"W c #FBCE74",
"Q c #FBCE75",
"! c #FCCE75",
"~ c #FCCF75",
"^ c #FDCF75",
"/ c #FDCF76",
"( c #FDD076",
") c #FED076",
"_ c #FED177",
"` c #FED277",
"' c #FFD277",
"] c #FFD278",
"[ c #FFD378",
"{ c None",
/* pixels */
"{{{{{{{{{{{{{{{{{{{{{{{{{{{{{{{{{{{{{{{{{{{{{{{{{{{{{{{{{{{{{{{{",
"{{{{{{{{{{{{{{{{{{{{{{{{{{{{{{{{{{{{{{{{{{{{{{{{{{{{{{{{{{{{{{{{",
"{{{{{{{{{{{{{{{{{{{{{{{{{{{{{{{{{{{{{{{{{{{{{{{{{{{{{{{{{{{{{{{{",
"{{{{{{{{{{{{{{{{{{{{{{{{{{{{{{{{{{{{{{{{{{{{{{{{{{{{{{{{{{{{{{{{",
"{{{{{{{{{{{{{{{{{{{{{{{{{{{{{{{{{{{{{{{{{{{{{{{{{{{{{{{{{{{{{{{{",
"{{{{{{{{{{{{{{{{{{{{{{{{{{{{{{{{{{{{{{{{{{{{{{{{{{{{{{{{{{{{{{{{",
"{{{{{{{{{{{{{{{{{{{{{{{{{{{{{{{{{{{{{{{{{{{{{{{{{{{{{{{{{{{{{{{{",
"{{{{{{{{{{{{{{{{{{{{{{{{{{{{{{{{{{{{{{{{{{{{{{{{{{{{{{{{{{{{{{{{",
"{{{{{{{{{{{{{{{{{{{{{{{{{{{{{{{{{{{{{{{{{{{{{{{{{{{{{{{{{{{{{{{{",
"{{{{{{{{{{{{{{{{{{{{{{{{{{{{{{{{{{{{{{{{{{{{{{{{{{{{{{{{{{{{{{{{",
"{{{{{{{{{{{{{{{{{{{{{{{{{{{{{{{{{{{{{{{{{{{{{{{{{{{{{{{{{{{{{{{{",
"{{{{{{{{{{{{{{{{{{{{{{{{{{{{{{{{{{{{{{{{{{{{{{{{{{{{{{{{{{{{{{{{",
"{{{{{{{{{{{{{{{{{{{{{{{{{{{{{{{{{{{{{{{{{{{{{{{{{{{{{{{{{{{{{{{{",
"{{{{{{{{{{{{{{{{{{{{{{{{{{{{{{{{{{{{{{{{{{{{{{{{{{{{{{{{{{{{{{{{",
"{{{{{{{{{{{{{{{{{{{{{{{{{{{{{{{{{{{{{{{{{{{{{{{{{{{{{{{{{{{{{{{{",
"{{{{{{{{{{{{{{{{{{{{{{{{{{{{{{{{{{{{{{{{{{{{{{{{{{{{{{{{{{{{{{{{",
"{{{{{{{{{{{{{{{{{{{{{                      {{{{{{{{{{{{{{{{{{{{{",
"{{{{{{{{{{{{{{{{{{{{ ==<<<<<<<<<<<<<,<<<<== {{{{{{{{{{{{{{{{{{{{",
"{{{{{{{{{{{{{{{{{{{{ ==<<<<<<<<<<<<<,<<<<== {{{{{{{{{{{{{{{{{{{{",
"{{{{{{{{{{{{{{{{{{   <<<<<<,;;;;**::<<<,,<<   {{{{{{{{{{{{{{{{{{",
"{{{{{{{{{{{{{{{{  --<,,,,>>:%%####%%:<<,,<<<--  {{{{{{{{{{{{{{{{",
"{{{{{{{{{{{{{{{{  ;;<<<<<::&OOooXX++&==<<,,<;;  {{{{{{{{{{{{{{{{",
"{{{{{{{{{{{{{{{{  ;;<<<<<::&OOooXX++&==<<,,<;;  {{{{{{{{{{{{{{{{",
"{{{{{{{{{{{{{{{{  ;;>,,::$$+        +%%::<<>;;  {{{{{{{{{{{{{{{{",
"{{{{{{{{{{{{{{{{  ;;<,,;;##X  {{{{  .@@;;,,<;;  {{{{{{{{{{{{{{{{",
"{{{{{{{{{{{{{{{{  ;;<<<;;   {{{{{{{{   ;;<<<;;  {{{{{{{{{{{{{{{{",
"{{{{{{{{{{{{{{{{  ;;<<<;;   {{{{{{{{   ;;<<<;;  {{{{{{{{{{{{{{{{",
"{{{{{{{{{{{{{{{{  ,,144,,  {        {  ,,115<<  {{{{{{{{{{{{{{{{",
"{{{{{{{{{{{{{{{{  6688866   66887766   6688866  {{{{{{{{{{{{{{{{",
"{{{{{{{{{{{{{{{{  qqurrqq   qquurrww   eerrtww  {{{{{{{{{{{{{{{{",
"{{{{{{{{{{{{{{{{  qqurrqq   qquurrww   eerrtww  {{{{{{{{{{{{{{{{",
"{{{{{{{{{{{{{{{{  iifaapp   ppaaffpp   ppaafyy  {{{{{{{{{{{{{{{{",
"{{{{{{{{{{{{{{{{  ggzvvss   ppddggpp   ssxxzdd  {{{{{{{{{{{{{{{{",
"{{{{{{{{{{{{{{{{  ccnnncc   33333322   ccmmnbb  {{{{{{{{{{{{{{{{",
"{{{{{{{{{{{{{{{{  ccnnncc   33333322   ccmmnbb  {{{{{{{{{{{{{{{{",
"{{{{{{{{{{{{{{{{  SSGGGDD   00990000   DDFFGDD  {{{{{{{{{{{{{{{{",
"{{{{{{{{{{{{{{{{  HHYLLJJ  {        {  KKIIIHH  {{{{{{{{{{{{{{{{",
"{{{{{{{{{{{{{{{{  UURRRTT   {{{{{{{{   TTRRTPP  {{{{{{{{{{{{{{{{",
"{{{{{{{{{{{{{{{{  UURRRTT   {{{{{{{{   TTRRTPP  {{{{{{{{{{{{{{{{",
"{{{{{{{{{{{{{{{{  EE/!!//^^Q  {{{{  E////!!/EE  {{{{{{{{{{{{{{{{",
"{{{{{{{{{{{{{{{{  WW)''[[[['        ['''']])WW  {{{{{{{{{{{{{{{{",
"{{{{{{{{{{{{{{{{  NNA))''``]''[[[['''[[''__AMM  {{{{{{{{{{{{{{{{",
"{{{{{{{{{{{{{{{{  NNA))''``]''[[[['''[[''__AMM  {{{{{{{{{{{{{{{{",
"{{{{{{{{{{{{{{{{  jjCQQ^^^^^^^//~~((^~~^^WWNll  {{{{{{{{{{{{{{{{",
"{{{{{{{{{{{{{{{{{{   NNZZBBVZZVVVVVVZVVZZNN   {{{{{{{{{{{{{{{{{{",
"{{{{{{{{{{{{{{{{{{{{ jjjjlljllhhlljjhjjkkjj {{{{{{{{{{{{{{{{{{{{",
"{{{{{{{{{{{{{{{{{{{{ jjjjlljllhhlljjhjjkkjj {{{{{{{{{{{{{{{{{{{{",
"{{{{{{{{{{{{{{{{{{{{{                      {{{{{{{{{{{{{{{{{{{{{",
"{{{{{{{{{{{{{{{{{{{{{{{{{{{{{{{{{{{{{{{{{{{{{{{{{{{{{{{{{{{{{{{{",
"{{{{{{{{{{{{{{{{{{{{{{{{{{{{{{{{{{{{{{{{{{{{{{{{{{{{{{{{{{{{{{{{",
"{{{{{{{{{{{{{{{{{{{{{{{{{{{{{{{{{{{{{{{{{{{{{{{{{{{{{{{{{{{{{{{{",
"{{{{{{{{{{{{{{{{{{{{{{{{{{{{{{{{{{{{{{{{{{{{{{{{{{{{{{{{{{{{{{{{",
"{{{{{{{{{{{{{{{{{{{{{{{{{{{{{{{{{{{{{{{{{{{{{{{{{{{{{{{{{{{{{{{{",
"{{{{{{{{{{{{{{{{{{{{{{{{{{{{{{{{{{{{{{{{{{{{{{{{{{{{{{{{{{{{{{{{",
"{{{{{{{{{{{{{{{{{{{{{{{{{{{{{{{{{{{{{{{{{{{{{{{{{{{{{{{{{{{{{{{{",
"{{{{{{{{{{{{{{{{{{{{{{{{{{{{{{{{{{{{{{{{{{{{{{{{{{{{{{{{{{{{{{{{",
"{{{{{{{{{{{{{{{{{{{{{{{{{{{{{{{{{{{{{{{{{{{{{{{{{{{{{{{{{{{{{{{{",
"{{{{{{{{{{{{{{{{{{{{{{{{{{{{{{{{{{{{{{{{{{{{{{{{{{{{{{{{{{{{{{{{",
"{{{{{{{{{{{{{{{{{{{{{{{{{{{{{{{{{{{{{{{{{{{{{{{{{{{{{{{{{{{{{{{{",
"{{{{{{{{{{{{{{{{{{{{{{{{{{{{{{{{{{{{{{{{{{{{{{{{{{{{{{{{{{{{{{{{",
"{{{{{{{{{{{{{{{{{{{{{{{{{{{{{{{{{{{{{{{{{{{{{{{{{{{{{{{{{{{{{{{{",
"{{{{{{{{{{{{{{{{{{{{{{{{{{{{{{{{{{{{{{{{{{{{{{{{{{{{{{{{{{{{{{{{",
"{{{{{{{{{{{{{{{{{{{{{{{{{{{{{{{{{{{{{{{{{{{{{{{{{{{{{{{{{{{{{{{{",
"{{{{{{{{{{{{{{{{{{{{{{{{{{{{{{{{{{{{{{{{{{{{{{{{{{{{{{{{{{{{{{{{"
};
