/* XPM */
static char *result[] = {
/* columns rows colors chars-per-pixel */
"64 64 75 1 ",
"  c #B4840E",
". c #D19F56",
"X c #D0A056",
"o c #D1A056",
"O c #D2A258",
"+ c #D5A45A",
"@ c #D6A65B",
"# c #D7A95B",
"$ c #DCA85D",
"% c #DCA85E",
"& c #DCA95E",
"* c #DCAA5E",
"= c #DDAA5E",
"- c #DDAA5F",
"; c #DDAB5F",
": c #DEAB5F",
"> c #DFAC60",
", c #E0AC60",
"< c #E1AE61",
"1 c #E2B062",
"2 c #E5B464",
"3 c #E6B565",
"4 c #E7B665",
"5 c #E8B666",
"6 c #E8B766",
"7 c #E5B865",
"8 c #E5B965",
"9 c #E5B966",
"0 c #E6B966",
"q c #E9B866",
"w c #E9B867",
"e c #EAB967",
"r c #E8BB67",
"t c #E8BC67",
"y c #E9BC67",
"u c #EAB968",
"i c #E9BE68",
"p c #EABE68",
"a c #EABE69",
"s c #EDBC69",
"d c #EDBD69",
"f c #EDBE69",
"g c #EDBD6A",
"h c #EEBE6A",
"j c #EFBF6C",
"k c #F0BF6B",
"l c #ECC06A",
"z c #EDC16A",
"x c #ECC16C",
"c c #EDC26C",
"v c #F0C26B",
"b c #F0C06D",
"n c #F1C26D",
"m c #F2C36D",
"M c #F2C46E",
"N c #F3C46F",
"B c #F4C570",
"V c #F5C570",
"C c #F5C670",
"Z c #F6C771",
"A c #F6C871",
"S c #F7CA71",
"D c #F7C972",
"F c #F8C972",
"G c #F8CA72",
"H c #FACC73",
"J c #FACC74",
"K c #FBCE74",
"L c #FCCF75",
"P c #FDCF75",
"I c #FDCF76",
"U c #FDD076",
"Y c #FFD277",
"T c #FFD378",
"R c None",
/* pixels */
"RRRRRRRRRRRRRRRRRRRRRRRRRRRRRRRRRRRRRRRRRRRRRRRRRRRRRRRRRRRRRRRR",
"RRRRRRRRRRRRRRRRRRRRRRRRRRRRRRRRRRRRRRRRRRRRRRRRRRRRRRRRRRRRRRRR",
"RRRRRRRRRRRRRRRRRRRRRRRRRRRRRRRRRRRRRRRRRRRRRRRRRRRRRRRRRRRRRRRR",
"RRRRRRRRRRRRRRRRRRRRRRRRRRRRRRRRRRRRRRRRRRRRRRRRRRRRRRRRRRRRRRRR",
"RRRRRRRRRRRRRRRRRRRRRRRRRRRRRRRRRRRRRRRRRRRRRRRRRRRRRRRRRRRRRRRR",
"RRRRRRRRRRRRRRRRRRRRRRRRRRRRRRRRRRRRRRRRRRRRRRRRRRRRRRRRRRRRRRRR",
"RRRRRRRRRRRRRRRRRRRRRRRRRRRRRRRRRRRRRRRRRRRRRRRRRRRRRRRRRRRRRRRR",
"RRRRRRRRRRRRRRRRRRRRRRRRRRRRRRRRRRRRRRRRRRRRRRRRRRRRRRRRRRRRRRRR",
"RRRRRRRRRRRRRRRRRRRRRRRRRRRRRRRRRRRRRRRRRRRRRRRRRRRRRRRRRRRRRRRR",
"RRRRRRRRRRRRRRRRRRRRRRRRRRRRRRRRRRRRRRRRRRRRRRRRRRRRRRRRRRRRRRRR",
"RRRRRRRRRRRRRRRRRRRRRRRRRRRRRRRRRRRRRRRRRRRRRRRRRRRRRRRRRRRRRRRR",
"RRRRRRRRRRRRRRRRRRRRRRRRRRRRRRRRRRRRRRRRRRRRRRRRRRRRRRRRRRRRRRRR",
"RRRRRRRRRRRRRRRRRRRRRRRRRRRRRRRRRRRRRRRRRRRRRRRRRRRRRRRRRRRRRRRR",
"RRRRRRRRRRRRRRRRRRRRRRRRRRRRRRRRRRRRRRRRRRRRRRRRRRRRRRRRRRRRRRRR",
"RRRRRRRRRRRRRRRRRRRRRRRRRRRRRRRRRRRRRRRRRRRRRRRRRRRRRRRRRRRRRRRR",
"RRRRRRRRRRRRRRRRRRRRRRRRRRRRRRRRRRRRRRRRRRRRRRRRRRRRRRRRRRRRRRRR",
"RRRRRRRRRRRRRRRRRRRRRRRRRRRRRRRR           RRRRRRRRRRRRRRRRRRRRR",
"RRRRRRRRRRRRRRRRRRRRRRRRRRRRRR  **::-::::$$ RRRRRRRRRRRRRRRRRRRR",
"RRRRRRRRRRRRRRRRRRRRRRRRRRRRRR  **::-::::$$ RRRRRRRRRRRRRRRRRRRR",
"RRRRRRRRRRRRRRRRRRRRRRRRRRRR    ==--:::--&& RRRRRRRRRRRRRRRRRRRR",
"RRRRRRRRRRRRRRRRRRRRRRRRRRR &&::::--:::--&& RRRRRRRRRRRRRRRRRRRR",
"RRRRRRRRRRRRRRRRRRRRRRRRRRR &&::--::-==::&& RRRRRRRRRRRRRRRRRRRR",
"RRRRRRRRRRRRRRRRRRRRRRRRRRR &&::--::-==::&& RRRRRRRRRRRRRRRRRRRR",
"RRRRRRRRRRRRRRRRRRRRRRRRRRR **::--:::::::&& RRRRRRRRRRRRRRRRRRRR",
"RRRRRRRRRRRRRRRRRRRRRRRRR   ::==****=--::%% RRRRRRRRRRRRRRRRRRRR",
"RRRRRRRRRRRRRRRRRRRRRRR  **:::**..oo*--::&& RRRRRRRRRRRRRRRRRRRR",
"RRRRRRRRRRRRRRRRRRRRRRR  **:::**..oo*--::&& RRRRRRRRRRRRRRRRRRRR",
"RRRRRRRRRRRRRRRRRRRRR    ,,,;;**XXoo-,,>>-- RRRRRRRRRRRRRRRRRRRR",
"RRRRRRRRRRRRRRRRRRRR <<1111<++OO    <1111<< RRRRRRRRRRRRRRRRRRRR",
"RRRRRRRRRRRRRRRRRRRR 2244553##@@    2446622 RRRRRRRRRRRRRRRRRRRR",
"RRRRRRRRRRRRRRRRRRRR 2244553##@@    2446622 RRRRRRRRRRRRRRRRRRRR",
"RRRRRRRRRRRRRRRRRRRR qquueew    RR  quuuuqq RRRRRRRRRRRRRRRRRRRR",
"RRRRRRRRRRRRRRRRRR   ggssggs        dssssdd   RRRRRRRRRRRRRRRRRR",
"RRRRRRRRRRRRRRRR  ffjjjjjbbjbbjjjjjjbbbjjkkjhh  RRRRRRRRRRRRRRRR",
"RRRRRRRRRRRRRRRR  ffjjjjjbbjbbjjjjjjbbbjjkkjhh  RRRRRRRRRRRRRRRR",
"RRRRRRRRRRRRRRRR  vvMMMMMMMmMMMMMMNNCBBCCVVNnn  RRRRRRRRRRRRRRRR",
"RRRRRRRRRRRRRRRR  7708899999990099rrADDFFZZr77  RRRRRRRRRRRRRRRR",
"RRRRRRRRRRRRRRRR  9990088008998888yySJJHHGGt88  RRRRRRRRRRRRRRRR",
"RRRRRRRRRRRRRRRR  9990088008998888yySJJHHGGt88  RRRRRRRRRRRRRRRR",
"RRRRRRRRRRRRRRRRRR                  HIIIIHH   RRRRRRRRRRRRRRRRRR",
"RRRRRRRRRRRRRRRRRRRRRRRRRRRRRRRRRR  UYYYYII RRRRRRRRRRRRRRRRRRRR",
"RRRRRRRRRRRRRRRRRRRRRRRRRRRRRRRRRR  PTTYYUU RRRRRRRRRRRRRRRRRRRR",
"RRRRRRRRRRRRRRRRRRRRRRRRRRRRRRRRRR  PTTYYUU RRRRRRRRRRRRRRRRRRRR",
"RRRRRRRRRRRRRRRRRRRRRRRRRRRRRRRRRR  KLLPPKK RRRRRRRRRRRRRRRRRRRR",
"RRRRRRRRRRRRRRRRRRRRRRRRRRRRRRRRRR  xzzccll RRRRRRRRRRRRRRRRRRRR",
"RRRRRRRRRRRRRRRRRRRRRRRRRRRRRRRRRR  ippaapp RRRRRRRRRRRRRRRRRRRR",
"RRRRRRRRRRRRRRRRRRRRRRRRRRRRRRRRRR  ippaapp RRRRRRRRRRRRRRRRRRRR",
"RRRRRRRRRRRRRRRRRRRRRRRRRRRRRRRRRRRR       RRRRRRRRRRRRRRRRRRRRR",
"RRRRRRRRRRRRRRRRRRRRRRRRRRRRRRRRRRRRRRRRRRRRRRRRRRRRRRRRRRRRRRRR",
"RRRRRRRRRRRRRRRRRRRRRRRRRRRRRRRRRRRRRRRRRRRRRRRRRRRRRRRRRRRRRRRR",
"RRRRRRRRRRRRRRRRRRRRRRRRRRRRRRRRRRRRRRRRRRRRRRRRRRRRRRRRRRRRRRRR",
"RRRRRRRRRRRRRRRRRRRRRRRRRRRRRRRRRRRRRRRRRRRRRRRRRRRRRRRRRRRRRRRR",
"RRRRRRRRRRRRRRRRRRRRRRRRRRRRRRRRRRRRRRRRRRRRRRRRRRRRRRRRRRRRRRRR",
"RRRRRRRRRRRRRRRRRRRRRRRRRRRRRRRRRRRRRRRRRRRRRRRRRRRRRRRRRRRRRRRR",
"RRRRRRRRRRRRRRRRRRRRRRRRRRRRRRRRRRRRRRRRRRRRRRRRRRRRRRRRRRRRRRRR",
"RRRRRRRRRRRRRRRRRRRRRRRRRRRRRRRRRRRRRRRRRRRRRRRRRRRRRRRRRRRRRRRR",
"RRRRRRRRRRRRRRRRRRRRRRRRRRRRRRRRRRRRRRRRRRRRRRRRRRRRRRRRRRRRRRRR",
"RRRRRRRRRRRRRRRRRRRRRRRRRRRRRRRRRRRRRRRRRRRRRRRRRRRRRRRRRRRRRRRR",
"RRRRRRRRRRRRRRRRRRRRRRRRRRRRRRRRRRRRRRRRRRRRRRRRRRRRRRRRRRRRRRRR",
"RRRRRRRRRRRRRRRRRRRRRRRRRRRRRRRRRRRRRRRRRRRRRRRRRRRRRRRRRRRRRRRR",
"RRRRRRRRRRRRRRRRRRRRRRRRRRRRRRRRRRRRRRRRRRRRRRRRRRRRRRRRRRRRRRRR",
"RRRRRRRRRRRRRRRRRRRRRRRRRRRRRRRRRRRRRRRRRRRRRRRRRRRRRRRRRRRRRRRR",
"RRRRRRRRRRRRRRRRRRRRRRRRRRRRRRRRRRRRRRRRRRRRRRRRRRRRRRRRRRRRRRRR",
"RRRRRRRRRRRRRRRRRRRRRRRRRRRRRRRRRRRRRRRRRRRRRRRRRRRRRRRRRRRRRRRR"
};
