/* XPM */
static char *result[] = {
/* columns rows colors chars-per-pixel */
"64 64 86 1 ",
"  c #B4840E",
". c #CC9C53",
"X c #CC9C54",
"o c #CC9D54",
"O c #CD9D54",
"+ c #CE9D55",
"@ c #CF9F55",
"# c #D09F55",
"$ c #D19F55",
"% c #DAA85D",
"& c #DAAB5D",
"* c #DBAB5D",
"= c #DAAB5E",
"- c #DBAB5E",
"; c #DCA85D",
": c #DCA85E",
"> c #DCA95E",
", c #DCAA5E",
"< c #DDAA5E",
"1 c #DDAA5F",
"2 c #DEAB5F",
"3 c #DAAC5E",
"4 c #DCAD5F",
"5 c #DCAE5F",
"6 c #DFAC60",
"7 c #E0AC60",
"8 c #E1AE61",
"9 c #E1AF61",
"0 c #E2AF62",
"q c #E2B062",
"w c #E3B263",
"e c #E5B464",
"r c #E6B465",
"t c #E6B565",
"y c #E7B665",
"u c #E8B765",
"i c #E8B766",
"p c #E9B867",
"a c #EAB967",
"s c #EABA67",
"d c #EABB67",
"f c #EAB968",
"g c #E9BE68",
"h c #EABE68",
"j c #EABE69",
"k c #EABF69",
"l c #EDBC69",
"z c #EDBD69",
"x c #EDBE69",
"c c #EEBE6A",
"v c #EFBF6C",
"b c #F0BF6B",
"n c #EBC06A",
"m c #ECC06A",
"M c #ECC16A",
"N c #EDC16A",
"B c #ECC06C",
"V c #EDC26C",
"C c #EFC36D",
"Z c #F2C46E",
"A c #F5C570",
"S c #F5C670",
"D c #F5C770",
"F c #F6C870",
"G c #F7C971",
"H c #F7CA71",
"J c #F7C972",
"K c #F7CA72",
"L c #F8C972",
"P c #FACC73",
"I c #FACC74",
"U c #FACD74",
"Y c #FBCE74",
"T c #FBCE75",
"R c #FCCE75",
"E c #FCCF75",
"W c #FDCF75",
"Q c #FDCF76",
"! c #FDD076",
"~ c #FED076",
"^ c #FED177",
"/ c #FED277",
"( c #FFD277",
") c #FFD278",
"_ c #FFD378",
"` c None",
/* pixels */
"````````````````````````````````````````````````````````````````",
"````````````````````````````````````````````````````````````````",
"````````````````````````````````````````````````````````````````",
"````````````````````````````````````````````````````````````````",
"````````````````````````````````````````````````````````````````",
"````````````````````````````````````````````````````````````````",
"````````````````````````````````````````````````````````````````",
"````````````````````````````````````````````````````````````````",
"````````````````````````````````````````````````````````````````",
"````````````````````````````````````````````````````````````````",
"````````````````````````````````````````````````````````````````",
"````````````````````````````````````````````````````````````````",
"````````````````````````````````````````````````````````````````",
"````````````````````````````````````````````````````````````````",
"````````````````````````````````````````````````````````````````",
"````````````````````````````````````````````````````````````````",
"``````````````````                            ``````````````````",
"````````````````  >>2<<222222222222212222<<2>>  ````````````````",
"````````````````  >>2<<222222222222212222<<2>>  ````````````````",
"````````````````  >>12222,,>::>>;;>>>>>::>>>%%  ````````````````",
"````````````````  ::211,,$$#######@@###@@###++  ````````````````",
"````````````````  >>222>>##oooOOXXOOo..OOooOOO  ````````````````",
"````````````````  >>222>>##oooOOXXOOo..OOooOOO  ````````````````",
"````````````````  >><11>>                     ``````````````````",
"````````````````  >>211>>  `````````````````````````````````````",
"````````````````  >>222,,  `````````````````````````````````````",
"````````````````  >>222,,  `````````````````````````````````````",
"````````````````  1167766                  `````````````````````",
"````````````````  88qqqqqqq0qqqq99qqqqqqq99 ````````````````````",
"````````````````  wwreeeerrteerreerreeeiiyy   ``````````````````",
"````````````````  wwreeeerrteerreerreeeiiyy   ``````````````````",
"````````````````  &&-**--**---**----*44ppaafuu  ````````````````",
"````````````````  33=33==33===3333==355sszzldd  ````````````````",
"``````````````````                     xxbbvcc  ````````````````",
"``````````````````                     xxbbvcc  ````````````````",
"``````````````````       ````````````  ZZAASZZ  ````````````````",
"````````````````  DDLGGDD  ``````````  FFJJJDD  ````````````````",
"````````````````  KKIIIHH  ``````````  HHIIPHH  ````````````````",
"````````````````  KKIIIHH  ``````````  HHIIPHH  ````````````````",
"````````````````  UUQRRTT  ``````````  TTRRQUU  ````````````````",
"````````````````  YY~((__              (())~YY  ````````````````",
"````````````````  mmC~~((//)((____(((__((^^Cnn  ````````````````",
"````````````````  mmC~~((//)((____(((__((^^Cnn  ````````````````",
"````````````````  hhBTTWWWWWWWQQEE!!WEEWWYYmkk  ````````````````",
"``````````````````   mmVVMMNVVNNNNNNVNNVVmm   ``````````````````",
"```````````````````` hhhhkkhkkggkkhhghhjjhh ````````````````````",
"```````````````````` hhhhkkhkkggkkhhghhjjhh ````````````````````",
"`````````````````````                      `````````````````````",
"````````````````````````````````````````````````````````````````",
"````````````````````````````````````````````````````````````````",
"````````````````````````````````````````````````````````````````",
"````````````````````````````````````````````````````````````````",
"````````````````````````````````````````````````````````````````",
"````````````````````````````````````````````````````````````````",
"````````````````````````````````````````````````````````````````",
"````````````````````````````````````````````````````````````````",
"````````````````````````````````````````````````````````````````",
"````````````````````````````````````````````````````````````````",
"````````````````````````````````````````````````````````````````",
"````````````````````````````````````````````````````````````````",
"````````````````````````````````````````````````````````````````",
"````````````````````````````````````````````````````````````````",
"````````````````````````````````````````````````````````````````",
"````````````````````````````````````````````````````````````````"
};
