/* XPM */
static char *result[] = {
/* columns rows colors chars-per-pixel */
"64 64 91 1 ",
"  c #B4840E",
". c #CC9C53",
"X c #CC9C54",
"o c #CD9D54",
"O c #CE9E55",
"+ c #CF9E55",
"@ c #CF9F55",
"# c #D09F55",
"$ c #D19F55",
"% c #D1A056",
"& c #DAA85D",
"* c #DAAB5D",
"= c #DCA85D",
"- c #DCA95D",
"; c #DCA95E",
": c #DCAA5E",
"> c #DDAA5E",
", c #DDAA5F",
"< c #DEAB5F",
"1 c #DAAC5E",
"2 c #DCAD5F",
"3 c #DFAC60",
"4 c #DEB060",
"5 c #DFB161",
"6 c #E0AC60",
"7 c #E0AD61",
"8 c #E1AE61",
"9 c #E1AF61",
"0 c #E0B161",
"q c #E2B062",
"w c #E1B363",
"e c #E3B263",
"r c #E0B462",
"t c #E0B463",
"y c #E1B463",
"u c #E3B664",
"i c #E6B465",
"p c #E7B665",
"a c #E7B666",
"s c #E8B765",
"d c #E8B766",
"f c #E9B866",
"g c #E9B867",
"h c #E9B967",
"j c #EAB967",
"k c #EABA67",
"l c #EBBA67",
"z c #EABB67",
"x c #EBBB67",
"c c #EAB968",
"v c #EBBA68",
"b c #EABB68",
"n c #E9BE68",
"m c #EABE68",
"M c #EABE69",
"N c #EABF69",
"B c #EDBC69",
"V c #EDBD69",
"C c #EEBE6A",
"Z c #EFBF6C",
"A c #F0BF6B",
"S c #EBC06A",
"D c #ECC06A",
"F c #EDC16A",
"G c #EFC36B",
"H c #ECC16C",
"J c #EDC26C",
"K c #F2C46E",
"L c #F5C570",
"P c #F5C670",
"I c #F5C770",
"U c #F6C870",
"Y c #F6C871",
"T c #F7C972",
"R c #F8CA72",
"E c #FACC73",
"W c #FACC74",
"Q c #FACD74",
"! c #FACE74",
"~ c #FBCE74",
"^ c #FBCE75",
"/ c #FCCF75",
"( c #FDCF75",
") c #FDCF76",
"_ c #FDD076",
"` c #FED076",
"' c #FED177",
"] c #FFD277",
"[ c #FFD278",
"{ c #FFD378",
"} c None",
/* pixels */
"}}}}}}}}}}}}}}}}}}}}}}}}}}}}}}}}}}}}}}}}}}}}}}}}}}}}}}}}}}}}}}}}",
"}}}}}}}}}}}}}}}}}}}}}}}}}}}}}}}}}}}}}}}}}}}}}}}}}}}}}}}}}}}}}}}}",
"}}}}}}}}}}}}}}}}}}}}}}}}}}}}}}}}}}}}}}}}}}}}}}}}}}}}}}}}}}}}}}}}",
"}}}}}}}}}}}}}}}}}}}}}}}}}}}}}}}}}}}}}}}}}}}}}}}}}}}}}}}}}}}}}}}}",
"}}}}}}}}}}}}}}}}}}}}}}}}}}}}}}}}}}}}}}}}}}}}}}}}}}}}}}}}}}}}}}}}",
"}}}}}}}}}}}}}}}}}}}}}}}}}}}}}}}}}}}}}}}}}}}}}}}}}}}}}}}}}}}}}}}}",
"}}}}}}}}}}}}}}}}}}}}}}}}}}}}}}}}}}}}}}}}}}}}}}}}}}}}}}}}}}}}}}}}",
"}}}}}}}}}}}}}}}}}}}}}}}}}}}}}}}}}}}}}}}}}}}}}}}}}}}}}}}}}}}}}}}}",
"}}}}}}}}}}}}}}}}}}}}}}}}}}}}}}}}}}}}}}}}}}}}}}}}}}}}}}}}}}}}}}}}",
"}}}}}}}}}}}}}}}}}}}}}}}}}}}}}}}}}}}}}}}}}}}}}}}}}}}}}}}}}}}}}}}}",
"}}}}}}}}}}}}}}}}}}}}}}}}}}}}}}}}}}}}}}}}}}}}}}}}}}}}}}}}}}}}}}}}",
"}}}}}}}}}}}}}}}}}}}}}}}}}}}}}}}}}}}}}}}}}}}}}}}}}}}}}}}}}}}}}}}}",
"}}}}}}}}}}}}}}}}}}}}}}}}}}}}}}}}}}}}}}}}}}}}}}}}}}}}}}}}}}}}}}}}",
"}}}}}}}}}}}}}}}}}}}}}}}}}}}}}}}}}}}}}}}}}}}}}}}}}}}}}}}}}}}}}}}}",
"}}}}}}}}}}}}}}}}}}}}}}}}}}}}}}}}}}}}}}}}}}}}}}}}}}}}}}}}}}}}}}}}",
"}}}}}}}}}}}}}}}}}}}}}}}}}}}}}}}}}}}}}}}}}}}}}}}}}}}}}}}}}}}}}}}}",
"}}}}}}}}}}}}}}}}}}}}}}}}}              }}}}}}}}}}}}}}}}}}}}}}}}}",
"}}}}}}}}}}}}}}}}}}}}}}}  ::<<<<<<<<<,::  }}}}}}}}}}}}}}}}}}}}}}}",
"}}}}}}}}}}}}}}}}}}}}}}}  ::<<<<<<<<<,::  }}}}}}}}}}}}}}}}}}}}}}}",
"}}}}}}}}}}}}}}}}}}}}}    <<,;;;;==::<<<    }}}}}}}}}}}}}}}}}}}}}",
"}}}}}}}}}}}}}}}}}}}} ::,,>>:%%####%%:<<,,:: }}}}}}}}}}}}}}}}}}}}",
"}}}}}}}}}}}}}}}}}}   <<<<::&OOooXX++&--<<,,   }}}}}}}}}}}}}}}}}}",
"}}}}}}}}}}}}}}}}}}   <<<<::&OOooXX++&--<<,,   }}}}}}}}}}}}}}}}}}",
"}}}}}}}}}}}}}}}}  ;;>,,::$$+        +%%::<<>;;  }}}}}}}}}}}}}}}}",
"}}}}}}}}}}}}}}}}  ;;<,,;;##X  }}}}  .@@;;,,<;;  }}}}}}}}}}}}}}}}",
"}}}}}}}}}}}}}}}}  ;;<<<;;   }}}}}}}}   ;;<<<;;  }}}}}}}}}}}}}}}}",
"}}}}}}}}}}}}}}}}  ;;<<<;;   }}}}}}}}   ;;<<<;;  }}}}}}}}}}}}}}}}",
"}}}}}}}}}}}}}}}}  ,,366,,  }}}}}}}}}}  ,,337<<  }}}}}}}}}}}}}}}}",
"}}}}}}}}}}}}}}}}  88qqq99  }}}}}}}}}}  99qqq88  }}}}}}}}}}}}}}}}",
"}}}}}}}}}}}}}}}}  eeipppp   }}}}}}}}   ddppaii  }}}}}}}}}}}}}}}}",
"}}}}}}}}}}}}}}}}  eeipppp   }}}}}}}}   ddppaii  }}}}}}}}}}}}}}}}",
"}}}}}}}}}}}}}}}}  **2ffccjjg  }}}}  fccccjjcss  }}}}}}}}}}}}}}}}",
"}}}}}}}}}}}}}}}}  112hhkkbbl        xvvBBVVBzz  }}}}}}}}}}}}}}}}",
"}}}}}}}}}}}}}}}}}}   4455005005555550wwCCAAZCC  }}}}}}}}}}}}}}}}",
"}}}}}}}}}}}}}}}}}}   4455005005555550wwCCAAZCC  }}}}}}}}}}}}}}}}",
"}}}}}}}}}}}}}}}}}}}} yyyyyyryyttyyyyyuuKKLLPKK  }}}}}}}}}}}}}}}}",
"}}}}}}}}}}}}}}}}}}}}}                  YYTTTII  }}}}}}}}}}}}}}}}",
"}}}}}}}}}}}}}}}}}}}}}       }}}}}}}}   EEWWRUU  }}}}}}}}}}}}}}}}",
"}}}}}}}}}}}}}}}}}}}}}       }}}}}}}}   EEWWRUU  }}}}}}}}}}}}}}}}",
"}}}}}}}}}}}}}}}}}}}} EE))((^  }}}}  Q))))QQFMM  }}}}}}}}}}}}}}}}",
"}}}}}}}}}}}}}}}}}}}} ~~''{{]        {]]``^^Dmm  }}}}}}}}}}}}}}}}",
"}}}}}}}}}}}}}}}}}}}} DDGG__[]]{{{{]]]''GGHH   }}}}}}}}}}}}}}}}}}",
"}}}}}}}}}}}}}}}}}}}} DDGG__[]]{{{{]]]''GGHH   }}}}}}}}}}}}}}}}}}",
"}}}}}}}}}}}}}}}}}}}} NNDD~~((())//__(!!DDmm }}}}}}}}}}}}}}}}}}}}",
"}}}}}}}}}}}}}}}}}}}}}    SSFJJFFFFFFJDD    }}}}}}}}}}}}}}}}}}}}}",
"}}}}}}}}}}}}}}}}}}}}}}}  NNmNNnnNNmmnmm  }}}}}}}}}}}}}}}}}}}}}}}",
"}}}}}}}}}}}}}}}}}}}}}}}  NNmNNnnNNmmnmm  }}}}}}}}}}}}}}}}}}}}}}}",
"}}}}}}}}}}}}}}}}}}}}}}}}}              }}}}}}}}}}}}}}}}}}}}}}}}}",
"}}}}}}}}}}}}}}}}}}}}}}}}}}}}}}}}}}}}}}}}}}}}}}}}}}}}}}}}}}}}}}}}",
"}}}}}}}}}}}}}}}}}}}}}}}}}}}}}}}}}}}}}}}}}}}}}}}}}}}}}}}}}}}}}}}}",
"}}}}}}}}}}}}}}}}}}}}}}}}}}}}}}}}}}}}}}}}}}}}}}}}}}}}}}}}}}}}}}}}",
"}}}}}}}}}}}}}}}}}}}}}}}}}}}}}}}}}}}}}}}}}}}}}}}}}}}}}}}}}}}}}}}}",
"}}}}}}}}}}}}}}}}}}}}}}}}}}}}}}}}}}}}}}}}}}}}}}}}}}}}}}}}}}}}}}}}",
"}}}}}}}}}}}}}}}}}}}}}}}}}}}}}}}}}}}}}}}}}}}}}}}}}}}}}}}}}}}}}}}}",
"}}}}}}}}}}}}}}}}}}}}}}}}}}}}}}}}}}}}}}}}}}}}}}}}}}}}}}}}}}}}}}}}",
"}}}}}}}}}}}}}}}}}}}}}}}}}}}}}}}}}}}}}}}}}}}}}}}}}}}}}}}}}}}}}}}}",
"}}}}}}}}}}}}}}}}}}}}}}}}}}}}}}}}}}}}}}}}}}}}}}}}}}}}}}}}}}}}}}}}",
"}}}}}}}}}}}}}}}}}}}}}}}}}}}}}}}}}}}}}}}}}}}}}}}}}}}}}}}}}}}}}}}}",
"}}}}}}}}}}}}}}}}}}}}}}}}}}}}}}}}}}}}}}}}}}}}}}}}}}}}}}}}}}}}}}}}",
"}}}}}}}}}}}}}}}}}}}}}}}}}}}}}}}}}}}}}}}}}}}}}}}}}}}}}}}}}}}}}}}}",
"}}}}}}}}}}}}}}}}}}}}}}}}}}}}}}}}}}}}}}}}}}}}}}}}}}}}}}}}}}}}}}}}",
"}}}}}}}}}}}}}}}}}}}}}}}}}}}}}}}}}}}}}}}}}}}}}}}}}}}}}}}}}}}}}}}}",
"}}}}}}}}}}}}}}}}}}}}}}}}}}}}}}}}}}}}}}}}}}}}}}}}}}}}}}}}}}}}}}}}",
"}}}}}}}}}}}}}}}}}}}}}}}}}}}}}}}}}}}}}}}}}}}}}}}}}}}}}}}}}}}}}}}}"
};
