/* XPM */
static char *result[] = {
/* columns rows colors chars-per-pixel */
"64 64 8 1 ",
"  c black",
". c #4D3533",
"X c #63413D",
"o c #704844",
"O c #898989",
"+ c #A4A4A4",
"@ c white",
"# c None",
/* pixels */
"################                                ################",
"################                                ################",
"################                                ################",
"################                                ################",
"########        oooooooooooooooooooooooooooooooo        ########",
"########        oooooooooooooooooooooooooooooooo        ########",
"########        oooooooooooooooooooooooooooooooo        ########",
"########        oooooooooooooooooooooooooooooooo        ########",
"####    ++++XXXXooooooooooooooooooooooooooooooooXXXXOOOO    ####",
"####    ++++XXXXooooooooooooooooooooooooooooooooXXXXOOOO    ####",
"####    ++++XXXXooooooooooooooooooooooooooooooooXXXXOOOO    ####",
"####    ++++XXXXooooooooooooooooooooooooooooooooXXXXOOOO    ####",
"    ++++++++XXXXooooooooooooooooooooooooooooooooXXXXOOOOOOOO    ",
"    ++++++++XXXXooooooooooooooooooooooooooooooooXXXXOOOOOOOO    ",
"    ++++++++XXXXooooooooooooooooooooooooooooooooXXXXOOOOOOOO    ",
"    ++++++++XXXXooooooooooooooooooooooooooooooooXXXXOOOOOOOO    ",
"    ++++++++XXXXooooooooooooooooooooooooooooooooXXXXOOOOOOOO    ",
"    ++++++++XXXXooooooooooooooooooooooooooooooooXXXXOOOOOOOO    ",
"    ++++++++XXXXooooooooooooooooooooooooooooooooXXXXOOOOOOOO    ",
"    ++++++++XXXXooooooooooooooooooooooooooooooooXXXXOOOOOOOO    ",
"    OOOOOOOOXXXXooooooooooooooooooooooooooooooooXXXX++++++++    ",
"    OOOOOOOOXXXXooooooooooooooooooooooooooooooooXXXX++++++++    ",
"    OOOOOOOOXXXXooooooooooooooooooooooooooooooooXXXX++++++++    ",
"    OOOOOOOOXXXXooooooooooooooooooooooooooooooooXXXX++++++++    ",
"    OOOOOOOOXXXXooooooooooooooooooooooooooooooooXXXX++++++++    ",
"    OOOOOOOOXXXXooooooooooooooooooooooooooooooooXXXX++++++++    ",
"    OOOOOOOOXXXXooooooooooooooooooooooooooooooooXXXX++++++++    ",
"    OOOOOOOOXXXXooooooooooooooooooooooooooooooooXXXX++++++++    ",
"    OOOOOOOOXXXXXXXXooooooooooooooooooooooooXXXXXXXX++++++++    ",
"    OOOOOOOOXXXXXXXXooooooooooooooooooooooooXXXXXXXX++++++++    ",
"    OOOOOOOOXXXXXXXXooooooooooooooooooooooooXXXXXXXX++++++++    ",
"    OOOOOOOOXXXXXXXXooooooooooooooooooooooooXXXXXXXX++++++++    ",
"    ++++++++XXXXXXXXXXXXXXXX++++++++XXXXXXXXXXXXXXXX++++@@@@    ",
"    ++++++++XXXXXXXXXXXXXXXX++++++++XXXXXXXXXXXXXXXX++++@@@@    ",
"    ++++++++XXXXXXXXXXXXXXXX++++++++XXXXXXXXXXXXXXXX++++@@@@    ",
"    ++++++++XXXXXXXXXXXXXXXX++++++++XXXXXXXXXXXXXXXX++++@@@@    ",
"    OOOOOOOOOOOOOOOOOOOO++++++++++++++++OOOOOOOOOOOO@@@@@@@@    ",
"    OOOOOOOOOOOOOOOOOOOO++++++++++++++++OOOOOOOOOOOO@@@@@@@@    ",
"    OOOOOOOOOOOOOOOOOOOO++++++++++++++++OOOOOOOOOOOO@@@@@@@@    ",
"    OOOOOOOOOOOOOOOOOOOO++++++++++++++++OOOOOOOOOOOO@@@@@@@@    ",
"    OOOOOOOO........oooo++++        ++++oooo....@@@@@@@@@@@@    ",
"    OOOOOOOO........oooo++++        ++++oooo....@@@@@@@@@@@@    ",
"    OOOOOOOO........oooo++++        ++++oooo....@@@@@@@@@@@@    ",
"    OOOOOOOO........oooo++++        ++++oooo....@@@@@@@@@@@@    ",
"    OOOOOOOO....oooooooooooo++++++++oooooooo@@@@@@@@@@@@@@@@    ",
"    OOOOOOOO....oooooooooooo++++++++oooooooo@@@@@@@@@@@@@@@@    ",
"    OOOOOOOO....oooooooooooo++++++++oooooooo@@@@@@@@@@@@@@@@    ",
"    OOOOOOOO....oooooooooooo++++++++oooooooo@@@@@@@@@@@@@@@@    ",
"    OOOOOOOO....oooooooooooooooooooooooo@@@@@@@@@@@@@@@@@@@@    ",
"    OOOOOOOO....oooooooooooooooooooooooo@@@@@@@@@@@@@@@@@@@@    ",
"    OOOOOOOO....oooooooooooooooooooooooo@@@@@@@@@@@@@@@@@@@@    ",
"    OOOOOOOO....oooooooooooooooooooooooo@@@@@@@@@@@@@@@@@@@@    ",
"    OOOOOOOO....oooooooooooooooooooo@@@@@@@@@@@@@@@@@@@@OOOO    ",
"    OOOOOOOO....oooooooooooooooooooo@@@@@@@@@@@@@@@@@@@@OOOO    ",
"    OOOOOOOO....oooooooooooooooooooo@@@@@@@@@@@@@@@@@@@@OOOO    ",
"    OOOOOOOO....oooooooooooooooooooo@@@@@@@@@@@@@@@@@@@@OOOO    ",
"    OOOOOOOO........oooooooooooo@@@@@@@@@@@@@@@@@@@@OOOOOOOO    ",
"    OOOOOOOO........oooooooooooo@@@@@@@@@@@@@@@@@@@@OOOOOOOO    ",
"    OOOOOOOO........oooooooooooo@@@@@@@@@@@@@@@@@@@@OOOOOOOO    ",
"    OOOOOOOO........oooooooooooo@@@@@@@@@@@@@@@@@@@@OOOOOOOO    ",
"####                                                        ####",
"####                                                        ####",
"####                                                        ####",
"####                                                        ####"
};
