/* XPM */
static char *result[] = {
/* columns rows colors chars-per-pixel */
"64 64 9 1 ",
"  c black",
". c #4D3533",
"X c #63413D",
"o c #704844",
"O c #898989",
"+ c #A4A4A4",
"@ c #DFDFDF",
"# c white",
"$ c None",
/* pixels */
"$$$$$$$$$$$$$$$$                                $$$$$$$$$$$$$$$$",
"$$$$$$$$$$$$$$$$                                $$$$$$$$$$$$$$$$",
"$$$$$$$$$$$$$$$$                                $$$$$$$$$$$$$$$$",
"$$$$$$$$$$$$$$$$                                $$$$$$$$$$$$$$$$",
"$$$$$$$$        oooooooooooooooooooooooooooooooo        $$$$$$$$",
"$$$$$$$$        oooooooooooooooooooooooooooooooo        $$$$$$$$",
"$$$$$$$$        oooooooooooooooooooooooooooooooo        $$$$$$$$",
"$$$$$$$$        oooooooooooooooooooooooooooooooo        $$$$$$$$",
"$$$$    ++++XXXXoooooooooooooooooooooooooooooooo####@@@@    $$$$",
"$$$$    ++++XXXXoooooooooooooooooooooooooooooooo####@@@@    $$$$",
"$$$$    ++++XXXXoooooooooooooooooooooooooooooooo####@@@@    $$$$",
"$$$$    ++++XXXXoooooooooooooooooooooooooooooooo####@@@@    $$$$",
"    ++++++++XXXXoooooooooooooooooooooooooooo############@@@@    ",
"    ++++++++XXXXoooooooooooooooooooooooooooo############@@@@    ",
"    ++++++++XXXXoooooooooooooooooooooooooooo############@@@@    ",
"    ++++++++XXXXoooooooooooooooooooooooooooo############@@@@    ",
"    ++++++++XXXXoooooooooooooooooooooooo####################    ",
"    ++++++++XXXXoooooooooooooooooooooooo####################    ",
"    ++++++++XXXXoooooooooooooooooooooooo####################    ",
"    ++++++++XXXXoooooooooooooooooooooooo####################    ",
"    OOOOOOOOXXXXoooooooooooooooooooo####################++++    ",
"    OOOOOOOOXXXXoooooooooooooooooooo####################++++    ",
"    OOOOOOOOXXXXoooooooooooooooooooo####################++++    ",
"    OOOOOOOOXXXXoooooooooooooooooooo####################++++    ",
"    OOOOOOOOXXXXoooooooooooooooo####################++++++++    ",
"    OOOOOOOOXXXXoooooooooooooooo####################++++++++    ",
"    OOOOOOOOXXXXoooooooooooooooo####################++++++++    ",
"    OOOOOOOOXXXXoooooooooooooooo####################++++++++    ",
"    OOOOOOOOXXXXXXXXoooooooo####################XXXX++++++++    ",
"    OOOOOOOOXXXXXXXXoooooooo####################XXXX++++++++    ",
"    OOOOOOOOXXXXXXXXoooooooo####################XXXX++++++++    ",
"    OOOOOOOOXXXXXXXXoooooooo####################XXXX++++++++    ",
"    ++++++++XXXXXXXXXXXX####################XXXXXXXX++++++++    ",
"    ++++++++XXXXXXXXXXXX####################XXXXXXXX++++++++    ",
"    ++++++++XXXXXXXXXXXX####################XXXXXXXX++++++++    ",
"    ++++++++XXXXXXXXXXXX####################XXXXXXXX++++++++    ",
"    OOOOOOOOOOOOOOOO####################OOOOOOOOOOOOOOOOOOOO    ",
"    OOOOOOOOOOOOOOOO####################OOOOOOOOOOOOOOOOOOOO    ",
"    OOOOOOOOOOOOOOOO####################OOOOOOOOOOOOOOOOOOOO    ",
"    OOOOOOOOOOOOOOOO####################OOOOOOOOOOOOOOOOOOOO    ",
"    OOOOOOOO....####################++++oooo........OOOOOOOO    ",
"    OOOOOOOO....####################++++oooo........OOOOOOOO    ",
"    OOOOOOOO....####################++++oooo........OOOOOOOO    ",
"    OOOOOOOO....####################++++oooo........OOOOOOOO    ",
"    OOOOOOOO####################++++oooooooooooo....OOOOOOOO    ",
"    OOOOOOOO####################++++oooooooooooo....OOOOOOOO    ",
"    OOOOOOOO####################++++oooooooooooo....OOOOOOOO    ",
"    OOOOOOOO####################++++oooooooooooo....OOOOOOOO    ",
"    OOOO####################oooooooooooooooooooo....OOOOOOOO    ",
"    OOOO####################oooooooooooooooooooo....OOOOOOOO    ",
"    OOOO####################oooooooooooooooooooo....OOOOOOOO    ",
"    OOOO####################oooooooooooooooooooo....OOOOOOOO    ",
"    ####################oooooooooooooooooooooooo....OOOOOOOO    ",
"    ####################oooooooooooooooooooooooo....OOOOOOOO    ",
"    ####################oooooooooooooooooooooooo....OOOOOOOO    ",
"    ####################oooooooooooooooooooooooo....OOOOOOOO    ",
"    @@@@############oooooooooooooooooooooooo........OOOOOOOO    ",
"    @@@@############oooooooooooooooooooooooo........OOOOOOOO    ",
"    @@@@############oooooooooooooooooooooooo........OOOOOOOO    ",
"    @@@@############oooooooooooooooooooooooo........OOOOOOOO    ",
"$$$$                                                        $$$$",
"$$$$                                                        $$$$",
"$$$$                                                        $$$$",
"$$$$                                                        $$$$"
};
