/* XPM */
static char *result[] = {
/* columns rows colors chars-per-pixel */
"64 64 8 1 ",
"  c black",
". c #342423",
"X c #4D3533",
"o c #704844",
"O c #898989",
"+ c #A4A4A4",
"@ c white",
"# c None",
/* pixels */
"########                                                ########",
"########                                                ########",
"########                                                #######@",
"########                                                ########",
"####    OOOOOOOOOOOOOOOOOOOOOOOOOOOOOOOOOOOOOOOOOOOOOOOO    ####",
"####    OOOOOOOOOOOOOOOOOOOOOOOOOOOOOOOOOOOOOOOOOOOOOOOO    ####",
"####    OOOOOOOOOOOOOOOOOOOOOOOOOOOOOOOOOOOOOOOOOOOOOOOO    ####",
"####    OOOOOOOOOOOOOOOOOOOOOOOOOOOOOOOOOOOOOOOOOOOOOOOO    ####",
"    OOOOOOOO........XXXXXXXXXXXXXXXXXXXXXXXX........OOOOOOOO    ",
"    OOOOOOOO........XXXXXXXXXXXXXXXXXXXXXXXX........OOOOOOOO    ",
"    OOOOOOOO........XXXXXXXXXXXXXXXXXXXXXXXX........OOOOOOOO    ",
"    OOOOOOOO........XXXXXXXXXXXXXXXXXXXXXXXX........OOOOOOOO    ",
"    OOOOOOOO....XXXXXXXXXXXXXXXXXXXXXXXXXXXXXXXX....OOOOOOOO    ",
"    OOOOOOOO....XXXXXXXXXXXXXXXXXXXXXXXXXXXXXXXX....OOOOOOOO    ",
"    OOOOOOOO....XXXXXXXXXXXXXXXXXXXXXXXXXXXXXXXX....OOOOOOOO    ",
"    OOOOOOOO....XXXXXXXXXXXXXXXXXXXXXXXXXXXXXXXX....OOOOOOOO    ",
"    OOOOOOOOXXXXXXXXXXXXXXXXXXXXXXXXXXXXXXXXXXXXXXXXOOOOOOOO    ",
"    OOOOOOOOXXXXXXXXXXXXXXXXXXXXXXXXXXXXXXXXXXXXXXXXOOOOOOOO    ",
"    OOOOOOOOXXXXXXXXXXXXXXXXXXXXXXXXXXXXXXXXXXXXXXXXOOOOOOOO    ",
"    OOOOOOOOXXXXXXXXXXXXXXXXXXXXXXXXXXXXXXXXXXXXXXXXOOOOOOOO    ",
"    ++++++++                                        OOOOOOOO    ",
"    ++++++++                                        OOOOOOOO    ",
"    ++++++++                                        OOOOOOOO    ",
"    ++++++++                                        OOOOOOOO    ",
"    ++++++++                                        ++++++++    ",
"    ++++++++                                        ++++++++    ",
"    ++++++++                                        ++++++++    ",
"    ++++++++                                        ++++++++    ",
"    OOOOOOOO                                        ++++++++    ",
"    OOOOOOOO                                        ++++++++    ",
"    OOOOOOOO                                        ++++++++    ",
"    OOOOOOOO                                        ++++++++    ",
"    OOOOOOOO                                        OOOOOOOO    ",
"    OOOOOOOO                                        OOOOOOOO    ",
"    OOOOOOOO                                        OOOOOOOO    ",
"    OOOOOOOO                                        OOOOOOOO    ",
"    OOOOOOOOOOOOOOOOOOOO++++++++++++++++OOOOOOOOOOOOOOOOOOOO    ",
"    OOOOOOOOOOOOOOOOOOOO++++++++++++++++OOOOOOOOOOOOOOOOOOOO    ",
"    OOOOOOOOOOOOOOOOOOOO++++++++++++++++OOOOOOOOOOOOOOOOOOOO    ",
"    OOOOOOOOOOOOOOOOOOOO++++++++++++++++OOOOOOOOOOOOOOOOOOOO    ",
"    OOOOOOOOXXXXXXXXooooooooooooooooooooooooXXXXXXXXOOOOOOOO    ",
"    OOOOOOOOXXXXXXXXooooooooooooooooooooooooXXXXXXXXOOOOOOOO    ",
"    OOOOOOOOXXXXXXXXooooooooooooooooooooooooXXXXXXXXOOOOOOOO    ",
"    OOOOOOOOXXXXXXXXooooooooooooooooooooooooXXXXXXXXOOOOOOOO    ",
"    OOOOOOOOXXXXooooooooooooooooooooooooooooooooXXXXOOOOOOOO    ",
"    OOOOOOOOXXXXooooooooooooooooooooooooooooooooXXXXOOOOOOOO    ",
"    OOOOOOOOXXXXooooooooooooooooooooooooooooooooXXXXOOOOOOOO    ",
"    OOOOOOOOXXXXooooooooooooooooooooooooooooooooXXXXOOOOOOOO    ",
"    OOOOOOOOXXXXooooooooooooooooooooooooooooooooXXXXOOOOOOOO    ",
"    OOOOOOOOXXXXooooooooooooooooooooooooooooooooXXXXOOOOOOOO    ",
"    OOOOOOOOXXXXooooooooooooooooooooooooooooooooXXXXOOOOOOOO    ",
"    OOOOOOOOXXXXooooooooooooooooooooooooooooooooXXXXOOOOOOOO    ",
"    OOOOOOOOXXXXooooooooooooooooooooooooooooooooXXXXOOOOOOOO    ",
"    OOOOOOOOXXXXooooooooooooooooooooooooooooooooXXXXOOOOOOOO    ",
"    OOOOOOOOXXXXooooooooooooooooooooooooooooooooXXXXOOOOOOOO    ",
"    OOOOOOOOXXXXooooooooooooooooooooooooooooooooXXXXOOOOOOOO    ",
"    OOOOOOOOXXXXXXXXooooooooooooooooooooooooXXXXXXXXOOOOOOOO    ",
"    OOOOOOOOXXXXXXXXooooooooooooooooooooooooXXXXXXXXOOOOOOOO    ",
"    OOOOOOOOXXXXXXXXooooooooooooooooooooooooXXXXXXXXOOOOOOOO    ",
"    OOOOOOOOXXXXXXXXooooooooooooooooooooooooXXXXXXXXOOOOOOOO    ",
"####                                                        ####",
"####                                                        ##@#",
"####                                                        ####",
"####                                                        ####"
};
