/* XPM */
static char *result[] = {
/* columns rows colors chars-per-pixel */
"64 64 8 1 ",
"  c black",
". c #4D3533",
"X c #63413D",
"o c #704844",
"O c #898989",
"+ c #A4A4A4",
"@ c white",
"# c None",
/* pixels */
"################                                ################",
"################                                ##############@#",
"################                                ################",
"################                                ################",
"########        oooooooooooooooooooooooooooooooo        ########",
"########        oooooooooooooooooooooooooooooooo        ########",
"########        oooooooooooooooooooooooooooooooo        ########",
"########        oooooooooooooooooooooooooooooooo        ########",
"####    ++++XXXXooooooooooooooooooooooooooooooooXXXXOOOO    ####",
"####    ++++XXXXooooooooooooooooooooooooooooooooXXXXOOOO    ####",
"####    ++++XXXXooooooooooooooooooooooooooooooooXXXXOOOO    ####",
"####    ++++XXXXooooooooooooooooooooooooooooooooXXXXOOOO    ####",
"    ++++++++XXXXooooooooooooooooooooooooooooooooXXXXOOOOOOOO    ",
"    ++++++++XXXXooooooooooooooooooooooooooooooooXXXXOOOOOOOO    ",
"    ++++++++XXXXooooooooooooooooooooooooooooooooXXXXOOOOOOOO    ",
"    ++++++++XXXXooooooooooooooooooooooooooooooooXXXXOOOOOOOO    ",
"    ++++++++XXXXooooooooooooooooooooooooooooooooXXXXOOOOOOOO    ",
"    ++++++++XXXXooooooooooooooooooooooooooooooooXXXXOOOOOOOO    ",
"    ++++++++XXXXooooooooooooooooooooooooooooooooXXXXOOOOOOOO    ",
"    ++++++++XXXXooooooooooooooooooooooooooooooooXXXXOOOOOOOO    ",
"    OOOOOOOOXXXXooooooooooooooooooooooooooooooooXXXX++++++++    ",
"    OOOOOOOOXXXXooooooooooooooooooooooooooooooooXXXX++++++++    ",
"    OOOOOOOOXXXXooooooooooooooooooooooooooooooooXXXX++++++++    ",
"    OOOOOOOOXXXXooooooooooooooooooooooooooooooooXXXX++++++++    ",
"    OOOOOOOOXXXXooooooooooooooooooooooooooooooooXXXX++++++++    ",
"    OOOOOOOOXXXXooooooooooooooooooooooooooooooooXXXX++++++++    ",
"    OOOOOOOOXXXXooooooooooooooooooooooooooooooooXXXX++++++++    ",
"    OOOOOOOOXXXXooooooooooooooooooooooooooooooooXXXX++++++++    ",
"    OOOOOOOOXXXXXXXXooooooooooooooooooooooooXXXXXXXX++++++++    ",
"    OOOOOOOOXXXXXXXXooooooooooooooooooooooooXXXXXXXX++++++++    ",
"    OOOOOOOOXXXXXXXXooooooooooooooooooooooooXXXXXXXX++++++++    ",
"    OOOOOOOOXXXXXXXXooooooooooooooooooooooooXXXXXXXX++++++++    ",
"    ++++++++XXXXXXXXXXXXXXXX++++++++XXXXXXXXXXXXXXXX++++++++    ",
"    ++++++++XXXXXXXXXXXXXXXX++++++++XXXXXXXXXXXXXXXX++++++++    ",
"    ++++++++XXXXXXXXXXXXXXXX++++++++XXXXXXXXXXXXXXXX++++++++    ",
"    ++++++++XXXXXXXXXXXXXXXX++++++++XXXXXXXXXXXXXXXX++++++++    ",
"    OOOOOOOOOOOOOOOOOOOO++++++++++++++++OOOOOOOOOOOOOOOOOOOO    ",
"    OOOOOOOOOOOOOOOOOOOO++++++++++++++++OOOOOOOOOOOOOOOOOOOO    ",
"    OOOOOOOOOOOOOOOOOOOO++++++++++++++++OOOOOOOOOOOOOOOOOOOO    ",
"    OOOOOOOOOOOOOOOOOOOO++++++++++++++++OOOOOOOOOOOOOOOOOOOO    ",
"    OOOOOOOO........oooo++++        ++++oooo........OOOOOOOO    ",
"    OOOOOOOO........oooo++++        ++++oooo........OOOOOOOO    ",
"    OOOOOOOO........oooo++++        ++++oooo........OOOOOOOO    ",
"    OOOOOOOO........oooo++++        ++++oooo........OOOOOOOO    ",
"    OOOOOOOO....oooooooooooo++++++++oooooooooooo....OOOOOOOO    ",
"    OOOOOOOO....oooooooooooo++++++++oooooooooooo....OOOOOOOO    ",
"    OOOOOOOO....oooooooooooo++++++++oooooooooooo....OOOOOOOO    ",
"    OOOOOOOO....oooooooooooo++++++++oooooooooooo....OOOOOOOO    ",
"    OOOOOOOO....oooooooooooooooooooooooooooooooo....OOOOOOOO    ",
"    OOOOOOOO....oooooooooooooooooooooooooooooooo....OOOOOOOO    ",
"    OOOOOOOO....oooooooooooooooooooooooooooooooo....OOOOOOOO    ",
"    OOOOOOOO....oooooooooooooooooooooooooooooooo....OOOOOOOO    ",
"    OOOOOOOO....oooooooooooooooooooooooooooooooo....OOOOOOOO    ",
"    OOOOOOOO....oooooooooooooooooooooooooooooooo....OOOOOOOO    ",
"    OOOOOOOO....oooooooooooooooooooooooooooooooo....OOOOOOOO    ",
"    OOOOOOOO....oooooooooooooooooooooooooooooooo....OOOOOOOO    ",
"    OOOOOOOO........oooooooooooooooooooooooo........OOOOOOOO    ",
"    OOOOOOOO........oooooooooooooooooooooooo........OOOOOOOO    ",
"    OOOOOOOO........oooooooooooooooooooooooo........OOOOOOOO    ",
"    OOOOOOOO........oooooooooooooooooooooooo........OOOOOOOO    ",
"####                                                        ####",
"####                                                        ####",
"####                                                        ####",
"####                                                        ####"
};
