/* XPM */
static char *result[] = {
/* columns rows colors chars-per-pixel */
"64 64 5 1 ",
"  c gray19",
". c #F3D13E",
"X c #D79B4D",
"o c #F2F2F0",
"O c None",
/* pixels */
"OOOOOOOOOOOOOOOOOOOOOOOO                OOOOOOOOOOOOOOOOOOOOOOOO",
"OOOOOOOOOOOOOOOOOOOOOOOO                OOOOOOOOOOOOOOOOOOOOOOOO",
"OOOOOOOOOOOOOOOOOOOOOOOO                OOOOOOOOOOOOOOOOOOOOOOOO",
"OOOOOOOOOOOOOOOOOOOOOOOO                OOOOOOOOOOOOOOOOOOOOOOOO",
"OOOOOOOOOOOOOOOOOOOOOOOO                OOOOOOOOOOOOOOOOOOOOOOOO",
"OOOOOOOOOOOOOOOOOOOOOOOO                OOOOOOOOOOOOOOOOOOOOOOOO",
"OOOOOOOOOOOOOOOOOOOOOOOO                OOOOOOOOOOOOOOOOOOOOOOOO",
"OOOOOOOOOOOOOOOOOOOOOOOO                OOOOOOOOOOOOOOOOOOOOOOOO",
"OOOOOOOOOOOOOOOO        XXXXXXXXoooooooo        OOOOOOOOOOOOOOOO",
"OOOOOOOOOOOOOOOO        XXXXXXXXoooooooo        OOOOOOOOOOOOOOOO",
"OOOOOOOOOOOOOOOO        XXXXXXXXoooooooo        OOOOOOOOOOOOOOOO",
"OOOOOOOOOOOOOOOO        XXXXXXXXoooooooo        OOOOOOOOOOOOOOOO",
"OOOOOOOOOOOOOOOO        XXXXXXXXoooooooo        OOOOOOOOOOOOOOOO",
"OOOOOOOOOOOOOOOO        XXXXXXXXoooooooo        OOOOOOOOOOOOOOOO",
"OOOOOOOOOOOOOOOO        XXXXXXXXoooooooo        OOOOOOOOOOOOOOOO",
"OOOOOOOOOOOOOOOO        XXXXXXXXoooooooo        OOOOOOOOOOOOOOOO",
"OOOOOOOO        XXXXXXXXoooooooo................        OOOOOOOO",
"OOOOOOOO        XXXXXXXXoooooooo................        OOOOOOOO",
"OOOOOOOO        XXXXXXXXoooooooo................        OOOOOOOO",
"OOOOOOOO        XXXXXXXXoooooooo................        OOOOOOOO",
"OOOOOOOO        XXXXXXXXoooooooo................        OOOOOOOO",
"OOOOOOOO        XXXXXXXXoooooooo................        OOOOOOOO",
"OOOOOOOO        XXXXXXXXoooooooo................        OOOOOOOO",
"OOOOOOOO        XXXXXXXXoooooooo................        OOOOOOOO",
"OOOOOOOO        XXXXXXXXooooooooXXXXXXXX........        OOOOOOOO",
"OOOOOOOO        XXXXXXXXooooooooXXXXXXXX........        OOOOOOOO",
"OOOOOOOO        XXXXXXXXooooooooXXXXXXXX........        OOOOOOOO",
"OOOOOOOO        XXXXXXXXooooooooXXXXXXXX........        OOOOOOOO",
"OOOOOOOO        XXXXXXXXooooooooXXXXXXXX........        OOOOOOOO",
"OOOOOOOO        XXXXXXXXooooooooXXXXXXXX........        OOOOOOOO",
"OOOOOOOO        XXXXXXXXooooooooXXXXXXXX........        OOOOOOOO",
"OOOOOOOO        XXXXXXXXooooooooXXXXXXXX........        OOOOOOOO",
"OOOOOOOO        XXXXXXXX........XXXXXXXX........        OOOOOOOO",
"OOOOOOOO        XXXXXXXX........XXXXXXXX........        OOOOOOOO",
"OOOOOOOO        XXXXXXXX........XXXXXXXX........        OOOOOOOO",
"OOOOOOOO        XXXXXXXX........XXXXXXXX........        OOOOOOOO",
"OOOOOOOO        XXXXXXXX........XXXXXXXX........        OOOOOOOO",
"OOOOOOOO        XXXXXXXX........XXXXXXXX........        OOOOOOOO",
"OOOOOOOO        XXXXXXXX........XXXXXXXX........        OOOOOOOO",
"OOOOOOOO        XXXXXXXX........XXXXXXXX........        OOOOOOOO",
"OOOOOOOO        XXXXXXXX........................        OOOOOOOO",
"OOOOOOOO        XXXXXXXX........................        OOOOOOOO",
"OOOOOOOO        XXXXXXXX........................        OOOOOOOO",
"OOOOOOOO        XXXXXXXX........................        OOOOOOOO",
"OOOOOOOO        XXXXXXXX........................        OOOOOOOO",
"OOOOOOOO        XXXXXXXX........................        OOOOOOOO",
"OOOOOOOO        XXXXXXXX........................        OOOOOOOO",
"OOOOOOOO        XXXXXXXX........................        OOOOOOOO",
"OOOOOOOOOOOOOOOO        XXXXXXXX........        OOOOOOOOOOOOOOOO",
"OOOOOOOOOOOOOOOO        XXXXXXXX........        OOOOOOOOOOOOOOOO",
"OOOOOOOOOOOOOOOO        XXXXXXXX........        OOOOOOOOOOOOOOOO",
"OOOOOOOOOOOOOOOO        XXXXXXXX........        OOOOOOOOOOOOOOOO",
"OOOOOOOOOOOOOOOO        XXXXXXXX........        OOOOOOOOOOOOOOOO",
"OOOOOOOOOOOOOOOO        XXXXXXXX........        OOOOOOOOOOOOOOOO",
"OOOOOOOOOOOOOOOO        XXXXXXXX........        OOOOOOOOOOOOOOOO",
"OOOOOOOOOOOOOOOO        XXXXXXXX........        OOOOOOOOOOOOOOOO",
"OOOOOOOOOOOOOOOOOOOOOOOO                OOOOOOOOOOOOOOOOOOOOOOOO",
"OOOOOOOOOOOOOOOOOOOOOOOO                OOOOOOOOOOOOOOOOOOOOOOOO",
"OOOOOOOOOOOOOOOOOOOOOOOO                OOOOOOOOOOOOOOOOOOOOOOOO",
"OOOOOOOOOOOOOOOOOOOOOOOO                OOOOOOOOOOOOOOOOOOOOOOOO",
"OOOOOOOOOOOOOOOOOOOOOOOO                OOOOOOOOOOOOOOOOOOOOOOOO",
"OOOOOOOOOOOOOOOOOOOOOOOO                OOOOOOOOOOOOOOOOOOOOOOOO",
"OOOOOOOOOOOOOOOOOOOOOOOO                OOOOOOOOOOOOOOOOOOOOOOOO",
"OOOOOOOOOOOOOOOOOOOOOOOO                OOOOOOOOOOOOOOOOOOOOOOOO"
};
