/* XPM */
static char *result[] = {
/* columns rows colors chars-per-pixel */
"64 64 43 1 ",
"  c #FEEB91",
". c #FBEE92",
"X c #FDEC93",
"o c #FFEA95",
"O c #FDE897",
"+ c #FCEA96",
"@ c #FDEB97",
"# c #FFEB96",
"$ c #F7E99B",
"% c #FDEB98",
"& c #FDEB99",
"* c #FFEA98",
"= c #FFEA99",
"- c #FFE99A",
"; c #FCEB9A",
": c #FDEB9A",
"> c #FCEB9B",
", c #FEEA9B",
"< c #FCEC98",
"1 c #F9EA9C",
"2 c #FBE99F",
"3 c #FDEA9C",
"4 c #FDEA9D",
"5 c #FFEA9C",
"6 c #FFE99E",
"7 c #FEE99F",
"8 c #FDEA9F",
"9 c #FAEC9D",
"0 c #FEEC9D",
"q c #F7E6A4",
"w c #FBE7A3",
"e c #FFE9A1",
"r c #F8E9A4",
"t c #FAE8A7",
"y c #FAEAA7",
"u c #FAEEA5",
"i c #F8EDA6",
"p c #F8EAAB",
"a c #FCE8A9",
"s c #FFEEAA",
"d c #FFF2C8",
"f c #FEF5CD",
"g c None",
/* pixels */
"gggggggggggggggggggggggggggggggggggggggggggggggggggggggggggggggg",
"gggggggggggggggggggggggggggggggggggggggggggggggggggggggggggggggg",
"gggggggggggggggggggggggggggggggggggggggggggggggggggggggggggggggg",
"gggggggggggggggggggggggggggggggggggggggggggggggggggggggggggggggg",
"gggggggggggggggggggggggggggggggggggggggggggggggggggggggggggggggg",
"gggggggggggggggggggggggggggggggggggggggggggggggggggggggggggggggg",
"gggggggggggggggggggggggggggggggggggggggggggggggggggggggggggggggg",
"gggggggggggggggg44444gg4444444gggggggggggggggggggggggggggggggggg",
"gggggggggggggggg44444gg4444444gggggggggggggggggggggggggggggggggg",
"gggggggggggggggg44444gg4444444gggggggggggggggggggggggggggggggggg",
"gggggggggr4444ggggggggg:##4444gggggggggggggggggggggggggggggggggg",
"gggggggggr4444ggggggggg:##4444gggggggggggggggggggggggggggggggggg",
"ggggggggg44444ggggggggg&&&&&&&gggggggggggggggggggggggggggggggggg",
"ggggggggg44444ggggggggg&&&&&&&gggggggggggggggggggggggggggggggggg",
"ggggggggg44444ggggggggggggggggggg4444444gg04444ggggggggggggggggg",
"ggggggggg44444ggggggggggggggggggg4444444gg04444ggggggggggggggggg",
"ggggg4446ggggggg4444444444ggggggg4444444gg04444ggX4444gggggggggg",
"ggggg4446gggggqq44%4444444qqggggg4444444gg44444ggX4444gggggggggg",
"ggggg4446gggggqq44%4444444qqggggg4444444gg44444ggX4444gggggggggg",
"ggggg5558ggggg44444444444444ggggg5555555ggggggggg.5555gggggggggg",
"ggggg5558ggggg44444444444444ggggg5555555ggggggggg.5555gggggggggg",
"gggggggggggg444444444444444444gggggggggg1444ggggggggggg4444ggggg",
"gggggetggfdd2*444444444@++4444gggggggeaa7444@eeeegggggg4444ggggg",
"gggggetggfdd2*444444444@++4444gggggggeaa7444@eeeegggggg4444ggggg",
"ggggg wgg444s444444444444444  ggggggg444444444444gggggg4444ggggg",
"ggggg wgg444s444444444444444  ggggggg444444444444gggggg4444ggggg",
"ggggggggg4444444444444444444ggggggg44444444444444444gggggggggggg",
"ggggggggg4444444444444444444ggggggg44444444444444444gggggggggggg",
"ggggggggg44444444444444444ggggggggg4444444444444444444ggg44ggggg",
"gggggggggggg4444u444444gggggggggggg444444444444i444444ggg44ggggg",
"gggggggggggg4444u444444gggggggggggg444444444444i444444ggg44ggggg",
"gggggggggggg44444444444gggggggggggg4444444444444444444gggggggggg",
"gggggggggggg44444444444gggggggggggg4444444444444444444gggggggggg",
"gggggggggggg44444444444gggggggggggggg44444444444444444gggggggggg",
"gggggggggggg44444444444gggggggggggggg44444444444444444gggggggggg",
"gggggggggggggg444444444*OOgggggggggggggg14444444444444gggggggggg",
"gggggggggggggg444444444444gggggggggggggg$4444444444yppgggggggggg",
"gggggggggggggg444444444444gggggggggggggg$4444444444yppgggggggggg",
"gggggggggggggg44444444444444gggggggggggg14444444444ggggggggggggg",
"gggggggggggggg44444444444444gggggggggggg14444444444ggggggggggggg",
"gggggggggggggggg&4444444444444ggggggg444444,=;;:944ggggggggggggg",
"gggggggggggggggg&4444444444444ggggggg444444,=;44444ggggggggggggg",
"ggggggggggggggggggg33333333333ggg----333434o44444ggggggggggggggg",
"ggggggggggggggggggg44444444444ggg4444444444444444ggggggggggggggg",
"ggggggggggggggggggg44444444444ggg4444444444444444ggggggggggggggg",
"ggggggggggggggggggggg4444444gg44444444444444444ggggggggggggggggg",
"ggggggggggggggggggggg4444444gg44444444444444444ggggggggggggggggg",
"gggggggggggggggggggggggggggggg44444444<<>444gggggggggggggggggggg",
"ggggggggggggggggggggggggggggggg444444444444ggggggggggggggggggggg",
"ggggggggggggggggggggggggggggggg444444444444ggggggggggggggggggggg",
"gggggggggggggggggggggggggggggggg4444444444gggggggggggggggggggggg",
"ggggggggggggggggggggggggggggggggg444444444gggggggggggggggggggggg",
"gggggggggggggggggggggggggggggggggggggggggggggggggggggggggggggggg",
"gggggggggggggggggggggggggggggggggggggggggggggggggggggggggggggggg",
"gggggggggggggggggggggggggggggggggggggggggggggggggggggggggggggggg",
"gggggggggggggggggggggggggggggggggggggggggggggggggggggggggggggggg",
"gggggggggggggggggggggggggggggggggggggggggggggggggggggggggggggggg",
"gggggggggggggggggggggggggggggggggggggggggggggggggggggggggggggggg",
"gggggggggggggggggggggggggggggggggggggggggggggggggggggggggggggggg",
"gggggggggggggggggggggggggggggggggggggggggggggggggggggggggggggggg",
"gggggggggggggggggggggggggggggggggggggggggggggggggggggggggggggggg",
"gggggggggggggggggggggggggggggggggggggggggggggggggggggggggggggggg",
"gggggggggggggggggggggggggggggggggggggggggggggggggggggggggggggggg",
"gggggggggggggggggggggggggggggggggggggggggggggggggggggggggggggggg"
};
