/* XPM */
static char *result[] = {
/* columns rows colors chars-per-pixel */
"64 64 10 1 ",
"  c #040406",
". c #060608",
"X c #683E2C",
"o c #374827",
"O c #3B4E29",
"+ c #3A5124",
"@ c #7E4C35",
"# c #4B692F",
"$ c #A5A5A5",
"% c None",
/* pixels */
"%%%%%%%%%%%%%%%%%%%%%%%%%%%%%%%%%%%%%%%%%%%%%%%%%%%%%%%%%%%%%%%%",
"%%%%%%%%%%%%%%%%%%%%%%%%%%%%%%%%%%%%%%%%%%%%%%%%%%%%%%%%%%%%%%%%",
"%%%%%%%%%%%%%%%%%%%%%%%%%%%%%%%%%%%%%%%%%%%%%%%%%%%%%%%%%%%%%%%%",
"%%%%%%%%%%%%%%%%%%%%%%%%%%%%%%%%%%%%%%%%%%%%%%%%%%%%%%%%%%%%%%%%",
"%%%%%%%%%%%%%%%%%%%%%%%%%%%%%%%%%%%%%%%%%%%%%%%%%%%%%%%%%%%%%%%%",
"%%%%%%%%%%%%%%%%%%%%%%%%%%%%%%%%%%%%%%%%%%%%%%%%%%%%%%%%%%%%%%%%",
"%%%%%%%%%%%%%%%%%%%%%%%%%%%%%%%%%%%%%%%%%%%%%%%%%%%%%%%%%%%%%%%%",
"%%%%%%%%%%%%%%%%%%%%%%%%%%%%%%%%%%%%%%%%%%%%%%%%%%%%%%%%%%%%%%%%",
"%%%%%%%%%%%%%%%%%%%%%%%%....................%%%%%%%%%%%%%%%%%%%%",
"%%%%%%%%%%%%%%%%%%%%%%%%....................%%%%%%%%%%%%%%%%%%%%",
"%%%%%%%%%%%%%%%%%%%%%%%%....................%%%%%%%%%%%%%%%%%%%%",
"%%%%%%%%%%%%%%%%%%%%%%%%....................%%%%%%%%%%%%%%%%%%%%",
"%%%%%%%%%%%%%%%%%%%%....XXXX@@@@@@@@@@@@XXXX....%%%%%%%%%%%%%%%%",
"%%%%%%%%%%%%%%%%%%%%....XXXX@@@@@@@@@@@@XXXX....%%%%%%%%%%%%%%%%",
"%%%%%%%%%%%%%%%%%%%%....XXXX@@@@@@@@@@@@XXXX....%%%%%%%%%%%%%%%%",
"%%%%%%%%%%%%%%%%%%%%....XXXX@@@@@@@@@@@@XXXX....%%%%%%%%%%%%%%%%",
"%%%%%%%%............XXXX@@@@@@@@@@@@@@@@@@@@XXXX............%%%%",
"%%%%%%%%............XXXX@@@@@@@@@@@@@@@@@@@@XXXX............%%%%",
"%%%%%%%%............XXXX@@@@@@@@@@@@@@@@@@@@XXXX............%%%%",
"%%%%%%%%............XXXX@@@@@@@@@@@@@@@@@@@@XXXX............%%%%",
"%%%%%%%%....++++########@@@@@@@@@@@@@@@@@@@@@@@@####++++....%%%%",
"%%%%%%%%....++++########@@@@@@@@@@@@@@@@@@@@@@@@####++++....%%%%",
"%%%%%%%%....++++########@@@@@@@@@@@@@@@@@@@@@@@@####++++....%%%%",
"%%%%%%%%....++++########@@@@@@@@@@@@@@@@@@@@@@@@####++++....%%%%",
"%%%%%%%%%%%%....++++####@@@@++++++++++++++++++++++++....%%%%%%%%",
"%%%%%%%%%%%%....++++####@@@@++++++++++++++++++++++++....%%%%%%%%",
"%%%%%%%%%%%%....++++####@@@@++++++++++++++++++++++++....%%%%%%%%",
"%%%%%%%%%%%%....++++####@@@@++++++++++++++++++++++++....%%%%%%%%",
"%%%%%%%%%%%%....XXXX####XXXX++++++++++++++++++++....%%%%%%%%%%%%",
"%%%%%%%%%%%%....XXXX####XXXX++++++++++++++++++++....%%%%%%%%%%%%",
"%%%%%%%%%%%%....XXXX####XXXX++++++++++++++++++++....%%%%%%%%%%%%",
"%%%%%%%%%%%%....XXXX####XXXX++++++++++++++++++++....%%%%%%%%%%%%",
"%%%%%%%%%%%%....XXXX++++++++####....########........%%%%%%%%%%%%",
"%%%%%%%%%%%%....XXXX++++++++####....########........%%%%%%%%%%%%",
"%%%%%%%%%%%%....XXXX++++++++####....########........%%%%%%%%%%%%",
"%%%%%%%%%%%%....XXXX++++++++####....########........%%%%%%%%%%%%",
"%%%%%%%%%%%%....XXXXXXXX++++####################....%%%%%%%%%%%%",
"%%%%%%%%%%%%....XXXXXXXX++++####################....%%%%%%%%%%%%",
"%%%%%%%%%%%%....XXXXXXXX++++####################....%%%%%%%%%%%%",
"%%%%%%%%%%%%....XXXXXXXX++++####################....%%%%%%%%%%%%",
"%%%%%%%%%%%%%%%%........++++####################....%%%%%%%%%%%%",
"%%%%%%%%%%%%%%%%........++++####################....%%%%%%%%%%%%",
"%%%%%%%%%%%%%%%%........++++####################....%%%%%%%%%%%%",
"%%%%%%%%%%%%%%%%........++++####################....%%%%%%%%%%%%",
"%%%%%%%%%%%%%%%%%%%%....++++++++............oooo....%%%%%%%%%%%%",
"%%%%%%%%%%%%%%%%%%%%....++++++++............oooo....%%%%%%%%%%%%",
"%%%%%%%%%%%%%%%%%%%%....++++++++............oooo....%%%%%%%%%%%%",
"%%%%%%%%%%%%%%%%%%%%....++++++++............oooo....%%%%%%%%%%%%",
"%%%%%%%%%%%%$$$$$$$$    ++++....$$$$....OOOO....$$$$$$$$%%%%%%%%",
"%%%%%%%%%%%%$$$$$$$$    ++++....$$$$....OOOO....$$$$$$$$%%%%%%%%",
"%%%%%%%%%%%%$$$$$$$$    ++++....$$$$....OOOO....$$$$$$$$%%%%%%%%",
"%%%%%%%%%%%%$$$$$$$$    ++++....$$$$....OOOO....$$$$$$$$%%%%%%%%",
"%%%%%%%%$$$$$$$$$$$$........$$$$$$$$........$$$$$$$$$$$$$$$$%%%%",
"%%%%%%%%$$$$$$$$$$$$........$$$$$$$$........$$$$$$$$$$$$$$$$%%%%",
"%%%%%%%%$$$$$$$$$$$$........$$$$$$$$........$$$$$$$$$$$$$$$$%%%%",
"%%%%%%%%$$$$$$$$$$$$........$$$$$$$$........$$$$$$$$$$$$$$$$%%%%",
"%%%%%%%%$$$$$$$$$$$$$$$$$$$$$$$$$$$$$$$$$$$$$$$$$$$$$$$$$$$$%%%%",
"%%%%%%%%$$$$$$$$$$$$$$$$$$$$$$$$$$$$$$$$$$$$$$$$$$$$$$$$$$$$%%%%",
"%%%%%%%%$$$$$$$$$$$$$$$$$$$$$$$$$$$$$$$$$$$$$$$$$$$$$$$$$$$$%%%%",
"%%%%%%%%$$$$$$$$$$$$$$$$$$$$$$$$$$$$$$$$$$$$$$$$$$$$$$$$$$$$%%%%",
"%%%%%%%%%%%%$$$$$$$$$$$$$$$$$$$$$$$$$$$$$$$$$$$$$$$$$$$$%%%%%%%%",
"%%%%%%%%%%%%$$$$$$$$$$$$$$$$$$$$$$$$$$$$$$$$$$$$$$$$$$$$%%%%%%%%",
"%%%%%%%%%%%%$$$$$$$$$$$$$$$$$$$$$$$$$$$$$$$$$$$$$$$$$$$$%%%%%%%%",
"%%%%%%%%%%%%$$$$$$$$$$$$$$$$$$$$$$$$$$$$$$$$$$$$$$$$$$$$%%%%%%%%"
};
