/* XPM */
static char *result[] = {
/* columns rows colors chars-per-pixel */
"64 64 7 1 ",
"  c #060608",
". c #683E2C",
"X c #3A5124",
"o c #7E4C35",
"O c #4B692F",
"+ c #A5A5A5",
"@ c None",
/* pixels */
"@@@@@@@@@@@@@@@@@@@@@@@@@@@@@@@@@@@@@@@@@@@@@@@@@@@@@@@@@@@@@@@@",
"@@@@@@@@@@@@@@@@@@@@@@@@@@@@@@@@@@@@@@@@@@@@@@@@@@@@@@@@@@@@@@@@",
"@@@@@@@@@@@@@@@@@@@@@@@@@@@@@@@@@@@@@@@@@@@@@@@@@@@@@@@@@@@@@@@@",
"@@@@@@@@@@@@@@@@@@@@@@@@@@@@@@@@@@@@@@@@@@@@@@@@@@@@@@@@@@@@@@@@",
"@@@@@@@@@@@@@@@@@@@@@@@@                    @@@@@@@@@@@@@@@@@@@@",
"@@@@@@@@@@@@@@@@@@@@@@@@                    @@@@@@@@@@@@@@@@@@@@",
"@@@@@@@@@@@@@@@@@@@@@@@@                    @@@@@@@@@@@@@@@@@@@@",
"@@@@@@@@@@@@@@@@@@@@@@@@                    @@@@@@@@@@@@@@@@@@@@",
"@@@@@@@@@@@@@@@@@@@@    ....oooooooooooo....    @@@@@@@@@@@@@@@@",
"@@@@@@@@@@@@@@@@@@@@    ....oooooooooooo....    @@@@@@@@@@@@@@@@",
"@@@@@@@@@@@@@@@@@@@@    ....oooooooooooo....    @@@@@@@@@@@@@@@@",
"@@@@@@@@@@@@@@@@@@@@    ....oooooooooooo....    @@@@@@@@@@@@@@@@",
"@@@@@@@@@@@@@@@@    ....oooooooooooooooooooo....    @@@@@@@@@@@@",
"@@@@@@@@@@@@@@@@    ....oooooooooooooooooooo....    @@@@@@@@@@@@",
"@@@@@@@@@@@@@@@@    ....oooooooooooooooooooo....    @@@@@@@@@@@@",
"@@@@@@@@@@@@@@@@    ....oooooooooooooooooooo....    @@@@@@@@@@@@",
"@@@@@@@@@@@@    OOOOOOOOooooooooooooooooooooooooOOOO    @@@@@@@@",
"@@@@@@@@@@@@    OOOOOOOOooooooooooooooooooooooooOOOO    @@@@@@@@",
"@@@@@@@@@@@@    OOOOOOOOooooooooooooooooooooooooOOOO    @@@@@@@@",
"@@@@@@@@@@@@    OOOOOOOOooooooooooooooooooooooooOOOO    @@@@@@@@",
"@@@@@@@@    XXXXXXXXOOOOooooXXXXXXXXXXXXXXXXXXXXXXXXXXXX    @@@@",
"@@@@@@@@    XXXXXXXXOOOOooooXXXXXXXXXXXXXXXXXXXXXXXXXXXX    @@@@",
"@@@@@@@@    XXXXXXXXOOOOooooXXXXXXXXXXXXXXXXXXXXXXXXXXXX    @@@@",
"@@@@@@@@    XXXXXXXXOOOOooooXXXXXXXXXXXXXXXXXXXXXXXXXXXX    @@@@",
"@@@@@@@@        ....OOOO....XXXXXXXXXXXXXXXXXXXX            @@@@",
"@@@@@@@@        ....OOOO....XXXXXXXXXXXXXXXXXXXX            @@@@",
"@@@@@@@@        ....OOOO....XXXXXXXXXXXXXXXXXXXX            @@@@",
"@@@@@@@@        ....OOOO....XXXXXXXXXXXXXXXXXXXX            @@@@",
"@@@@@@@@@@@@    ....XXXXXXXXXXXXXXXXXXXXXXXXXXXX    @@@@@@@@@@@@",
"@@@@@@@@@@@@    ....XXXXXXXXXXXXXXXXXXXXXXXXXXXX    @@@@@@@@@@@@",
"@@@@@@@@@@@@    ....XXXXXXXXXXXXXXXXXXXXXXXXXXXX    @@@@@@@@@@@@",
"@@@@@@@@@@@@    ....XXXXXXXXXXXXXXXXXXXXXXXXXXXX    @@@@@@@@@@@@",
"@@@@@@@@@@@@    ........XXXXOOOO    OOOOOOOO        @@@@@@@@@@@@",
"@@@@@@@@@@@@    ........XXXXOOOO    OOOOOOOO        @@@@@@@@@@@@",
"@@@@@@@@@@@@    ........XXXXOOOO    OOOOOOOO        @@@@@@@@@@@@",
"@@@@@@@@@@@@    ........XXXXOOOO    OOOOOOOO        @@@@@@@@@@@@",
"@@@@@@@@@@@@    ........XXXXOOOOOOOOOOOOOOOOOOOO    @@@@@@@@@@@@",
"@@@@@@@@@@@@    ........XXXXOOOOOOOOOOOOOOOOOOOO    @@@@@@@@@@@@",
"@@@@@@@@@@@@    ........XXXXOOOOOOOOOOOOOOOOOOOO    @@@@@@@@@@@@",
"@@@@@@@@@@@@    ........XXXXOOOOOOOOOOOOOOOOOOOO    @@@@@@@@@@@@",
"@@@@@@@@@@@@@@@@    ....XXXXOOOOOOOOOOOOOOOOOOOO    @@@@@@@@@@@@",
"@@@@@@@@@@@@@@@@    ....XXXXOOOOOOOOOOOOOOOOOOOO    @@@@@@@@@@@@",
"@@@@@@@@@@@@@@@@    ....XXXXOOOOOOOOOOOOOOOOOOOO    @@@@@@@@@@@@",
"@@@@@@@@@@@@@@@@    ....XXXXOOOOOOOOOOOOOOOOOOOO    @@@@@@@@@@@@",
"@@@@@@@@@@@@@@@@@@@@    XXXXXXXX                @@@@@@@@@@@@@@@@",
"@@@@@@@@@@@@@@@@@@@@    XXXXXXXX                @@@@@@@@@@@@@@@@",
"@@@@@@@@@@@@@@@@@@@@    XXXXXXXX                @@@@@@@@@@@@@@@@",
"@@@@@@@@@@@@@@@@@@@@    XXXXXXXX                @@@@@@@@@@@@@@@@",
"@@@@@@@@@@@@++++++++    XXXX    ++++++++++++++++++++++++@@@@@@@@",
"@@@@@@@@@@@@++++++++    XXXX    ++++++++++++++++++++++++@@@@@@@@",
"@@@@@@@@@@@@++++++++    XXXX    ++++++++++++++++++++++++@@@@@@@@",
"@@@@@@@@@@@@++++++++    XXXX    ++++++++++++++++++++++++@@@@@@@@",
"@@@@@@@@++++++++++++        ++++++++++++++++++++++++++++++++@@@@",
"@@@@@@@@++++++++++++        ++++++++++++++++++++++++++++++++@@@@",
"@@@@@@@@++++++++++++        ++++++++++++++++++++++++++++++++@@@@",
"@@@@@@@@++++++++++++        ++++++++++++++++++++++++++++++++@@@@",
"@@@@@@@@++++++++++++++++++++++++++++++++++++++++++++++++++++@@@@",
"@@@@@@@@++++++++++++++++++++++++++++++++++++++++++++++++++++@@@@",
"@@@@@@@@++++++++++++++++++++++++++++++++++++++++++++++++++++@@@@",
"@@@@@@@@++++++++++++++++++++++++++++++++++++++++++++++++++++@@@@",
"@@@@@@@@@@@@++++++++++++++++++++++++++++++++++++++++++++@@@@@@@@",
"@@@@@@@@@@@@++++++++++++++++++++++++++++++++++++++++++++@@@@@@@@",
"@@@@@@@@@@@@++++++++++++++++++++++++++++++++++++++++++++@@@@@@@@",
"@@@@@@@@@@@@++++++++++++++++++++++++++++++++++++++++++++@@@@@@@@"
};
