/* XPM */
static char *result[] = {
/* columns rows colors chars-per-pixel */
"64 64 85 1 ",
"  c #B4840E",
". c #CC9D54",
"X c #CD9D54",
"o c #CF9E54",
"O c #CF9E55",
"+ c #CF9F55",
"@ c #D09F55",
"# c #D1A056",
"$ c #DCA85D",
"% c #DCA95D",
"& c #DCA85E",
"* c #DCA95E",
"= c #DCAA5E",
"- c #DDAA5E",
"; c #DDAA5F",
": c #DEAB5F",
"> c #DFAC60",
", c #DFB161",
"< c #E0AC60",
"1 c #E0AD61",
"2 c #E1AE61",
"3 c #E1AF61",
"4 c #E2AF62",
"5 c #E0B161",
"6 c #E2B062",
"7 c #E1B262",
"8 c #E1B363",
"9 c #E0B463",
"0 c #E1B463",
"q c #E5B464",
"w c #E6B465",
"e c #E4B664",
"r c #E4B764",
"t c #E7B665",
"y c #E7B666",
"u c #E8B666",
"i c #E8B766",
"p c #E9B865",
"a c #E9B866",
"s c #EAB867",
"d c #EAB967",
"f c #EABA67",
"g c #EABB67",
"h c #EAB968",
"j c #EBBA68",
"k c #EABB68",
"l c #EBBB68",
"z c #EABE68",
"x c #EABE69",
"c c #EABF69",
"v c #EDBC69",
"b c #EDBD69",
"n c #EDBE69",
"m c #EDBD6A",
"M c #EEBE6A",
"N c #EFBF6C",
"B c #EBC06A",
"V c #ECC06A",
"C c #ECC16A",
"Z c #EDC16A",
"A c #ECC16C",
"S c #EDC26C",
"D c #F0C06D",
"F c #F2C36D",
"G c #F2C46E",
"H c #F4C56F",
"J c #F5C570",
"K c #F5C670",
"L c #F5C770",
"P c #F6C770",
"I c #F6C871",
"U c #F7CA71",
"Y c #F7C972",
"T c #FACC73",
"R c #FACC74",
"E c #FACD74",
"W c #FBCE74",
"Q c #FCCE75",
"! c #FDCF75",
"~ c #FDCF76",
"^ c #FDD076",
"/ c #FED277",
"( c #FFD277",
") c #FFD378",
"_ c None",
/* pixels */
"________________________________________________________________",
"________________________________________________________________",
"________________________________________________________________",
"________________________________________________________________",
"________________________________________________________________",
"________________________________________________________________",
"________________________________________________________________",
"________________________________________________________________",
"________________________________________________________________",
"________________________________________________________________",
"________________________________________________________________",
"________________________________________________________________",
"________________________________________________________________",
"________________________________________________________________",
"________________________________________________________________",
"________________________________________________________________",
"__________________________            __________________________",
"_________________________ ==::::;:::%% _________________________",
"_________________________ ==::::;:::%% _________________________",
"_______________________   ;;:%%**==;::   _______________________",
"______________________ $$:::=##+@##=:::&& ______________________",
"______________________ **;;;*OOX.oo*;;:** ______________________",
"______________________ **;;;*OOX.oo*;;:** ______________________",
"______________________ %%:::*      *::-== ______________________",
"____________________   ::;::$  __  *;;:::   ____________________",
"___________________ **;;;:::*  __  *:::;;:** ___________________",
"___________________ **;;;:::*  __  *:::;;:** ___________________",
"___________________ ::><<<>>:  __  ;>>1<<>;; ___________________",
"___________________ 226664663  __  366666622 ___________________",
"___________________ qqtuuittu      ittyuutww ___________________",
"___________________ qqtuuittu      ittyuutww ___________________",
"___________________ pphddhhhdhhhdhhhddhssdaa ___________________",
"___________________ kkvmmvjjgkkfgfffllvbbmff ___________________",
"___________________ nnNDDM88,,,,555,77MDDNnn ___________________",
"___________________ nnNDDM88,,,,555,77MDDNnn ___________________",
"___________________ GGKJJFrr90000990eeGJJHGG ___________________",
"___________________ PPYYYL            LYYYII ___________________",
"_________________   RRTRRU  ________  UTTRRR   _________________",
"_________________   RRTRRU  ________  UTTRRR   _________________",
"________________ EE~QQ~!!E  ________  E~~~~~QEE ________________",
"________________ !!((()))!  ________  !((((((^^ ________________",
"________________ !!)(((//~  ________  ^//())(!! ________________",
"________________ !!)(((//~  ________  ^//())(!! ________________",
"________________ WW~^^!!!W  ________  W^^!~~^WW ________________",
"________________ VVCZZSCCV  ________  BZZZCCZAA ________________",
"________________ zzczzzccz  ________  cxxzcczzz ________________",
"________________ zzczzzccz  ________  cxxzcczzz ________________",
"_________________         ____________         _________________",
"________________________________________________________________",
"________________________________________________________________",
"________________________________________________________________",
"________________________________________________________________",
"________________________________________________________________",
"________________________________________________________________",
"________________________________________________________________",
"________________________________________________________________",
"________________________________________________________________",
"________________________________________________________________",
"________________________________________________________________",
"________________________________________________________________",
"________________________________________________________________",
"________________________________________________________________",
"________________________________________________________________",
"________________________________________________________________"
};
