/* XPM */
static char *result[] = {
/* columns rows colors chars-per-pixel */
"64 64 78 1 ",
"  c #B4840E",
". c #CC9C54",
"X c #CC9D54",
"o c #CD9D54",
"O c #CF9E54",
"+ c #CE9E55",
"@ c #CF9E55",
"# c #CF9F55",
"$ c #CF9F56",
"% c #D09F55",
"& c #D19F55",
"* c #D1A056",
"= c #DBA85D",
"- c #DCA85D",
"; c #DCA95D",
": c #DCA85E",
"> c #DCA95E",
", c #DCAA5E",
"< c #DDAA5E",
"1 c #DDAA5F",
"2 c #DEAB5F",
"3 c #DFAC60",
"4 c #E0AC60",
"5 c #E1AE61",
"6 c #E2B062",
"7 c #E5B464",
"8 c #E7B665",
"9 c #E8B666",
"0 c #E9B865",
"q c #E9B866",
"w c #EAB967",
"e c #EABA67",
"r c #EAB968",
"t c #EABB68",
"y c #E9BE68",
"u c #EABE68",
"i c #EABE69",
"p c #EABF69",
"a c #EDBC69",
"s c #EDBE69",
"d c #EDBD6A",
"f c #EFBF6C",
"g c #ECC06A",
"h c #ECC16A",
"j c #EDC16A",
"k c #EFC36B",
"l c #ECC06C",
"z c #ECC16C",
"x c #EDC26C",
"c c #EFC36D",
"v c #F2C36D",
"b c #F2C46E",
"n c #F5C670",
"m c #F5C770",
"M c #F6C870",
"N c #F7C971",
"B c #F7CA71",
"V c #F7C972",
"C c #F7CA72",
"Z c #F8C972",
"A c #F8CA72",
"S c #FACC74",
"D c #FACD74",
"F c #FACE74",
"G c #FBCE74",
"H c #FBCE75",
"J c #FCCE75",
"K c #FCCF75",
"L c #FDCF75",
"P c #FDCF76",
"I c #FDD076",
"U c #FED076",
"Y c #FED177",
"T c #FED277",
"R c #FFD277",
"E c #FFD278",
"W c #FFD378",
"Q c None",
/* pixels */
"QQQQQQQQQQQQQQQQQQQQQQQQQQQQQQQQQQQQQQQQQQQQQQQQQQQQQQQQQQQQQQQQ",
"QQQQQQQQQQQQQQQQQQQQQQQQQQQQQQQQQQQQQQQQQQQQQQQQQQQQQQQQQQQQQQQQ",
"QQQQQQQQQQQQQQQQQQQQQQQQQQQQQQQQQQQQQQQQQQQQQQQQQQQQQQQQQQQQQQQQ",
"QQQQQQQQQQQQQQQQQQQQQQQQQQQQQQQQQQQQQQQQQQQQQQQQQQQQQQQQQQQQQQQQ",
"QQQQQQQQQQQQQQQQQQQQQQQQQQQQQQQQQQQQQQQQQQQQQQQQQQQQQQQQQQQQQQQQ",
"QQQQQQQQQQQQQQQQQQQQQQQQQQQQQQQQQQQQQQQQQQQQQQQQQQQQQQQQQQQQQQQQ",
"QQQQQQQQQQQQQQQQQQQQQQQQQQQQQQQQQQQQQQQQQQQQQQQQQQQQQQQQQQQQQQQQ",
"QQQQQQQQQQQQQQQQQQQQQQQQQQQQQQQQQQQQQQQQQQQQQQQQQQQQQQQQQQQQQQQQ",
"QQQQQQQQQQQQQQQQQQQQQQQQQQQQQQQQQQQQQQQQQQQQQQQQQQQQQQQQQQQQQQQQ",
"QQQQQQQQQQQQQQQQQQQQQQQQQQQQQQQQQQQQQQQQQQQQQQQQQQQQQQQQQQQQQQQQ",
"QQQQQQQQQQQQQQQQQQQQQQQQQQQQQQQQQQQQQQQQQQQQQQQQQQQQQQQQQQQQQQQQ",
"QQQQQQQQQQQQQQQQQQQQQQQQQQQQQQQQQQQQQQQQQQQQQQQQQQQQQQQQQQQQQQQQ",
"QQQQQQQQQQQQQQQQQQQQQQQQQQQQQQQQQQQQQQQQQQQQQQQQQQQQQQQQQQQQQQQQ",
"QQQQQQQQQQQQQQQQQQQQQQQQQQQQQQQQQQQQQQQQQQQQQQQQQQQQQQQQQQQQQQQQ",
"QQQQQQQQQQQQQQQQQQQQQQQQQQQQQQQQQQQQQQQQQQQQQQQQQQQQQQQQQQQQQQQQ",
"QQQQQQQQQQQQQQQQQQQQQQQQQQQQQQQQQQQQQQQQQQQQQQQQQQQQQQQQQQQQQQQQ",
"QQQQQQQQQQQQQQQQQQQQQ                      QQQQQQQQQQQQQQQQQQQQQ",
"QQQQQQQQQQQQQQQQQQQQ ;;222222222222212222;; QQQQQQQQQQQQQQQQQQQQ",
"QQQQQQQQQQQQQQQQQQQQ ;;222222222222212222;; QQQQQQQQQQQQQQQQQQQQ",
"QQQQQQQQQQQQQQQQQQ   2222,,>::>>-->>>,,1122   QQQQQQQQQQQQQQQQQQ",
"QQQQQQQQQQQQQQQQ  ::211,,&&%%%%%%%##%**,,222::  QQQQQQQQQQQQQQQQ",
"QQQQQQQQQQQQQQQQ  >>222>>%%XXXoo..ooXOO>>112>>  QQQQQQQQQQQQQQQQ",
"QQQQQQQQQQQQQQQQ  >>222>>%%XXXoo..ooXOO>>112>>  QQQQQQQQQQQQQQQQ",
"QQQQQQQQQQQQQQQQ  >><11>>              >>22<>>  QQQQQQQQQQQQQQQQ",
"QQQQQQQQQQQQQQQQ  >>211>>  QQQQQQQQQQ  ==::>==  QQQQQQQQQQQQQQQQ",
"QQQQQQQQQQQQQQQQ  >>222>>  QQQQQQQQQQ  @@%%%++  QQQQQQQQQQQQQQQQ",
"QQQQQQQQQQQQQQQQ  >>222>>  QQQQQQQQQQ  @@%%%++  QQQQQQQQQQQQQQQQ",
"QQQQQQQQQQQQQQQQ  1134411  QQQQQQQQQQ  ++++$@@  QQQQQQQQQQQQQQQQ",
"QQQQQQQQQQQQQQQQ  5566655  QQQQQQQQQQQQ       QQQQQQQQQQQQQQQQQQ",
"QQQQQQQQQQQQQQQQ  7798877  QQQQQQQQQQQQQQQQQQQQQQQQQQQQQQQQQQQQQ",
"QQQQQQQQQQQQQQQQ  7798877  QQQQQQQQQQQQQQQQQQQQQQQQQQQQQQQQQQQQQ",
"QQQQQQQQQQQQQQQQ  00rwwqq  QQQQQQQQQQQQQQQQQQQQQQQQQQQQQQQQQQQQQ",
"QQQQQQQQQQQQQQQQ  ttaddee  QQQQQQQQQQQQQQQQQQQQQQQQQQQQQQQQQQQQQ",
"QQQQQQQQQQQQQQQQ  ssfffss  QQQQQQQQQQQQQQQQQQQQQQQQQQQQQQQQQQQQQ",
"QQQQQQQQQQQQQQQQ  ssfffss  QQQQQQQQQQQQQQQQQQQQQQQQQQQQQQQQQQQQQ",
"QQQQQQQQQQQQQQQQ  vvnnnbb  QQQQQQQQQQQQ       QQQQQQQQQQQQQQQQQQ",
"QQQQQQQQQQQQQQQQ  mmZNNmm  QQQQQQQQQQ  MMVVVmm  QQQQQQQQQQQQQQQQ",
"QQQQQQQQQQQQQQQQ  CCSSSBB  QQQQQQQQQQ  BBSSAMM  QQQQQQQQQQQQQQQQ",
"QQQQQQQQQQQQQQQQ  CCSSSBB  QQQQQQQQQQ  BBSSAMM  QQQQQQQQQQQQQQQQ",
"QQQQQQQQQQQQQQQQ  DDPJJHH  QQQQQQQQQQ  HHDDjii  QQQQQQQQQQQQQQQQ",
"QQQQQQQQQQQQQQQQ  GGURRWW              LLHHguu  QQQQQQQQQQQQQQQQ",
"QQQQQQQQQQQQQQQQ  ggcUURRTTERRWWWWRRRYYkkzz   QQQQQQQQQQQQQQQQQQ",
"QQQQQQQQQQQQQQQQ  ggcUURRTTERRWWWWRRRYYkkzz   QQQQQQQQQQQQQQQQQQ",
"QQQQQQQQQQQQQQQQ  uulHHLLLLLLLPPKKIILFFgguu QQQQQQQQQQQQQQQQQQQQ",
"QQQQQQQQQQQQQQQQQQ   ggxxhhjxxjjjjjjxgg    QQQQQQQQQQQQQQQQQQQQQ",
"QQQQQQQQQQQQQQQQQQQQ uuuuppuppyyppuuyuu  QQQQQQQQQQQQQQQQQQQQQQQ",
"QQQQQQQQQQQQQQQQQQQQ uuuuppuppyyppuuyuu  QQQQQQQQQQQQQQQQQQQQQQQ",
"QQQQQQQQQQQQQQQQQQQQQ                  QQQQQQQQQQQQQQQQQQQQQQQQQ",
"QQQQQQQQQQQQQQQQQQQQQQQQQQQQQQQQQQQQQQQQQQQQQQQQQQQQQQQQQQQQQQQQ",
"QQQQQQQQQQQQQQQQQQQQQQQQQQQQQQQQQQQQQQQQQQQQQQQQQQQQQQQQQQQQQQQQ",
"QQQQQQQQQQQQQQQQQQQQQQQQQQQQQQQQQQQQQQQQQQQQQQQQQQQQQQQQQQQQQQQQ",
"QQQQQQQQQQQQQQQQQQQQQQQQQQQQQQQQQQQQQQQQQQQQQQQQQQQQQQQQQQQQQQQQ",
"QQQQQQQQQQQQQQQQQQQQQQQQQQQQQQQQQQQQQQQQQQQQQQQQQQQQQQQQQQQQQQQQ",
"QQQQQQQQQQQQQQQQQQQQQQQQQQQQQQQQQQQQQQQQQQQQQQQQQQQQQQQQQQQQQQQQ",
"QQQQQQQQQQQQQQQQQQQQQQQQQQQQQQQQQQQQQQQQQQQQQQQQQQQQQQQQQQQQQQQQ",
"QQQQQQQQQQQQQQQQQQQQQQQQQQQQQQQQQQQQQQQQQQQQQQQQQQQQQQQQQQQQQQQQ",
"QQQQQQQQQQQQQQQQQQQQQQQQQQQQQQQQQQQQQQQQQQQQQQQQQQQQQQQQQQQQQQQQ",
"QQQQQQQQQQQQQQQQQQQQQQQQQQQQQQQQQQQQQQQQQQQQQQQQQQQQQQQQQQQQQQQQ",
"QQQQQQQQQQQQQQQQQQQQQQQQQQQQQQQQQQQQQQQQQQQQQQQQQQQQQQQQQQQQQQQQ",
"QQQQQQQQQQQQQQQQQQQQQQQQQQQQQQQQQQQQQQQQQQQQQQQQQQQQQQQQQQQQQQQQ",
"QQQQQQQQQQQQQQQQQQQQQQQQQQQQQQQQQQQQQQQQQQQQQQQQQQQQQQQQQQQQQQQQ",
"QQQQQQQQQQQQQQQQQQQQQQQQQQQQQQQQQQQQQQQQQQQQQQQQQQQQQQQQQQQQQQQQ",
"QQQQQQQQQQQQQQQQQQQQQQQQQQQQQQQQQQQQQQQQQQQQQQQQQQQQQQQQQQQQQQQQ",
"QQQQQQQQQQQQQQQQQQQQQQQQQQQQQQQQQQQQQQQQQQQQQQQQQQQQQQQQQQQQQQQQ"
};
