/* XPM */
static char *result[] = {
/* columns rows colors chars-per-pixel */
"64 64 76 1 ",
"  c #B4840E",
". c #CC9C53",
"X c #CC9C54",
"o c #CC9D54",
"O c #CD9D54",
"+ c #CE9D55",
"@ c #CF9F55",
"# c #D09F55",
"$ c #D19F55",
"% c #DAA85D",
"& c #DAAB5D",
"* c #DBAB5D",
"= c #DAAB5E",
"- c #DBAB5E",
"; c #DCA85D",
": c #DCA85E",
"> c #DCA95E",
", c #DCAA5E",
"< c #DDAA5E",
"1 c #DDAA5F",
"2 c #DEAB5F",
"3 c #DAAC5E",
"4 c #DCAD5E",
"5 c #DFAC60",
"6 c #DCAF60",
"7 c #E0AC60",
"8 c #E1AE61",
"9 c #E1AF61",
"0 c #E2AF62",
"q c #E2B062",
"w c #E3B263",
"e c #E5B464",
"r c #E6B465",
"t c #E6B565",
"y c #E7B665",
"u c #E8B666",
"i c #E9B865",
"p c #E9B867",
"a c #EAB967",
"s c #EABA67",
"d c #EAB968",
"f c #EABB68",
"g c #E9BE68",
"h c #EABE68",
"j c #EABE69",
"k c #EABF69",
"l c #EDBC69",
"z c #EDBE69",
"x c #EDBD6A",
"c c #EFBF6C",
"v c #ECC06A",
"b c #ECC16A",
"n c #EDC16A",
"m c #EDC26C",
"M c #F2C36D",
"N c #F2C46E",
"B c #F5C670",
"V c #F5C770",
"C c #F7C971",
"Z c #F7CA71",
"A c #F7CA72",
"S c #F8C972",
"D c #FACC74",
"F c #FACD74",
"G c #FBCE74",
"H c #FBCE75",
"J c #FCCE75",
"K c #FCCF75",
"L c #FDCF75",
"P c #FDCF76",
"I c #FDD076",
"U c #FED277",
"Y c #FFD277",
"T c #FFD278",
"R c #FFD378",
"E c None",
/* pixels */
"EEEEEEEEEEEEEEEEEEEEEEEEEEEEEEEEEEEEEEEEEEEEEEEEEEEEEEEEEEEEEEEE",
"EEEEEEEEEEEEEEEEEEEEEEEEEEEEEEEEEEEEEEEEEEEEEEEEEEEEEEEEEEEEEEEE",
"EEEEEEEEEEEEEEEEEEEEEEEEEEEEEEEEEEEEEEEEEEEEEEEEEEEEEEEEEEEEEEEE",
"EEEEEEEEEEEEEEEEEEEEEEEEEEEEEEEEEEEEEEEEEEEEEEEEEEEEEEEEEEEEEEEE",
"EEEEEEEEEEEEEEEEEEEEEEEEEEEEEEEEEEEEEEEEEEEEEEEEEEEEEEEEEEEEEEEE",
"EEEEEEEEEEEEEEEEEEEEEEEEEEEEEEEEEEEEEEEEEEEEEEEEEEEEEEEEEEEEEEEE",
"EEEEEEEEEEEEEEEEEEEEEEEEEEEEEEEEEEEEEEEEEEEEEEEEEEEEEEEEEEEEEEEE",
"EEEEEEEEEEEEEEEEEEEEEEEEEEEEEEEEEEEEEEEEEEEEEEEEEEEEEEEEEEEEEEEE",
"EEEEEEEEEEEEEEEEEEEEEEEEEEEEEEEEEEEEEEEEEEEEEEEEEEEEEEEEEEEEEEEE",
"EEEEEEEEEEEEEEEEEEEEEEEEEEEEEEEEEEEEEEEEEEEEEEEEEEEEEEEEEEEEEEEE",
"EEEEEEEEEEEEEEEEEEEEEEEEEEEEEEEEEEEEEEEEEEEEEEEEEEEEEEEEEEEEEEEE",
"EEEEEEEEEEEEEEEEEEEEEEEEEEEEEEEEEEEEEEEEEEEEEEEEEEEEEEEEEEEEEEEE",
"EEEEEEEEEEEEEEEEEEEEEEEEEEEEEEEEEEEEEEEEEEEEEEEEEEEEEEEEEEEEEEEE",
"EEEEEEEEEEEEEEEEEEEEEEEEEEEEEEEEEEEEEEEEEEEEEEEEEEEEEEEEEEEEEEEE",
"EEEEEEEEEEEEEEEEEEEEEEEEEEEEEEEEEEEEEEEEEEEEEEEEEEEEEEEEEEEEEEEE",
"EEEEEEEEEEEEEEEEEEEEEEEEEEEEEEEEEEEEEEEEEEEEEEEEEEEEEEEEEEEEEEEE",
"EEEEEEEEEEEEEEEEEE                            EEEEEEEEEEEEEEEEEE",
"EEEEEEEEEEEEEEEE  >>2<<222222222222212222<<2>>  EEEEEEEEEEEEEEEE",
"EEEEEEEEEEEEEEEE  >>2<<222222222222212222<<2>>  EEEEEEEEEEEEEEEE",
"EEEEEEEEEEEEEEEE  >>12222,,>::>>;;>>>>>::>>>%%  EEEEEEEEEEEEEEEE",
"EEEEEEEEEEEEEEEE  ::211,,$$#######@@###@@###++  EEEEEEEEEEEEEEEE",
"EEEEEEEEEEEEEEEE  >>222>>##oooOOXXOOo..OOooOOO  EEEEEEEEEEEEEEEE",
"EEEEEEEEEEEEEEEE  >>222>>##oooOOXXOOo..OOooOOO  EEEEEEEEEEEEEEEE",
"EEEEEEEEEEEEEEEE  >><11>>                     EEEEEEEEEEEEEEEEEE",
"EEEEEEEEEEEEEEEE  >>211>>  EEEEEEEEEEEEEEEEEEEEEEEEEEEEEEEEEEEEE",
"EEEEEEEEEEEEEEEE  >>222,,  EEEEEEEEEEEEEEEEEEEEEEEEEEEEEEEEEEEEE",
"EEEEEEEEEEEEEEEE  >>222,,  EEEEEEEEEEEEEEEEEEEEEEEEEEEEEEEEEEEEE",
"EEEEEEEEEEEEEEEE  1157755                  EEEEEEEEEEEEEEEEEEEEE",
"EEEEEEEEEEEEEEEE  88qqqqqqq0qqqq99qqqqqqq88 EEEEEEEEEEEEEEEEEEEE",
"EEEEEEEEEEEEEEEE  eeuyyyyrrteerreerreeettww EEEEEEEEEEEEEEEEEEEE",
"EEEEEEEEEEEEEEEE  eeuyyyyrrteerreerreeettww EEEEEEEEEEEEEEEEEEEE",
"EEEEEEEEEEEEEEEE  iidaapp44---**----*----&& EEEEEEEEEEEEEEEEEEEE",
"EEEEEEEEEEEEEEEE  fflxxss66===3333==3====33 EEEEEEEEEEEEEEEEEEEE",
"EEEEEEEEEEEEEEEE  zzccczz                  EEEEEEEEEEEEEEEEEEEEE",
"EEEEEEEEEEEEEEEE  zzccczz                  EEEEEEEEEEEEEEEEEEEEE",
"EEEEEEEEEEEEEEEE  MMBBBNN  EEEEEEEEEEEEEEEEEEEEEEEEEEEEEEEEEEEEE",
"EEEEEEEEEEEEEEEE  VVSCCVV  EEEEEEEEEEEEEEEEEEEEEEEEEEEEEEEEEEEEE",
"EEEEEEEEEEEEEEEE  AADDDZZ  EEEEEEEEEEEEEEEEEEEEEEEEEEEEEEEEEEEEE",
"EEEEEEEEEEEEEEEE  AADDDZZ  EEEEEEEEEEEEEEEEEEEEEEEEEEEEEEEEEEEEE",
"EEEEEEEEEEEEEEEE  FFPJJHH  EEEEEEEEEEEEEEEEEEEEEEEEEEEEEEEEEEEEE",
"EEEEEEEEEEEEEEEE  LLYYYRR                     EEEEEEEEEEEEEEEEEE",
"EEEEEEEEEEEEEEEE  LLRYYYYUUTYYRRRRYYYRRYYRRRKK  EEEEEEEEEEEEEEEE",
"EEEEEEEEEEEEEEEE  LLRYYYYUUTYYRRRRYYYRRYYRRRKK  EEEEEEEEEEEEEEEE",
"EEEEEEEEEEEEEEEE  GGPIILLLLLLLPPKKIILKKLLLLLHH  EEEEEEEEEEEEEEEE",
"EEEEEEEEEEEEEEEE  vvbnnmmbbnmmnnnnnnmnnmmnnbvv  EEEEEEEEEEEEEEEE",
"EEEEEEEEEEEEEEEE  hhkhhhhkkhkkggkkhhghhjjhhkjj  EEEEEEEEEEEEEEEE",
"EEEEEEEEEEEEEEEE  hhkhhhhkkhkkggkkhhghhjjhhkjj  EEEEEEEEEEEEEEEE",
"EEEEEEEEEEEEEEEEEE                            EEEEEEEEEEEEEEEEEE",
"EEEEEEEEEEEEEEEEEEEEEEEEEEEEEEEEEEEEEEEEEEEEEEEEEEEEEEEEEEEEEEEE",
"EEEEEEEEEEEEEEEEEEEEEEEEEEEEEEEEEEEEEEEEEEEEEEEEEEEEEEEEEEEEEEEE",
"EEEEEEEEEEEEEEEEEEEEEEEEEEEEEEEEEEEEEEEEEEEEEEEEEEEEEEEEEEEEEEEE",
"EEEEEEEEEEEEEEEEEEEEEEEEEEEEEEEEEEEEEEEEEEEEEEEEEEEEEEEEEEEEEEEE",
"EEEEEEEEEEEEEEEEEEEEEEEEEEEEEEEEEEEEEEEEEEEEEEEEEEEEEEEEEEEEEEEE",
"EEEEEEEEEEEEEEEEEEEEEEEEEEEEEEEEEEEEEEEEEEEEEEEEEEEEEEEEEEEEEEEE",
"EEEEEEEEEEEEEEEEEEEEEEEEEEEEEEEEEEEEEEEEEEEEEEEEEEEEEEEEEEEEEEEE",
"EEEEEEEEEEEEEEEEEEEEEEEEEEEEEEEEEEEEEEEEEEEEEEEEEEEEEEEEEEEEEEEE",
"EEEEEEEEEEEEEEEEEEEEEEEEEEEEEEEEEEEEEEEEEEEEEEEEEEEEEEEEEEEEEEEE",
"EEEEEEEEEEEEEEEEEEEEEEEEEEEEEEEEEEEEEEEEEEEEEEEEEEEEEEEEEEEEEEEE",
"EEEEEEEEEEEEEEEEEEEEEEEEEEEEEEEEEEEEEEEEEEEEEEEEEEEEEEEEEEEEEEEE",
"EEEEEEEEEEEEEEEEEEEEEEEEEEEEEEEEEEEEEEEEEEEEEEEEEEEEEEEEEEEEEEEE",
"EEEEEEEEEEEEEEEEEEEEEEEEEEEEEEEEEEEEEEEEEEEEEEEEEEEEEEEEEEEEEEEE",
"EEEEEEEEEEEEEEEEEEEEEEEEEEEEEEEEEEEEEEEEEEEEEEEEEEEEEEEEEEEEEEEE",
"EEEEEEEEEEEEEEEEEEEEEEEEEEEEEEEEEEEEEEEEEEEEEEEEEEEEEEEEEEEEEEEE",
"EEEEEEEEEEEEEEEEEEEEEEEEEEEEEEEEEEEEEEEEEEEEEEEEEEEEEEEEEEEEEEEE"
};
