/* XPM */
static char *result[] = {
/* columns rows colors chars-per-pixel */
"64 64 65 1 ",
"  c #B4840E",
". c #D1A056",
"X c #D1A157",
"o c #D3A157",
"O c #D3A358",
"+ c #DAA75C",
"@ c #DBA85D",
"# c #DCA85D",
"$ c #DCA95D",
"% c #DCA85E",
"& c #DCA95E",
"* c #DCAA5E",
"= c #DDAA5E",
"- c #DDAA5F",
"; c #DDAB5F",
": c #DEAB5F",
"> c #DEAC5F",
", c #DEB060",
"< c #DEB161",
"1 c #DFB161",
"2 c #DFB162",
"3 c #E0AC60",
"4 c #E1AE61",
"5 c #E2AF62",
"6 c #E2B062",
"7 c #E3B163",
"8 c #E3B263",
"9 c #E5B264",
"0 c #E5B364",
"q c #E5B464",
"w c #E6B565",
"e c #E7B665",
"r c #E8B666",
"t c #E9B865",
"y c #E9B866",
"u c #E9B966",
"i c #EAB967",
"p c #EABA67",
"a c #EAB968",
"s c #EABB68",
"d c #E9BE68",
"f c #EABE68",
"g c #EABF69",
"h c #EBC06A",
"j c #ECC06A",
"k c #EDC16A",
"l c #EFC36B",
"z c #ECC06C",
"x c #ECC16C",
"c c #EDC16C",
"v c #F8CA73",
"b c #F9CA73",
"n c #FACC73",
"m c #FACE74",
"M c #FBCE74",
"N c #FBCE75",
"B c #FCCF75",
"V c #FDCF75",
"C c #FDCF76",
"Z c #FED077",
"A c #FED177",
"S c #FED277",
"D c #FFD277",
"F c #FFD378",
"G c None",
/* pixels */
"GGGGGGGGGGGGGGGGGGGGGGGGGGGGGGGGGGGGGGGGGGGGGGGGGGGGGGGGGGGGGGGG",
"GGGGGGGGGGGGGGGGGGGGGGGGGGGGGGGGGGGGGGGGGGGGGGGGGGGGGGGGGGGGGGGG",
"GGGGGGGGGGGGGGGGGGGGGGGGGGGGGGGGGGGGGGGGGGGGGGGGGGGGGGGGGGGGGGGG",
"GGGGGGGGGGGGGGGGGGGGGGGGGGGGGGGGGGGGGGGGGGGGGGGGGGGGGGGGGGGGGGGG",
"GGGGGGGGGGGGGGGGGGGGGGGGGGGGGGGGGGGGGGGGGGGGGGGGGGGGGGGGGGGGGGGG",
"GGGGGGGGGGGGGGGGGGGGGGGGGGGGGGGGGGGGGGGGGGGGGGGGGGGGGGGGGGGGGGGG",
"GGGGGGGGGGGGGGGGGGGGGGGGGGGGGGGGGGGGGGGGGGGGGGGGGGGGGGGGGGGGGGGG",
"GGGGGGGGGGGGGGGGGGGGGGGGGGGGGGGGGGGGGGGGGGGGGGGGGGGGGGGGGGGGGGGG",
"GGGGGGGGGGGGGGGGGGGGGGGGGGGGGGGGGGGGGGGGGGGGGGGGGGGGGGGGGGGGGGGG",
"GGGGGGGGGGGGGGGGGGGGGGGGGGGGGGGGGGGGGGGGGGGGGGGGGGGGGGGGGGGGGGGG",
"GGGGGGGGGGGGGGGGGGGGGGGGGGGGGGGGGGGGGGGGGGGGGGGGGGGGGGGGGGGGGGGG",
"GGGGGGGGGGGGGGGGGGGGGGGGGGGGGGGGGGGGGGGGGGGGGGGGGGGGGGGGGGGGGGGG",
"GGGGGGGGGGGGGGGGGGGGGGGGGGGGGGGGGGGGGGGGGGGGGGGGGGGGGGGGGGGGGGGG",
"GGGGGGGGGGGGGGGGGGGGGGGGGGGGGGGGGGGGGGGGGGGGGGGGGGGGGGGGGGGGGGGG",
"GGGGGGGGGGGGGGGGGGGGGGGGGGGGGGGGGGGGGGGGGGGGGGGGGGGGGGGGGGGGGGGG",
"GGGGGGGGGGGGGGGGGGGGGGGGGGGGGGGGGGGGGGGGGGGGGGGGGGGGGGGGGGGGGGGG",
"GGGGGGGGGGGGGGGGGGGGGGGGGG            GGGGGGGGGGGGGGGGGGGGGGGGGG",
"GGGGGGGGGGGGGGGGGGGGGG    $$$::::::***    GGGGGGGGGGGGGGGGGGGGGG",
"GGGGGGGGGGGGGGGGGGG       :::::::::---       GGGGGGGGGGGGGGGGGGG",
"GGGGGGGGGGGGGGGG   %%%::::------===:::::::&&&   GGGGGGGGGGGGGGGG",
"GGGGGGGGGGGGGGGG   %%%::::------===:::::::&&&   GGGGGGGGGGGGGGGG",
"GGGGGGGGGGGGGGGG   &&&:::::::::::::-------&&&   GGGGGGGGGGGGGGGG",
"GGGGGGGGGGGGGGGG   &&&====---:::===:::::::&&&   GGGGGGGGGGGGGGGG",
"GGGGGGGGGGGGGGGG   &&&::::---::::::---::::###   GGGGGGGGGGGGGGGG",
"GGGGGGGGGGGGGGGG   &&&:::::::------:::::::&&&   GGGGGGGGGGGGGGGG",
"GGGGGGGGGGGGGGGG   +++****:::===::::::****@@@   GGGGGGGGGGGGGGGG",
"GGGGGGGGGGGGGGGG   ...oooo>>>333333;;;ooooXXX   GGGGGGGGGGGGGGGG",
"GGGGGGGGGGGGGGGG   XXXOOOO444555666444OOOOXXX   GGGGGGGGGGGGGGGG",
"GGGGGGGGGGGGGGGG   XXXOOOO444555666444OOOOXXX   GGGGGGGGGGGGGGGG",
"GGGGGGGGGGGGGGGGGGG       777000999888       GGGGGGGGGGGGGGGGGGG",
"GGGGGGGGGGGGGGGGGGGGGG    wwweeerrrqqq    GGGGGGGGGGGGGGGGGGGGGG",
"GGGGGGGGGGGGGGGGGGGGGG    tttiiiaaayyy    GGGGGGGGGGGGGGGGGGGGGG",
"GGGGGGGGGGGGGGGGGGGGGG    uuussspppyyy    GGGGGGGGGGGGGGGGGGGGGG",
"GGGGGGGGGGGGGGGGGGGGGG    ,,,111111,,,    GGGGGGGGGGGGGGGGGGGGGG",
"GGGGGGGGGGGGGGGGGGGGGG    111<<<222<<<    GGGGGGGGGGGGGGGGGGGGGG",
"GGGGGGGGGGGGGGGGGGGGGGGGGG            GGGGGGGGGGGGGGGGGGGGGGGGGG",
"GGGGGGGGGGGGGGGGGGGGGGGGGG            GGGGGGGGGGGGGGGGGGGGGGGGGG",
"GGGGGGGGGGGGGGGGGGGGGGGGGG            GGGGGGGGGGGGGGGGGGGGGGGGGG",
"GGGGGGGGGGGGGGGGGGGGGG    vvvnnnnnnbbb    GGGGGGGGGGGGGGGGGGGGGG",
"GGGGGGGGGGGGGGGGGGG       CCCCCCCCCVVV       GGGGGGGGGGGGGGGGGGG",
"GGGGGGGGGGGGGGGG   VVVSSSSDDDFFFSSSDDDFFFFVVV   GGGGGGGGGGGGGGGG",
"GGGGGGGGGGGGGGGG   MMMAAAADDDDDDFFFDDDAAAAmmm   GGGGGGGGGGGGGGGG",
"GGGGGGGGGGGGGGGG   xxxllllAAADDDDDDZZZllllzzz   GGGGGGGGGGGGGGGG",
"GGGGGGGGGGGGGGGG   dddjjjjMMMBBBVVVNNNjjjjfff   GGGGGGGGGGGGGGGG",
"GGGGGGGGGGGGGGGG   dddjjjjMMMBBBVVVNNNjjjjfff   GGGGGGGGGGGGGGGG",
"GGGGGGGGGGGGGGGGGGG       xxxccckkkhhh       GGGGGGGGGGGGGGGGGGG",
"GGGGGGGGGGGGGGGGGGGGGG    ffffffgggggg    GGGGGGGGGGGGGGGGGGGGGG",
"GGGGGGGGGGGGGGGGGGGGGGGGGG            GGGGGGGGGGGGGGGGGGGGGGGGGG",
"GGGGGGGGGGGGGGGGGGGGGGGGGGGGGGGGGGGGGGGGGGGGGGGGGGGGGGGGGGGGGGGG",
"GGGGGGGGGGGGGGGGGGGGGGGGGGGGGGGGGGGGGGGGGGGGGGGGGGGGGGGGGGGGGGGG",
"GGGGGGGGGGGGGGGGGGGGGGGGGGGGGGGGGGGGGGGGGGGGGGGGGGGGGGGGGGGGGGGG",
"GGGGGGGGGGGGGGGGGGGGGGGGGGGGGGGGGGGGGGGGGGGGGGGGGGGGGGGGGGGGGGGG",
"GGGGGGGGGGGGGGGGGGGGGGGGGGGGGGGGGGGGGGGGGGGGGGGGGGGGGGGGGGGGGGGG",
"GGGGGGGGGGGGGGGGGGGGGGGGGGGGGGGGGGGGGGGGGGGGGGGGGGGGGGGGGGGGGGGG",
"GGGGGGGGGGGGGGGGGGGGGGGGGGGGGGGGGGGGGGGGGGGGGGGGGGGGGGGGGGGGGGGG",
"GGGGGGGGGGGGGGGGGGGGGGGGGGGGGGGGGGGGGGGGGGGGGGGGGGGGGGGGGGGGGGGG",
"GGGGGGGGGGGGGGGGGGGGGGGGGGGGGGGGGGGGGGGGGGGGGGGGGGGGGGGGGGGGGGGG",
"GGGGGGGGGGGGGGGGGGGGGGGGGGGGGGGGGGGGGGGGGGGGGGGGGGGGGGGGGGGGGGGG",
"GGGGGGGGGGGGGGGGGGGGGGGGGGGGGGGGGGGGGGGGGGGGGGGGGGGGGGGGGGGGGGGG",
"GGGGGGGGGGGGGGGGGGGGGGGGGGGGGGGGGGGGGGGGGGGGGGGGGGGGGGGGGGGGGGGG",
"GGGGGGGGGGGGGGGGGGGGGGGGGGGGGGGGGGGGGGGGGGGGGGGGGGGGGGGGGGGGGGGG",
"GGGGGGGGGGGGGGGGGGGGGGGGGGGGGGGGGGGGGGGGGGGGGGGGGGGGGGGGGGGGGGGG",
"GGGGGGGGGGGGGGGGGGGGGGGGGGGGGGGGGGGGGGGGGGGGGGGGGGGGGGGGGGGGGGGG",
"GGGGGGGGGGGGGGGGGGGGGGGGGGGGGGGGGGGGGGGGGGGGGGGGGGGGGGGGGGGGGGGG"
};
