/* XPM */
static char *result[] = {
/* columns rows colors chars-per-pixel */
"64 64 91 1 ",
"  c #B4840E",
". c #CC9C53",
"X c #CC9C54",
"o c #CC9D54",
"O c #CD9D54",
"+ c #CE9E55",
"@ c #CF9E55",
"# c #D09F55",
"$ c #D19F55",
"% c #D0A056",
"& c #D1A056",
"* c #D2A258",
"= c #D5A45A",
"- c #D5A65A",
"; c #D7A85B",
": c #DAA85D",
"> c #DAAB5D",
", c #DBAB5D",
"< c #DAAB5E",
"1 c #DBAB5E",
"2 c #DCA85D",
"3 c #DCA95D",
"4 c #DCA85E",
"5 c #DCA95E",
"6 c #DCAA5E",
"7 c #DDAA5E",
"8 c #DDAA5F",
"9 c #DDAB5F",
"0 c #DEAB5F",
"q c #DAAC5E",
"w c #DCAD5F",
"e c #DFB161",
"r c #E0AC60",
"t c #E1AF61",
"y c #E2AF62",
"u c #E2B062",
"i c #E1B363",
"p c #E4B263",
"a c #E1B463",
"s c #E3B664",
"d c #E5B464",
"f c #E6B465",
"g c #E6B565",
"h c #E9B866",
"j c #E9B966",
"k c #EAB968",
"l c #EBBA68",
"z c #E9BE68",
"x c #EABE68",
"c c #EABE69",
"v c #EABF69",
"b c #EDBC69",
"n c #EDBD69",
"m c #EEBE6A",
"M c #EFBF6C",
"N c #F0BF6B",
"B c #EBC06A",
"V c #ECC06A",
"C c #ECC16A",
"Z c #EDC16A",
"A c #ECC06C",
"S c #EDC26C",
"D c #EFC36D",
"F c #F2C46E",
"G c #F5C570",
"H c #F5C670",
"J c #F5C770",
"K c #F6C771",
"L c #F6C871",
"P c #F7C971",
"I c #F7CA71",
"U c #F7C972",
"Y c #F7CA72",
"T c #F8C972",
"R c #FACC73",
"E c #FACC74",
"W c #FACD74",
"Q c #FBCE74",
"! c #FBCE75",
"~ c #FCCE75",
"^ c #FCCF75",
"/ c #FDCF75",
"( c #FDCF76",
") c #FDD076",
"_ c #FED076",
"` c #FED177",
"' c #FED277",
"] c #FFD277",
"[ c #FFD278",
"{ c #FFD378",
"} c None",
/* pixels */
"}}}}}}}}}}}}}}}}}}}}}}}}}}}}}}}}}}}}}}}}}}}}}}}}}}}}}}}}}}}}}}}}",
"}}}}}}}}}}}}}}}}}}}}}}}}}}}}}}}}}}}}}}}}}}}}}}}}}}}}}}}}}}}}}}}}",
"}}}}}}}}}}}}}}}}}}}}}}}}}}}}}}}}}}}}}}}}}}}}}}}}}}}}}}}}}}}}}}}}",
"}}}}}}}}}}}}}}}}}}}}}}}}}}}}}}}}}}}}}}}}}}}}}}}}}}}}}}}}}}}}}}}}",
"}}}}}}}}}}}}}}}}}}}}}}}}}}}}}}}}}}}}}}}}}}}}}}}}}}}}}}}}}}}}}}}}",
"}}}}}}}}}}}}}}}}}}}}}}}}}}}}}}}}}}}}}}}}}}}}}}}}}}}}}}}}}}}}}}}}",
"}}}}}}}}}}}}}}}}}}}}}}}}}}}}}}}}}}}}}}}}}}}}}}}}}}}}}}}}}}}}}}}}",
"}}}}}}}}}}}}}}}}}}}}}}}}}}}}}}}}}}}}}}}}}}}}}}}}}}}}}}}}}}}}}}}}",
"}}}}}}}}}}}}}}}}}}}}}}}}}}}}}}}}}}}}}}}}}}}}}}}}}}}}}}}}}}}}}}}}",
"}}}}}}}}}}}}}}}}}}}}}}}}}}}}}}}}}}}}}}}}}}}}}}}}}}}}}}}}}}}}}}}}",
"}}}}}}}}}}}}}}}}}}}}}}}}}}}}}}}}}}}}}}}}}}}}}}}}}}}}}}}}}}}}}}}}",
"}}}}}}}}}}}}}}}}}}}}}}}}}}}}}}}}}}}}}}}}}}}}}}}}}}}}}}}}}}}}}}}}",
"}}}}}}}}}}}}}}}}}}}}}}}}}}}}}}}}}}}}}}}}}}}}}}}}}}}}}}}}}}}}}}}}",
"}}}}}}}}}}}}}}}}}}}}}}}}}}}}}}}}}}}}}}}}}}}}}}}}}}}}}}}}}}}}}}}}",
"}}}}}}}}}}}}}}}}}}}}}}}}}}}}}}}}}}}}}}}}}}}}}}}}}}}}}}}}}}}}}}}}",
"}}}}}}}}}}}}}}}}}}}}}}}}}}}}}}}}}}}}}}}}}}}}}}}}}}}}}}}}}}}}}}}}",
"}}}}}}}}}}}}}}}}}}}}}                  }}}}}}}}}}}}}}}}}}}}}}}}}",
"}}}}}}}}}}}}}}}}}}}} 330000000000000866  }}}}}}}}}}}}}}}}}}}}}}}",
"}}}}}}}}}}}}}}}}}}}} 330000000000000866  }}}}}}}}}}}}}}}}}}}}}}}",
"}}}}}}}}}}}}}}}}}}   000066544552266000    }}}}}}}}}}}}}}}}}}}}}",
"}}}}}}}}}}}}}}}}  4408866$$#######&&6008855 }}}}}}}}}}}}}}}}}}}}",
"}}}}}}}}}}}}}}}}  5500055##oooOOXX@@:2255:: }}}}}}}}}}}}}}}}}}}}",
"}}}}}}}}}}}}}}}}  5500055##oooOOXX@@:2255:: }}}}}}}}}}}}}}}}}}}}",
"}}}}}}}}}}}}}}}}  5578866           @####@@ }}}}}}}}}}}}}}}}}}}}",
"}}}}}}}}}}}}}}}}  ::68800   }}}}}}  .ooOOXX }}}}}}}}}}}}}}}}}}}}",
"}}}}}}}}}}}}}}}}  @@&6688886  }}}}}}       }}}}}}}}}}}}}}}}}}}}}",
"}}}}}}}}}}}}}}}}  @@&6688886  }}}}}}       }}}}}}}}}}}}}}}}}}}}}",
"}}}}}}}}}}}}}}}}  ++%6699rrr        }}}}}}}}}}}}}}}}}}}}}}}}}}}}",
"}}}}}}}}}}}}}}}}}}   **==ttyuuuutttt }}}}}}}}}}}}}}}}}}}}}}}}}}}",
"}}}}}}}}}}}}}}}}}}}} --;;ppgddffddff       }}}}}}}}}}}}}}}}}}}}}",
"}}}}}}}}}}}}}}}}}}}} --;;ppgddffddff       }}}}}}}}}}}}}}}}}}}}}",
"}}}}}}}}}}}}}}}}}}}}}    >>111,,11wwhkkkkhh }}}}}}}}}}}}}}}}}}}}",
"}}}}}}}}}}}}}}}}}}}}}}}  qq<<<qqqqwwjllbbnn   }}}}}}}}}}}}}}}}}}",
"}}}}}}}}}}}}}}}}}}}}}}}}}           eiimmNNMmm  }}}}}}}}}}}}}}}}",
"}}}}}}}}}}}}}}}}}}}}}}}}}           eiimmNNMmm  }}}}}}}}}}}}}}}}",
"}}}}}}}}}}}}}}}}}}       }}}}}}}}}  assFFGGHFF  }}}}}}}}}}}}}}}}",
"}}}}}}}}}}}}}}}}  JJTPPKK  }}}}}}}}}   LLUUUJJ  }}}}}}}}}}}}}}}}",
"}}}}}}}}}}}}}}}}  YYEEERR   }}}}}}}}   RREERII  }}}}}}}}}}}}}}}}",
"}}}}}}}}}}}}}}}}  YYEEERR   }}}}}}}}   RREERII  }}}}}}}}}}}}}}}}",
"}}}}}}}}}}}}}}}}  WW(~~((//!  }}}}  W((((~~(WW  }}}}}}}}}}}}}}}}",
"}}}}}}}}}}}}}}}}  QQ_]]{{{{]        {]]]][[_QQ  }}}}}}}}}}}}}}}}",
"}}}}}}}}}}}}}}}}  VVD__]]''[]]{{{{]]]{{]]``DBB  }}}}}}}}}}}}}}}}",
"}}}}}}}}}}}}}}}}  VVD__]]''[]]{{{{]]]{{]]``DBB  }}}}}}}}}}}}}}}}",
"}}}}}}}}}}}}}}}}  xxA!!///////((^^))/^^//QQVvv  }}}}}}}}}}}}}}}}",
"}}}}}}}}}}}}}}}}}}   VVSSCCZSSZZZZZZSZZSSVV   }}}}}}}}}}}}}}}}}}",
"}}}}}}}}}}}}}}}}}}}} xxxxvvxvvzzvvxxzxxccxx }}}}}}}}}}}}}}}}}}}}",
"}}}}}}}}}}}}}}}}}}}} xxxxvvxvvzzvvxxzxxccxx }}}}}}}}}}}}}}}}}}}}",
"}}}}}}}}}}}}}}}}}}}}}                      }}}}}}}}}}}}}}}}}}}}}",
"}}}}}}}}}}}}}}}}}}}}}}}}}}}}}}}}}}}}}}}}}}}}}}}}}}}}}}}}}}}}}}}}",
"}}}}}}}}}}}}}}}}}}}}}}}}}}}}}}}}}}}}}}}}}}}}}}}}}}}}}}}}}}}}}}}}",
"}}}}}}}}}}}}}}}}}}}}}}}}}}}}}}}}}}}}}}}}}}}}}}}}}}}}}}}}}}}}}}}}",
"}}}}}}}}}}}}}}}}}}}}}}}}}}}}}}}}}}}}}}}}}}}}}}}}}}}}}}}}}}}}}}}}",
"}}}}}}}}}}}}}}}}}}}}}}}}}}}}}}}}}}}}}}}}}}}}}}}}}}}}}}}}}}}}}}}}",
"}}}}}}}}}}}}}}}}}}}}}}}}}}}}}}}}}}}}}}}}}}}}}}}}}}}}}}}}}}}}}}}}",
"}}}}}}}}}}}}}}}}}}}}}}}}}}}}}}}}}}}}}}}}}}}}}}}}}}}}}}}}}}}}}}}}",
"}}}}}}}}}}}}}}}}}}}}}}}}}}}}}}}}}}}}}}}}}}}}}}}}}}}}}}}}}}}}}}}}",
"}}}}}}}}}}}}}}}}}}}}}}}}}}}}}}}}}}}}}}}}}}}}}}}}}}}}}}}}}}}}}}}}",
"}}}}}}}}}}}}}}}}}}}}}}}}}}}}}}}}}}}}}}}}}}}}}}}}}}}}}}}}}}}}}}}}",
"}}}}}}}}}}}}}}}}}}}}}}}}}}}}}}}}}}}}}}}}}}}}}}}}}}}}}}}}}}}}}}}}",
"}}}}}}}}}}}}}}}}}}}}}}}}}}}}}}}}}}}}}}}}}}}}}}}}}}}}}}}}}}}}}}}}",
"}}}}}}}}}}}}}}}}}}}}}}}}}}}}}}}}}}}}}}}}}}}}}}}}}}}}}}}}}}}}}}}}",
"}}}}}}}}}}}}}}}}}}}}}}}}}}}}}}}}}}}}}}}}}}}}}}}}}}}}}}}}}}}}}}}}",
"}}}}}}}}}}}}}}}}}}}}}}}}}}}}}}}}}}}}}}}}}}}}}}}}}}}}}}}}}}}}}}}}",
"}}}}}}}}}}}}}}}}}}}}}}}}}}}}}}}}}}}}}}}}}}}}}}}}}}}}}}}}}}}}}}}}"
};
