/* XPM */
static char *result[] = {
/* columns rows colors chars-per-pixel */
"64 64 89 1 ",
"  c #B4840E",
". c #CC9C54",
"X c #CC9D54",
"o c #CD9D54",
"O c #CF9E54",
"+ c #CE9E55",
"@ c #CF9E55",
"# c #CF9F55",
"$ c #D09F55",
"% c #D19F55",
"& c #D1A056",
"* c #D2A258",
"= c #D5A45A",
"- c #D6A65B",
"; c #D7A85C",
": c #DAA85D",
"> c #DBA85D",
", c #DAAB5D",
"< c #DCA85D",
"1 c #DCA95D",
"2 c #DCA85E",
"3 c #DCA95E",
"4 c #DCAA5E",
"5 c #DDAA5E",
"6 c #DDAA5F",
"7 c #DEAB5F",
"8 c #DAAC5E",
"9 c #DCAD5F",
"0 c #DEAC60",
"q c #DFAC60",
"w c #DFB161",
"e c #E1AF61",
"r c #E0B161",
"t c #E2B062",
"y c #E1B363",
"u c #E3B263",
"i c #E0B463",
"p c #E1B463",
"a c #E3B664",
"s c #E6B565",
"d c #E7B665",
"f c #E5B865",
"g c #E5B965",
"h c #E9B866",
"j c #E9B867",
"k c #EAB967",
"l c #E8BB67",
"z c #EABA67",
"x c #EABB67",
"c c #E9BC67",
"v c #EAB968",
"b c #EBBA68",
"n c #EABB68",
"m c #E9BE68",
"M c #EABE68",
"N c #EABE69",
"B c #EABF69",
"V c #EDBC69",
"C c #EDBD6A",
"Z c #EEBE6A",
"A c #EFBF6C",
"S c #ECC06A",
"D c #ECC16A",
"F c #EDC16A",
"G c #EDC26C",
"H c #F0C26B",
"J c #F0C06D",
"K c #F3C46F",
"L c #F5C670",
"P c #F5C770",
"I c #F6C771",
"U c #F7C971",
"Y c #F7CA71",
"T c #F7CA72",
"R c #F8C972",
"E c #FACC74",
"W c #FACD74",
"Q c #FBCE74",
"! c #FBCE75",
"~ c #FCCE75",
"^ c #FCCF75",
"/ c #FDCF75",
"( c #FDCF76",
") c #FDD076",
"_ c #FED277",
"` c #FFD277",
"' c #FFD278",
"] c #FFD378",
"[ c None",
/* pixels */
"[[[[[[[[[[[[[[[[[[[[[[[[[[[[[[[[[[[[[[[[[[[[[[[[[[[[[[[[[[[[[[[[",
"[[[[[[[[[[[[[[[[[[[[[[[[[[[[[[[[[[[[[[[[[[[[[[[[[[[[[[[[[[[[[[[[",
"[[[[[[[[[[[[[[[[[[[[[[[[[[[[[[[[[[[[[[[[[[[[[[[[[[[[[[[[[[[[[[[[",
"[[[[[[[[[[[[[[[[[[[[[[[[[[[[[[[[[[[[[[[[[[[[[[[[[[[[[[[[[[[[[[[[",
"[[[[[[[[[[[[[[[[[[[[[[[[[[[[[[[[[[[[[[[[[[[[[[[[[[[[[[[[[[[[[[[[",
"[[[[[[[[[[[[[[[[[[[[[[[[[[[[[[[[[[[[[[[[[[[[[[[[[[[[[[[[[[[[[[[[",
"[[[[[[[[[[[[[[[[[[[[[[[[[[[[[[[[[[[[[[[[[[[[[[[[[[[[[[[[[[[[[[[[",
"[[[[[[[[[[[[[[[[[[[[[[[[[[[[[[[[[[[[[[[[[[[[[[[[[[[[[[[[[[[[[[[[",
"[[[[[[[[[[[[[[[[[[[[[[[[[[[[[[[[[[[[[[[[[[[[[[[[[[[[[[[[[[[[[[[[",
"[[[[[[[[[[[[[[[[[[[[[[[[[[[[[[[[[[[[[[[[[[[[[[[[[[[[[[[[[[[[[[[[",
"[[[[[[[[[[[[[[[[[[[[[[[[[[[[[[[[[[[[[[[[[[[[[[[[[[[[[[[[[[[[[[[[",
"[[[[[[[[[[[[[[[[[[[[[[[[[[[[[[[[[[[[[[[[[[[[[[[[[[[[[[[[[[[[[[[[",
"[[[[[[[[[[[[[[[[[[[[[[[[[[[[[[[[[[[[[[[[[[[[[[[[[[[[[[[[[[[[[[[[",
"[[[[[[[[[[[[[[[[[[[[[[[[[[[[[[[[[[[[[[[[[[[[[[[[[[[[[[[[[[[[[[[[",
"[[[[[[[[[[[[[[[[[[[[[[[[[[[[[[[[[[[[[[[[[[[[[[[[[[[[[[[[[[[[[[[[",
"[[[[[[[[[[[[[[[[[[[[[[[[[[[[[[[[[[[[[[[[[[[[[[[[[[[[[[[[[[[[[[[[",
"[[[[[[[[[[[[[[[[[[[[[                     [[[[[[[[[[[[[[[[[[[[[[",
"[[[[[[[[[[[[[[[[[[[[ 117777777777776677771  [[[[[[[[[[[[[[[[[[[[",
"[[[[[[[[[[[[[[[[[[[[ 117777777777776677771  [[[[[[[[[[[[[[[[[[[[",
"[[[[[[[[[[[[[[[[[[   77774433223<333344667    [[[[[[[[[[[[[[[[[[",
"[[[[[[[[[[[[[[[[  2276644%%$$$$$$##$$&&4477722  [[[[[[[[[[[[[[[[",
"[[[[[[[[[[[[[[[[  3377733$$XXXXo.ooXXOO3367733  [[[[[[[[[[[[[[[[",
"[[[[[[[[[[[[[[[[  3356633              3375533  [[[[[[[[[[[[[[[[",
"[[[[[[[[[[[[[[[[  3356633              3375533  [[[[[[[[[[[[[[[[",
"[[[[[[[[[[[[[[[[  ::322>>  [[[[[[[[[[  3367733  [[[[[[[[[[[[[[[[",
"[[[[[[[[[[[[[[[[  @@$$$++  [[[[[[[[[[  4477733  [[[[[[[[[[[[[[[[",
"[[[[[[[[[[[[[[[[  @@$$$++  [[[[[[[[[[  4477733  [[[[[[[[[[[[[[[[",
"[[[[[[[[[[[[[[[[  +++@@++  [[[[[[[[    qqq0044  [[[[[[[[[[[[[[[[",
"[[[[[[[[[[[[[[[[[[       [[[[[[[[  eetttte==**  [[[[[[[[[[[[[[[[",
"[[[[[[[[[[[[[[[[[[[[[[[[[          ddddssu;;--  [[[[[[[[[[[[[[[[",
"[[[[[[[[[[[[[[[[[[[[[[[  hhvvvvkvvvkkjj99,    [[[[[[[[[[[[[[[[[[",
"[[[[[[[[[[[[[[[[[[[[[[[  hhvvvvkvvvkkjj99,    [[[[[[[[[[[[[[[[[[",
"[[[[[[[[[[[[[[[[[[[[[    CCVVbbxnzzxxhh998  [[[[[[[[[[[[[[[[[[[[",
"[[[[[[[[[[[[[[[[[[[[ ZZAAJJZZyywwwwrrww   [[[[[[[[[[[[[[[[[[[[[[",
"[[[[[[[[[[[[[[[[[[[[ ZZAAJJZZyywwwwrrww   [[[[[[[[[[[[[[[[[[[[[[",
"[[[[[[[[[[[[[[[[[[   LLLLKKHHaaipppppii  [[[[[[[[[[[[[[[[[[[[[[[",
"[[[[[[[[[[[[[[[[  PPRUUIIllff          [[[[[[[[[[[[[[[[[[[[[[[[[",
"[[[[[[[[[[[[[[[[  TTEEEYYccgg  [[[[[[[[[[[[[[[[[[[[[[[[[[[[[[[[[",
"[[[[[[[[[[[[[[[[  WW(~~!!    [[[[[[[[[[[[[[[[[[[[[[[[[[[[[[[[[[[",
"[[[[[[[[[[[[[[[[  WW(~~!!    [[[[[[[[[[[[[[[[[[[[[[[[[[[[[[[[[[[",
"[[[[[[[[[[[[[[[[  //```]]                     [[[[[[[[[[[[[[[[[[",
"[[[[[[[[[[[[[[[[  //]````__''``]]````]]``]]]^^  [[[[[[[[[[[[[[[[",
"[[[[[[[[[[[[[[[[  //]````__''``]]````]]``]]]^^  [[[[[[[[[[[[[[[[",
"[[[[[[[[[[[[[[[[  QQ())////////(^))//^^/////!!  [[[[[[[[[[[[[[[[",
"[[[[[[[[[[[[[[[[  SSDFFGGDDFFGGFFFFGGFFGGFDDSS  [[[[[[[[[[[[[[[[",
"[[[[[[[[[[[[[[[[  MMBMMMMBBMMBBmBMMmmMMNNMBBNN  [[[[[[[[[[[[[[[[",
"[[[[[[[[[[[[[[[[[[                            [[[[[[[[[[[[[[[[[[",
"[[[[[[[[[[[[[[[[[[                            [[[[[[[[[[[[[[[[[[",
"[[[[[[[[[[[[[[[[[[[[[[[[[[[[[[[[[[[[[[[[[[[[[[[[[[[[[[[[[[[[[[[[",
"[[[[[[[[[[[[[[[[[[[[[[[[[[[[[[[[[[[[[[[[[[[[[[[[[[[[[[[[[[[[[[[[",
"[[[[[[[[[[[[[[[[[[[[[[[[[[[[[[[[[[[[[[[[[[[[[[[[[[[[[[[[[[[[[[[[",
"[[[[[[[[[[[[[[[[[[[[[[[[[[[[[[[[[[[[[[[[[[[[[[[[[[[[[[[[[[[[[[[[",
"[[[[[[[[[[[[[[[[[[[[[[[[[[[[[[[[[[[[[[[[[[[[[[[[[[[[[[[[[[[[[[[[",
"[[[[[[[[[[[[[[[[[[[[[[[[[[[[[[[[[[[[[[[[[[[[[[[[[[[[[[[[[[[[[[[[",
"[[[[[[[[[[[[[[[[[[[[[[[[[[[[[[[[[[[[[[[[[[[[[[[[[[[[[[[[[[[[[[[[",
"[[[[[[[[[[[[[[[[[[[[[[[[[[[[[[[[[[[[[[[[[[[[[[[[[[[[[[[[[[[[[[[[",
"[[[[[[[[[[[[[[[[[[[[[[[[[[[[[[[[[[[[[[[[[[[[[[[[[[[[[[[[[[[[[[[[",
"[[[[[[[[[[[[[[[[[[[[[[[[[[[[[[[[[[[[[[[[[[[[[[[[[[[[[[[[[[[[[[[[",
"[[[[[[[[[[[[[[[[[[[[[[[[[[[[[[[[[[[[[[[[[[[[[[[[[[[[[[[[[[[[[[[[",
"[[[[[[[[[[[[[[[[[[[[[[[[[[[[[[[[[[[[[[[[[[[[[[[[[[[[[[[[[[[[[[[[",
"[[[[[[[[[[[[[[[[[[[[[[[[[[[[[[[[[[[[[[[[[[[[[[[[[[[[[[[[[[[[[[[[",
"[[[[[[[[[[[[[[[[[[[[[[[[[[[[[[[[[[[[[[[[[[[[[[[[[[[[[[[[[[[[[[[[",
"[[[[[[[[[[[[[[[[[[[[[[[[[[[[[[[[[[[[[[[[[[[[[[[[[[[[[[[[[[[[[[[[",
"[[[[[[[[[[[[[[[[[[[[[[[[[[[[[[[[[[[[[[[[[[[[[[[[[[[[[[[[[[[[[[[["
};
