/* XPM */
static char *result[] = {
/* columns rows colors chars-per-pixel */
"64 64 88 1 ",
"  c #B4840E",
". c #CC9C54",
"X c #CC9D54",
"o c #CD9D54",
"O c #CF9E54",
"+ c #CF9E55",
"@ c #CF9F55",
"# c #D09F55",
"$ c #D19F55",
"% c #D1A056",
"& c #DBA85D",
"* c #DBAB5D",
"= c #DAAB5E",
"- c #DBAB5E",
"; c #DCA85D",
": c #DCA95D",
"> c #DCA85E",
", c #DCA95E",
"< c #DCAA5E",
"1 c #DDAA5E",
"2 c #DDAA5F",
"3 c #DEAB5F",
"4 c #DAAC5E",
"5 c #DCAD5F",
"6 c #DFAC60",
"7 c #DFB161",
"8 c #E0AC60",
"9 c #E1AE61",
"0 c #E1AF61",
"q c #E2B062",
"w c #E1B363",
"e c #E3B263",
"r c #E1B463",
"t c #E3B664",
"y c #E5B464",
"u c #E6B465",
"i c #E7B665",
"p c #E8B765",
"a c #E8B766",
"s c #E9B866",
"d c #E9B966",
"f c #EAB967",
"g c #EABB67",
"h c #EAB968",
"j c #EBBA68",
"k c #E9BE68",
"l c #EABE68",
"z c #EABE69",
"x c #EABF69",
"c c #EDBC69",
"v c #EDBD69",
"b c #EEBE6A",
"n c #EFBF6C",
"m c #F0BF6B",
"M c #EBC06A",
"N c #ECC06A",
"B c #EDC16A",
"V c #EFC36B",
"C c #ECC16C",
"Z c #EDC26C",
"A c #F2C46E",
"S c #F5C570",
"D c #F5C670",
"F c #F5C770",
"G c #F6C870",
"H c #F6C871",
"J c #F7C971",
"K c #F7CA71",
"L c #F7C972",
"P c #F8C972",
"I c #F8CA72",
"U c #F8CA73",
"Y c #FACC73",
"T c #FACC74",
"R c #FACD74",
"E c #FACE74",
"W c #FBCE74",
"Q c #FBCE75",
"! c #FCCF75",
"~ c #FDCF75",
"^ c #FDCF76",
"/ c #FDD076",
"( c #FED076",
") c #FED177",
"_ c #FFD277",
"` c #FFD278",
"' c #FFD378",
"] c None",
/* pixels */
"]]]]]]]]]]]]]]]]]]]]]]]]]]]]]]]]]]]]]]]]]]]]]]]]]]]]]]]]]]]]]]]]",
"]]]]]]]]]]]]]]]]]]]]]]]]]]]]]]]]]]]]]]]]]]]]]]]]]]]]]]]]]]]]]]]]",
"]]]]]]]]]]]]]]]]]]]]]]]]]]]]]]]]]]]]]]]]]]]]]]]]]]]]]]]]]]]]]]]]",
"]]]]]]]]]]]]]]]]]]]]]]]]]]]]]]]]]]]]]]]]]]]]]]]]]]]]]]]]]]]]]]]]",
"]]]]]]]]]]]]]]]]]]]]]]]]]]]]]]]]]]]]]]]]]]]]]]]]]]]]]]]]]]]]]]]]",
"]]]]]]]]]]]]]]]]]]]]]]]]]]]]]]]]]]]]]]]]]]]]]]]]]]]]]]]]]]]]]]]]",
"]]]]]]]]]]]]]]]]]]]]]]]]]]]]]]]]]]]]]]]]]]]]]]]]]]]]]]]]]]]]]]]]",
"]]]]]]]]]]]]]]]]]]]]]]]]]]]]]]]]]]]]]]]]]]]]]]]]]]]]]]]]]]]]]]]]",
"]]]]]]]]]]]]]]]]]]]]]]]]]]]]]]]]]]]]]]]]]]]]]]]]]]]]]]]]]]]]]]]]",
"]]]]]]]]]]]]]]]]]]]]]]]]]]]]]]]]]]]]]]]]]]]]]]]]]]]]]]]]]]]]]]]]",
"]]]]]]]]]]]]]]]]]]]]]]]]]]]]]]]]]]]]]]]]]]]]]]]]]]]]]]]]]]]]]]]]",
"]]]]]]]]]]]]]]]]]]]]]]]]]]]]]]]]]]]]]]]]]]]]]]]]]]]]]]]]]]]]]]]]",
"]]]]]]]]]]]]]]]]]]]]]]]]]]]]]]]]]]]]]]]]]]]]]]]]]]]]]]]]]]]]]]]]",
"]]]]]]]]]]]]]]]]]]]]]]]]]]]]]]]]]]]]]]]]]]]]]]]]]]]]]]]]]]]]]]]]",
"]]]]]]]]]]]]]]]]]]]]]]]]]]]]]]]]]]]]]]]]]]]]]]]]]]]]]]]]]]]]]]]]",
"]]]]]]]]]]]]]]]]]]]]]]]]]]]]]]]]]]]]]]]]]]]]]]]]]]]]]]]]]]]]]]]]",
"]]]]]]]]]]]]]]]]]]]]]                  ]]]]]]]]]]]]]]]]]]]]]]]]]",
"]]]]]]]]]]]]]]]]]]]] ::33333333333332<<  ]]]]]]]]]]]]]]]]]]]]]]]",
"]]]]]]]]]]]]]]]]]]]] ::33333333333332<<  ]]]]]]]]]]]]]]]]]]]]]]]",
"]]]]]]]]]]]]]]]]]]   3333<<,>>,,;;<<333    ]]]]]]]]]]]]]]]]]]]]]",
"]]]]]]]]]]]]]]]]  >>322<<$$#######%%<3322,, ]]]]]]]]]]]]]]]]]]]]",
"]]]]]]]]]]]]]]]]  &&,,,&&++XXXoo..##,1133,, ]]]]]]]]]]]]]]]]]]]]",
"]]]]]]]]]]]]]]]]  &&,,,&&++XXXoo..##,1133,, ]]]]]]]]]]]]]]]]]]]]",
"]]]]]]]]]]]]]]]]  ++O@@++           ,3333,, ]]]]]]]]]]]]]]]]]]]]",
"]]]]]]]]]]]]]]]]  XXo..oo  ]]]]]]]  ;2233>> ]]]]]]]]]]]]]]]]]]]]",
"]]]]]]]]]]]]]]]]]]       ]]]]]]]]]  <2233,, ]]]]]]]]]]]]]]]]]]]]",
"]]]]]]]]]]]]]]]]]]       ]]]]]]]]]  <2233,, ]]]]]]]]]]]]]]]]]]]]",
"]]]]]]]]]]]]]]]]]]]]]]]]]]]]        6886622 ]]]]]]]]]]]]]]]]]]]]",
"]]]]]]]]]]]]]]]]]]]]]]]]]]] 99qq00qqqqqqq00 ]]]]]]]]]]]]]]]]]]]]",
"]]]]]]]]]]]]]]]]]]]]]]]]]]] eeuuyyuuiiiaaii   ]]]]]]]]]]]]]]]]]]",
"]]]]]]]]]]]]]]]]]]]]]]]]]]] eeuuyyuuiiiaaii   ]]]]]]]]]]]]]]]]]]",
"]]]]]]]]]]]]]]]]]]]]]]]]]]] ==**--55shhhhffhpp  ]]]]]]]]]]]]]]]]",
"]]]]]]]]]]]]]]]]]]]]]]]]]]] ==444455djjccvvcgg  ]]]]]]]]]]]]]]]]",
"]]]]]]]]]]]]]]]]]]]]]]]]]]]]        7wwbbmmnbb  ]]]]]]]]]]]]]]]]",
"]]]]]]]]]]]]]]]]]]]]]]]]]]]]        7wwbbmmnbb  ]]]]]]]]]]]]]]]]",
"]]]]]]]]]]]]]]]]]]       ]]]]]]]]]  rttAASSDAA  ]]]]]]]]]]]]]]]]",
"]]]]]]]]]]]]]]]]  FFPJJFF  ]]]]]]]]]   HHLLLFF  ]]]]]]]]]]]]]]]]",
"]]]]]]]]]]]]]]]]  HHUTTKK  ]]]]]]]]]   YYTTIGG  ]]]]]]]]]]]]]]]]",
"]]]]]]]]]]]]]]]]  HHUTTKK  ]]]]]]]]]   YYTTIGG  ]]]]]]]]]]]]]]]]",
"]]]]]]]]]]]]]]]]  zzBRRQQ  ]]]]]]]  R^^^^RRBzz  ]]]]]]]]]]]]]]]]",
"]]]]]]]]]]]]]]]]  llNWW//           '__((QQNll  ]]]]]]]]]]]]]]]]",
"]]]]]]]]]]]]]]]]]]   NNVV//`__''''___))VVCC   ]]]]]]]]]]]]]]]]]]",
"]]]]]]]]]]]]]]]]]]   NNVV//`__''''___))VVCC   ]]]]]]]]]]]]]]]]]]",
"]]]]]]]]]]]]]]]]]]]] xxNNWW~~~^^!!//~EENNll ]]]]]]]]]]]]]]]]]]]]",
"]]]]]]]]]]]]]]]]]]]]]    MMBZZBBBBBBZNN    ]]]]]]]]]]]]]]]]]]]]]",
"]]]]]]]]]]]]]]]]]]]]]]]  xxlxxkkxxllkll  ]]]]]]]]]]]]]]]]]]]]]]]",
"]]]]]]]]]]]]]]]]]]]]]]]  xxlxxkkxxllkll  ]]]]]]]]]]]]]]]]]]]]]]]",
"]]]]]]]]]]]]]]]]]]]]]]]]]              ]]]]]]]]]]]]]]]]]]]]]]]]]",
"]]]]]]]]]]]]]]]]]]]]]]]]]]]]]]]]]]]]]]]]]]]]]]]]]]]]]]]]]]]]]]]]",
"]]]]]]]]]]]]]]]]]]]]]]]]]]]]]]]]]]]]]]]]]]]]]]]]]]]]]]]]]]]]]]]]",
"]]]]]]]]]]]]]]]]]]]]]]]]]]]]]]]]]]]]]]]]]]]]]]]]]]]]]]]]]]]]]]]]",
"]]]]]]]]]]]]]]]]]]]]]]]]]]]]]]]]]]]]]]]]]]]]]]]]]]]]]]]]]]]]]]]]",
"]]]]]]]]]]]]]]]]]]]]]]]]]]]]]]]]]]]]]]]]]]]]]]]]]]]]]]]]]]]]]]]]",
"]]]]]]]]]]]]]]]]]]]]]]]]]]]]]]]]]]]]]]]]]]]]]]]]]]]]]]]]]]]]]]]]",
"]]]]]]]]]]]]]]]]]]]]]]]]]]]]]]]]]]]]]]]]]]]]]]]]]]]]]]]]]]]]]]]]",
"]]]]]]]]]]]]]]]]]]]]]]]]]]]]]]]]]]]]]]]]]]]]]]]]]]]]]]]]]]]]]]]]",
"]]]]]]]]]]]]]]]]]]]]]]]]]]]]]]]]]]]]]]]]]]]]]]]]]]]]]]]]]]]]]]]]",
"]]]]]]]]]]]]]]]]]]]]]]]]]]]]]]]]]]]]]]]]]]]]]]]]]]]]]]]]]]]]]]]]",
"]]]]]]]]]]]]]]]]]]]]]]]]]]]]]]]]]]]]]]]]]]]]]]]]]]]]]]]]]]]]]]]]",
"]]]]]]]]]]]]]]]]]]]]]]]]]]]]]]]]]]]]]]]]]]]]]]]]]]]]]]]]]]]]]]]]",
"]]]]]]]]]]]]]]]]]]]]]]]]]]]]]]]]]]]]]]]]]]]]]]]]]]]]]]]]]]]]]]]]",
"]]]]]]]]]]]]]]]]]]]]]]]]]]]]]]]]]]]]]]]]]]]]]]]]]]]]]]]]]]]]]]]]",
"]]]]]]]]]]]]]]]]]]]]]]]]]]]]]]]]]]]]]]]]]]]]]]]]]]]]]]]]]]]]]]]]",
"]]]]]]]]]]]]]]]]]]]]]]]]]]]]]]]]]]]]]]]]]]]]]]]]]]]]]]]]]]]]]]]]"
};
