/* XPM */
static char *result[] = {
/* columns rows colors chars-per-pixel */
"64 64 4 1 ",
"  c #454B54",
". c #DAE5FF",
"X c white",
"o c None",
/* pixels */
"oooooooooooooooooooooooooooooooooooooooooooooooooooooooooooooooo",
"oooooooooooooooooooooooooooooooooooooooooooooooooooooooooooooooo",
"oooooooooooooooooooooooooooooooooooooooooooooooooooooooooooooooo",
"oooooooooooooooooooooooooooooooooooooooooooooooooooooooooooooooo",
"oooooooooooooooooooooooooooooooooooooooooooooooooooooooooooooooo",
"oooooooooooooooooooooooooooooooooooooooooooooooooooooooooooooooo",
"oooooooooooooooooooooooooooooooooooooooooooooooooooooooooooooooo",
"oooooooooooooooooooooooooooooooooooooooooooooooooooooooooooooooo",
"oooooooooooooooooooooooooooooooooooooooooooooooooooooooooooooooo",
"oooooooooooooooooooooooooooooooooooooooooooooooooooooooooooooooo",
"oooooooooooooooooooooooooooooooooooooooooooooooooooooooooooooooo",
"oooooooooooooooooooooooooooooooooooooooooooooooooooooooooooooooo",
"oooooooooooooooooooooooooooooooooooooooooooooooooooooooooooooooo",
"oooooooooooooooooooooooooooooooooooooooooooooooooooooooooooooooo",
"oooooooooooooooooooooooooooooooooooooooooooooooooooooooooooooooo",
"oooooooooooooooooooooooooooooooooooooooooooooooooooooooooooooooo",
"oooooooooooooooooooooooooooooooooooooooooooooooooooooooooooooooo",
"oooooooooooooooooooooooooooooooooooooooooooooooooooooooooooooooo",
"oooooooooooooooooooooooooooooooooooooooooooooooooooooooooooooooo",
"ooooooooooooooooooooooooooo            ooooooooooooooooooooooooo",
"ooooooooooooooooooooooooooo            ooooooooooooooooooooooooo",
"ooooooooooooooooooooooooo   XXXXXXXXX    ooooooooooooooooooooooo",
"ooooooooooooooooooooooo    XXXXX.....XX  ooooooooooooooooooooooo",
"ooooooooooooooooooooooo    XXXXX.....XX  ooooooooooooooooooooooo",
"ooooooooooooooooooooooo  ..XXX      ...  ooooooooooooooooooooooo",
"ooooooooooooooooooooooo  ..X             ooooooooooooooooooooooo",
"ooooooooooooooooooooooo  ..X             ooooooooooooooooooooooo",
"ooooooooooooooooooooooo  ..XXXXXXXXXX    ooooooooooooooooooooooo",
"ooooooooooooooooooooooo  ..XXX.......XX  ooooooooooooooooooooooo",
"ooooooooooooooooooooooo  ..XXX.......XX  ooooooooooooooooooooooo",
"ooooooooooooooooooooooo  ..XXX    ...XX  ooooooooooooooooooooooo",
"ooooooooooooooooooooooo  ...        XXX  ooooooooooooooooooooooo",
"ooooooooooooooooooooooo  ...        XXX  ooooooooooooooooooooooo",
"ooooooooooooooooooooooo  .....    XXXXX  ooooooooooooooooooooooo",
"ooooooooooooooooooooooo    ............  ooooooooooooooooooooooo",
"ooooooooooooooooooooooo    ............  ooooooooooooooooooooooo",
"ooooooooooooooooooooooooo   .........    ooooooooooooooooooooooo",
"ooooooooooooooooooooooooooo            ooooooooooooooooooooooooo",
"ooooooooooooooooooooooooooo            ooooooooooooooooooooooooo",
"oooooooooooooooooooooooooooooooooooooooooooooooooooooooooooooooo",
"oooooooooooooooooooooooooooooooooooooooooooooooooooooooooooooooo",
"oooooooooooooooooooooooooooooooooooooooooooooooooooooooooooooooo",
"oooooooooooooooooooooooooooooooooooooooooooooooooooooooooooooooo",
"oooooooooooooooooooooooooooooooooooooooooooooooooooooooooooooooo",
"oooooooooooooooooooooooooooooooooooooooooooooooooooooooooooooooo",
"oooooooooooooooooooooooooooooooooooooooooooooooooooooooooooooooo",
"oooooooooooooooooooooooooooooooooooooooooooooooooooooooooooooooo",
"oooooooooooooooooooooooooooooooooooooooooooooooooooooooooooooooo",
"oooooooooooooooooooooooooooooooooooooooooooooooooooooooooooooooo",
"oooooooooooooooooooooooooooooooooooooooooooooooooooooooooooooooo",
"oooooooooooooooooooooooooooooooooooooooooooooooooooooooooooooooo",
"oooooooooooooooooooooooooooooooooooooooooooooooooooooooooooooooo",
"oooooooooooooooooooooooooooooooooooooooooooooooooooooooooooooooo",
"oooooooooooooooooooooooooooooooooooooooooooooooooooooooooooooooo",
"oooooooooooooooooooooooooooooooooooooooooooooooooooooooooooooooo",
"oooooooooooooooooooooooooooooooooooooooooooooooooooooooooooooooo",
"oooooooooooooooooooooooooooooooooooooooooooooooooooooooooooooooo",
"oooooooooooooooooooooooooooooooooooooooooooooooooooooooooooooooo",
"oooooooooooooooooooooooooooooooooooooooooooooooooooooooooooooooo",
"oooooooooooooooooooooooooooooooooooooooooooooooooooooooooooooooo",
"oooooooooooooooooooooooooooooooooooooooooooooooooooooooooooooooo",
"oooooooooooooooooooooooooooooooooooooooooooooooooooooooooooooooo",
"oooooooooooooooooooooooooooooooooooooooooooooooooooooooooooooooo",
"oooooooooooooooooooooooooooooooooooooooooooooooooooooooooooooooo"
};
