/* XPM */
static char *result[] = {
/* columns rows colors chars-per-pixel */
"64 64 7 1 ",
"  c black",
". c #412320",
"X c #434F65",
"o c #6F7F9F",
"O c #8895AF",
"+ c #A6B0C4",
"@ c None",
/* pixels */
"@@@@@@@@@@@@@@@@@@@@@@@@@@@@@@@@@@@@@@@@@@@@@@@@@@@@@@@@@@@@@@@@",
"@@@@@@@@@@@@@@@@@@@@@@@@@@@@@@@@@@@@@@@@@@@@@@@@@@@@@@@@@@@@@@@@",
"@@@@@@@@@@@@@@@@@@@@@@@@@@@@@@@@@@@@@@@@@@@@@@@@@@@@@@@@@@@@@@@@",
"@@@@@@@@@@@@@@@@@@@@@@@@@@@@@@@@@@@@@@@@@@@@@@@@@@@@@@@@@@@@@@@@",
"@@@@@@@@@@@@@@@@@@@@@@@@@@@@@@@@@@@@@@@@@@@@@@@@@@@@@@@@@@@@@@@@",
"@@@@@@@@@@@@@@@@@@@@@@@@@@@@@@@@@@@@@@@@@@@@@@@@@@@@@@@@@@@@@@@@",
"@@@@@@@@@@@@@@@@@@@@@@@@@@@@@@@@@@@@@@@@@@@@@@@@@@@@@@@@@@@@@@@@",
"@@@@@@@@@@@@@@@@@@@@@@@@@@@@@@@@@@@@@@@@@@@@@@@@@@@@@@@@@@@@@@@@",
"@@@@@@@@@@@@@@@@@@@@@@@@@@OOOOOOOOOOOO@@@@@@@@@@@@@@@@@@@@@@@@@@",
"@@@@@@@@@@@@@@@@@@@@@@@@@@OOOOOOOOOOOO@@@@@@@@@@@@@@@@@@@@@@@@@@",
"@@@@@@@@@@@@@@@@@@@@@@@@@@OOOOOOOOOOOO@@@@@@@@@@@@@@@@@@@@@@@@@@",
"@@@@@@@@@@@@@@@@@@@@@@@@@@OOOOOOOOOOOO@@@@@@@@@@@@@@@@@@@@@@@@@@",
"@@@@@@@@@@@@@@OOOOOOOOOOXXOOOOOOOOOOOOXXOOOOOOOOOO@@@@@@@@@@@@@@",
"@@@@@@@@@@@@@@OOOOOOOOOOXXOOOOOOOOOOOOXXOOOOOOOOOO@@@@@@@@@@@@@@",
"@@@@@@@@@@@@@@OOOOOOOOOOXX++++++++++++XXOOOOOOOOOO@@@@@@@@@@@@@@",
"@@@@@@@@@@@@@@OOOOOOOOOOXX++++++++++++XXOOOOOOOOOO@@@@@@@@@@@@@@",
"XXOOOOOOOOOOXXOOOOOOOOOOXXooooooooooooXXOOOOOOOOOOXXOOOOOOOOOOXX",
"XXOOOOOOOOOOXXOOOOOOOOOOXXooooooooooooXXOOOOOOOOOOXXOOOOOOOOOOXX",
"XXOOOOOOOOOOXX++++++++++XXooooooooooooXX++++++++++XXOOOOOOOOOOXX",
"XXOOOOOOOOOOXX++++++++++XXooooooooooooXX++++++++++XXOOOOOOOOOOXX",
"XXOOOOOOOOOOXXooooooooooXXooooooooooooXXooooooooooXXOOOOOOOOOOXX",
"XXOOOOOOOOOOXXooooooooooXXooooooooooooXXooooooooooXXOOOOOOOOOOXX",
"XX++++++++++XXooooooooooXXooooooooooooXXooooooooooXX++++++++++XX",
"XX++++++++++XXooooooooooXXooooooooooooXXooooooooooXX++++++++++XX",
"XXooooooooooXXoooooooooo                ooooooooooXXooooooooooXX",
"XXooooooooooXXoooooooooo                ooooooooooXXooooooooooXX",
"XXoooooooooo                                        ooooooooooXX",
"XXoooooooooo                                        ooooooooooXX",
"XXoooooooooo                                        ooooooooooXX",
"XXoooooooooo                                        ooooooooooXX",
"XXXXXXXXXXXX                                        XXXXXXXXXXXX",
"XXXXXXXXXXXX                                        XXXXXXXXXXXX",
"XX++++++++++                                        ++++++++++XX",
"XX++++++++++                                        ++++++++++XX",
"XXoooooooooo                                        ooooooooooXX",
"XXoooooooooo                                        ooooooooooXX",
"XXoooooooooo                                        ooooooooooXX",
"XXoooooooooo                                        ooooooooooXX",
"XXoooooooooo                                        ooooooooooXX",
"XXoooooooooo                                        ooooooooooXX",
"XXoooooooooo                                        ooooooooooXX",
"XXoooooooooo                                        ooooooooooXX",
"XXXXXXXXXXXX                                        XXXXXXXXXXXX",
"XXXXXXXXXXXX                                        XXXXXXXXXXXX",
"XX++++++++++                                        ++++++++++XX",
"XX++++++++++                                        ++++++++++XX",
"XXoooooooooo                                        ooooooooooXX",
"XXoooooooooo                                        ooooooooooXX",
"XXoooooooooo                                        ooooooooooXX",
"XXoooooooooo                                        ooooooooooXX",
"XXoooooooooo                                        ooooooooooXX",
"XXoooooooooo                                        ooooooooooXX",
"XXoooooooooo                                        ooooooooooXX",
"XXoooooooooo                                        ooooooooooXX",
"XXXXXXXXXXXX                                        XXXXXXXXXXXX",
"XXXXXXXXXXXX                                        XXXXXXXXXXXX",
"XX++++++++++                                        ++++++++++XX",
"XX++++++++++                                        ++++++++++XX",
"XXoooooooooo........................................ooooooooooXX",
"XXoooooooooo........................................ooooooooooXX",
"XXoooooooooo........................................ooooooooooXX",
"XXoooooooooo........................................ooooooooooXX",
"XXoooooooooo........................................ooooooooooXX",
"XXoooooooooo........................................ooooooooooXX"
};
