/* XPM */
static char *result[] = {
/* columns rows colors chars-per-pixel */
"64 64 6 1 ",
"  c #434F65",
". c #6F7F9F",
"X c #8895AF",
"o c gray68",
"O c #A6B0C4",
"+ c None",
/* pixels */
"++++++++++++++++++++++++++++++++++++++++++++++++++++++++++++++++",
"++++++++++++++++++++++++++++++++++++++++++++++++++++++++++++++++",
"++++++++++++++++++++++++++++++++++++++++++++++++++++++++++++++++",
"++++++++++++++++++++++++++++++++++++++++++++++++++++++++++++++++",
"++++++++++++++++++++++++++++++++++++++++++++++++++++++++++++++++",
"++++++++++++++++++++++++++++++++++++++++++++++++++++++++++++++++",
"++++++++++++++++++++++++++++++++++++++++++++++++++++++++++++++++",
"++++++++++++++++++++++++++++++++++++++++++++++++++++++++++++++++",
"++++++++++++++++++++++++++XXXXXXXXXXXX++++++++++++++++++++++++++",
"++++++++++++++++++++++++++XXXXXXXXXXXX++++++++++++++++++++++++++",
"++++++++++++++++++++++++++XXXXXXXXXXXX++++++++++++++++++++++++++",
"++++++++++++++++++++++++++XXXXXXXXXXXX++++++++++++++++++++++++++",
"++++++++++++++XXXXXXXXXX  XXXXXXXXXXXX  XXXXXXXXXX++++++++++++++",
"++++++++++++++XXXXXXXXXX  XXXXXXXXXXXX  XXXXXXXXXX++++++++++++++",
"++++++++++++++XXXXXXXXXX  OOOOOOOOOOOO  XXXXXXXXXX++++++++++++++",
"++++++++++++++XXXXXXXXXX  OOOOOOOOOOOO  XXXXXXXXXX++++++++++++++",
"  XXXXXXXXXX  XXXXXXXXXX  ............  XXXXXXXXXX  XXXXXXXXXX  ",
"  XXXXXXXXXX  XXXXXXXXXX  ............  XXXXXXXXXX  XXXXXXXXXX  ",
"  XXXXXXXXXX  OOOOOOOOOO  ............  OOOOOOOOOO  XXXXXXXXXX  ",
"  XXXXXXXXXX  OOOOOOOOOO  ............  OOOOOOOOOO  XXXXXXXXXX  ",
"  XXXXXXXXXX  ..........  ............  ..........  XXXXXXXXXX  ",
"  XXXXXXXXXX  ..........  ............  ..........  XXXXXXXXXX  ",
"  OOOOOOOOOO  ..........  ............  ..........  OOOOOOOOOO  ",
"  OOOOOOOOOO  ..........  ............  ..........  OOOOOOOOOO  ",
"  ..........  ..........++++++++++++++++..........  ..........  ",
"  ..........  ..........++++++++++++++++..........  ..........  ",
"  ..........++++++++++++++++++++++++++++++++++++++++..........  ",
"  ..........++++++++++++++++++++++++++++++++++++++++..........  ",
"  ..........++++++++++++++++++++++++++++++++++++++++..........  ",
"  ..........++++++++++++++++++++++++++++++++++++++++..........  ",
"            ++++++++++++++++++++++++++++++++++++++++            ",
"            ++++++++++++++++++++++++++++++++++++++++            ",
"  OOOOOOOOOO++++++++++++++++++++++++++++++++++++++++OOOOOOOOOO  ",
"  OOOOOOOOOO++++++++++++++++++++++++++++++++++++++++OOOOOOOOOO  ",
"  ..........++++++++++++++++++++++++++++++++++++++++..........  ",
"  ..........++++++++++++++++++++++++++++++++++++++++..........  ",
"  ..........++++++++++++++++++++++++++++++++++++++++..........  ",
"  ..........++++++++++++++++++++++++++++++++++++++++..........  ",
"  ..........++++++++++++++++++++++++++++++++++++++++..........  ",
"  ..........++++++++++++++++++++++++++++++++++++++++..........  ",
"  ..........++++++++++++++++++++++++++++++++++++++++..........  ",
"  ..........++++++++++++++++++++++++++++++++++++++++..........  ",
"            ++++++++++++++++++++++++++++++++++++++++            ",
"            ++++++++++++++++++++++++++++++++++++++++            ",
"  OOOOOOOOOO++++++++++++++++++++++++++++++++++++++++OOOOOOOOOO  ",
"  OOOOOOOOOO++++++++++++++++++++++++++++++++++++++++OOOOOOOOOO  ",
"  ..........++++++++++++++++++++++++++++++++++++++++..........  ",
"  ..........++++++++++++++++++++++++++++++++++++++++..........  ",
"  ..........++++++++++++++++++++++++++++++++++++++++..........  ",
"  ..........++++++++++++++++++++++++++++++++++++++++..........  ",
"  ..........++++++++++++++++++++++++++++++++++++++++..........  ",
"  ..........++++++++++++++++++++++++++++++++++++++++..........  ",
"  ..........++++++++oo++++++++++++++++++++oo++++++++..........  ",
"  ..........++++++++oo++++++++++++++++++++oo++++++++..........  ",
"            ++++++++++++++++++++++++++++++++++++++++            ",
"            ++++++++++++++++++++++++++++++++++++++++            ",
"  OOOOOOOOOO++++++++++++++++++++++++++++++++++++++++OOOOOOOOOO  ",
"  OOOOOOOOOO++++++++++++++++++++++++++++++++++++++++OOOOOOOOOO  ",
"  ..........++++++++++++++++++++++++++++++++++++++++..........  ",
"  ..........++++++++++++++++++++++++++++++++++++++++..........  ",
"  ..........++++++++++++++++++++++++++++++++++++++++..........  ",
"  ..........++++++++++++++++++++++++++++++++++++++++..........  ",
"  ..........++++++++++++++++++++++++++++++++++++++++..........  ",
"  ..........++++++++++++++++++++++++++++++++++++++++..........  "
};
