/* XPM */
static char *result[] = {
/* columns rows colors chars-per-pixel */
"64 64 7 1 ",
"  c gray1",
". c #434F65",
"X c #6F7F9F",
"o c #8895AF",
"O c gray68",
"+ c #A6B0C4",
"@ c None",
/* pixels */
"@@@@@@@@@@@@@@@@@@@@@@@@@@@@@@@@@@@@@@@@@@@@@@@@@@@@@@@@@@@@@@@@",
"@@@@@@@@@@@@@@@@@@@@@@@@@@@@@@@@@@@@@@@@@@@@@@@@@@@@@@@@@@@@@@@@",
"@@@@@@@@@@@@@@@@@@@@@@@@@@@@@@@@@@@@@@@@@@@@@@@@@@@@@@@@@@@@@@@@",
"@@@@@@@@@@@@@@@@@@@@@@@@@@@@@@@@@@@@@@@@@@@@@@@@@@@@@@@@@@@@@@@@",
"@@@@@@@@@@@@@@@@@@@@@@@@@@@@@@@@@@@@@@@@@@@@@@@@@@@@@@@@@@@@@@@@",
"@@@@@@@@@@@@@@@@@@@@@@@@@@@@@@@@@@@@@@@@@@@@@@@@@@@@@@@@@@@@@@@@",
"@@@@@@@@@@@@@@@@@@@@@@@@@@@@@@@@@@@@@@@@@@@@@@@@@@@@@@@@@@@@@@@@",
"@@@@@@@@@@@@@@@@@@@@@@@@@@@@@@@@@@@@@@@@@@@@@@@@@@@@@@@@@@@@@@@@",
"@@@@@@@@@@@@@@@@@@@@@@@@@@oooooooooooo@@@@@@@@@@@@@@@@@@@@@@@@@@",
"@@@@@@@@@@@@@@@@@@@@@@@@@@oooooooooooo@@@@@@@@@@@@@@@@@@@@@@@@@@",
"@@@@@@@@@@@@@@@@@@@@@@@@@@oooooooooooo@@@@@@@@@@@@@@@@@@@@@@@@@@",
"@@@@@@@@@@@@@@@@@@@@@@@@@@oooooooooooo@@@@@@@@@@@@@@@@@@@@@@@@@@",
"@@@@@@@@@@@@@@oooooooooo..oooooooooooo..oooooooooo@@@@@@@@@@@@@@",
"@@@@@@@@@@@@@@oooooooooo..oooooooooooo..oooooooooo@@@@@@@@@@@@@@",
"@@@@@@@@@@@@@@oooooooooo..++++++++++++..oooooooooo@@@@@@@@@@@@@@",
"@@@@@@@@@@@@@@oooooooooo..++++++++++++..oooooooooo@@@@@@@@@@@@@@",
"..oooooooooo..oooooooooo..XXXXXXXXXXXX..oooooooooo..oooooooooo..",
"..oooooooooo..oooooooooo..XXXXXXXXXXXX..oooooooooo..oooooooooo..",
"..oooooooooo..++++++++++..XXXXXXXXXXXX..++++++++++..oooooooooo..",
"..oooooooooo..++++++++++..XXXXXXXXXXXX..++++++++++..oooooooooo..",
"..oooooooooo..XXXXXXXXXX..XXXXXXXXXXXX..XXXXXXXXXX..oooooooooo..",
"..oooooooooo..XXXXXXXXXX..XXXXXXXXXXXX..XXXXXXXXXX..oooooooooo..",
"..++++++++++..XXXXXXXXXX..XXXXXXXXXXXX..XXXXXXXXXX..++++++++++..",
"..++++++++++..XXXXXXXXXX..XXXXXXXXXXXX..XXXXXXXXXX..++++++++++..",
"..XXXXXXXXXX..XXXXXXXXXX                XXXXXXXXXX..XXXXXXXXXX..",
"..XXXXXXXXXX..XXXXXXXXXX                XXXXXXXXXX..XXXXXXXXXX..",
"..XXXXXXXXXX                                        XXXXXXXXXX..",
"..XXXXXXXXXX                                        XXXXXXXXXX..",
"..XXXXXXXXXX                                        XXXXXXXXXX..",
"..XXXXXXXXXX                                        XXXXXXXXXX..",
"............                                        ............",
"............                                        ............",
"..++++++++++                                        ++++++++++..",
"..++++++++++                                        ++++++++++..",
"..XXXXXXXXXX                                        XXXXXXXXXX..",
"..XXXXXXXXXX                                        XXXXXXXXXX..",
"..XXXXXXXXXX                                        XXXXXXXXXX..",
"..XXXXXXXXXX                                        XXXXXXXXXX..",
"..XXXXXXXXXX                                        XXXXXXXXXX..",
"..XXXXXXXXXX                                        XXXXXXXXXX..",
"..XXXXXXXXXX                                        XXXXXXXXXX..",
"..XXXXXXXXXX                                        XXXXXXXXXX..",
"............                                        ............",
"............                                        ............",
"..++++++++++                                        ++++++++++..",
"..++++++++++                                        ++++++++++..",
"..XXXXXXXXXX                                        XXXXXXXXXX..",
"..XXXXXXXXXX                                        XXXXXXXXXX..",
"..XXXXXXXXXX                                        XXXXXXXXXX..",
"..XXXXXXXXXX                                        XXXXXXXXXX..",
"..XXXXXXXXXX                                        XXXXXXXXXX..",
"..XXXXXXXXXX                                        XXXXXXXXXX..",
"..XXXXXXXXXX        OO                    OO        XXXXXXXXXX..",
"..XXXXXXXXXX        OO                    OO        XXXXXXXXXX..",
"............                                        ............",
"............                                        ............",
"..++++++++++                                        ++++++++++..",
"..++++++++++                                        ++++++++++..",
"..XXXXXXXXXX                                        XXXXXXXXXX..",
"..XXXXXXXXXX                                        XXXXXXXXXX..",
"..XXXXXXXXXX                                        XXXXXXXXXX..",
"..XXXXXXXXXX                                        XXXXXXXXXX..",
"..XXXXXXXXXX                                        XXXXXXXXXX..",
"..XXXXXXXXXX                                        XXXXXXXXXX.."
};
